<svg height="533pt" viewBox="-77 -16 533 533.33331" width="533pt" xmlns="http://www.w3.org/2000/svg"><path d="m373.691406 480.941406-175.332031-284.5v-63.941406h145.441406c6.414063.089844 12.292969-3.535156 15.09375-9.300781 2.804688-5.761719 2.015625-12.628907-2.011719-17.613281l-31.351562-39.199219 31.351562-39.21875c4.019532-5.023438 4.800782-11.902344 2.007813-17.699219-2.789063-5.792969-8.652344-9.47265625-15.089844-9.46875h-153.699219c-9.242187.0117188-16.734374 7.5-16.742187 16.742188v179.699218l-94.832031 153.875-.023438.039063-80.476562 130.585937c-2.378906 3.859375-2.480469 8.695313-.273438 12.652344 2.2070315 3.953125 6.378906 6.40625 10.910156 6.40625h354.386719c4.53125 0 8.707031-2.453125 10.914063-6.40625 2.210937-3.957031 2.101562-8.792969-.273438-12.652344zm-175.332031-455.941406h128.273437l-26.875 33.632812c-3.640624 4.492188-3.640624 10.929688 0 15.421876l26.875 33.445312h-128.273437zm-12.671875 199.085938c.058594 0 .113281.011718.171875.011718s.117187-.011718.167969-.011718l78.179687 126.855468-12.117187 16.019532-31.492188-30.652344c-4.851562-4.726563-12.582031-4.726563-17.433594 0l-58.757812 57.203125-39.457031-38.417969zm-154.632812 250.914062 60.453124-98.097656 44.179688 43.007812c4.851562 4.726563 12.582031 4.726563 17.4375 0l58.753906-57.199218 32.917969 32.042968c2.570313 2.5 6.089844 3.78125 9.664063 3.511719 3.574218-.273437 6.867187-2.066406 9.027343-4.925781l14.792969-19.5625 62.382812 101.222656zm0 0"/></svg>