<svg height="533pt" viewBox="-69 -17 533 533.33235" width="533pt" xmlns="http://www.w3.org/2000/svg"><path d="m386.023438 27.09375c-3.582032-2.289062-8.097657-2.550781-11.929688-.699219l-26.820312 12.839844c-37.933594 18.207031-82.863282 13.75-116.480469-11.566406-41.058594-30.914063-95.933594-36.363281-142.269531-14.121094l-13.609376 6.601563c-6.238281-10.898438-17.84375-17.609376-30.398437-17.582032h-13.308594c-19.046875-.027344-34.511719 15.390625-34.542969 34.433594v427.96875c-.203124 19.140625 15.140626 34.820312 34.277344 35.03125h13.574219c19.183594-.058594 34.695313-15.65625 34.636719-34.851562v-221.53125l19.96875-9.441407c37.976562-18.214843 82.941406-13.753906 116.605468 11.5625 41.097657 30.914063 95.988282 36.359375 142.359376 14.125l26.644531-12.84375c4.285156-2.101562 6.96875-6.5 6.875-11.277343v-198.070313c.097656-4.253906-2.011719-8.257813-5.582031-10.578125zm-330.617188 437.875c0 5.542969-4.492188 10.035156-10.027344 10.035156h-13.683594c-5.539062 0-10.035156-4.492187-10.035156-10.035156v-427.371094c0-5.542968 4.496094-10.035156 10.035156-10.035156h13.683594c5.535156 0 10.027344 4.492188 10.027344 10.035156zm311.207031-237.109375-19.519531 9.445313c-37.910156 18.214843-82.808594 13.753906-116.394531-11.566407-41.117188-30.917969-96.03125-36.359375-142.417969-14.121093l-9.128906 4.296874v-170.363281l19.96875-9.449219c37.976562-18.207031 82.941406-13.75 116.605468 11.566407 40.996094 30.914062 95.8125 36.363281 142.089844 14.121093l8.796875-4.296874zm0 0"/></svg>