<svg height="572pt" viewBox="-18 -18 572.00902 572" width="572pt" xmlns="http://www.w3.org/2000/svg"><path d="m402.605469 255.601562h-119.355469v-119.355468c0-6.890625-5.582031-12.472656-12.472656-12.472656-6.886719 0-12.472656 5.582031-12.472656 12.472656v119.355468h-125.46875c-6.890626 0-12.472657 5.585938-12.472657 12.472657 0 6.890625 5.582031 12.472656 12.472657 12.472656h125.59375v125.59375c0 6.886719 5.585937 12.472656 12.46875 12.472656 6.890624 0 12.472656-5.585937 12.472656-12.472656v-125.59375h119.363281c6.882813-.035156 12.441406-5.648437 12.40625-12.535156-.03125-6.882813-5.644531-12.441407-12.535156-12.410157zm0 0"/><path d="m268.15625-.0742188c-108.457031-.0195312-206.242188 65.3085938-247.746094 165.5117188-41.496094 100.207031-18.542968 215.542969 58.171875 292.210938 104.703125 104.703124 274.453125 104.703124 379.152344 0 104.699219-104.695313 104.699219-274.445313 0-379.148438-50.167969-50.453125-118.429687-78.746094-189.578125-78.5742188zm0 511.3554688c-134.074219 0-243.203125-109.132812-243.203125-243.207031s109.128906-243.203125 243.203125-243.203125 243.207031 109.128906 243.207031 243.203125-109.132812 243.207031-243.207031 243.207031zm0 0"/></svg>