<svg height="533.33331pt" viewBox="-16 -16 533.33331 533.33331" width="533.33331pt" xmlns="http://www.w3.org/2000/svg"><path d="m487.5 237.5h-65.617188c-6.316406-85.273438-74.109374-153.066406-159.382812-159.382812v-65.617188c0-6.90625-5.59375-12.5-12.5-12.5s-12.5 5.59375-12.5 12.5v65.617188c-85.273438 6.316406-153.066406 74.109374-159.382812 159.382812h-65.617188c-6.90625 0-12.5 5.59375-12.5 12.5s5.59375 12.5 12.5 12.5h65.617188c6.316406 85.273438 74.109374 153.066406 159.382812 159.382812v65.617188c0 6.90625 5.59375 12.5 12.5 12.5s12.5-5.59375 12.5-12.5v-65.617188c85.273438-6.316406 153.066406-74.109374 159.382812-159.382812h65.617188c6.90625 0 12.5-5.59375 12.5-12.5s-5.59375-12.5-12.5-12.5zm-225 159.304688v-39.898438c0-6.90625-5.59375-12.5-12.5-12.5s-12.5 5.59375-12.5 12.5v39.898438c-71.453125-6.183594-128.121094-62.851563-134.304688-134.304688h39.898438c6.90625 0 12.5-5.59375 12.5-12.5s-5.59375-12.5-12.5-12.5h-39.898438c6.183594-71.453125 62.851563-128.121094 134.304688-134.304688v39.898438c0 6.90625 5.59375 12.5 12.5 12.5s12.5-5.59375 12.5-12.5v-39.898438c71.453125 6.183594 128.121094 62.851563 134.304688 134.304688h-39.898438c-6.90625 0-12.5 5.59375-12.5 12.5s5.59375 12.5 12.5 12.5h39.898438c-6.183594 71.453125-62.851563 128.121094-134.304688 134.304688zm0 0"/><path d="m250 191.585938c-32.261719 0-58.414062 26.152343-58.414062 58.414062s26.152343 58.414062 58.414062 58.414062 58.414062-26.152343 58.414062-58.414062c-.035156-32.246094-26.167968-58.378906-58.414062-58.414062zm0 91.828124c-18.457031 0-33.414062-14.957031-33.414062-33.414062s14.957031-33.414062 33.414062-33.414062 33.414062 14.957031 33.414062 33.414062c-.019531 18.445312-14.96875 33.394531-33.414062 33.414062zm0 0"/></svg>