<svg height="559pt" viewBox="-30 -17 559 559.99808" width="559pt" xmlns="http://www.w3.org/2000/svg"><path d="m474.042969 251.390625c0-123.871094-100.746094-224.738281-224.738281-224.738281-123.988282 0-224.734376 100.746094-224.734376 224.738281.082032 84.027344 46.984376 161.007813 121.617188 199.613281l-52.746094 52.746094c-2.34375 2.335938-3.65625 5.507812-3.65625 8.8125s1.3125 6.476562 3.65625 8.8125c2.34375 2.363281 5.546875 3.667969 8.871094 3.621094 3.316406-.007813 6.5-1.3125 8.878906-3.621094l59.492188-59.5c25.148437 9.40625 51.773437 14.234375 78.621094 14.253906 26.855468.039063 53.488281-4.785156 78.621093-14.253906l59.496094 59.5c2.34375 2.363281 5.546875 3.667969 8.871094 3.621094 3.320312-.007813 6.5-1.3125 8.878906-3.621094 2.339844-2.335938 3.65625-5.507812 3.65625-8.8125s-1.316406-6.476562-3.65625-8.8125l-52.746094-52.746094c72.117188-37.5 121.617188-112.871094 121.617188-199.613281zm-224.738281 199.613281c-110.117188 0-199.738282-89.621094-199.738282-199.738281s89.621094-199.613281 199.738282-199.613281c110.117187 0 199.742187 89.617187 199.742187 199.738281s-89.625 199.613281-199.742187 199.613281zm0 0"/><path d="m345.046875 297.511719-83.242187-45.367188v-123.121093c0-6.902344-5.59375-12.496094-12.5-12.496094-6.902344 0-12.496094 5.59375-12.496094 12.496094v130.617187c0 4.578125 2.488281 8.789063 6.496094 10.996094l89.746093 49c1.851563.976562 3.90625 1.492187 6 1.5 5.746094-.003907 10.761719-3.910157 12.179688-9.480469 1.414062-5.570312-1.128907-11.394531-6.183594-14.144531zm0 0"/><path d="m495.414062 100.398438-96.621093-96.621094c-4.863281-4.859375-12.75-4.859375-17.621094 0-4.867187 4.871094-4.867187 12.757812 0 17.628906l96.621094 96.617188c2.34375 2.359374 5.546875 3.667968 8.871093 3.625 3.316407-.015626 6.5-1.3125 8.878907-3.625 4.773437-4.925782 4.71875-12.765626-.128907-17.625zm0 0"/><path d="m117.5625 3.65625c-2.335938-2.34375-5.503906-3.65625-8.808594-3.65625-3.3125 0-6.480468 1.3125-8.8125 3.65625l-96.621094 96.621094c-2.339843 2.332031-3.65625 5.503906-3.65625 8.808594 0 3.308593 1.316407 6.476562 3.65625 8.8125 2.34375 2.363281 5.546876 3.671874 8.875 3.628906 3.316407-.015625 6.496094-1.316406 8.875-3.628906l96.617188-96.621094c4.777344-4.921875 4.722656-12.765625-.125-17.621094zm0 0"/></svg>