<svg height="532pt" viewBox="-44 -17 532 532.00051" width="532pt" xmlns="http://www.w3.org/2000/svg"><path d="m437.953125 320.167969-42.417969-36.691407c-.035156-.035156-.074218-.058593-.113281-.09375-.140625-.121093-.292969-.226562-.4375-.339843-.148437-.117188-.328125-.253907-.496094-.375-.152343-.101563-.304687-.199219-.460937-.296875-.175782-.113282-.355469-.222656-.53125-.324219-.160156-.089844-.320313-.167969-.480469-.25-.183594-.09375-.375-.183594-.558594-.269531-.167969-.078125-.335937-.144532-.507812-.210938-.191407-.074218-.386719-.148437-.578125-.210937-.171875-.058594-.347656-.117188-.523438-.164063-.203125-.058594-.414062-.113281-.621094-.164062-.171874-.039063-.34375-.082032-.519531-.109375-.238281-.050781-.476562-.078125-.71875-.113281-.140625-.019532-.289062-.042969-.433593-.058594-.789063-.074219-1.582032-.074219-2.367188 0-.152344.015625-.296875.039062-.445312.058594-.238282.035156-.476563.066406-.710938.113281-.175781.03125-.347656.070312-.523438.117187-.199218.042969-.40625.097656-.605468.15625-.179688.046875-.355469.105469-.535156.164063-.179688.0625-.375.136719-.566407.210937-.195312.070313-.34375.140625-.515625.210938-.171875.078125-.371094.171875-.550781.265625-.179687.089843-.324219.167969-.488281.257812-.160156.09375-.347656.207031-.523438.320313-.175781.109375-.3125.195312-.464844.300781-.15625.105469-.328124.242187-.492187.367187-.160156.125-.296875.222657-.4375.34375-.039063.035157-.078125.058594-.117187.09375l-42.414063 36.691407c-5.207031 4.503906-5.773437 12.382812-1.265625 17.585937 4.507812 5.207032 12.382812 5.777344 17.589844 1.269532l21.769531-18.828126c-.679687 80.152344-62.378906 146.558594-142.265625 153.121094v-277.558594h35.160156c6.886719 0 12.46875-5.582031 12.46875-12.46875 0-6.886718-5.582031-12.46875-12.46875-12.46875h-35.160156v-44.140624c32.261719-6.414063 54.394531-36.257813 51.175781-68.992188-3.222656-32.734375-30.753906-57.6875-63.644531-57.6875-32.898438 0-60.425781 24.953125-63.644531 57.6875-3.226563 32.734375 18.910156 62.578125 51.175781 68.992188v44.140624h-35.160156c-6.890625 0-12.46875 5.582032-12.46875 12.46875 0 6.886719 5.578125 12.46875 12.46875 12.46875h35.160156v277.558594c-79.890625-6.5625-141.589844-72.96875-142.273438-153.121094l21.777344 18.828126c5.183594 4.535156 13.058594 4.007812 17.59375-1.175782s4.007813-13.058594-1.175781-17.59375l-.105469-.089844-42.414062-36.6875c-.039063-.035156-.078125-.0625-.117188-.09375-.140625-.125-.285156-.230468-.4375-.34375-.148437-.113281-.328125-.25-.496094-.375-.148437-.101562-.304687-.195312-.453124-.292968-.179688-.113282-.355469-.222656-.535157-.324219-.164062-.089844-.324219-.171875-.484375-.25-.179687-.097656-.371094-.183594-.558594-.273437-.167968-.074219-.335937-.140626-.496093-.207032-.195313-.078125-.390625-.148437-.582031-.214844-.175782-.058593-.351563-.113281-.523438-.167968-.207031-.058594-.410156-.105469-.625-.15625-.171875-.042969-.339844-.082032-.511719-.117188-.238281-.042968-.480469-.078125-.722656-.105468-.144531-.019532-.289063-.042969-.4375-.058594-.785156-.074219-1.578125-.074219-2.367187 0-.148438.015625-.296876.039062-.441407.058594-.238281.027343-.476562.0625-.710937.105468-.175782.035156-.351563.078125-.523438.117188-.203125.050781-.402344.097656-.609375.15625-.179687.054687-.355469.113281-.527343.171875-.183594.058593-.375.132812-.570313.203125-.191406.074218-.347656.140625-.519531.21875-.167969.074218-.363282.171875-.546875.265625-.183594.089843-.328125.164062-.488281.257812-.179688.101563-.351563.207031-.527344.316407-.167969.113281-.3125.199218-.460938.300781-.152344.109375-.328125.246093-.492187.375-.160157.132812-.296875.226562-.4375.347656-.039063.03125-.078125.058594-.117188.089844l-42.414062 36.6875c-5.09375 4.53125-5.605469 12.316406-1.144531 17.476562 4.464843 5.15625 12.242187 5.769531 17.460937 1.378907l21.804687-18.855469c.601563 98.570312 80.964844 178.582031 179.679688 178.582031 98.707031 0 179.074219-80.011719 179.671875-178.582031l21.8125 18.855469c5.210937 4.457031 13.042969 3.867187 17.527344-1.320313 4.492187-5.1875 3.945312-13.023437-1.214844-17.539063zm-256.816406-256.222657c.003906-21.546874 17.472656-39.011718 39.019531-39.011718s39.011719 17.46875 39.011719 39.011718c0 21.550782-17.464844 39.019532-39.011719 39.019532s-39.019531-17.46875-39.019531-39.019532zm0 0"/></svg>