<svg height="572pt" viewBox="-18 -18 572.00902 572" width="572pt" xmlns="http://www.w3.org/2000/svg"><path d="m268.15625-.0742188c-108.457031-.0195312-206.242188 65.3085938-247.746094 165.5117188-41.496094 100.207031-18.542968 215.542969 58.171875 292.210938 104.703125 104.703124 274.453125 104.703124 379.152344 0 104.699219-104.695313 104.699219-274.445313 0-379.148438-50.167969-50.453125-118.429687-78.746094-189.578125-78.5742188zm0 511.3554688c-134.074219 0-243.203125-109.132812-243.203125-243.207031s109.128906-243.203125 243.203125-243.203125 243.207031 109.128906 243.207031 243.203125-109.132812 243.207031-243.207031 243.207031zm0 0"/><path d="m395.621094 185.636719-161.011719 153.902343-87.804687-87.679687c-4.855469-4.855469-12.726563-4.855469-17.585938 0-4.855469 4.859375-4.855469 12.730469 0 17.589844l96.410156 96.410156c2.339844 2.351563 5.535156 3.65625 8.855469 3.613281 3.21875.03125 6.316406-1.226562 8.605469-3.492187l169.742187-162.257813c4.921875-4.769531 5.082031-12.613281.363281-17.578125-4.726562-4.960937-12.566406-5.1875-17.574218-.507812zm0 0"/></svg>