<svg height="480pt" viewBox="-18 -15 480 480" width="480pt" xmlns="http://www.w3.org/2000/svg"><path d="m431.167969 0h-332.8125c-6.855469 0-12.433594 5.523438-12.5 12.375l-2.976563 294.402344h-70.546875c-6.902343 0-12.5 5.597656-12.5 12.5v46.472656c0 44.578125 34.160157 81.160156 77.214844 84.050781.726563.128907 1.464844.199219 2.199219.199219h277.359375c.453125 0 .914062-.03125 1.363281-.078125 1 .039063 1.992188.078125 3.003906.078125 45.597656 0 82.699219-37.796875 82.699219-84.25v-353.25c0-6.90625-5.597656-12.5-12.5-12.5zm-406.335938 365.75v-33.972656h253.390625v33.972656c-.042968 22.121094 8.558594 43.386719 23.980469 59.25h-219.667969c-31.816406 0-57.703125-26.582031-57.703125-59.25zm393.835938 0c0 32.671875-25.886719 59.25-57.746094 59.25-31.816406 0-57.699219-26.582031-57.699219-59.25v-46.472656c0-6.902344-5.597656-12.5-12.5-12.5h-182.835937l2.84375-281.777344h307.9375zm0 0"/><path d="m174.667969 92.890625h58.433593c6.902344 0 12.5-5.59375 12.5-12.5s-5.597656-12.5-12.5-12.5h-58.433593c-6.898438 0-12.5 5.59375-12.5 12.5s5.601562 12.5 12.5 12.5zm0 0"/><path d="m174.667969 175.226562h169.957031c6.902344 0 12.5-5.601562 12.5-12.5 0-6.90625-5.597656-12.5-12.5-12.5h-169.957031c-6.898438 0-12.5 5.59375-12.5 12.5 0 6.898438 5.601562 12.5 12.5 12.5zm0 0"/><path d="m174.667969 257.554688h169.957031c6.902344 0 12.5-5.597657 12.5-12.5 0-6.90625-5.597656-12.5-12.5-12.5h-169.957031c-6.898438 0-12.5 5.59375-12.5 12.5 0 6.902343 5.601562 12.5 12.5 12.5zm0 0"/></svg>