<svg height="533pt" viewBox="-132 -16 533 533.33331" width="533pt" xmlns="http://www.w3.org/2000/svg"><path d="m163.484375 0c-54.035156 0-97.996094 42.636719-97.996094 95.042969v229.058593c0 32.964844 27.578125 59.785157 61.53125 59.785157 33.902344 0 61.484375-26.820313 61.484375-59.785157v-116.324218c0-6.902344-5.597656-12.5-12.5-12.5s-12.5 5.597656-12.5 12.5v116.324218c0 19.179688-16.367187 34.785157-36.535156 34.785157-20.117188 0-36.480469-15.605469-36.480469-34.785157v-229.058593c0-38.621094 32.75-70.042969 72.996094-70.042969 40.25 0 73 31.421875 73 70.042969v274.679687c.007813 58.050782-49.117187 105.277344-109.492187 105.277344-60.371094 0-109.492188-47.226562-109.492188-105.277344v-161.945312c0-6.902344-5.597656-12.5-12.5-12.5-6.90625 0-12.5 5.597656-12.5 12.5v161.945312c0 71.835938 60.332031 130.277344 134.492188 130.277344 74.160156 0 134.5-58.441406 134.5-130.277344v-274.679687c0-52.40625-43.96875-95.042969-98.007813-95.042969zm0 0"/></svg>