<svg height="560pt" viewBox="-17 -96 560.00208 560" width="560pt" xmlns="http://www.w3.org/2000/svg"><path d="m518.753906-3.382812c-3.792968-2.265626-8.496094-2.363282-12.375-.246094l-195.953125 107.347656v-96.476562c.011719-4.515626-2.425781-8.679688-6.371093-10.871094-3.929688-2.214844-8.738282-2.164063-12.625.121094l-285.308594 171.207031c-3.773438 2.277343-6.089844 6.347656-6.121094 10.75-.0234375 4.417969 2.308594 8.515625 6.121094 10.75l285.4375 171.082031c3.875 2.300781 8.6875 2.347656 12.605468.132812 3.925782-2.222656 6.363282-6.371093 6.386719-10.882812v-96.476562l195.953125 107.355468c3.886719 2.082032 8.574219 1.984375 12.371094-.253906 3.773438-2.269531 6.097656-6.34375 6.128906-10.746094v-342.042968c-.136718-4.40625-2.488281-8.453126-6.25-10.75zm-18.871094 331.796874-195.957031-107.347656c-3.878906-2.089844-8.570312-1.992187-12.367187.25-3.777344 2.269532-6.09375 6.339844-6.128906 10.742188v95.480468l-248.691407-149.089843 248.570313-148.960938v95.472657c.027344 4.402343 2.347656 8.476562 6.121094 10.75 3.792968 2.265624 8.492187 2.359374 12.375.25l196.078124-107.476563zm0 0"/></svg>