<svg height="572pt" viewBox="-18 -18 572.00902 572" width="572pt" xmlns="http://www.w3.org/2000/svg"><path d="m268.15625-.0742188c-108.457031-.0195312-206.242188 65.3085938-247.746094 165.5117188-41.496094 100.207031-18.542968 215.542969 58.171875 292.210938 104.703125 104.703124 274.453125 104.703124 379.152344 0 104.699219-104.695313 104.699219-274.445313 0-379.148438-50.167969-50.453125-118.429687-78.746094-189.578125-78.5742188zm-171.988281 440.1406248c-91.523438-91.550781-95.300781-238.746094-8.605469-334.875l343.480469 343.480469c-95.289063 86.054687-242.957031 83.1875-334.875-8.605469zm352.585937-9.105468-343.480468-343.484376c96.191406-86.527343 243.25-82.746093 334.875 8.609376 91.519531 91.546874 95.304687 238.742187 8.605468 334.875zm0 0"/></svg>