<svg height="560pt" viewBox="-17 -136 560 560" width="560pt" xmlns="http://www.w3.org/2000/svg"><path d="m512.5 63.957031h-56.375v-59.375c-.023438-6.894531-5.601562-12.480469-12.5-12.5h-431.125c-6.894531.019531-12.4804688 5.605469-12.5 12.5v263.503907c.0195312 6.894531 5.605469 12.480468 12.5 12.5h431.125c6.898438-.019532 12.476562-5.605469 12.5-12.5v-59.375h56.375c6.894531-.019532 12.480469-5.605469 12.5-12.5v-119.753907c-.019531-6.894531-5.605469-12.480469-12.5-12.5zm-12.5 119.753907h-56.375c-6.898438.019531-12.484375 5.605468-12.5 12.5v59.375h-406.125v-238.503907h406.125v59.375c.015625 6.894531 5.601562 12.480469 12.5 12.5h56.375zm0 0"/><path d="m168.5 68.085938c-2.363281-2.617188-5.722656-4.117188-9.25-4.128907h-71.875c-6.898438.019531-12.484375 5.605469-12.5 12.5v119.753907c.015625 6.894531 5.601562 12.480468 12.5 12.5h179.625c4.914062-.007813 9.367188-2.890626 11.375-7.378907 1.972656-4.53125 1.140625-9.789062-2.125-13.496093zm-68.625 115.625v-94.753907h53.75l85.25 94.753907zm0 0"/></svg>