<svg height="531pt" viewBox="-68 -16 531 531.99984" width="531pt" xmlns="http://www.w3.org/2000/svg"><path d="m359.90625 304.054688v-77.863282c0-75.203125-48.636719-139.019531-115.976562-160.308594v-16.5625c0-27.195312-22.683594-49.320312-49.882813-49.320312s-49.882813 22.125-49.882813 49.320312v16.5625c-67.339843 21.289063-115.976562 85.105469-115.976562 160.308594v77.863282c-18.988281 8.429687-31.214844 27.269531-31.175781 48.042968v25.234375c0 29.207031 24.066406 52.902344 53.277343 52.902344h67.269532c4.300781 39 37.25 68.515625 76.488281 68.515625 39.234375 0 72.183594-29.515625 76.484375-68.515625h67.269531c29.214844 0 53.28125-23.695313 53.28125-52.902344v-25.234375c.035157-20.773437-12.191406-39.613281-31.175781-48.042968zm-190.800781-254.734376c0-13.441406 11.496093-24.378906 24.941406-24.378906 13.441406 0 24.941406 10.9375 24.941406 24.378906v10.816407c-16.542969-2.417969-33.34375-2.417969-49.882812 0zm24.941406 33.945313c77.792969 0 140.917969 64.117187 140.917969 142.925781v73.101563h-281.835938v-73.101563c0-78.808594 63.128906-142.925781 140.917969-142.925781zm0 390.542969c-25.496094.0625-47.25-18.410156-51.324219-43.574219h102.644532c-4.070313 25.164063-25.828126 43.636719-51.320313 43.574219zm172.09375-96.542969c-.003906 15.480469-12.550781 28.027344-28.03125 28.027344h-288.125c-15.480469 0-28.03125-12.546875-28.03125-28.027344v-25c0-15.480469 12.550781-28.03125 28.03125-28.03125h288.125c15.480469 0 28.027344 12.550781 28.03125 28.03125zm0 0"/></svg>