<svg height="558pt" viewBox="-17 -94 558.70319 558" width="558pt" xmlns="http://www.w3.org/2000/svg"><path d="m520.402344 225.757812c-1.910156-7.5625-4.613282-14.910156-8.066406-21.910156l-57.414063-154.796875c-10.671875-32.199219-40.800781-53.917969-74.71875-53.851562-43.195313 0-78.492187 35.34375-78.691406 78.53125l-.097657 22.605469h-79.03125l-.105468-22.605469c-.144532-38.550781-28.183594-71.324219-66.246094-77.433594-38.058594-6.113281-74.949219 16.238281-87.15625 52.800781l-57.414062 154.78125c-3.453126 6.992188-6.15625 14.335938-8.066407 21.898438-.042969.15625-.078125.304687-.117187.460937-13.59375 54.996094 16.191406 111.453125 69.265625 131.269531 53.074219 19.820313 112.574219-3.292968 138.355469-53.738281l27.851562 16.425781c14.273438 8.40625 31.980469 8.433594 46.28125.078126l27.949219-16.351563c25.84375 50.371094 85.328125 73.390625 138.347656 53.542969 53.023437-19.847656 82.765625-76.269532 69.179687-131.234375-.027343-.160157-.0625-.316407-.105468-.472657zm-140.140625-205.617187c23.214843-.03125 43.816406 14.875 51.042969 36.9375.050781.144531.105468.292969.15625.4375l36.734374 99.050781c-47.328124-27.511718-107.632812-16.554687-142.257812 25.84375l.523438-108.769531c.195312-29.578125 24.214843-53.464844 53.800781-53.5zm-78.96875 101.136719-.359375 74.820312h-78.082032l-.351562-74.820312zm-208.957031-63.765625c.050781-.140625.105468-.289063.15625-.433594 8.25-25.035156 33.425781-40.398437 59.460937-36.28125 26.03125 4.109375 45.25 26.484375 45.382813 52.84375l.511718 108.75c-34.632812-42.390625-94.925781-53.335937-142.246094-25.824219zm19.234374 282.117187c-26.585937.015625-51.707031-12.191406-68.128906-33.105468-16.421875-20.90625-22.320312-48.203126-16-74.03125l6.886719-18.558594c18.070313-35.742188 58.292969-54.417969 97.257813-45.167969 38.96875 9.246094 66.503906 44.011719 66.585937 84.058594v.335937c-.125 47.757813-38.847656 86.417969-86.601563 86.46875zm160.875-40.886718c-6.5 3.796874-14.542968 3.785156-21.019531-.035157l-31.625-18.648437c2.121094-8.5 3.230469-17.214844 3.308594-25.972656 0-.097657.007813-.195313.007813-.292969v-1.246094l-.148438-31.507813h77.835938l-.136719 28.015626c0 .3125.023437.621093.042969.929687-.023438 1.007813-.042969 2.019531-.042969 3.035156-.003907 9.183594 1.132812 18.328125 3.371093 27.234375zm139.78125 40.886718c-42.640624.023438-78.949218-30.996094-85.59375-73.113281-6.644531-42.121094 18.359376-82.808594 58.9375-95.914063 40.578126-13.101562 84.652344 5.28125 103.898438 43.332032l6.886719 18.566406c6.316406 25.828125.414062 53.121094-16.003907 74.03125-16.421874 20.90625-41.539062 33.113281-68.125 33.097656zm0 0"/><path d="m111.570312 188.566406c-35.597656 0-64.460937 28.859375-64.460937 64.457032 0 35.597656 28.859375 64.457031 64.457031 64.460937 35.597656 0 64.460938-28.855469 64.460938-64.460937-.039063-35.578126-28.875-64.417969-64.457032-64.457032zm0 103.972656c-21.828124.003907-39.519531-17.6875-39.519531-39.515624 0-21.824219 17.691407-39.515626 39.515625-39.515626 21.824219-.003906 39.519532 17.6875 39.519532 39.515626-.023438 21.8125-17.699219 39.492187-39.515626 39.515624zm0 0"/><path d="m410.765625 188.566406c-35.601563 0-64.460937 28.859375-64.460937 64.457032 0 35.597656 28.855468 64.457031 64.453124 64.460937 35.601563 0 64.460938-28.855469 64.460938-64.460937-.042969-35.578126-28.875-64.417969-64.453125-64.457032zm0 103.972656c-21.828125.003907-39.523437-17.6875-39.523437-39.515624 0-21.824219 17.695312-39.515626 39.515624-39.515626 21.828126-.003906 39.523438 17.6875 39.523438 39.515626-.027344 21.8125-17.703125 39.492187-39.515625 39.515624zm0 0"/></svg>