<svg height="533pt" viewBox="-118 -17 533 533.33462" width="533pt" xmlns="http://www.w3.org/2000/svg"><path d="m290.234375 118.253906c-.339844-3.78125-2.378906-7.199218-5.535156-9.292968l-160.945313-106.875c-3.820312-2.550782-8.738281-2.777344-12.777344-.597657-4.042968 2.183594-6.546874 6.421875-6.511718 11.011719v183.976562l-89.597656-86.109374c-3.125-3.207032-7.726563-4.496094-12.0625-3.378907-4.335938 1.113281-7.746094 4.460938-8.9375 8.777344-1.191407 4.316406.019531 8.941406 3.167968 12.125.167969.167969.34375.335937.519532.5l106.910156 102.765625v37.6875l-106.925782 102.773438c-4.980468 4.789062-5.132812 12.703124-.339843 17.679687 4.789062 4.976563 12.707031 5.128906 17.683593.335937l89.582032-86.105468v183.972656c-.03125 4.59375 2.472656 8.828125 6.523437 11.011719 4.042969 2.183593 8.957031 1.953125 12.78125-.597657l160.9375-106.875c3.160157-2.097656 5.191407-5.515624 5.53125-9.296874.339844-3.773438-1.054687-7.5-3.789062-10.125l-126.453125-121.617188 126.453125-121.617188c2.734375-2.625 4.128906-6.355468 3.785156-10.128906zm-32.285156 260.578125-128.484375 85.363281v-184.710937l12.589844-12.140625zm-115.921875-146.175781-12.5625-12.136719v-184.714843l128.515625 85.363281zm0 0"/></svg>