<svg height="533pt" viewBox="-19 -16 533 533.33331" width="533pt" xmlns="http://www.w3.org/2000/svg"><path d="m461.074219 0h-427.148438c-18.65625.00390625-33.8125 15.074219-33.925781 33.730469v48.660156c-.0234375 16.71875 12.210938 30.929687 28.75 33.386719v193.363281c0 34.460937 28.410156 62.109375 62.875 62.109375h143.375v51.25h-30.261719c-6.511719-.242188-11.984375 4.835938-12.226562 11.34375-.011719.1875-.015625.382812-.011719.574219v53.082031c-.121094 6.78125 5.273438 12.378906 12.050781 12.5h85.714844c6.78125-.023438 12.257813-5.539062 12.238281-12.320312 0-.058594 0-.121094 0-.179688v-53.082031c.074219-6.511719-5.144531-11.847657-11.660156-11.925781-.195312 0-.382812 0-.574219.007812h-30.269531v-51.25h143.375c34.460938 0 62.875-27.648438 62.875-62.109375v-193.363281c16.539062-2.457032 28.773438-16.667969 28.75-33.386719v-48.660156c-.113281-18.65625-15.269531-33.72656275-33.925781-33.730469zm-183.574219 475h-60v-27.5h60zm125.875-128.75h-311.75c-20.675781 0-37.875-16.429688-37.875-37.109375v-192.890625h387.5v192.890625c0 20.679687-17.191406 37.109375-37.875 37.109375zm66.625-263.730469c0 4.820313-3.910156 8.730469-8.730469 8.730469h-427.539062c-4.820313 0-8.730469-3.910156-8.730469-8.730469v-48.789062c0-4.820313 3.910156-8.730469 8.730469-8.730469h427.539062c4.820313 0 8.730469 3.910156 8.730469 8.730469zm0 0"/></svg>