<svg height="533pt" viewBox="-81 -16 533 533.33331" width="533pt" xmlns="http://www.w3.org/2000/svg"><path d="m353.714844 81.949219h-38.753906v-69.449219c0-6.90625-5.601563-12.5-12.5-12.5h-252.085938c-30.070312 0-54.527344 23.960938-54.542969 53.472656v393.082032c0 29.46875 24.46875 53.445312 54.542969 53.445312h303.339844c6.902344 0 12.5-5.59375 12.5-12.5v-393.050781c0-6.90625-5.597656-12.5-12.5-12.5zm-303.339844-56.949219h239.585938v56.949219h-239.585938c-16.289062 0-29.542969-12.761719-29.542969-28.503907 0-15.6875 13.253907-28.445312 29.542969-28.445312zm67.636719 81.949219h74.117187v153.125l-30.730468-18.066407c-3.910157-2.300781-8.757813-2.300781-12.667969 0l-30.722657 18.066407zm223.203125 368.050781h-290.839844c-16.289062 0-29.542969-12.757812-29.542969-28.445312v-348.140626c8.839844 5.59375 19.082031 8.554688 29.542969 8.535157h42.636719v174.972656c0 4.484375 2.402343 8.625 6.292969 10.851563 3.890624 2.226562 8.675781 2.195312 12.539062-.074219l43.222656-25.417969 43.222656 25.417969c3.867188 2.269531 8.652344 2.300781 12.542969.074219 3.894531-2.226563 6.296875-6.367188 6.296875-10.851563v-174.972656h124.085938zm0 0"/></svg>