<svg height="516pt" viewBox="-45 -16 516 516" width="516pt" xmlns="http://www.w3.org/2000/svg"><path d="m363.582031 0h-305.996093c-32.847657.0351562-59.46875 26.65625-59.503907 59.5v405.75c-.019531 7.074219 4.015625 13.535156 10.378907 16.625 2.53125 1.226562 5.304687 1.867188 8.125 1.875 4.132812-.007812 8.144531-1.421875 11.371093-4 .40625-.296875.785157-.632812 1.128907-1l128.5-129.375 128.496093 129.375c.347657.367188.722657.703125 1.128907 1 5.546874 4.390625 13.117187 5.21875 19.484374 2.128906 6.367188-3.089844 10.40625-9.550781 10.386719-16.628906v-299.25h43.5c34.511719-.015625 62.488281-27.988281 62.5-62.5v-44c-.078125-32.828125-26.667969-59.421875-59.5-59.5zm-71.371093 59.5v389.875l-125.753907-126.5c-2.328125-2.398438-5.53125-3.75-8.871093-3.75-3.34375 0-6.546876 1.351562-8.878907 3.75l-125.625 126.5v-389.875c.039063-19.035156 15.464844-34.460938 34.503907-34.5h245.625c-7.152344 10.082031-10.996094 22.140625-11 34.5zm105.871093 44c-.058593 20.683594-16.816406 37.4375-37.5 37.5h-43.371093v-81.5c.039062-19.035156 15.457031-34.460938 34.496093-34.5h11.753907c19.035156.039062 34.460937 15.464844 34.496093 34.5v44zm0 0"/></svg>