<svg height="560pt" viewBox="-49 -17 560 560" width="560pt" xmlns="http://www.w3.org/2000/svg"><path d="m397.667969 0h-295.375c-34.511719.015625-62.488281 27.988281-62.5 62.5v27h-29.375c-6.90625 0-12.5 5.597656-12.5 12.5s5.59375 12.5 12.5 12.5h29.246093v82h-29.246093c-6.90625 0-12.5 5.59375-12.5 12.5 0 6.902344 5.59375 12.5 12.5 12.5h29.246093v82h-29.246093c-6.90625 0-12.5 5.597656-12.5 12.5 0 6.90625 5.59375 12.5 12.5 12.5h29.246093v82h-29.246093c-6.90625 0-12.5 5.597656-12.5 12.5s5.59375 12.5 12.5 12.5h29.246093v27c.015626 34.511719 27.988282 62.484375 62.5 62.5h295.375c34.511719-.015625 62.492188-27.988281 62.5-62.5v-400c.050782-34.488281-27.882812-62.4765625-62.371093-62.5zm-332.875 462.5v-27h29.246093c6.90625 0 12.5-5.597656 12.5-12.5s-5.59375-12.5-12.5-12.5h-29.246093v-82h29.246093c6.90625 0 12.5-5.59375 12.5-12.5 0-6.902344-5.59375-12.5-12.5-12.5h-29.246093v-82h29.246093c6.90625 0 12.5-5.597656 12.5-12.5 0-6.90625-5.59375-12.5-12.5-12.5h-29.246093v-82h29.246093c6.90625 0 12.5-5.597656 12.5-12.5s-5.59375-12.5-12.5-12.5h-29.246093v-27c.058593-20.683594 16.816406-37.441406 37.5-37.5h69.5v475h-69.5c-20.703125-.015625-37.488281-16.796875-37.5-37.5zm370.375 0c-.0625 20.683594-16.816407 37.441406-37.5 37.5h-200.875v-475h200.875c20.683593.058594 37.4375 16.816406 37.5 37.5zm0 0"/></svg>