<svg height="568pt" viewBox="-18 -28 568 568" width="568pt" xmlns="http://www.w3.org/2000/svg"><path d="m438.703125 14.058594c-6.859375-9.242188-17.671875-14.699219-29.179687-14.726563h-286.546876c-11.507812.027344-22.320312 5.484375-29.179687 14.722657l-91.316406 123.597656c-1.601563 2.148437-2.4726565 4.753906-2.480469 7.433594v330.472656c.0546875 20.035156 16.304688 36.253906 36.34375 36.273437h459.8125c20.039062-.019531 36.289062-16.238281 36.34375-36.273437v-330.472656c-.007812-2.679688-.878906-5.285157-2.480469-7.425782zm-20.109375 15.105468 76.566406 103.917969h-216.410156v-108.75h130.773438c3.609374.109375 6.964843 1.890625 9.070312 4.832031zm-304.6875 0c2.105469-2.941406 5.460938-4.722656 9.070312-4.832031h130.773438v108.75h-216.410156zm211.09375 457.667969h-117.5v-206.316406l117.5 48.960937zm171.15625 0h-146.15625v-165.667969c-.074219-5.066406-3.164062-9.597656-7.847656-11.527343l-141.863282-59.445313c-3.9375-1.613281-8.417968-1.195312-11.984374 1.128906-3.539063 2.289063-5.710938 6.1875-5.804688 10.402344v225.109375h-146.15625c-6.234375-.003906-11.304688-5.039062-11.34375-11.273437v-317.476563h482.5v317.476563c-.039062 6.234375-5.109375 11.269531-11.34375 11.273437zm0 0"/></svg>