<svg height="581pt" viewBox="-18 -40 581.33351 581" width="581pt" xmlns="http://www.w3.org/2000/svg"><path d="m482.773438 74.917969h-90.273438v-38.410157c-.085938-20.914062-17.054688-37.820312-37.96875-37.839843h-164.0625c-20.914062.019531-37.878906 16.925781-37.96875 37.839843v38.410157h-90.273438c-34.460937 0-62.226562 28.222656-62.226562 62.683593v298.566407c-.09375 34.425781 27.746094 62.410156 62.171875 62.5h420.601563c34.429687-.058594 62.289062-28.019531 62.226562-62.449219v-298.621094c0-34.457031-27.765625-62.679687-62.226562-62.679687zm-305.273438-38.410157c.070312-7.113281 5.855469-12.839843 12.96875-12.839843h164.0625c7.113281 0 12.902344 5.726562 12.96875 12.839843v38.410157h-190zm-115.273438 63.410157h420.546876c20.683593.128906 37.347656 17 37.226562 37.683593v48.566407h-495v-48.566407c-.117188-20.683593 16.542969-37.554687 37.226562-37.683593zm457.773438 111.25v63.75h-495v-63.75zm-37.226562 262.5h-420.546876c-20.605468-.046875-37.269531-16.789063-37.226562-37.394531v-136.355469h495v136.25c.101562 20.605469-16.519531 37.394531-37.125 37.5zm0 0"/></svg>