<svg height="533pt" viewBox="-64 -16 533 533.33161" width="533pt" xmlns="http://www.w3.org/2000/svg"><path d="m389.828125 0h-380.671875c-6.742188.0273438-12.1875 5.523438-12.15625 12.265625v211.300781c-.035156 20.757813 12.921875 39.3125 32.417969 46.425782l122.507812 44.246093c-4.648437 33.226563-12.832031 111.886719-12.832031 125.3125-.015625 33.375 27.03125 60.4375 60.398438 60.449219 33.371093.011719 60.433593-27.027344 60.445312-60.398438v-.050781c0-13.070312-7.855469-89.46875-12.558594-123.726562l122.671875-45.8125c19.234375-7.277344 31.949219-25.695313 31.933594-46.25v-211.261719c.160156-6.742188-5.179687-12.339844-11.921875-12.5-.078125 0-.15625 0-.234375 0zm-367.832031 25h78.75v71.734375c0 6.90625 5.59375 12.5 12.5 12.5 6.902344 0 12.496094-5.59375 12.496094-12.5v-71.734375h61.25v101.828125c0 6.902344 5.59375 12.5 12.5 12.5 6.902343 0 12.5-5.597656 12.5-12.5v-101.828125h61.246093v100.566406c0 6.90625 5.597657 12.5 12.5 12.5 6.90625 0 12.5-5.59375 12.5-12.5v-100.566406h78.746094v143.746094h-354.988281zm354.988281 198.761719c.039063 10.128906-6.203125 19.21875-15.667969 22.816406l-130.703125 48.777344c-6.441406 2.433593-10.289062 9.046875-9.214843 15.84375 4.390624 27.753906 13.511718 116.652343 13.511718 128.347656.117188 19.5625-15.652344 35.527344-35.21875 35.644531-19.570312.109375-35.53125-15.65625-35.644531-35.226562 0-.140625 0-.277344 0-.417969 0-12.433594 9.335937-103.097656 13.683594-129.445313 1.433593-7.035156-2.523438-14.050781-9.289063-16.453124l-130.535156-47.175782c-9.601562-3.523437-15.960938-12.679687-15.910156-22.90625v-29.824218h354.988281zm0 0"/><path d="m199.492188 464.296875c14.519531 0 26.289062-11.773437 26.289062-26.292969 0-14.523437-11.769531-26.292968-26.289062-26.292968-14.523438 0-26.292969 11.769531-26.292969 26.292968.015625 14.511719 11.777343 26.273438 26.292969 26.292969zm0-27.585937c.710937 0 1.289062.578124 1.289062 1.292968 0 .710938-.578125 1.292969-1.289062 1.292969-.71875 0-1.292969-.582031-1.292969-1.292969 0-.714844.578125-1.292968 1.292969-1.292968zm0 0"/></svg>