<svg height="640pt" viewBox="-20 -99 640 640" width="640pt" xmlns="http://www.w3.org/2000/svg"><path d="m179.25 211c35.691406 0 64.625-28.9375 64.625-64.625 0-35.691406-28.933594-64.625-64.625-64.625s-64.625 28.933594-64.625 64.625c.046875 35.671875 28.953125 64.578125 64.625 64.625zm0-104.125c21.882812 0 39.625 17.738281 39.625 39.625 0 21.882812-17.742188 39.625-39.625 39.625-21.886719 0-39.625-17.742188-39.625-39.625.007812-21.882812 17.742188-39.617188 39.625-39.625zm0 0"/><path d="m179.25 234.875c-26.441406-.195312-51.820312 10.417969-70.25 29.375-18.75 19.125-29 45.125-29 73.375.019531 6.894531 5.605469 12.480469 12.5 12.5h173.5c6.894531-.019531 12.480469-5.605469 12.5-12.5 0-28.25-10.25-54.25-29-73.375-18.429688-18.957031-43.804688-29.570312-70.25-29.375zm-73.375 90.25c2.140625-16.34375 9.507812-31.554688 21-43.375 13.832031-13.996094 32.695312-21.875 52.375-21.875s38.542969 7.878906 52.375 21.875c11.46875 11.832031 18.835938 27.039062 21 43.375zm0 0"/><path d="m537.5-5.25h-475c-34.511719.015625-62.484375 27.988281-62.5 62.5v317.5c.015625 34.511719 27.988281 62.484375 62.5 62.5h475c34.511719-.015625 62.484375-27.988281 62.5-62.5v-317.5c-.015625-34.511719-27.988281-62.484375-62.5-62.5zm37.5 380c-.058594 20.683594-16.816406 37.441406-37.5 37.5h-475c-20.683594-.058594-37.441406-16.816406-37.5-37.5v-317.5c.058594-20.683594 16.816406-37.441406 37.5-37.5h475c20.683594.058594 37.441406 16.816406 37.5 37.5zm0 0"/><path d="m506.75 203.5h-145.625c-6.902344 0-12.5 5.59375-12.5 12.5s5.597656 12.5 12.5 12.5h145.625c6.902344 0 12.5-5.59375 12.5-12.5s-5.597656-12.5-12.5-12.5zm0 0"/><path d="m506.75 283.5h-145.625c-6.902344 0-12.5 5.59375-12.5 12.5s5.597656 12.5 12.5 12.5h145.625c6.902344 0 12.5-5.59375 12.5-12.5s-5.597656-12.5-12.5-12.5zm0 0"/><path d="m506.75 123.5h-145.625c-6.902344 0-12.5 5.59375-12.5 12.5s5.597656 12.5 12.5 12.5h145.625c6.902344 0 12.5-5.59375 12.5-12.5s-5.597656-12.5-12.5-12.5zm0 0"/></svg>