<svg height="533pt" viewBox="-16 -63 533.33331 533" width="533pt" xmlns="http://www.w3.org/2000/svg"><path d="m218.75 9.582031c0-6.902343-5.59375-12.5-12.5-12.5h-126.25c-6.90625 0-12.5 5.597657-12.5 12.5v323.75c0 6.90625 5.59375 12.5 12.5 12.5h126.25c6.90625 0 12.5-5.59375 12.5-12.5zm-126.25 12.5h101.25v300h-101.25zm0 0"/><path d="m421.25 135.832031c0-6.902343-5.59375-12.5-12.5-12.5h-115c-6.90625 0-12.5 5.597657-12.5 12.5v198.75c0 6.90625 5.59375 12.5 12.5 12.5h115c6.90625 0 12.5-5.59375 12.5-12.5zm-115 12.5h90v173.75h-90zm0 0"/><path d="m487.5 379.582031h-475c-6.90625 0-12.5 5.597657-12.5 12.5 0 6.90625 5.59375 12.5 12.5 12.5h475c6.90625 0 12.5-5.59375 12.5-12.5 0-6.902343-5.59375-12.5-12.5-12.5zm0 0"/></svg>