<svg height="536pt" viewBox="-43 -17 536 536.00104" width="536pt" xmlns="http://www.w3.org/2000/svg"><path d="m385.4375 36.597656h-51.835938v-24.105468c0-6.902344-5.589843-12.492188-12.492187-12.492188-6.894531 0-12.488281 5.589844-12.488281 12.492188v23.980468h-171.125v-23.980468c0-6.902344-5.589844-12.492188-12.488282-12.492188-6.894531 0-12.492187 5.589844-12.492187 12.492188v23.980468h-51.835937c-34.484376.015625-62.4375 27.964844-62.453126 62.453125v341.121094c.015626 34.488281 27.96875 62.441406 62.453126 62.453125h324.757812c34.492188-.011719 62.445312-27.964844 62.453125-62.453125v-340.996094c-.007813-34.484375-27.960937-62.441406-62.453125-62.453125zm-324.757812 24.980469h51.835937v23.984375c0 6.898438 5.597656 12.488281 12.492187 12.488281 6.898438 0 12.488282-5.589843 12.488282-12.488281v-23.984375h171.003906v23.984375c0 6.898438 5.589844 12.488281 12.488281 12.488281 6.898438 0 12.492188-5.589843 12.492188-12.488281v-23.984375h51.957031c20.671875.058594 37.414062 16.800781 37.472656 37.472656v30.726563h-399.703125v-30.726563c.019531-20.6875 16.785157-37.457031 37.472657-37.472656zm324.757812 416.0625h-324.757812c-20.667969-.058594-37.40625-16.796875-37.472657-37.472656v-285.410157h399.703125v285.410157c-.058594 20.675781-16.800781 37.414062-37.472656 37.472656zm0 0"/><path d="m345.59375 262.800781h-245.066406c-6.898438 0-12.488282 5.597657-12.488282 12.492188 0 6.898437 5.589844 12.492187 12.488282 12.492187h245.066406c6.898438 0 12.492188-5.59375 12.492188-12.492187 0-6.894531-5.59375-12.492188-12.492188-12.492188zm0 0"/><path d="m242.296875 344.492188h-141.769531c-6.898438 0-12.488282 5.59375-12.488282 12.492187s5.589844 12.492187 12.488282 12.492187h141.769531c6.898437 0 12.492187-5.59375 12.492187-12.492187s-5.59375-12.492187-12.492187-12.492187zm0 0"/></svg>