<svg height="493pt" viewBox="-28 -15 493 493.33356" width="493pt" xmlns="http://www.w3.org/2000/svg"><path d="m182.808594 318.75h-43.804688c-6.945312-.03125-12.957031-4.847656-14.492187-11.625-.003907-.035156-.007813-.210938-.019531-.246094-10.257813-49.828125-10.257813-101.226562 0-151.054687 0-.035157.015624-.386719.019531-.417969 1.535156-6.785156 7.539062-11.613281 14.492187-11.65625h43.804688c20.929687 0 37.34375-16.191406 37.34375-36.792969v-69.597656c.101562-20.535156-16.464844-37.2617188-36.996094-37.359375h-18.300781c-74.941407 0-139.085938 52.367188-152.519531 124.515625l-6.203126 33.300781c-9.066406 48.535156-9.066406 98.335938 0 146.875l6.203126 33.296875c13.433593 72.144531 77.566406 124.511719 152.519531 124.511719h17.953125c20.539062.09375 37.257812-16.480469 37.34375-37.015625v-69.941406c0-20.601563-16.414063-36.792969-37.34375-36.792969zm12.34375 106.390625c.117187 6.714844-5.234375 12.246094-11.949219 12.359375-.128906 0-.261719 0-.394531 0h-17.953125c-62.90625 0-116.714844-43.773438-127.945313-104.09375l-6.195312-33.292969c-8.507813-45.519531-8.507813-92.207031 0-137.726562l6.195312-33.296875c11.230469-60.316406 65.039063-104.089844 127.945313-104.089844h17.953125c6.714844-.109375 12.242187 5.25 12.34375 11.960938v69.996093c0 6.816407-5.199219 11.792969-12.34375 11.792969h-43.804688c-18.839844.058594-35.089844 13.265625-39.003906 31.699219-.003906.042969-.011719.230469-.023438.273437-10.90625 53.054688-10.90625 107.777344 0 160.835938.011719.046875.019532.414062.023438.457031 3.914062 18.441406 20.152344 31.65625 39.003906 31.734375h43.804688c7.144531 0 12.34375 4.976562 12.34375 11.792969zm0 0"/><path d="m340.441406 47.859375c-4.824218 4.9375-4.730468 12.851563.203125 17.675781 45.335938 44.285156 70.308594 103.132813 70.308594 165.714844s-24.972656 121.429688-70.308594 165.710938c-4.960937 4.800781-5.085937 12.714843-.285156 17.675781 4.804687 4.960937 12.714844 5.089843 17.675781.289062l.082032-.078125c50.195312-49.023437 77.835937-114.222656 77.835937-183.597656s-27.640625-134.574219-77.835937-183.597656c-4.941407-4.824219-12.855469-4.726563-17.675782.207031zm0 0"/><path d="m299.929688 104.480469c-3.175782-3.167969-7.800782-4.394531-12.125-3.210938-4.328126 1.179688-7.6875 4.59375-8.808594 8.933594-1.117188 4.34375.171875 8.953125 3.382812 12.082031l.082032.078125c60.136718 58.09375 61.792968 153.941407 3.699218 214.078125-1.210937 1.25-2.441406 2.480469-3.699218 3.695313-4.960938 4.800781-5.085938 12.714843-.285157 17.675781 4.796875 4.960938 12.714844 5.085938 17.675781.289062l.078126-.085937c70.011718-67.738281 71.851562-179.40625 4.113281-249.421875-1.347657-1.398438-2.71875-2.765625-4.113281-4.113281zm0 0"/><path d="m218.5625 166.898438c-4.824219 4.9375-4.734375 12.851562.207031 17.675781 25.773438 24.878906 26.5 65.941406 1.621094 91.722656-.53125.554687-1.074219 1.09375-1.621094 1.628906-4.960937 4.796875-5.089843 12.714844-.285156 17.667969 4.796875 4.960938 12.714844 5.09375 17.667969.292969l.085937-.082031c35.652344-34.519532 36.570313-91.414063 2.050781-127.070313-.675781-.699219-1.359374-1.382813-2.050781-2.050781-4.941406-4.824219-12.859375-4.726563-17.675781.214844zm0 0"/></svg>