<svg height="533pt" viewBox="-34 -16 533 533.33331" width="533pt" xmlns="http://www.w3.org/2000/svg"><path d="m426.03125 128.75h-210.78125v-14.5625c-.089844-20.824219-16.886719-37.722656-37.714844-37.9375h-62.285156v-63.75c0-6.90625-5.597656-12.5-12.5-12.5-6.90625 0-12.5 5.59375-12.5 12.5v64.359375c-19.15625 1.949219-33.734375 18.078125-33.75 37.328125v14.5625h-19.53125c-20.679688 0-37.96875 16.972656-37.96875 37.652344v243.886718c0 20.679688 17.289062 37.210938 37.96875 37.210938h19.53125v15c-.039062 20.671875 16.695312 37.464844 37.367188 37.5h83.667968c20.742188-.007812 37.585938-16.757812 37.714844-37.5v-15h210.78125c20.679688 0 37.96875-16.53125 37.96875-37.210938v-243.886718c0-20.679688-17.289062-37.652344-37.96875-37.652344zm-389.0625 293.75c-6.894531 0-12.96875-5.316406-12.96875-12.210938v-243.886718c.214844-7.019532 5.945312-12.609375 12.96875-12.652344h19.53125v268.75zm153.28125 40c0 6.90625-5.597656 12.5-12.5 12.5h-83.75c-6.90625 0-12.5-5.59375-12.5-12.5v-348.75c0-6.90625 5.59375-12.5 12.5-12.5h83.75c6.902344 0 12.5 5.59375 12.5 12.5zm248.75-52.210938c0 6.894532-6.074219 12.210938-12.96875 12.210938h-210.78125v-268.75h210.78125c7.019531.042969 12.753906 5.632812 12.96875 12.652344zm0 0"/><path d="m402.75 202.5c0-6.90625-5.597656-12.5-12.5-12.5h-130c-6.90625 0-12.5 5.59375-12.5 12.5v52.5c0 6.90625 5.59375 12.5 12.5 12.5h130c6.902344 0 12.5-5.59375 12.5-12.5zm-23.75 40h-106.25v-27.5h106.25zm0 0"/><path d="m391.15625 305h-130.382812c-6.90625 0-12.5 5.59375-12.5 12.5s5.59375 12.5 12.5 12.5h130.382812c6.90625 0 12.5-5.59375 12.5-12.5s-5.59375-12.5-12.5-12.5zm0 0"/><path d="m391.15625 356.25h-130.382812c-6.90625 0-12.5 5.59375-12.5 12.5s5.59375 12.5 12.5 12.5h130.382812c6.90625 0 12.5-5.59375 12.5-12.5s-5.59375-12.5-12.5-12.5zm0 0"/></svg>