<svg height="572pt" viewBox="-18 -18 572.00902 572" width="572pt" xmlns="http://www.w3.org/2000/svg"><path d="m369.804688 165.804688c-2.328126-2.335938-5.492188-3.648438-8.792969-3.648438s-6.460938 1.3125-8.789063 3.648438l-84.441406 84.433593-88.800781-88.800781c-4.855469-4.855469-12.730469-4.855469-17.582031 0-4.855469 4.859375-4.855469 12.730469 0 17.589844l88.800781 88.800781-88.800781 88.796875c-2.335938 2.328125-3.648438 5.496094-3.648438 8.796875 0 3.296875 1.3125 6.457031 3.648438 8.792969 2.339843 2.351562 5.535156 3.65625 8.851562 3.613281 3.308594-.015625 6.484375-1.308594 8.859375-3.613281l88.800781-88.800782 84.433594 84.433594c2.339844 2.355469 5.535156 3.660156 8.855469 3.617188 3.308593-.015625 6.484375-1.3125 8.855469-3.617188 2.335937-2.332031 3.648437-5.496094 3.648437-8.792968 0-3.296876-1.3125-6.464844-3.648437-8.792969l-84.4375-84.433594 84.4375-84.4375c4.671874-4.972656 4.558593-12.75-.25-17.585937zm0 0"/><path d="m268.15625-.0742188c-108.457031-.0195312-206.242188 65.3085938-247.746094 165.5117188-41.496094 100.207031-18.542968 215.542969 58.171875 292.210938 104.703125 104.703124 274.453125 104.703124 379.152344 0 104.699219-104.695313 104.699219-274.445313 0-379.148438-50.167969-50.453125-118.429687-78.746094-189.578125-78.5742188zm171.992188 440.1406248c-94.785157 94.789063-249.070313 94.789063-343.980469 0-94.960938-94.980468-94.953125-248.960937.027343-343.9375 94.972657-94.964844 248.953126-94.964844 343.929688 0 94.972656 94.976563 94.988281 248.957032.023438 343.9375zm0 0"/></svg>