<svg height="560pt" viewBox="-26 -17 560 560" width="560pt" xmlns="http://www.w3.org/2000/svg"><path d="m200.582031 421.464844c-28.585937 0-51.765625 23.179687-51.765625 51.769531 0 28.585937 23.179688 51.765625 51.765625 51.765625 28.589844 0 51.769531-23.179688 51.769531-51.765625 0-28.589844-23.179687-51.769531-51.769531-51.769531zm0 78.535156c-14.785156 0-26.765625-11.984375-26.765625-26.765625 0-14.789063 11.980469-26.769531 26.765625-26.769531 14.78125 0 26.769531 11.980468 26.769531 26.769531 0 14.78125-11.988281 26.765625-26.769531 26.765625zm0 0"/><path d="m377.335938 421.464844c-28.59375 0-51.765626 23.175781-51.765626 51.769531-.007812 28.585937 23.171876 51.765625 51.761719 51.765625 28.59375 0 51.765625-23.171875 51.765625-51.765625-.027344-28.578125-23.1875-51.734375-51.761718-51.769531zm0 78.535156c-14.785157 0-26.765626-11.984375-26.765626-26.765625-.007812-14.78125 11.980469-26.769531 26.761719-26.769531 14.785157 0 26.765625 11.980468 26.765625 26.769531-.011718 14.773437-11.984375 26.746094-26.761718 26.765625zm0 0"/><path d="m495.648438 160h-60.617188v-75.605469c-.039062-2.394531-.757812-4.722656-2.066406-6.71875l-45.882813-71.894531c-2.320312-3.601562-6.3125-5.78125-10.59375-5.78125h-144.617187c-4.265625 0-8.242188 2.179688-10.539063 5.78125l-45.710937 71.894531c-1.242188 2.015625-1.878906 4.351563-1.839844 6.71875v75.605469h-50.570312l-4.914063-26.90625c-4.210937-26.96875-27.449219-46.851562-54.75-46.84375h-51.628906c-6.90625 0-12.5 5.59375-12.5 12.5s5.59375 12.5 12.5 12.5h51.628906c15.015625-.042969 27.804687 10.894531 30.082031 25.726562.019532.101563.035156.226563.054688.328126l39.90625 216.671874c5.09375 26.027344 27.917968 44.796876 54.441406 44.773438h253.914062c6.898438 0 12.5-5.59375 12.5-12.5s-5.601562-12.5-12.5-12.5h-253.914062c-14.523438.039062-27.039062-10.203125-29.875-24.449219l-1.5-8.050781h250.390625c23.554687.007812 44.546875-14.867188 52.34375-37.101562l47.960937-127.65625c1.441407-3.773438.902344-8.015626-1.429687-11.3125-2.359375-3.320313-6.203125-5.257813-10.273437-5.179688zm-170.617188 86.25h-41.25v-78.898438l41.25 17.199219zm17.164062-81.539062-66.105468-27.679688c-3.855469-1.621094-8.265625-1.195312-11.746094 1.117188-3.480469 2.320312-5.566406 6.226562-5.5625 10.410156v97.691406h-60v-148.75h211.25v148.75h-60v-70.007812c-.074219-5.070313-3.152344-9.601563-7.835938-11.53125zm57.328126-92.210938h-83.242188v-47.5h53.351562zm-160.796876-47.5h52.554688v47.5h-82.445312zm197.207032 270.738281c-.039063.097657-.070313.0625-.105469.164063-4.273437 12.226562-15.832031 20.402344-28.78125 20.347656h-255l-24.238281-131.25h45.972656v74.210938c-.074219 6.574218 5.207031 11.964843 11.78125 12.039062h236.753906c6.90625 0 12.714844-5.136719 12.714844-12.039062v-74.210938h42.570312zm0 0"/></svg>