<svg height="533pt" viewBox="-91 -16 533 533.33331" width="533pt" xmlns="http://www.w3.org/2000/svg"><path d="m332.289062 281.25h-149.621093v-62.5h75.625c3.050781.101562 6.015625-1.015625 8.242187-3.101562 2.226563-2.085938 3.535156-4.976563 3.632813-8.023438.007812-.265625.007812-.535156 0-.796875v-115.171875c0-6.90625-4.976563-12.90625-11.875-12.90625h-75.625v-66.25c0-6.90625-5.597657-12.5-12.5-12.5-6.90625 0-12.5 5.59375-12.5 12.5v66.25h-75.621094c-6.90625 0-11.875 6-11.875 12.90625v115.164062c-.234375 6.351563 4.722656 11.695313 11.074219 11.929688.269531.007812.53125.007812.800781 0h75.621094v62.5h-149.625c-6.90625 0-12.875 5.023438-12.875 11.929688v126.695312c.167969 7 5.871093 12.589844 12.875 12.625h149.625v55c0 6.90625 5.59375 12.5 12.5 12.5 6.902343 0 12.5-5.59375 12.5-12.5v-55h149.621093c7.003907-.03125 12.710938-5.625 12.878907-12.625v-126.695312c0-6.90625-5.972657-11.929688-12.878907-11.929688zm-237.121093-177.5h150v90h-150zm225 303.75h-300v-101.25h300zm0 0"/></svg>