<svg height="533pt" viewBox="-16 -91 533.33331 533" width="533pt" xmlns="http://www.w3.org/2000/svg"><path d="m487.5 157.667969h-66.25v-75.621094c0-6.90625-6-11.875-12.90625-11.875h-115.164062c-6.351563-.234375-11.695313 4.722656-11.929688 11.074219-.007812.269531-.007812.53125 0 .800781v75.621094h-62.5v-149.625c0-6.90625-5.023438-12.875-11.929688-12.875h-126.695312c-7 .167969-12.589844 5.871093-12.625 12.875v149.625h-55c-6.90625 0-12.5 5.59375-12.5 12.5 0 6.902343 5.59375 12.5 12.5 12.5h55v149.621093c.035156 7.003907 5.625 12.707032 12.625 12.878907h126.695312c6.90625 0 11.929688-5.972657 11.929688-12.878907v-149.621093h62.5v75.625c-.101562 3.050781 1.015625 6.015625 3.101562 8.242187 2.085938 2.226563 4.976563 3.535156 8.023438 3.632813.265625.007812.535156.007812.796875 0h115.171875c6.90625 0 12.90625-4.976563 12.90625-11.875v-75.625h66.25c6.90625 0 12.5-5.597657 12.5-12.5 0-6.90625-5.59375-12.5-12.5-12.5zm-395 162.5v-300h101.25v300zm213.75-75v-150h90v150zm0 0"/></svg>