<svg height="560pt" viewBox="-17 -136 560 560" width="560pt" xmlns="http://www.w3.org/2000/svg"><path d="m512.5 63.957031h-56.375v-59.375c-.023438-6.894531-5.601562-12.480469-12.5-12.5h-431.125c-6.894531.019531-12.4804688 5.605469-12.5 12.5v263.503907c.0195312 6.894531 5.605469 12.480468 12.5 12.5h431.125c6.898438-.019532 12.476562-5.605469 12.5-12.5v-59.375h56.375c6.894531-.019532 12.480469-5.605469 12.5-12.5v-119.753907c-.019531-6.894531-5.605469-12.480469-12.5-12.5zm-12.5 119.753907h-56.375c-6.898438.019531-12.484375 5.605468-12.5 12.5v59.375h-406.125v-238.503907h406.125v59.375c.015625 6.894531 5.601562 12.480469 12.5 12.5h56.375zm0 0"/><path d="m370.25 63.957031h-282.875c-6.898438.019531-12.484375 5.605469-12.5 12.5v119.753907c.015625 6.894531 5.601562 12.480468 12.5 12.5h282.875c6.894531-.019532 12.480469-5.605469 12.5-12.5v-119.753907c.015625-3.320312-1.300781-6.503906-3.648438-8.851562-2.347656-2.34375-5.53125-3.65625-8.851562-3.648438zm-12.5 119.753907h-257.875v-94.753907h257.875zm0 0"/></svg>