<svg height="560pt" viewBox="-17 -35 560 560" width="560pt" xmlns="http://www.w3.org/2000/svg"><path d="m123.25 148.832031c-25.820312 0-46.75 20.933594-46.75 46.75 0 25.820313 20.929688 46.753907 46.75 46.753907 25.816406 0 46.75-20.933594 46.75-46.753907-.046875-25.796875-20.953125-46.699219-46.75-46.75zm0 68.503907c-12.007812 0-21.75-9.742188-21.75-21.753907s9.742188-21.75 21.75-21.75c12.015625 0 21.75 9.738281 21.75 21.75-.007812 12.011719-9.742188 21.742188-21.75 21.753907zm0 0"/><path d="m260.25 148.832031c-25.820312 0-46.75 20.933594-46.75 46.75 0 25.820313 20.929688 46.753907 46.75 46.753907s46.75-20.933594 46.75-46.753907c-.046875-25.796875-20.949219-46.699219-46.75-46.75zm0 68.503907c-12.011719 0-21.75-9.742188-21.75-21.753907s9.738281-21.75 21.75-21.75 21.75 9.738281 21.75 21.75c-.007812 12.011719-9.738281 21.742188-21.75 21.753907zm0 0"/><path d="m397.25 148.832031c-25.820312 0-46.75 20.933594-46.75 46.75 0 25.820313 20.929688 46.753907 46.75 46.753907s46.75-20.933594 46.75-46.753907c-.050781-25.796875-20.953125-46.699219-46.75-46.75zm0 68.503907c-12.011719 0-21.75-9.742188-21.75-21.753907s9.738281-21.75 21.75-21.75 21.75 9.738281 21.75 21.75c-.011719 12.011719-9.742188 21.742188-21.75 21.753907zm0 0"/><path d="m462.5-1.167969h-400c-34.511719.015625-62.484375 27.988281-62.5 62.5v269.875c.015625 34.515625 27.988281 62.488281 62.5 62.5h105.75l52.25 86.375c0 .128907.125.128907.125.25 3.558594 5.605469 9.734375 9 16.375 9 6.636719 0 12.8125-3.394531 16.375-9 0-.121093.125-.121093.125-.25l52.25-86.375h156.75c34.511719-.011719 62.484375-27.984375 62.5-62.5v-269.875c-.015625-34.511719-27.988281-62.484375-62.5-62.5zm37.5 332.375c-.058594 20.6875-16.816406 37.441407-37.5 37.5h-163.875c-4.375.015625-8.445312 2.28125-10.75 6l-50.875 84.375-51-84.375c-2.285156-3.746093-6.359375-6.019531-10.75-6h-112.75c-20.683594-.058593-37.441406-16.8125-37.5-37.5v-269.875c.058594-20.683593 16.816406-37.441406 37.5-37.5h400c20.683594.058594 37.441406 16.816407 37.5 37.5zm0 0"/></svg>