<svg height="569pt" viewBox="-22 -18 569 569.33354" width="569pt" xmlns="http://www.w3.org/2000/svg"><path d="m261.859375 0c-144.480469 0-262.007813 117.527344-262.007813 262.007812 0 144.480469 117.527344 262.007813 262.007813 262.007813 29.886719-.007813 59.558594-5.152344 87.710937-15.222656l141.605469 24.828125c.703125.101562 1.410157.140625 2.121094.125 4.171875-.027344 8.058594-2.128906 10.363281-5.609375 2.304688-3.484375 2.722656-7.878907 1.113282-11.734375l-38.550782-90.703125c37.40625-46.34375 57.757813-104.136719 57.640625-163.691407 0-144.480468-117.527343-262.007812-262.003906-262.007812zm220.832031 348.34375c-9.644531 24.472656-23.304687 47.15625-40.425781 67.125-3.105469 3.582031-3.878906 8.625-1.992187 12.972656l32.558593 76.609375-122.269531-21.335937c-.703125-.101563-1.40625-.148438-2.121094-.121094-1.484375-.007812-2.960937.246094-4.367187.746094-26.300781 9.800781-54.144531 14.828125-82.214844 14.847656-130.757813 0-237.054687-106.304688-237.054687-237.054688 0-130.753906 106.296874-237.054687 237.054687-237.054687 130.753906 0 237.050781 106.300781 237.050781 237.054687.089844 29.5-5.414062 58.757813-16.21875 86.210938zm0 0"/><path d="m353.058594 197.003906-118.527344 113.285156-63.628906-63.628906c-4.855469-4.859375-12.730469-4.859375-17.589844 0s-4.859375 12.734375 0 17.59375l72.238281 72.238282c2.335938 2.359374 5.535157 3.664062 8.859375 3.621093 3.21875.027344 6.320313-1.230469 8.605469-3.496093l127.386719-121.644532c2.382812-2.28125 3.769531-5.421875 3.835937-8.71875.070313-3.300781-1.171875-6.492187-3.460937-8.875-4.800782-4.96875-12.710938-5.136718-17.71875-.375zm0 0"/></svg>