<svg height="569pt" viewBox="-22 -18 569 569.33354" width="569pt" xmlns="http://www.w3.org/2000/svg"><path d="m261.859375 0c-144.480469 0-262.007813 117.527344-262.007813 262.007812 0 144.480469 117.527344 262.007813 262.007813 262.007813 29.886719-.007813 59.558594-5.152344 87.710937-15.222656l141.605469 24.828125c.703125.101562 1.410157.140625 2.121094.125 4.171875-.027344 8.058594-2.128906 10.363281-5.609375 2.304688-3.484375 2.722656-7.878907 1.113282-11.734375l-38.550782-90.703125c37.40625-46.34375 57.757813-104.136719 57.640625-163.691407 0-144.480468-117.527343-262.007812-262.003906-262.007812zm220.832031 348.34375c-9.644531 24.472656-23.304687 47.15625-40.425781 67.125-3.105469 3.582031-3.878906 8.625-1.992187 12.972656l32.558593 76.609375-122.269531-21.335937c-.703125-.101563-1.40625-.148438-2.121094-.121094-1.484375-.007812-2.960937.246094-4.367187.746094-26.300781 9.800781-54.144531 14.828125-82.214844 14.847656-130.757813 0-237.054687-106.304688-237.054687-237.054688 0-130.753906 106.296874-237.054687 237.054687-237.054687 130.753906 0 237.050781 106.300781 237.050781 237.054687.027344 29.496094-5.476562 58.738282-16.21875 86.210938zm0 0"/><path d="m368.285156 226.199219c-22.46875 0-40.675781 18.210937-40.675781 40.671875 0 22.46875 18.207031 40.675781 40.675781 40.675781 22.460938 0 40.667969-18.207031 40.667969-40.675781-.003906-22.457032-18.210937-40.664063-40.667969-40.671875zm0 56.394531c-8.6875 0-15.722656-7.039062-15.722656-15.722656 0-8.679688 7.035156-15.71875 15.722656-15.71875 8.679688 0 15.714844 7.039062 15.714844 15.71875-.003906 8.679687-7.042969 15.710937-15.714844 15.722656zm0 0"/><path d="m261.859375 226.199219c-22.464844 0-40.675781 18.210937-40.675781 40.671875 0 22.46875 18.210937 40.675781 40.675781 40.675781 22.460937 0 40.667969-18.207031 40.667969-40.675781 0-22.457032-18.207032-40.664063-40.667969-40.671875zm0 56.394531c-8.6875 0-15.722656-7.039062-15.722656-15.722656 0-8.679688 7.035156-15.71875 15.722656-15.71875 8.679687 0 15.714844 7.039062 15.714844 15.71875-.003907 8.679687-7.035157 15.710937-15.714844 15.722656zm0 0"/><path d="m155.433594 226.199219c-22.464844 0-40.675782 18.210937-40.675782 40.671875 0 22.46875 18.210938 40.675781 40.675782 40.675781 22.460937 0 40.671875-18.207031 40.671875-40.675781-.003907-22.457032-18.210938-40.664063-40.671875-40.671875zm0 56.394531c-8.683594 0-15.722656-7.039062-15.722656-15.722656 0-8.679688 7.039062-15.71875 15.722656-15.71875 8.679687 0 15.71875 7.039062 15.71875 15.71875-.007813 8.679687-7.039063 15.710937-15.71875 15.722656zm0 0"/></svg>