<svg height="559pt" viewBox="-64 -17 559 559.9993" width="559pt" xmlns="http://www.w3.org/2000/svg"><path d="m341.195312 3.863281c-.046874-.054687-.105468-.097656-.15625-.152343-.082031-.078126-.160156-.152344-.242187-.230469-.214844-.203125-.429687-.410157-.660156-.59375-.082031-.070313-.171875-.128907-.253907-.199219-.234374-.183594-.46875-.363281-.714843-.527344-.105469-.078125-.222657-.144531-.335938-.210937-.230469-.148438-.453125-.292969-.691406-.421875-.175781-.097656-.367187-.179688-.546875-.265625-.1875-.09375-.363281-.1875-.546875-.265625-.308594-.125-.625-.238282-.945313-.347656-.066406-.023438-.140624-.085938-.207031-.109376-.789062-.304687-1.617187-.4843745-2.457031-.539062-.109375 0-.21875.0234375-.332031.015625-.308594-.01953125-.625-.015625-.9375-.015625h-224.984375c-25.097656 0-46.101563 20.421875-46.101563 45.519531v13.230469h-18.605469c-25.027343.09375-45.234374 20.460938-45.144531 45.484375v375.246094c-.144531 24.992187 19.992188 45.371093 44.980469 45.519531h281.0625c25.023438-.054688 45.261719-20.382812 45.207031-45.40625v-19.59375h13.613281c24.847657.078125 45.058594-20.003906 45.136719-44.859375 0-.121094 0-.238281 0-.359375v-315.449219c.070313-3.195312-1.101562-6.292969-3.277343-8.636719zm3.636719 39.785157 41.152344 42.601562h-41.152344zm-1.25 435.832031c.132813 11.203125-8.839843 20.390625-20.046875 20.519531h-281.058594c-11.167968-.042969-20.183593-9.132812-20.144531-20.296875 0-.074219 0-.148437 0-.222656v-375.140625c-.164062-11.199219 8.777344-20.417969 19.976563-20.589844h18.773437v331.03125c0 25.097656 21.003907 45.21875 46.101563 45.21875h236.398437zm38.613281-44.480469h-275.011718c-11.316406 0-21.101563-8.910156-21.101563-20.21875v-369.261719c0-11.316406 9.785157-20.519531 21.101563-20.519531h212.648437v74.359375c0 6.90625 5.421875 11.890625 12.320313 11.890625h70.179687v303.53125c.140625 11.023438-8.6875 20.082031-19.714843 20.21875-.144532 0-.285157 0-.421876 0zm0 0"/><path d="m292.167969 279.304688 13.101562-13.097657c.984375-.992187 2.171875-1.765625 3.480469-2.265625l28.21875-10.855468c3.949219-1.519532 6.859375-4.929688 7.738281-9.070313.871094-4.136719-.398437-8.4375-3.390625-11.433594l-67.664062-67.667969c-2.992188-2.988281-7.289063-4.265624-11.429688-3.386718-4.136718.878906-7.550781 3.789062-9.070312 7.734375l-10.851563 28.222656c-.503906 1.304687-1.277343 2.492187-2.265625 3.484375l-119.328125 119.324219c-18.011719 18.011719-18.011719 47.222656 0 65.238281 18.019531 18.019531 47.226563 18.019531 65.246094 0l103.8125-103.816406c.90625-.691406 1.714844-1.5 2.402344-2.410156zm-34.457031-60.660157c3.464843-3.457031 6.164062-7.609375 7.917968-12.183593l3.949219-10.269532 40.46875 40.46875-10.265625 3.949219c-4.578125 1.75-8.726562 4.449219-12.183594 7.917969l-9.953125 9.945312-52.234375-7.523437zm-89.449219 149.210938c-8.253907 8.253906-21.632813 8.253906-29.882813 0-8.253906-8.25-8.253906-21.628907 0-29.882813l64.945313-64.945312 52.242187 7.523437zm0 0"/><path d="m346.140625 270.917969c-4.882813-4.882813-12.796875-4.882813-17.679687 0l-22.894532 22.898437c-17.535156 17.53125-17.535156 45.953125-.003906 63.484375 17.53125 17.527344 45.949219 17.527344 63.480469 0 17.527343-17.53125 17.527343-45.953125 0-63.484375zm5.21875 68.699219c-7.761719 7.769531-20.355469 7.769531-28.121094 0-7.765625-7.761719-7.769531-20.351563-.007812-28.117188l14.070312-14.070312 14.058594 14.0625c7.769531 7.769531 7.769531 20.363281 0 28.125zm0 0"/><path d="m136.664062 125h103.910157c6.90625 0 12.5-5.59375 12.5-12.5 0-6.902344-5.59375-12.5-12.5-12.5h-103.910157c-6.902343 0-12.5 5.597656-12.5 12.5 0 6.90625 5.597657 12.5 12.5 12.5zm0 0"/><path d="m136.664062 187.5h78.910157c6.90625 0 12.5-5.59375 12.5-12.5 0-6.902344-5.59375-12.5-12.5-12.5h-78.910157c-6.902343 0-12.5 5.597656-12.5 12.5 0 6.90625 5.597657 12.5 12.5 12.5zm0 0"/></svg>