<svg height="558pt" viewBox="-65 -17 558 558.66814" width="558pt" xmlns="http://www.w3.org/2000/svg"><path d="m340.21875 3.84375c-.046875-.050781-.101562-.09375-.152344-.140625-.085937-.089844-.179687-.171875-.265625-.25-.207031-.199219-.414062-.394531-.625-.574219-.09375-.078125-.1875-.144531-.285156-.21875-.226563-.175781-.445313-.351562-.679687-.511718-.125-.082032-.253907-.152344-.375-.230469-.214844-.136719-.429688-.277344-.652344-.398438-.199219-.105469-.402344-.195312-.605469-.292969-.164063-.078124-.324219-.164062-.488281-.234374-.332032-.144532-.675782-.265626-1.019532-.375-.042968-.011719-.089843-.03125-.128906-.046876-.921875-.289062-1.882812-.464843-2.851562-.5273432-.289063-.0195313-.574219-.0429688-.867188-.0429688h-224.46875c-25.03125-.00390625-45.980468 20.363281-45.980468 45.40625v13.199219h-18.566407c-24.964843.09375-45.128906 20.40625-45.03125 45.371093v374.359376c-.152343 24.9375 19.941407 45.265624 44.875 45.414062h280.386719c24.964844-.050781 45.164062-20.332031 45.109375-45.296875v-19.546875h13.574219c24.796875.078125 44.957031-19.964844 45.035156-44.753906 0-.125 0-.242188 0-.363282v-314.699218c.070312-3.191406-1.105469-6.277344-3.273438-8.621094zm3.632812 39.691406 41.050782 42.503906h-41.050782zm-1.246093 434.804688c.125 11.175781-8.828125 20.339844-20 20.472656h-280.398438c-11.140625-.050781-20.132812-9.117188-20.089843-20.257812 0-.070313 0-.140626 0-.214844v-374.25c-.171876-11.175782 8.75-20.371094 19.929687-20.542969h18.726563v330.242187c0 25.035157 20.949218 45.117188 45.984374 45.117188h235.847657zm38.515625-44.375h-274.363282c-11.285156 0-21.042968-8.890625-21.042968-20.175782v-368.382812c0-11.289062 9.757812-20.46875 21.042968-20.46875h212.152344v74.183594c0 6.886718 5.402344 11.859375 12.292969 11.859375h70.011719v302.808593c.136718 11.003907-8.667969 20.035157-19.671875 20.175782-.144531 0-.277344 0-.421875 0zm0 0"/><path d="m218.714844 134.28125c15.316406 15.316406 40.144531 15.316406 55.460937 0 15.3125-15.316406 15.3125-40.144531 0-55.460938l-18.917969-18.914062c-4.863281-4.867188-12.761718-4.867188-17.632812 0l-18.914062 18.914062c-15.285157 15.328126-15.285157 40.136719 0 55.460938zm17.632812-37.824219 10.101563-10.09375 10.089843 10.09375c3.644532 3.578125 5.101563 8.824219 3.820313 13.765625s-5.105469 8.820313-10.023437 10.179688c-4.921876 1.359375-10.191407-.015625-13.820313-3.601563-.054687-.050781-.109375-.105469-.160156-.160156-5.5625-5.570313-5.570313-14.601563-.007813-20.183594zm0 0"/><path d="m353.785156 336.445312c-.082031-.140624-.15625-.285156-.242187-.421874l-60.800781-98.269532c-3.21875-5.117187-4.953126-11.035156-5.007813-17.082031v-11.300781c7.410156-2.460938 12.421875-9.367188 12.472656-17.175782v-21.617187c-.132812-10.121094-8.296875-18.296875-18.414062-18.445313h-75.703125c-10.058594.171876-18.125 8.378907-18.117188 18.445313v21.613281c.039063 7.808594 5.054688 14.71875 12.46875 17.179688v11.304687c-.109375 6.0625-1.894531 11.976563-5.15625 17.085938l-60.792968 98.265625c-.082032.132812-.230469.273437-.308594.40625-.050782.089844-.144532.183594-.199219.277344-7.421875 12.519531-7.546875 28.0625-.324219 40.703124 7.222656 12.636719 20.675782 20.421876 35.230469 20.386719h150.097656c14.570313.035157 28.035157-7.753906 35.265625-20.40625 7.226563-12.644531 7.105469-28.203125-.324218-40.738281-.046876-.085938-.097657-.125-.144532-.210938zm-78.519531-159.371093v8.730469h-62.351563v-8.730469zm-58.757813 73.960937c5.695313-9.109375 8.769532-19.617187 8.875-30.363281v-9.925781h37.414063v9.925781c.050781 10.730469 3.070313 21.238281 8.726563 30.363281l49.058593 79.425782h-153.28125zm116.160157 114.046875c-2.765625 4.921875-8.027344 7.917969-13.679688 7.777344h-150.097656c-5.648437.140625-10.910156-2.855469-13.675781-7.777344-1.632813-2.949219-2.277344-6.34375-1.835938-9.679687h181.125c.4375 3.335937-.203125 6.730468-1.835937 9.679687zm0 0"/></svg>