<svg height="461pt" viewBox="-14 -28 461.33283 461" width="461pt" xmlns="http://www.w3.org/2000/svg"><path d="m137.324219 66.621094h-124.832031c-4.207032-.0625-8.15625 2.023437-10.46875 5.535156-2.3125 3.515625-2.667969 7.96875-.941407 11.804688l16.261719 36.007812c1.039062 2.125 1.621094 4.453125 1.703125 6.816406v220.140625c0 31.023438 25.152344 56.175781 56.175781 56.175781 31.023438 0 56.171875-25.152343 56.171875-56.175781v-220.140625c-.023437-2.355468.449219-4.691406 1.386719-6.851562l15.980469-36.042969c1.710937-3.820313 1.351562-8.246094-.957031-11.734375-2.324219-3.503906-6.277344-5.585938-10.480469-5.535156zm-19.207031 24.96875-8.148438 18.347656c-2.363281 5.304688-3.566406 11.050781-3.539062 16.851562v20.265626l-62.417969 46.964843v-67.234375c-.078125-5.828125-1.386719-11.570312-3.851563-16.851562l-8.464844-18.355469zm-42.894532 286.71875c-17.273437-.03125-31.242187-14.0625-31.210937-31.328125v-121.785157l62.417969-46.964843v168.695312c.0625 17.265625-13.882813 31.320313-31.15625 31.382813zm0 0"/><path d="m363.574219 208.582031c-9.800781-20-14.917969-41.960937-14.96875-64.230469v-76.480468h7.40625c6.832031.113281 12.460937-5.339844 12.566406-12.171875v-43.609375c-.007813-6.988282-5.582031-12.695313-12.566406-12.878906h-121.535157c-6.894531 0-11.953124 5.984374-11.953124 12.878906v43.515625c-.222657 6.546875 4.902343 12.035156 11.445312 12.261719.171875 0 .335938.007812.503906 0h6.777344v76.476562c.0625 22.246094-4.949219 44.214844-14.652344 64.230469l-64.242187 131.125c-6.695313 13.746093-5.859375 29.96875 2.210937 42.960937 8.070313 12.984375 22.238282 20.921875 37.53125 21.011719h186.292969c15.261719-.082031 29.414063-8.011719 37.457031-20.988281 8.039063-12.976563 8.84375-29.175782 2.128906-42.882813zm-116.082031-184.402343h96.121093v18.722656h-96.121093zm1.515624 195.113281c11.375-23.34375 17.265626-48.976563 17.207032-74.941407v-76.480468h57.425781v76.480468c.050781 25.988282 6.046875 51.625 17.523437 74.941407l11.65625 23.34375h-115.15625zm155.652344 150.1875c-3.429687 5.714843-9.601562 9.21875-16.269531 9.222656h-186.292969c-6.664062-.003906-12.839844-3.507813-16.261718-9.222656-3.570313-5.738281-3.925782-12.910157-.941407-18.964844l40.511719-82.914063h139.675781l40.519531 82.914063c2.980469 6.054687 2.625 13.226563-.941406 18.964844zm0 0"/></svg>