<svg height="533pt" viewBox="-88 -16 533 533.33331" width="533pt" xmlns="http://www.w3.org/2000/svg"><path d="m313.042969 83.46875v-58.46875h27.621093c6.90625 0 12.5-5.59375 12.5-12.5s-5.59375-12.5-12.5-12.5h-332.746093c-6.90625 0-12.5 5.59375-12.5 12.5s5.59375 12.5 12.5 12.5h27.625v58.46875c.179687 35.859375 14.800781 70.132812 40.550781 95.085938l79.949219 77.296874-76.425781 71.921876c-26.558594 25.078124-41.601563 60-41.574219 96.53125v50.695312h-30.125c-6.90625 0-12.5 5.59375-12.5 12.5s5.59375 12.5 12.5 12.5h332.746093c6.90625 0 12.5-5.59375 12.5-12.5s-5.59375-12.5-12.5-12.5h-26.371093v-49.765625c-.066407-37.171875-15.71875-72.613281-43.140625-97.703125l-78.582032-71.796875 79.9375-77.179687c25.746094-24.957032 40.359376-59.226563 40.535157-95.085938zm-23.75 341.765625v49.765625h-226.25v-50.695312c-.015625-29.636719 12.199219-57.960938 33.75-78.304688l77.691406-72.972656 79.84375 72.949218c22.234375 20.359376 34.921875 49.109376 34.964844 79.257813zm-115-186.640625-80.804688-77.992188c-20.902343-20.242187-32.777343-48.042968-32.945312-77.132812v-58.46875h227.5v58.46875c-.171875 29.089844-12.046875 56.890625-32.949219 77.132812zm0 0"/></svg>