<svg height="533pt" viewBox="-66 -16 533 533.33331" width="533pt" xmlns="http://www.w3.org/2000/svg"><path d="m281.527344 3.324219c-2.316406-2.136719-5.34375-3.324219-8.492188-3.324219h-220.1875c-30.859375.0195312-55.898437 24.984375-56.015625 55.84375v388.3125c.117188 30.859375 25.15625 55.824219 56.015625 55.84375h287.96875c30.859375-.019531 55.898438-24.984375 56.015625-55.84375v-328.84375c-.03125-3.496094-1.511719-6.820312-4.09375-9.179688zm4.054687 37.769531 66.660157 61.40625h-57.53125c-4.902344.140625-8.992188-3.71875-9.128907-8.625 0-.082031 0-.164062 0-.242188zm55.234375 433.90625h-287.96875c-17.058594-.003906-30.917968-13.785156-31.015625-30.84375v-388.3125c.097657-17.058594 13.957031-30.839844 31.015625-30.84375h207.734375v68.636719c.027344 18.726562 15.226563 33.886719 33.953125 33.863281h77.296875v316.65625c-.097656 17.058594-13.953125 30.839844-31.015625 30.84375zm0 0"/><path d="m262.886719 242.320312c-4.464844-5.203124-12.285157-5.832031-17.527344-1.417968-5.246094 4.414062-5.957031 12.226562-1.597656 17.515625l28.070312 33.355469-28.070312 33.351562c-2.953125 3.375-3.871094 8.074219-2.40625 12.3125 1.464843 4.238281 5.082031 7.367188 9.492187 8.203125 4.402344.828125 8.921875-.757813 11.832032-4.171875.066406-.082031.140624-.160156.207031-.25l34.851562-41.398438c3.914063-4.65625 3.914063-11.445312 0-16.101562zm0 0"/><path d="m148.390625 240.804688c-5.28125-4.441407-13.167969-3.769532-17.613281 1.515624l-34.851563 41.40625c-3.910156 4.648438-3.910156 11.445313 0 16.09375l34.851563 41.40625c4.472656 5.175782 12.277344 5.796876 17.511718 1.390626 5.230469-4.40625 5.953126-12.203126 1.617188-17.492188l-28.074219-33.351562 28.078125-33.355469c4.441406-5.285157 3.765625-13.167969-1.519531-17.613281zm0 0"/><path d="m209.253906 210.414062c-6.816406-1.054687-13.195312 3.628907-14.246094 10.445313v.023437l-21.070312 138.003907c-1.039062 6.824219 3.648438 13.203125 10.472656 14.246093 6.824219 1.042969 13.199219-3.644531 14.246094-10.472656l21.074219-137.996094c1.042969-6.828124-3.644531-13.210937-10.464844-14.253906zm0 0"/></svg>