<svg height="533pt" viewBox="-16 -22 533.33342 533" width="533pt" xmlns="http://www.w3.org/2000/svg"><path d="m123.4375 116.777344c-5.207031-4.53125-13.101562-3.976563-17.632812 1.238281l-102.738282 118.199219c-4.089844 4.703125-4.089844 11.695312 0 16.398437l102.738282 118.203125c4.53125 5.210938 12.425781 5.761719 17.632812 1.230469 5.210938-4.53125 5.761719-12.425781 1.238281-17.632813l-95.613281-110 95.613281-110c4.523438-5.207031 3.976563-13.105468-1.230469-17.636718zm0 0"/><path d="m394.1875 118.015625c-4.53125-5.210937-12.425781-5.769531-17.636719-1.238281-5.210937 4.53125-5.761719 12.429687-1.230469 17.636718l95.609376 110-95.609376 110c-4.53125 5.210938-3.972656 13.109376 1.234376 17.632813 5.210937 4.53125 13.109374 3.980469 17.636718-1.234375l102.742188-118.199219c4.089844-4.703125 4.089844-11.699219 0-16.402343zm0 0"/><path d="m362.285156.984375c-6.265625-2.890625-13.691406-.152344-16.589844 6.113281l-214.101562 464.160156c-2.914062 6.257813-.199219 13.695313 6.058594 16.605469 6.261718 2.910157 13.695312.195313 16.605468-6.066406l.035157-.066406 214.109375-464.160157c2.890625-6.269531.152344-13.695312-6.117188-16.585937zm0 0"/></svg>