<svg height="533pt" viewBox="-16 -21 533.33331 533" width="533pt" xmlns="http://www.w3.org/2000/svg"><path d="m488.625 198.238281-42.613281-3.855469c-4.667969-17.488281-11.757813-34.238281-21.054688-49.765624l27.167969-32.019532c4.242188-5.003906 3.898438-12.433594-.789062-17.023437l-49.308594-48.289063c-4.542969-4.453125-11.707032-4.78125-16.636719-.765625l-33 26.859375c-16.023437-9.242187-33.242187-16.246094-51.164063-20.816406l-3.90625-41.449219c-.609374-6.410156-6.007812-11.300781-12.445312-11.28125h-69.738281c-6.441407-.023437-11.835938 4.871094-12.445313 11.28125l-3.917968 41.46875c-17.917969 4.570313-35.136719 11.574219-51.160157 20.804688l-33-26.863281c-4.929687-4.015626-12.09375-3.6875-16.640625.761718l-49.308594 48.300782c-4.683593 4.585937-5.027343 12.011718-.789062 17.011718l27.167969 32.019532c-9.296875 15.527343-16.386719 32.277343-21.054688 49.765624l-42.613281 3.855469c-6.445312.578125-11.375 5.980469-11.375 12.445313v68.300781c0 6.464844 4.929688 11.863281 11.375 12.445313l42.613281 3.851562c4.667969 17.492188 11.757813 34.238281 21.054688 49.765625l-27.167969 32.027344c-4.242188 5-3.898438 12.425781.789062 17.015625l49.308594 48.292968c4.542969 4.453126 11.707032 4.78125 16.636719.765626l33-26.859376c16.023437 9.242188 33.242187 16.246094 51.164063 20.816407l3.90625 41.449219c.609374 6.414062 6.011718 11.304687 12.453124 11.277343h69.742188c6.4375.027344 11.835938-4.867187 12.445312-11.277343l3.910157-41.46875c17.925781-4.570313 35.136719-11.574219 51.160156-20.8125l33.003906 26.867187c4.933594 4.015625 12.089844 3.691406 16.636719-.761719l49.304688-48.296875c4.6875-4.585937 5.03125-12.015625.789062-17.015625l-27.167969-32.023437c9.296875-15.527344 16.386719-32.273438 21.054688-49.765625l42.613281-3.851563c6.445312-.582031 11.375-5.980469 11.375-12.445312v-68.296875c0-6.464844-4.929688-11.867188-11.375-12.445313zm-13.625 69.324219-40.160156 3.625c-5.445313.492188-9.9375 4.464844-11.089844 9.808594-4.511719 20.785156-12.882812 40.542968-24.671875 58.238281-3.078125 4.636719-2.71875 10.753906.882813 15l25.570312 30.140625-33.015625 32.332031-31.179687-25.375c-4.171876-3.398437-10.054688-3.738281-14.601563-.847656-18.25 11.632813-38.457031 19.847656-59.648437 24.238281-5.367188 1.085938-9.390626 5.558594-9.90625 11.015625l-3.6875 39.09375h-46.984376l-3.6875-39.089843c-.515624-5.460938-4.535156-9.9375-9.90625-11.039063-21.191406-4.386719-41.398437-12.59375-59.648437-24.226563-4.546875-2.890624-10.429687-2.546874-14.601563.855469l-31.179687 25.375-33.015625-32.335937 25.570312-30.136719c3.601563-4.25 3.964844-10.363281.882813-15-11.789063-17.703125-20.160156-37.453125-24.671875-58.238281-1.15625-5.34375-5.648438-9.3125-11.089844-9.804688l-40.160156-3.628906v-45.457031l40.160156-3.625c5.445313-.492188 9.9375-4.46875 11.089844-9.808594 4.507812-20.785156 12.882812-40.542969 24.671875-58.238281 3.082031-4.636719 2.71875-10.757813-.882813-15l-25.570312-30.140625 33.015625-32.335938 31.179687 25.371094c4.171876 3.398437 10.054688 3.746094 14.601563.851563 18.25-11.632813 38.457031-19.84375 59.648437-24.234376 5.367188-1.09375 9.390626-5.566406 9.90625-11.015624l3.6875-39.097657h46.984376l3.6875 39.09375c.515624 5.457031 4.535156 9.9375 9.90625 11.039063 21.1875 4.386718 41.398437 12.59375 59.648437 24.222656 4.546875 2.890625 10.429687 2.546875 14.601563-.851562l31.179687-25.378907 33.015625 32.339844-25.570312 30.136719c-3.601563 4.25-3.960938 10.363281-.882813 15 11.789063 17.699218 20.160156 37.453125 24.671875 58.238281 1.15625 5.339844 5.648438 9.3125 11.089844 9.804687l40.160156 3.621094zm0 0"/><path d="m250 173.523438c-40 0-72.546875 31.988281-72.546875 71.308593 0 39.324219 32.546875 71.308594 72.546875 71.308594s72.546875-31.984375 72.546875-71.308594c0-39.320312-32.546875-71.308593-72.546875-71.308593zm0 117.617187c-26.21875 0-47.546875-20.769531-47.546875-46.308594 0-25.535156 21.328125-46.308593 47.546875-46.308593s47.546875 20.773437 47.546875 46.308593c0 25.539063-21.328125 46.308594-47.546875 46.308594zm0 0"/></svg>