<svg height="533.33331pt" viewBox="-16 -16 533.33331 533.33331" width="533.33331pt" xmlns="http://www.w3.org/2000/svg"><path d="m250 0c-137.851562 0-250 112.148438-250 250s112.148438 250 250 250 250-112.148438 250-250-112.148438-250-250-250zm172.648438 262.5h52c-2.808594 50.972656-22.929688 99.453125-57.039063 137.429688l-36.691406-36.6875c-4.886719-4.847657-12.773438-4.828126-17.640625.035156-4.863282 4.867187-4.882813 12.753906-.039063 17.640625l36.691407 36.695312c-37.976563 34.105469-86.457032 54.226563-137.429688 57.035157v-52c0-6.90625-5.59375-12.5-12.5-12.5s-12.5 5.59375-12.5 12.5v52c-50.972656-2.808594-99.453125-22.929688-137.429688-57.035157l36.6875-36.695312c4.847657-4.886719 4.828126-12.773438-.035156-17.640625-4.867187-4.863282-12.753906-4.882813-17.640625-.035156l-36.695312 36.6875c-34.105469-37.976563-54.226563-86.457032-57.035157-137.429688h52c6.90625 0 12.5-5.59375 12.5-12.5s-5.59375-12.5-12.5-12.5h-52c2.808594-50.972656 22.929688-99.453125 57.035157-137.429688l36.695312 36.6875c4.886719 4.847657 12.773438 4.828126 17.640625-.035156 4.863282-4.867187 4.882813-12.753906.035156-17.640625l-36.6875-36.695312c37.976563-34.105469 86.457032-54.226563 137.429688-57.035157v52c0 6.90625 5.59375 12.5 12.5 12.5s12.5-5.59375 12.5-12.5v-52c50.972656 2.808594 99.453125 22.929688 137.429688 57.035157l-36.6875 36.695312c-4.765626 4.882813-4.730469 12.683594.074218 17.527344 4.800782 4.84375 12.601563 4.945313 17.523438.222656l.078125-.078125 36.695312-36.691406c34.109375 37.980469 54.230469 86.464844 57.035157 137.4375h-52c-6.90625 0-12.5 5.59375-12.5 12.5s5.59375 12.5 12.5 12.5zm0 0"/><path d="m333.765625 150.113281-127.835937 48.566407c-3.347657 1.273437-5.984376 3.90625-7.253907 7.25l-48.5625 127.835937c-1.75 4.597656-.636719 9.792969 2.847657 13.273437 3.480468 3.484376 8.675781 4.597657 13.273437 2.847657l127.84375-48.566407c3.339844-1.273437 5.980469-3.90625 7.246094-7.25l48.5625-127.835937c1.75-4.597656.636719-9.792969-2.847657-13.273437-3.480468-3.484376-8.675781-4.597657-13.273437-2.847657zm-118.78125 83.285157 51.617187 51.617187-83.242187 31.621094zm69.628906 34.261718-52.273437-52.269531 84.300781-32.027344zm0 0"/></svg>