<svg height="533.33331pt" viewBox="-16 -16 533.33331 533.33331" width="533.33331pt" xmlns="http://www.w3.org/2000/svg"><path d="m487.5 237.972656h-125.4375l29.84375-39.300781c4.1875-5.527344 3.136719-13.398437-2.351562-17.640625-5.460938-4.203125-13.304688-3.183594-17.515626 2.28125l-45.1875 59.125c-.089843.109375-.164062.214844-.246093.332031-.078125.117188-.179688.246094-.269531.375-.121094.195313-.246094.394531-.363282.597657-.070312.125-.148437.242187-.214844.375-.171874.320312-.328124.648437-.46875.980468-.050781.105469-.089843.21875-.128906.332032-.089844.238281-.183594.476562-.261718.722656-.050782.144531-.089844.296875-.128907.449218-.058593.21875-.121093.433594-.164062.65625-.039063.15625-.070313.304688-.097657.460938-.046874.242188-.078124.484375-.109374.726562-.019532.132813-.039063.265626-.046876.402344-.074218.765625-.074218 1.539063 0 2.304688.007813.136718.027344.269531.046876.402344.03125.246093.0625.480468.109374.726562.027344.15625.0625.3125.097657.460938.046875.21875.101562.429687.164062.652343.042969.152344.082031.308594.132813.457031.078125.234376.167968.46875.257812.703126.042969.113281.082032.234374.132813.351562.140625.328125.296875.65625.46875.972656.066406.132813.152343.257813.222656.390625.117187.195313.230469.390625.359375.582031.085938.136719.183594.265626.277344.398438.078125.113281.152344.226562.234375.335938l45.191406 59.15625c4.1875 5.484374 12.035156 6.535156 17.519531 2.34375 5.410156-4.03125 6.523438-11.6875 2.484375-17.097657-.042969-.066406-.09375-.128906-.136719-.1875l-29.851562-38.828125h125.4375c6.90625 0 12.5-5.59375 12.5-12.5 0-6.902344-5.59375-12.5-12.5-12.5zm0 0"/><path d="m316.742188 372.035156-59.15625-45.191406c-.105469-.082031-.222657-.15625-.335938-.234375-.132812-.089844-.261719-.1875-.398438-.277344-.191406-.125-.382812-.238281-.578124-.351562-.132813-.078125-.257813-.15625-.394532-.230469-.308594-.160156-.613281-.3125-.933594-.445312-.136718-.0625-.277343-.109376-.414062-.164063-.226562-.085937-.449219-.175781-.671875-.25-.15625-.050781-.320313-.089844-.476563-.132813-.210937-.0625-.417968-.117187-.625-.164062-.160156-.039062-.316406-.066406-.476562-.097656-.234375-.042969-.476562-.078125-.710938-.105469-.140624-.019531-.277343-.039063-.417968-.054687-.375-.035157-.753906-.054688-1.117188-.054688h-.058594c-.371093 0-.75.019531-1.113281.054688-.144531.015624-.285156.035156-.421875.054687-.238281.027344-.472656.0625-.707031.105469-.160156.03125-.320313.058594-.476563.097656-.210937.046875-.421874.101562-.625.164062-.164062.042969-.320312.082032-.476562.132813-.226562.074219-.453125.15625-.679688.25-.132812.054687-.277343.101563-.40625.164063-.320312.132812-.625.285156-.933593.445312-.136719.074219-.269531.152344-.402344.230469-.1875.113281-.382813.230469-.574219.351562-.132812.089844-.265625.1875-.394531.277344-.117187.078125-.230469.152344-.339844.234375l-59.152343 45.191406c-5.492188 4.191406-6.539063 12.035156-2.351563 17.519532 4.195313 5.488281 12.039063 6.539062 17.523437 2.351562l39.054688-29.84375v125.4375c0 6.90625 5.59375 12.5 12.5 12.5s12.5-5.59375 12.5-12.5v-125.4375l39.066406 29.84375c5.484375 4.1875 13.332032 3.136719 17.519532-2.351562 4.195312-5.484376 3.140624-13.328126-2.34375-17.519532zm0 0"/><path d="m301.566406 108.09375-39.066406 29.84375v-125.4375c0-6.90625-5.59375-12.5-12.5-12.5s-12.5 5.59375-12.5 12.5v125.4375l-39.066406-29.84375c-5.484375-4.1875-13.332032-3.136719-17.519532 2.351562-4.195312 5.484376-3.140624 13.328126 2.34375 17.519532l59.15625 45.191406c.109376.082031.222657.15625.335938.234375.132812.089844.261719.1875.398438.277344.191406.125.382812.238281.578124.351562.132813.078125.257813.160157.394532.230469.3125.164062.625.320312.949218.457031.125.054688.261719.097657.390626.152344.226562.085937.453124.175781.6875.25.148437.046875.304687.085937.460937.128906.21875.066407.429687.117188.648437.167969.148438.03125.304688.066406.46875.097656.238282.042969.476563.078125.714844.105469.136719.019531.269532.039063.40625.050781.386719.039063.765625.058594 1.152344.058594s.765625-.019531 1.152344-.058594c.136718-.011718.269531-.03125.40625-.050781.238281-.027344.476562-.0625.714844-.105469.164062-.03125.320312-.066406.46875-.097656.21875-.050781.429687-.101562.648437-.167969.15625-.042969.3125-.082031.460937-.128906.234376-.078125.460938-.167969.6875-.25.125-.054687.265626-.097656.390626-.152344.324218-.136719.636718-.292969.949218-.457031.136719-.070312.261719-.152344.394532-.230469.195312-.113281.386718-.226562.578124-.351562.136719-.089844.265626-.1875.398438-.277344.113281-.078125.226562-.152344.335938-.234375l59.15625-45.191406c5.484374-4.191406 6.539062-12.035156 2.34375-17.519532-4.1875-5.488281-12.035157-6.539062-17.519532-2.351562zm0 0"/><path d="m174.023438 256.269531c.074218-.128906.15625-.25.226562-.390625.167969-.316406.324219-.644531.46875-.972656.046875-.117188.085938-.234375.128906-.351562.09375-.234376.183594-.46875.261719-.703126.046875-.148437.085937-.304687.128906-.457031.066407-.214843.117188-.433593.167969-.652343.03125-.148438.066406-.304688.097656-.460938.042969-.246094.078125-.484375.105469-.726562.019531-.132813.039063-.265626.050781-.402344.074219-.765625.074219-1.539063 0-2.304688-.011718-.136718-.03125-.269531-.050781-.402344-.027344-.246093-.0625-.484374-.105469-.726562-.03125-.15625-.058594-.304688-.097656-.460938-.050781-.222656-.109375-.441406-.167969-.65625-.042969-.152343-.082031-.304687-.125-.449218-.078125-.246094-.171875-.488282-.265625-.726563-.042968-.109375-.078125-.222656-.125-.332031-.144531-.332031-.300781-.65625-.46875-.976562-.070312-.128907-.148437-.25-.214844-.375-.117187-.207032-.242187-.40625-.367187-.601563-.085937-.128906-.179687-.253906-.269531-.386719-.089844-.132812-.15625-.234375-.242188-.347656l-45.191406-59.15625c-4.1875-5.480469-12.035156-6.53125-17.519531-2.34375-5.492188 4.292969-6.535157 12.1875-2.34375 17.761719l29.832031 39.304687h-125.4375c-6.90625 0-12.5 5.597656-12.5 12.5 0 6.90625 5.59375 12.5 12.5 12.5h125.4375l-29.84375 38.828125c-2.878906 3.753907-3.367188 8.824219-1.257812 13.058594 2.113281 4.238281 6.453124 6.894531 11.1875 6.855469 3.898437-.003906 7.578124-1.835938 9.941406-4.941406l45.191406-59.175782c.082031-.113281.15625-.234375.234375-.347656.089844-.121094.1875-.261719.277344-.398438.125-.1875.238281-.386718.355469-.582031zm0 0"/></svg>