<svg height="592pt" viewBox="-18 -46 592 592" width="592pt" xmlns="http://www.w3.org/2000/svg"><path d="m505.550781-1.832031h-456.101562c-27.050781 0-49.449219 21.53125-49.449219 48.582031v297.101562c.191406 27.207032 22.242188 49.191407 49.449219 49.316407h145.550781v80h-29.863281c-6.898438 0-12.5 5.59375-12.5 12.5 0 6.902343 5.601562 12.5 12.5 12.5h231.304687c6.902344 0 12.5-5.597657 12.5-12.5 0-6.90625-5.597656-12.5-12.5-12.5h-36.441406v-80h145.550781c27.207031-.125 49.257813-22.109375 49.449219-49.316407v-297.101562c0-27.050781-22.398438-48.582031-49.449219-48.582031zm-456.101562 25h456.101562c13.269531 0 24.449219 10.316406 24.449219 23.582031v251.417969h-505v-251.417969c0-13.265625 11.179688-23.582031 24.449219-23.582031zm285.550781 450h-115v-80h115zm170.550781-105h-456.101562c-13.410157-.109375-24.273438-10.914063-24.449219-24.316407v-20.683593h505v20.683593c-.175781 13.402344-11.039062 24.207032-24.449219 24.316407zm0 0"/></svg>