<svg height="627.13022pt" viewBox="-20 -20 627.13022 627.13022" width="627.13022pt" xmlns="http://www.w3.org/2000/svg"><path d="m172.476562 301.148438c.105469-.15625.210938-.3125.3125-.476563.101563-.15625.214844-.34375.316407-.519531.101562-.183594.183593-.332032.269531-.503906.082031-.171876.179688-.359376.261719-.546876s.152343-.347656.226562-.527343c.074219-.175781.140625-.375.207031-.566407.066407-.191406.125-.359374.179688-.542968.046875-.183594.105469-.402344.148438-.605469.046874-.179687.089843-.355469.128906-.535156.042968-.234375.078125-.46875.105468-.707031.019532-.152344.046876-.304688.0625-.460938.074219-.789062.074219-1.59375 0-2.386719-.015624-.152343-.042968-.304687-.0625-.460937-.027343-.234375-.0625-.46875-.105468-.703125-.035156-.179688-.078125-.359375-.128906-.535157-.042969-.207031-.097657-.40625-.148438-.605468-.0625-.199219-.117188-.367188-.179688-.546875-.0625-.183594-.132812-.371094-.207031-.566407-.074219-.191406-.148437-.351562-.226562-.523437s-.167969-.375-.261719-.550781c-.09375-.175782-.175781-.332032-.269531-.5-.09375-.164063-.207031-.351563-.316407-.527344-.113281-.175781-.207031-.316406-.3125-.46875-.109374-.15625-.242187-.328125-.367187-.488281-.121094-.160157-.238281-.308594-.367187-.453125-.046876-.058594-.09375-.121094-.140626-.175782l-46.335937-52.195312c-4.59375-5.132812-12.46875-5.585938-17.613281-1.015625-5.152344 4.570313-5.636719 12.445313-1.085938 17.609375l27.878906 31.40625h-121.945312c-6.90625 0-12.5 5.597656-12.5 12.5 0 6.898438 5.59375 12.5 12.5 12.5h121.945312l-27.878906 31.40625c-4.65625 5.09375-4.304687 13.003906.785156 17.664062 5.101563 4.65625 13.003907 4.304688 17.664063-.789062.082031-.09375.164063-.183594.253906-.28125l46.332031-52.203125c.054688-.058594.097657-.125.148438-.179687.121094-.148438.246094-.296876.363281-.449219.113281-.15625.246094-.324219.363281-.488281zm0 0"/><path d="m575.433594 281.46875h-121.941406l27.875-31.410156c4.457031-5.175782 3.9375-12.96875-1.175782-17.503906-5.109375-4.539063-12.910156-4.125-17.519531.914062l-46.339844 52.203125c-.046875.0625-.089843.125-.140625.179687-.128906.144532-.25.296876-.367187.453126-.117188.148437-.246094.320312-.363281.488281-.113282.160156-.210938.3125-.3125.46875-.105469.160156-.21875.351562-.320313.527343-.101563.175782-.179687.328126-.265625.496094-.085938.171875-.183594.367188-.265625.550782-.082031.1875-.152344.347656-.226563.523437-.070312.179687-.140624.375-.203124.566406-.070313.195313-.125.363281-.179688.546875-.050781.1875-.109375.402344-.152344.605469-.042968.175781-.089844.359375-.128906.539063-.042969.234374-.078125.46875-.105469.703124-.019531.15625-.042969.304688-.058593.457032-.078126.796875-.078126 1.597656 0 2.386718.015624.15625.039062.308594.058593.464844.027344.234375.0625.46875.105469.703125.035156.183594.078125.355469.128906.539063.042969.199218.097656.402344.152344.605468.058594.199219.117188.359376.179688.539063.058593.183594.132812.378906.203124.570313.074219.1875.148438.351562.226563.523437.078125.179687.171875.367187.265625.546875.089844.183594.171875.339844.265625.503906.09375.167969.207031.351563.320313.523438.109374.175781.203124.316406.3125.472656.105468.15625.238281.328125.363281.488281.128906.160157.238281.304688.367187.449219.050782.058594.09375.128906.140625.179688l46.339844 52.195312c4.589844 5.132812 12.464844 5.585938 17.609375 1.015625 5.152344-4.570313 5.636719-12.445313 1.085938-17.613281l-27.875-31.402344h121.941406c6.90625 0 12.5-5.601562 12.5-12.5 0-6.902344-5.59375-12.5-12.5-12.5zm0 0"/><path d="m337.875 106.566406-31.40625 27.878906v-121.945312c0-6.90625-5.601562-12.5-12.5-12.5-6.902344 0-12.5 5.59375-12.5 12.5v121.945312l-31.410156-27.878906c-5.175782-4.457031-12.96875-3.933594-17.503906 1.175782-4.539063 5.109374-4.125 12.914062.914062 17.523437l52.203125 46.335937c.0625.046876.125.09375.179687.140626.148438.128906.300782.253906.453126.367187.148437.117187.320312.25.488281.367187.160156.109376.3125.210938.46875.3125.160156.101563.351562.214844.527343.316407.175782.101562.328126.183593.496094.269531.171875.085938.363282.179688.546875.261719.1875.082031.351563.152343.527344.226562s.375.140625.566406.207031c.191407.066407.363281.125.546875.179688.1875.046875.402344.101562.601563.148438.179687.046874.355469.089843.535156.128906.234375.042968.46875.078125.703125.105468.15625.019532.308594.046876.464844.0625.394531.035157.796875.0625 1.191406.0625.402344 0 .796875-.027343 1.195312-.0625.15625-.015624.308594-.042968.460938-.0625.234375-.027343.472656-.0625.703125-.105468.1875-.035156.359375-.078125.542969-.128906.199218-.046876.398437-.097657.597656-.148438.203125-.0625.367188-.117188.546875-.179688.183594-.0625.378906-.132812.570313-.207031.1875-.074219.351562-.148437.519531-.226562.175781-.078125.367187-.167969.550781-.261719s.335938-.175781.5-.269531.351562-.207031.523438-.316407c.175781-.109374.316406-.207031.472656-.3125.15625-.113281.328125-.242187.488281-.367187.160156-.121094.304687-.238281.449219-.367187.058594-.046876.128906-.09375.179687-.140626l52.199219-46.335937c5.132812-4.59375 5.585938-12.46875 1.015625-17.613281-4.570313-5.152344-12.445313-5.636719-17.613281-1.085938zm0 0"/><path d="m354.46875 462.671875-52.207031-46.339844c-.054688-.046875-.121094-.089843-.175781-.140625-.148438-.128906-.296876-.25-.453126-.367187-.152343-.113281-.324218-.246094-.492187-.363281-.164063-.117188-.3125-.210938-.46875-.3125-.160156-.105469-.34375-.222657-.523437-.320313-.179688-.101563-.328126-.179687-.5-.265625-.171876-.085938-.367188-.183594-.550782-.265625-.1875-.082031-.347656-.152344-.523437-.226563-.175781-.070312-.375-.140624-.570313-.203124-.191406-.070313-.355468-.125-.542968-.179688-.1875-.050781-.398438-.101562-.605469-.152344-.175781-.042968-.355469-.089844-.535157-.128906-.234374-.042969-.46875-.078125-.703124-.105469-.15625-.019531-.308594-.050781-.460938-.058593-.796875-.078126-1.597656-.078126-2.386719 0-.15625.007812-.308593.039062-.460937.058593-.238282.027344-.472656.0625-.707032.105469-.179687.035156-.355468.078125-.539062.128906-.199219.050782-.402344.097656-.601562.152344-.195313.058594-.363282.117188-.542969.179688-.183594.058593-.378907.132812-.566407.203124-.191406.074219-.351562.148438-.527343.226563-.171875.078125-.367188.171875-.546875.265625-.183594.089844-.332032.171875-.503906.265625-.164063.09375-.351563.210937-.523438.320313-.175781.109374-.316406.203124-.472656.3125-.152344.105468-.328125.238281-.488282.363281-.160156.128906-.304687.238281-.449218.367187-.058594.050782-.128906.09375-.179688.140625l-52.191406 46.339844c-5.132812 4.589844-5.585938 12.464844-1.015625 17.609375 4.570313 5.152344 12.445313 5.636719 17.609375 1.085938l31.40625-27.875v121.941406c0 6.90625 5.597656 12.5 12.5 12.5 6.898438 0 12.5-5.59375 12.5-12.5v-121.941406l31.40625 27.875c5.09375 4.65625 13 4.304687 17.664062-.785157 4.65625-5.09375 4.304688-13-.789062-17.660156-.09375-.078125-.1875-.167969-.28125-.25zm0 0"/></svg>