<svg height="560pt" viewBox="-49 -17 560 560" width="560pt" xmlns="http://www.w3.org/2000/svg"><path d="m397.667969 0h-295.375c-34.511719.015625-62.488281 27.988281-62.5 62.5v27h-29.375c-6.90625 0-12.5 5.597656-12.5 12.5s5.59375 12.5 12.5 12.5h29.246093v82h-29.246093c-6.90625 0-12.5 5.59375-12.5 12.5 0 6.902344 5.59375 12.5 12.5 12.5h29.246093v82h-29.246093c-6.90625 0-12.5 5.597656-12.5 12.5 0 6.90625 5.59375 12.5 12.5 12.5h29.246093v82h-29.246093c-6.90625 0-12.5 5.597656-12.5 12.5s5.59375 12.5 12.5 12.5h29.246093v27c.015626 34.511719 27.988282 62.484375 62.5 62.5h295.375c34.511719-.015625 62.492188-27.988281 62.5-62.5v-400c.050782-34.488281-27.882812-62.4765625-62.371093-62.5zm37.5 462.5c-.0625 20.683594-16.816407 37.441406-37.5 37.5h-295.375c-20.683594-.058594-37.441407-16.816406-37.5-37.5v-27h29.246093c6.90625 0 12.5-5.597656 12.5-12.5s-5.59375-12.5-12.5-12.5h-29.246093v-82h29.246093c6.90625 0 12.5-5.59375 12.5-12.5 0-6.902344-5.59375-12.5-12.5-12.5h-29.246093v-82h29.246093c6.90625 0 12.5-5.597656 12.5-12.5 0-6.90625-5.59375-12.5-12.5-12.5h-29.246093v-82h29.246093c6.90625 0 12.5-5.597656 12.5-12.5s-5.59375-12.5-12.5-12.5h-29.246093v-27c.058593-20.683594 16.816406-37.441406 37.5-37.5h295.375c20.683593.058594 37.4375 16.816406 37.5 37.5zm0 0"/><path d="m249.917969 258.875c33.480469 0 60.625-27.140625 60.625-60.625s-27.144531-60.625-60.625-60.625c-33.484375 0-60.625 27.140625-60.625 60.625.03125 33.46875 27.152343 60.59375 60.625 60.625zm0-96.375c19.671875 0 35.625 15.953125 35.625 35.625s-15.953125 35.625-35.625 35.625c-19.675781 0-35.625-15.953125-35.625-35.625.035156-19.65625 15.960937-35.589844 35.625-35.625zm0 0"/><path d="m249.917969 279c-52 0-92.753907 42.125-92.753907 96 .019532 6.894531 5.605469 12.480469 12.5 12.5h160.503907c6.894531-.019531 12.480469-5.605469 12.5-12.5 0-53.875-40.753907-96-92.75-96zm-66.753907 83.5c5.378907-34.125 32.253907-58.5 66.753907-58.5 34.496093 0 61.5 24.375 66.75 58.5zm0 0"/></svg>