<svg height="533pt" viewBox="-22 -16 533 533.33331" width="533pt" xmlns="http://www.w3.org/2000/svg"><path d="m338.355469 175c0-6.90625-5.597657-12.5-12.5-12.5h-161.25c-6.90625 0-12.5 5.59375-12.5 12.5v161.25c0 6.90625 5.59375 12.5 12.5 12.5h161.25c6.902343 0 12.5-5.59375 12.5-12.5zm-26.25 148.75h-135v-136.25h135zm0 0"/><path d="m476.875 215c6.902344 0 12.5-5.59375 12.5-12.5s-5.597656-12.5-12.5-12.5h-62.269531v-27.5h30.890625c6.90625 0 12.5-5.59375 12.5-12.5s-5.59375-12.5-12.5-12.5h-31.6875c-4.574219-26.386719-25.296875-47.015625-51.703125-51.476562v-31.6875c0-6.90625-5.597657-12.5-12.5-12.5-6.90625 0-12.5 5.59375-12.5 12.5v30.664062h-27.5v-72.5c0-6.90625-5.597657-12.5-12.5-12.5-6.90625 0-12.5 5.59375-12.5 12.5v72.5h-27.5v-30.664062c0-6.90625-5.597657-12.5-12.5-12.5-6.90625 0-12.5 5.59375-12.5 12.5v30.664062h-27.5v-72.5c0-6.90625-5.597657-12.5-12.5-12.5-6.90625 0-12.5 5.59375-12.5 12.5v72.5h-27.5v-30.664062c0-6.90625-5.597657-12.5-12.5-12.5-6.90625 0-12.5 5.59375-12.5 12.5v31.6875c-26.40625 4.460937-47.136719 25.089843-51.710938 51.476562h-31.683593c-6.90625 0-12.5 5.59375-12.5 12.5s5.59375 12.5 12.5 12.5h30.894531v27.5h-62.273438c-6.902343 0-12.5 5.59375-12.5 12.5s5.597657 12.5 12.5 12.5h62.273438v27.5h-30.894531c-6.90625 0-12.5 5.59375-12.5 12.5s5.59375 12.5 12.5 12.5h30.894531v27.5h-62.273438c-6.902343 0-12.5 5.59375-12.5 12.5s5.597657 12.5 12.5 12.5h62.273438v27.5h-30.894531c-6.90625 0-12.5 5.59375-12.5 12.5s5.59375 12.5 12.5 12.5h31.683593c4.546875 26.488281 25.238281 47.273438 51.710938 51.933594v31.691406c0 6.902344 5.59375 12.5 12.5 12.5 6.902343 0 12.5-5.597656 12.5-12.5v-31.125h27.5v62.5c0 6.90625 5.59375 12.5 12.5 12.5 6.902343 0 12.5-5.59375 12.5-12.5v-62.5h27.5v31.125c0 6.902344 5.59375 12.5 12.5 12.5 6.902343 0 12.5-5.597656 12.5-12.5v-31.125h27.5v62.5c0 6.90625 5.59375 12.5 12.5 12.5 6.902343 0 12.5-5.59375 12.5-12.5v-62.5h27.5v31.125c0 6.902344 5.59375 12.5 12.5 12.5 6.902343 0 12.5-5.597656 12.5-12.5v-31.691406c26.46875-4.660156 47.160156-25.445313 51.703125-51.933594h31.6875c6.90625 0 12.5-5.59375 12.5-12.5s-5.59375-12.5-12.5-12.5h-30.890625v-27.5h62.269531c6.902344 0 12.5-5.59375 12.5-12.5s-5.597656-12.5-12.5-12.5h-62.269531v-27.5h30.890625c6.90625 0 12.5-5.59375 12.5-12.5s-5.59375-12.5-12.5-12.5h-30.890625v-27.5zm-124.703125 185h-1.097656c-.367188 0-.734375-.054688-1.105469-.054688s-.730469.054688-1.097656.054688h-50.484375c-.359375 0-.726563-.054688-1.097657-.054688-.375 0-.738281.054688-1.097656.054688h-50.488281c-.363281 0-.726563-.054688-1.097656-.054688-.371094 0-.738281.054688-1.101563.054688h-50.488281c-.359375 0-.726563-.054688-1.097656-.054688-.371094 0-.738281.054688-1.097657.054688h-50.484374c-.367188 0-.730469-.054688-1.101563-.054688s-.734375.054688-1.101563.054688h-1.097656c-20.5625.113281-37.320312-16.464844-37.429687-37.027344v-1.261718c0-.367188.050781-.738282.050781-1.117188 0-.367188-.050781-.746094-.050781-1.105469v-50.460937c0-.371094.050781-.738282.050781-1.113282s-.050781-.75-.050781-1.113281v-50.457031c0-.367188.050781-.738281.050781-1.113281 0-.378907-.050781-.746094-.050781-1.113281v-50.460938c0-.367188.050781-.734375.050781-1.113281 0-.375-.050781-.746094-.050781-1.105469v-50.464844c0-.367187.050781-.738281.050781-1.109375 0-.375-.050781-.753906-.050781-1.113281v-1.089844c-.019531-20.714844 16.710937-37.550781 37.429687-37.660156h1.113282c.355468 0 .71875.054688 1.085937.054688.371094 0 .730469-.054688 1.085937-.054688h50.507813c.363281 0 .722656.054688 1.089844.054688.371093 0 .734375-.054688 1.089843-.054688h50.507813c.359375 0 .722656.054688 1.089844.054688.363281 0 .726562-.054688 1.085937-.054688h50.507813c.359375 0 .722656.054688 1.089843.054688.367188 0 .726563-.054688 1.089844-.054688h50.507813c.355469 0 .71875.054688 1.082031.054688.371094 0 .734375-.054688 1.089844-.054688h1.113281c20.71875.109375 37.453125 16.945312 37.433594 37.660156v1.089844c0 .367188-.058594.738281-.058594 1.113281 0 .371094.058594.746094.058594 1.109375v50.464844c0 .363281-.058594.730469-.058594 1.105469 0 .378906.058594.753906.058594 1.113281v50.460938c0 .371093-.058594.734374-.058594 1.113281 0 .375.058594.75.058594 1.113281v50.457031c0 .367188-.058594.738281-.058594 1.113281s.058594.75.058594 1.113282v50.460937c0 .363281-.058594.738281-.058594 1.105469 0 .378906.058594.753906.058594 1.117188v1.085937c-.015625 20.5625-16.695313 37.210937-37.253907 37.203125zm0 0"/></svg>