<svg height="533.33331pt" viewBox="-16 -16 533.33331 533.33331" width="533.33331pt" xmlns="http://www.w3.org/2000/svg"><path d="m487.5 352.5h-340v-340c0-6.90625-5.59375-12.5-12.5-12.5s-12.5 5.59375-12.5 12.5v110h-110c-6.90625 0-12.5 5.59375-12.5 12.5s5.59375 12.5 12.5 12.5h110v217.9375c-.164062 6.496094 4.964844 11.898438 11.453125 12.0625h218.546875v110c0 6.90625 5.59375 12.5 12.5 12.5s12.5-5.59375 12.5-12.5v-110h110c6.90625 0 12.5-5.59375 12.5-12.5s-5.59375-12.5-12.5-12.5zm0 0"/><path d="m213.671875 147.5h138.828125v141.515625c0 6.902344 5.59375 12.5 12.5 12.5s12.5-5.597656 12.5-12.5v-154.453125c.164062-6.496094-4.964844-11.898438-11.453125-12.0625-.207031 0-.40625 0-.609375 0h-151.765625c-6.90625 0-12.5 5.59375-12.5 12.5s5.59375 12.5 12.5 12.5zm0 0"/></svg>