<svg height="565pt" viewBox="-33 -17 565 565.33331" width="565pt" xmlns="http://www.w3.org/2000/svg"><path d="m444.226562 254.699219h-8.492187v-67.796875c0-103.003906-83.898437-186.902344-186.902344-186.902344-103.003906 0-186.902343 83.898438-186.902343 186.902344v67.796875h-8.492188c-29.984375.019531-54.292969 24.328125-54.3125 54.3125v55.933593c.019531 29.984376 24.328125 54.285157 54.3125 54.3125h48.820312c6.886719-.019531 12.464844-5.601562 12.484376-12.488281v-139.585937c-.019532-6.886719-5.597657-12.464844-12.484376-12.484375h-15.484374v-67.796875c0-89.269532 72.660156-161.933594 161.929687-161.933594 89.273437 0 161.941406 72.664062 161.941406 161.933594v67.796875h-15.484375c-6.886718.019531-12.46875 5.597656-12.488281 12.484375v139.585937c.019531 6.886719 5.601563 12.46875 12.488281 12.488281h15.484375v16.605469c-.039062 20.945313-17.011719 37.917969-37.960937 37.953125h-24.46875c-1.222656.035156-2.4375.203125-3.621094.496094-5.371094-18.777344-22.542969-31.71875-42.074219-31.710938h-61.425781c-24.136719 0-43.699219 19.566407-43.699219 43.699219 0 24.132813 19.5625 43.699219 43.699219 43.699219h61.425781c19.515625-.039062 36.660157-12.964844 42.074219-31.710938 1.175781.355469 2.394531.527344 3.621094.496094h24.46875c34.742187-.027344 62.894531-28.183594 62.929687-62.921875v-16.605469h8.484375c29.992188-.027343 54.292969-24.328124 54.3125-54.3125v-55.808593c.070313-14.414063-5.613281-28.261719-15.78125-38.480469-10.167968-10.210938-23.984375-15.957031-38.402344-15.957031zm-354.457031 139.585937h-36.332031c-16.191406-.023437-29.316406-13.148437-29.339844-29.339844v-55.808593c.023438-16.195313 13.148438-29.316407 29.339844-29.339844h36.332031zm212.875 110.746094h-61.429687c-10.339844 0-18.730469-8.386719-18.730469-18.730469s8.390625-18.726562 18.730469-18.726562h61.429687c10.339844 0 18.730469 8.382812 18.730469 18.726562s-8.390625 18.730469-18.730469 18.730469zm170.921875-140.085938c-.023437 16.191407-13.148437 29.316407-29.339844 29.339844h-36.335937v-114.613281h36.335937c16.191407.023437 29.316407 13.148437 29.339844 29.339844zm0 0"/></svg>