<svg height="600pt" viewBox="-89 -19 600 600" width="600pt" xmlns="http://www.w3.org/2000/svg"><path d="m354.582031 39.5h-55v-27c-.019531-6.894531-5.601562-12.4804688-12.5-12.5h-161.75c-6.894531.0195312-12.480469 5.605469-12.5 12.5v27h-55c-34.511719.011719-62.484375 27.984375-62.5 62.5v398c.015625 34.511719 27.988281 62.484375 62.5 62.5h296.75c34.515625-.015625 62.488281-27.988281 62.5-62.5v-398c-.011719-34.515625-27.984375-62.488281-62.5-62.5zm-216.75-14.5h136.75v51.75h-136.75zm254.25 475c-.058593 20.683594-16.8125 37.441406-37.5 37.5h-296.75c-20.683593-.058594-37.441406-16.816406-37.5-37.5v-398c.058594-20.6875 16.816407-37.4375 37.5-37.5h55v24.875c.019531 6.894531 5.605469 12.480469 12.5 12.5h161.75c6.898438-.019531 12.480469-5.605469 12.5-12.5v-24.875h55c20.6875.0625 37.441407 16.8125 37.5 37.5zm0 0"/><path d="m312.335938 357.375h-212.25c-6.90625 0-12.5 5.597656-12.5 12.5s5.59375 12.5 12.5 12.5h212.121093c6.90625.03125 12.53125-5.535156 12.566407-12.4375.03125-6.90625-5.539063-12.53125-12.4375-12.5625zm0 0"/><path d="m312.335938 431.625h-212.25c-6.90625 0-12.5 5.597656-12.5 12.5 0 6.90625 5.59375 12.5 12.5 12.5h212.121093c6.90625.035156 12.53125-5.535156 12.566407-12.4375.03125-6.902344-5.539063-12.527344-12.4375-12.5625zm0 0"/><path d="m206.207031 230.375c25.335938 0 45.875-20.539062 45.875-45.875s-20.539062-45.875-45.875-45.875c-25.335937 0-45.875 20.539062-45.875 45.875.015625 25.328125 20.546875 45.855469 45.875 45.875zm0-66.625c11.527344 0 20.875 9.34375 20.875 20.875 0 11.527344-9.347656 20.875-20.875 20.875-11.527343 0-20.875-9.347656-20.875-20.875.019531-11.519531 9.355469-20.855469 20.875-20.875zm0 0"/><path d="m156.207031 323.75c6.894531-.019531 12.480469-5.605469 12.5-12.5v-10c0-20.710938 16.792969-37.5 37.5-37.5 20.714844 0 37.5 16.789062 37.5 37.5v10c0 6.90625 5.597657 12.5 12.5 12.5 6.90625 0 12.5-5.59375 12.5-12.5v-10c0-34.515625-27.984375-62.5-62.5-62.5s-62.5 27.984375-62.5 62.5v10c.019531 6.894531 5.605469 12.480469 12.5 12.5zm0 0"/></svg>