<svg height="541pt" viewBox="-17 -17 541.33262 541" width="541pt" xmlns="http://www.w3.org/2000/svg"><path d="m415.136719 11.027344c-14.617188-14.585938-38.289063-14.585938-52.910157 0l-66.425781 66.429687-15.09375-15.089843c-4.871093-4.871094-12.765625-4.871094-17.632812 0l-244.808594 244.792968c-24.355469 24.355469-24.355469 63.839844 0 88.1875l93.96875 93.96875c24.371094 24.316406 63.820313 24.316406 88.1875 0l244.796875-244.796875c4.871094-4.871093 4.871094-12.769531 0-17.636719l-15.085938-15.089843 66.425782-66.433594c14.585937-14.621094 14.585937-38.285156 0-52.910156zm-232.351563 460.65625c-14.625 14.585937-38.289062 14.585937-52.914062 0l-93.964844-93.972656c-14.59375-14.617188-14.59375-38.289063 0-52.910157l60.4375-60.445312 146.878906 146.886719zm78.078125-78.082032-146.882812-146.878906 157.90625-157.902344 146.878906 146.875zm218.058594-265.882812-66.429687 66.429688-99.058594-99.058594 66.429687-66.4375c4.871094-4.863282 12.761719-4.863282 17.632813 0l81.425781 81.4375c4.855469 4.871094 4.855469 12.757812 0 17.628906zm0 0"/><path d="m367.507812 84.007812 14.648438-14.648437 17.640625 17.640625-14.648437 14.640625zm0 0"/><path d="m405.941406 122.4375 14.648438-14.648438 17.640625 17.636719-14.648438 14.648438zm0 0"/></svg>