<svg height="532pt" viewBox="-27 -17 532 532.00081" width="532pt" xmlns="http://www.w3.org/2000/svg"><path d="m477.34375 184.765625v-76.933594c-.035156-30.25-24.550781-54.765625-54.800781-54.800781h-14.429688v-8.652344c-.125-24.550781-20.0625-44.378906-44.609375-44.378906s-44.480468 19.828125-44.613281 44.378906v8.652344h-161.171875v-8.652344c-.125-24.550781-20.0625-44.378906-44.609375-44.378906s-44.480469 19.828125-44.613281 44.378906v8.652344h-14.433594c-30.246094.035156-54.761719 24.550781-54.796875 54.800781v336.117188c.035156 30.25 24.550781 54.765625 54.796875 54.800781h368.480469c30.25-.035156 54.765625-24.550781 54.800781-54.800781v-251.273438c.867188-2.566406.867188-5.34375 0-7.910156zm-113.839844-160.050781c10.851563.015625 19.644532 8.804687 19.65625 19.664062v26.273438c-.082031 10.792968-8.863281 19.5-19.664062 19.5-10.796875 0-19.574219-8.707032-19.660156-19.5v-26.273438c.011718-10.859375 8.808593-19.652344 19.667968-19.664062zm-270.0625 19.664062c.085938-10.800781 8.863282-19.507812 19.660156-19.507812 10.800782 0 19.574219 8.707031 19.664063 19.507812v26.273438c-.089844 10.792968-8.863281 19.5-19.664063 19.5-10.796874 0-19.574218-8.707032-19.660156-19.5zm-39.378906 33.601563h15.042969c3.585937 21.507812 22.191406 37.273437 43.996093 37.273437 21.808594 0 40.414063-15.765625 44-37.273437h162.402344c3.585938 21.507812 22.195313 37.273437 44 37.273437 21.804688 0 40.414063-15.765625 43.996094-37.273437h15.042969c16.480469.019531 29.832031 13.371093 29.851562 29.851562v68.410157h-428.179687v-68.40625c.015625-16.480469 13.375-29.835938 29.847656-29.855469zm368.480469 395.820312h-368.480469c-16.472656-.019531-29.828125-13.371093-29.847656-29.851562v-242.757813h428.179687v242.757813c-.019531 16.480469-13.371093 29.832031-29.851562 29.851562zm0 0"/><path d="m300.367188 280.152344-81.898438 79.964844-41.578125-40.597657c-4.898437-4.785156-12.734375-4.730469-17.5625.121094-4.828125 4.855469-4.84375 12.691406-.039063 17.5625l.171876.164063 50.296874 49.113281c4.84375 4.730469 12.582032 4.730469 17.425782 0l90.617187-88.46875c4.886719-4.804688 4.984375-12.65625.21875-17.582031-4.773437-4.921876-12.621093-5.070313-17.582031-.339844l-.070312.066406zm0 0"/></svg>