<svg height="533pt" viewBox="-16 -35 533.33331 533" width="533pt" xmlns="http://www.w3.org/2000/svg"><path d="m444.25 53.917969h-13v-20.386719c0-18.8125-14.929688-34.613281-33.75-34.613281h-32.4375c-18.8125 0-33.8125 15.800781-33.8125 34.613281v20.386719h-162.5v-20.386719c0-18.8125-15-34.613281-33.8125-34.613281h-32.4375c-18.820312 0-33.75 15.800781-33.75 34.613281v20.386719h-13c-30.808594.105469-55.7304688 25.101562-55.75 55.90625v295.96875c.0507812 30.75 25 55.644531 55.75 55.625h388.5c30.75.019531 55.703125-24.875 55.75-55.625v-295.96875c-.019531-30.804688-24.941406-55.800781-55.75-55.90625zm-88-20.386719c0-5.03125 3.785156-9.613281 8.8125-9.613281h32.4375c5.03125 0 8.75 4.582031 8.75 9.613281v75.386719h-50zm-262.5 0c0-5.03125 3.714844-9.613281 8.75-9.613281h32.4375c5.027344 0 8.8125 4.582031 8.8125 9.613281v75.386719h-50zm-38 45.386719h13v42.324219c-.191406 6.808593 5.175781 12.484374 11.988281 12.675781h75.824219c6.839844-.109375 12.300781-5.75 12.1875-12.589844v-42.410156h162.5v42.324219c-.160156 6.839843 5.257812 12.519531 12.101562 12.675781h75.773438c6.8125-.117188 12.238281-5.730469 12.125-12.539063 0-.046875 0-.09375 0-.136718v-42.324219h13c17.003906.089843 30.746094 13.898437 30.75 30.90625v54.09375h-450v-54.09375c.003906-17.007813 13.746094-30.816407 30.75-30.90625zm388.5 357.5h-388.5c-16.945312.039062-30.714844-13.671875-30.75-30.617188v-216.882812h450v216.875c-.035156 16.945312-13.792969 30.65625-30.742188 30.625zm0 0"/></svg>