<svg height="533pt" viewBox="-16 -90 533.33331 533" width="533pt" xmlns="http://www.w3.org/2000/svg"><path d="m450.125-2.234375c-23.089844 0-42.554688 15.066406-48.210938 36.316406h-101.914062v-25.707031c0-6.902344-5.347656-13.042969-12.25-13.042969h-76.523438c-6.90625 0-12.476562 6.140625-12.476562 13.042969v25.707031h-102.613281c-5.449219-21.25-24.582031-37.34375-47.292969-37.34375-26.933594 0-48.84375 22.390625-48.84375 49.882813 0 27.5 21.910156 49.855468 48.84375 49.855468 22.710938 0 41.84375-16.144531 47.292969-37.394531h66.738281c-31.0625 25.679688-49.066406 63.863281-49.125 104.160157v84.589843h-22.78125c-6.535156-.214843-12 4.910157-12.214844 11.441407-.003906.179687-.007812.363281 0 .546874v76.527344c-.152344 6.882813 5.308594 12.585938 12.1875 12.734375h76.558594c6.949219-.117187 12.515625-5.785156 12.5-12.734375v-76.527344c0-6.902343-5.601562-11.988281-12.5-11.988281h-28.75v-84.589843c.109375-41.328126 23.25-79.148438 60-98.058594v19.714844c-.042969 6.988281 5.492188 12.730468 12.476562 12.933593h76.523438c6.902344 0 12.25-6.027343 12.25-12.933593v-19.734376c36.792969 18.875 59.945312 56.730469 60 98.078126v84.589843h-28.519531c-6.90625 0-12.730469 5.085938-12.730469 11.988281v76.527344c.085938 6.992188 5.738281 12.644532 12.730469 12.734375h76.527343c6.90625 0 11.996094-5.832031 11.996094-12.734375v-76.527344c.191406-6.429687-4.867187-11.796874-11.296875-11.988281-.234375-.007812-.46875-.007812-.699219 0h-23.007812v-84.589843c.082031-40.257813-17.8125-78.457032-48.804688-104.160157h65.722657c5.929687 21.675781 25.738281 36.621094 48.207031 36.378907 27.5 0 49.875-21.914063 49.875-48.847657 0-26.933593-22.375-48.847656-49.875-48.847656zm-295.125 326.316406h-51.25v-51.25h51.25zm240 0h-51.25v-51.25h51.25zm-346.15625-252.570312c-13.144531 0-23.84375-11.160157-23.84375-24.878907 0-13.714843 10.699219-24.875 23.84375-24.875 13.148438 0 23.847656 11.160157 23.847656 24.875 0 13.71875-10.691406 24.878907-23.847656 24.878907zm174.90625 1.320312v-52.5h51.25v21.5625c0 .164063-.125.3125-.179688.480469-1.011718 2.617188-.945312 5.527344.179688 8.101562v22.355469zm226.375-2.347656c-13.714844 0-24.875-10.699219-24.875-23.847656 0-13.148438 11.15625-23.84375 24.875-23.84375s24.875 10.695312 24.875 23.84375c0 13.148437-11.15625 23.847656-24.875 23.847656zm0 0"/></svg>