<svg height="533pt" viewBox="-123 -16 533 533.33331" width="533pt" xmlns="http://www.w3.org/2000/svg"><path d="m280.582031 52.625c0-29.066406-23.558593-52.625-52.625-52.625h-182.246093c-29.066407 0-52.628907 23.558594-52.628907 52.625v394.75c0 29.066406 23.5625 52.625 52.628907 52.625h182.246093c29.066407 0 52.625-23.558594 52.625-52.625zm-262.5 38.625h237.5v291.25h-237.5zm27.375-66.25h182.753907c15.230468 0 27.371093 12.695312 27.371093 27.929688v13.320312h-237.5v-13.320312c0-15.234376 12.144531-27.929688 27.375-27.929688zm182.753907 450h-182.753907c-15.015625.109375-27.269531-11.984375-27.375-27v-40.5h237.5v40.179688c.074219 15.015624-12.035156 27.246093-27.050781 27.320312zm0 0"/><path d="m161.296875 428.75h-48.925781c-6.90625 0-12.5 5.59375-12.5 12.5s5.59375 12.5 12.5 12.5h48.925781c6.902344 0 12.5-5.59375 12.5-12.5s-5.597656-12.5-12.5-12.5zm0 0"/></svg>