<svg height="532pt" viewBox="-17 -37 532.00013 532" width="532pt" xmlns="http://www.w3.org/2000/svg"><path d="m496.484375 178.632812c.082031-.128906.167969-.246093.25-.367187.125-.195313.242187-.390625.359375-.589844.074219-.121093.144531-.246093.214844-.375.121094-.226562.234375-.46875.339844-.699219.054687-.128906.113281-.246093.160156-.375.128906-.304687.238281-.609374.34375-.921874.042968-.144532.082031-.292969.121094-.4375.0625-.21875.125-.433594.167968-.652344.035156-.152344.066406-.304688.09375-.453125.042969-.25.082032-.492188.113282-.742188.015624-.121093.035156-.246093.042968-.371093.039063-.375.058594-.75.058594-1.132813v-.039063c0-.054687-.007812-.109374-.007812-.160156 0-.316406-.019532-.632812-.050782-.949218-.007812-.132813-.023437-.265626-.042968-.394532-.03125-.25-.0625-.492187-.113282-.738281-.023437-.140625-.046875-.28125-.078125-.421875-.050781-.25-.125-.496094-.1875-.75-.039062-.121094-.074219-.265625-.113281-.390625-.101562-.316406-.21875-.632813-.347656-.941406-.0625-.152344-.136719-.304688-.207032-.457031-.082031-.183594-.171874-.375-.265624-.550782-.078126-.15625-.164063-.304687-.246094-.457031-.054688-.09375-.097656-.183594-.152344-.273437l-97.441406-160.261719c-2.246094-3.757813-6.277344-6.078125-10.652344-6.144531h-278.941406c-4.375.066406-8.402344 2.386718-10.648438 6.144531l-97.441406 160.195312c-.054688.085938-.097656.21875-.152344.3125-.085937.148438-.175781.320313-.246094.476563-.09375.179687-.183593.375-.265624.558594-.070313.152343-.144532.308593-.207032.464843-.128906.308594-.246094.621094-.347656.945313-.039062.121094-.074219.257812-.113281.386718-.066407.25-.132813.503907-.1875.75-.03125.144532-.054688.285157-.078125.425782-.050782.242187-.082032.492187-.1171878.734375-.015625.132812-.03125.261719-.0390624.394531-.03125.316406-.0429688.632812-.0507813.949219 0 .054687-.0078125.109375-.0078125.160156v.039063c0 .375.0195312.757812.0585938 1.136718.0078124.121094.0273437.246094.0429682.371094.03125.25.070313.496094.113282.738281.027344.152344.058594.300781.09375.453125.046875.21875.105468.433594.167968.652344.039063.148438.078126.292969.121094.4375.105469.3125.214844.621094.34375.921875.046875.121094.105469.25.160156.375.105469.238281.21875.472656.339844.707031.070313.121094.140625.25.214844.371094.117188.199219.234375.394531.359375.589844.078125.125.160156.246094.25.363281.136719.191406.273437.375.417969.566406.085937.105469.171875.214844.261718.320313.039063.046875.074219.097656.117188.144531l236.859375 272.199219.039063.042968.144531.15625.121093.125c.039063.039063.078126.082032.121094.121094l.003906.011719c.109376.113281.21875.214844.328126.320313.089843.089843.175781.175781.261718.257812l.019532.019531h.011718c.085938.082031.183594.152344.277344.234375.089844.078125.210938.1875.324219.273438.140625.113281.28125.222656.429687.332031.257813.1875.519532.375.792969.542969.015625.011718.03125.019531.050781.03125.066406.042968.148438.082031.222656.125.265626.15625.546876.308594.824219.449218.027344.015626.050781.03125.078125.042969.0625.03125.125.050781.1875.078125l.039063.015625.273437.125c.214844.09375.429688.171875.648438.25.125.042969.246094.085938.375.125.152344.050781.300781.105469.453125.148438l.097656.023437c.101563.027344.207031.046875.3125.074219.144531.039063.289063.078125.441406.105469.210938.050781.429688.078125.644531.113281.117188.019531.226563.039063.34375.054687.117188.011719.207032.03125.308594.042969.316406.03125.648438.046875.972656.050781.101563 0 .199219.019532.296876.019532h.019531c.097656 0 .195312-.011719.292969-.019532.332031-.003906.65625-.019531.980468-.050781.101563-.011719.203125-.03125.304688-.042969.101562-.011718.222656-.035156.339844-.054687.222656-.035156.433593-.0625.648437-.113281.148437-.027344.292969-.066406.4375-.101563.109375-.03125.214844-.050781.320313-.082031.027343-.003906.0625-.011719.089843-.019531.15625-.042969.304688-.097657.453125-.148438l.375-.125c.226563-.082031.4375-.164062.652344-.257812.09375-.039063.175781-.078125.265625-.128907l.046875-.019531c.058594-.027343.121094-.046875.183594-.074219.03125-.011718.054687-.03125.078125-.039062.285156-.144531.558593-.292969.828125-.453125.074218-.046875.15625-.078125.230468-.125l.039063-.027344c.273437-.171875.535156-.355469.796875-.546875.148438-.105468.289062-.21875.429688-.332031.113281-.085937.214843-.179687.320312-.265625.109375-.09375.191406-.15625.285156-.238281h.003906l.019532-.019531c.09375-.082032.175781-.171876.261718-.257813.109376-.101563.21875-.210937.328126-.316406l.007812-.011719c.039062-.042969.078125-.09375.128906-.136719l.109375-.121093.144531-.15625.039063-.046876 236.863281-272.199218c.039063-.042969.074219-.097656.117188-.144532.085937-.101562.171875-.214843.257812-.320312.144532-.171875.28125-.367188.417969-.554688zm-385.867187 5.742188 87.417968 181.785156-158.191406-181.785156zm27.671874 0h98.613282v204.648438zm123.550782 0h98.617187l-98.617187 204.648438zm126.289062 0h70.773438l-158.191406 181.785156zm75.964844-24.9375h-75.433594l-55.265625-135.914062h48.441407zm-157.636719-135.914062 55.261719 135.914062h-99.878906v-135.914062zm-69.554687 135.914062h-99.875l55.261718-135.914062h44.613282zm-119.992188-135.914062h48.4375l-55.261718 135.914062h-75.4375zm0 0"/></svg>