<svg height="546pt" viewBox="-50 -17 546 546.66669" width="546pt" xmlns="http://www.w3.org/2000/svg"><path d="m443.082031 62.5c0-34.515625-27.980469-62.5-62.5-62.5h-320c-34.515625 0-62.5 27.984375-62.5 62.5v387.5c0 34.515625 27.984375 62.5 62.5 62.5h320c34.519531 0 62.5-27.984375 62.5-62.5zm-420 387.5v-387.5c.105469-20.734375 16.933594-37.492188 37.671875-37.5h27.328125v462.5h-27.328125c-20.738281-.007812-37.566406-16.765625-37.671875-37.5zm395 0c-.101562 20.734375-16.933593 37.492188-37.667969 37.5h-267.332031v-462.5h267.332031c20.734376.007812 37.566407 16.765625 37.667969 37.5zm0 0"/><path d="m374.332031 143.804688c0-19.359376-15.691406-35.054688-35.050781-35.054688h-154.894531c-19.359375 0-35.054688 15.695312-35.054688 35.054688v96.140624c0 19.359376 15.695313 35.054688 35.054688 35.054688h154.894531c19.359375 0 35.050781-15.695312 35.050781-35.054688zm-25 96.140624c0 5.554688-4.5 10.054688-10.050781 10.054688h-154.894531c-5.550781 0-10.054688-4.5-10.054688-10.054688v-96.140624c0-5.554688 4.503907-10.054688 10.054688-10.054688h154.894531c5.550781 0 10.050781 4.5 10.050781 10.054688zm0 0"/><path d="m361.046875 327.5h-199.515625c-6.90625 0-12.5 5.59375-12.5 12.5s5.59375 12.5 12.5 12.5h199.515625c6.90625 0 12.5-5.59375 12.5-12.5s-5.59375-12.5-12.5-12.5zm0 0"/></svg>