<svg height="533pt" viewBox="-66 -16 533 533.33331" width="533pt" xmlns="http://www.w3.org/2000/svg"><path d="m281.527344 3.324219c-2.3125-2.136719-5.34375-3.324219-8.492188-3.324219h-220.1875c-30.859375.0195312-55.898437 24.984375-56.015625 55.84375v388.3125c.117188 30.859375 25.15625 55.824219 56.015625 55.84375h287.96875c30.859375-.019531 55.898438-24.984375 56.015625-55.84375v-328.84375c-.03125-3.496094-1.511719-6.820312-4.09375-9.179688zm4.054687 37.769531 66.660157 61.40625h-66.660157zm55.234375 433.90625h-287.96875c-17.058594-.003906-30.917968-13.785156-31.015625-30.84375v-388.3125c.097657-17.058594 13.957031-30.839844 31.015625-30.84375h207.734375v90.3125c.007813 6.734375 5.46875 12.191406 12.203125 12.1875h99.046875v316.65625c-.097656 17.058594-13.953125 30.839844-31.015625 30.84375zm0 0"/><path d="m312.996094 166.164062-34.941406 34.9375-2.671876-2.664062c-14.121093-14.085938-36.980468-14.085938-51.101562 0l-130.234375 130.230469-2.667969-2.667969c-4.882812-4.882812-12.796875-4.882812-17.675781 0-4.882813 4.878906-4.882813 12.792969-.003906 17.675781l30.886719 30.890625-13.890626 13.894532-10.023437-10.023438c-4.882813-4.882812-12.796875-4.882812-17.675781 0-4.882813 4.882812-4.882813 12.796875 0 17.675781l37.722656 37.722657c4.878906 4.882812 12.792969 4.882812 17.675781 0 4.882813-4.875 4.882813-12.789063 0-17.671876l-10.023437-10.027343 13.898437-13.886719 30.886719 30.890625c4.882812 4.882813 12.796875 4.875 17.679688-.007813 4.882812-4.882812 4.878906-12.796874-.003907-17.679687l-2.664062-2.671875 130.226562-130.226562c14.113281-14.113282 14.113281-36.992188 0-51.105469l-2.664062-2.664063 34.941406-34.949218c4.84375-4.886719 4.828125-12.773438-.039063-17.632813-4.863281-4.871094-12.75-4.882813-17.636718-.039063zm-173.050782 208.402344-28.21875-28.21875 33.609376-33.597656 38.75 38.75-33.605469 33.601562zm140.773438-119.691406-78.953125 78.953125-38.761719-38.757813 78.957032-78.957031c4.351562-4.339843 11.394531-4.339843 15.746093 0l23.011719 23.011719c4.351562 4.347656 4.351562 11.402344 0 15.75zm0 0"/></svg>