<svg height="532pt" viewBox="-92 -17 532 532.00249" width="532pt" xmlns="http://www.w3.org/2000/svg"><path d="m331.210938 0c-6.886719 0-12.46875 5.582031-12.46875 12.472656v135.414063c0 58.648437-47.964844 106.359375-106.648438 106.359375-58.648438 0-106.609375-47.710938-106.609375-106.359375v-135.414063c0-6.890625-5.589844-12.472656-12.472656-12.472656-6.886719 0-12.472657 5.582031-12.472657 12.472656v135.414063c0 68.191406 52.378907 124.394531 118.476563 130.703125v124.757812c0 38.914063-31.546875 70.460938-70.460937 70.460938-38.917969 0-70.460938-31.546875-70.460938-70.460938v-25.46875c24.769531-6.289062 40.984375-30.042968 37.8125-55.40625-3.167969-25.359375-24.730469-44.394531-50.285156-44.394531-25.5625 0-47.117188 19.035156-50.289063 44.394531-3.171875 25.363282 13.042969 49.117188 37.816407 55.40625v25.46875c0 52.6875 42.714843 95.40625 95.40625 95.40625 52.691406 0 95.40625-42.71875 95.40625-95.40625v-124.75c67.34375-6.296875 119.722656-62.507812 119.722656-130.710937v-135.414063c0-6.890625-5.585938-12.472656-12.472656-12.472656zm-311.257813 328.703125c0-14.234375 11.546875-25.773437 25.78125-25.773437 14.238281 0 25.777344 11.539062 25.777344 25.773437 0 14.242187-11.539063 25.78125-25.777344 25.78125-14.230469-.011719-25.761719-11.542969-25.78125-25.78125zm0 0"/></svg>