<svg height="586pt" viewBox="-82 -18 586 586.66853" width="586pt" xmlns="http://www.w3.org/2000/svg"><path d="m273.011719 3.882812-.125-.128906c-2.359375-2.429687-5.609375-3.7890622-8.996094-3.74999975-.460937-.01953125-.925781.01953125-1.371094.12890575h-201.457031c-35.882812.011719-64.964844 29.097657-64.984375 64.984376v419.898437c.019531 35.882813 29.101563 64.964844 64.984375 64.984375h292.179688c35.886718-.019531 64.972656-29.101562 64.984374-64.984375v-331.046875c-.023437-3.3125-1.320312-6.488281-3.621093-8.871094zm3.375 38.613282 99.476562 99.222656h-59.488281c-22.058594-.0625-39.925781-17.929688-39.988281-39.988281zm76.855469 482.257812h-292.179688c-22.0625-.0625-39.921875-17.929687-39.992188-39.992187v-419.898438c.070313-22.054687 17.929688-39.921875 39.992188-39.992187h190.328125v76.859375c.019531 35.882812 29.105469 64.96875 64.984375 64.984375h76.859375v318.046875c-.019531 22.082031-17.910156 39.972656-39.992187 39.992187zm0 0"/><path d="m298.503906 267.316406-118.71875 113.472656-63.738281-63.734374c-4.859375-4.867188-12.753906-4.867188-17.617187 0-4.867188 4.867187-4.867188 12.753906 0 17.621093l72.355468 72.355469c2.34375 2.363281 5.546875 3.671875 8.875 3.628906 3.226563.027344 6.332032-1.230468 8.621094-3.5l127.597656-121.847656c2.386719-2.285156 3.773438-5.425781 3.84375-8.734375.066406-3.304687-1.179687-6.5-3.46875-8.886719-4.808594-4.980468-12.734375-5.144531-17.75-.375zm0 0"/></svg>