<svg height="558pt" viewBox="-154 -17 558 558.67326" width="558pt" xmlns="http://www.w3.org/2000/svg"><path d="m223.246094 196.707031c-3.503906-49.796875-40.726563-90.675781-89.96875-98.816406v-36.398437c-.09375-11.910157 7.035156-22.695313 18.023437-27.285157l24.523438-10.242187c6.308593-2.691406 9.257812-9.976563 6.605469-16.300782-2.652344-6.328124-9.910157-9.332031-16.257813-6.722656l-24.4375 10.238282c-20.308594 8.441406-33.507813 28.316406-33.398437 50.3125v35.316406c-53.445313 3.847656-95.914063 46.4375-99.609376 99.894531-10.734374 4.765625-17.644531 15.421875-17.617187 27.164063v61.527343c0 6.882813 5.066406 12.640625 11.949219 12.640625h.15625l25.820312 178.628906c4.03125 26.996094 27.179688 47.003907 54.480469 47.09375h68.480469c27.773437-.035156 51.183594-20.730468 54.628906-48.285156l21.734375-177.613281c6.769531-.046875 12.210937-5.570313 12.160156-12.339844v-61.652343c.160157-11.683594-6.625-22.351563-17.273437-27.160157zm-207.195313 76.386719v-49.226562c-.105469-1.167969.300781-2.320313 1.117188-3.164063.8125-.84375 1.953125-1.296875 3.121093-1.234375h191.050782c1.175781-.058594 2.308594.390625 3.121094 1.234375.816406.84375 1.226562 1.996094 1.121093 3.164063v49.226562zm99.765625-151.269531c41.839844-.035157 77.125 31.171875 82.207032 72.703125h-164.410157c5.082031-41.53125 40.359375-72.738282 82.203125-72.703125zm66.0625 350.664062c-1.890625 15.058594-14.703125 26.347657-29.878906 26.328125h-68.484375c-14.925781-.03125-27.59375-10.957031-29.804687-25.722656l-25.292969-175.058594h175.074219zm0 0"/></svg>