<svg height="577pt" viewBox="-18 -18 577.33246 577" width="577pt" xmlns="http://www.w3.org/2000/svg"><path d="m473.847656 3.714844c-2.347656-2.347656-5.539062-3.652344-8.859375-3.6171878-3.308593.0234378-6.476562 1.3164058-8.855469 3.6171878l-178.664062 178.65625-.496094.503906-.25.25c-.246094.375-.621094.75-.871094 1.121094 0 .125-.125.125-.125.25-.25.371094-.378906.625-.625.996094-.128906.125-.128906.253906-.25.375-.125.375-.246093.625-.375 1 0 .125-.125.125-.125.246093l-31.816406 95.945313c-1.523437 4.464844-.363281 9.414062 3 12.726562 2.355469 2.324219 5.539063 3.625 8.851563 3.617188 1.355469-.027344 2.703125-.234375 3.996093-.625l95.695313-31.9375c.121094 0 .121094 0 .246094-.125.394531-.113282.777343-.28125 1.121093-.496094.097657-.015625.1875-.058594.253907-.128906.371093-.246094.871093-.496094 1.246093-.75.371094-.25.746094-.625 1.121094-.871094.128906-.121094.25-.121094.25-.25.125-.125.375-.25.503906-.496094l178.777344-178.785156c2.339844-2.335938 3.652344-5.5 3.652344-8.796875 0-3.300781-1.3125-6.46875-3.652344-8.796875zm-182.152344 210.597656 35.308594 35.308594-52.902344 17.589844zm58.390626 23.082031-46.164063-46.160156 161.066406-161.070313 46.160157 46.160157zm0 0"/><path d="m444.402344 233.277344c-6.882813.019531-12.457032 5.59375-12.476563 12.476562v233.183594c-.058593 20.644531-16.777343 37.363281-37.429687 37.429688h-332.113282c-20.644531-.066407-37.371093-16.785157-37.429687-37.429688v-332.121094c.058594-20.644531 16.785156-37.367187 37.429687-37.429687h233.175782c6.894531 0 12.476562-5.585938 12.476562-12.476563s-5.582031-12.476562-12.476562-12.476562h-233.175782c-34.449218.015625-62.367187 27.9375-62.382812 62.382812v332.121094c.015625 34.445312 27.933594 62.367188 62.382812 62.378906h332.113282c34.449218-.011718 62.371094-27.933594 62.382812-62.378906v-233.183594c-.019531-6.882812-5.59375-12.457031-12.476562-12.476562zm0 0"/></svg>