<svg height="585pt" viewBox="-30 -18 585 585.33518" width="585pt" xmlns="http://www.w3.org/2000/svg"><path d="m396.316406 451.273438c-6.890625.019531-12.476562 5.601562-12.496094 12.5v22.367187c-.058593 20.675781-16.8125 37.429687-37.492187 37.488281h-284.433594c-20.679687-.058594-37.429687-16.8125-37.492187-37.488281v-423.652344c.0625-20.675781 16.8125-37.429687 37.492187-37.488281h186.707031v72.730469c.011719 34.503906 27.984376 62.476562 62.488282 62.484375h72.730468v66.234375c0 6.902343 5.59375 12.496093 12.496094 12.496093s12.496094-5.59375 12.496094-12.496093v-78.980469c-.023438-3.3125-1.320312-6.488281-3.621094-8.875l-134.96875-134.710938-.125-.128906c-2.359375-2.429687-5.613281-3.7890622-8.996094-3.74999975-.421874-.01953125-.847656.01953125-1.25.12890575h-197.957031c-34.503906.007813-62.46875 27.976563-62.484375 62.484376v423.648437c.015625 34.503906 27.980469 62.472656 62.484375 62.484375h284.433594c34.503906-.011719 62.472656-27.980469 62.484375-62.484375v-22.371094c.039062-3.335937-1.261719-6.550781-3.609375-8.917969-2.347656-2.375-5.546875-3.707031-8.886719-3.703124zm-122.71875-353.542969v-55.109375l92.726563 92.601562h-55.234375c-20.683594-.058594-37.433594-16.808594-37.492188-37.492187zm0 0"/><path d="m470.175781 229.574219c-2.171875-2.515625-5.261719-4.050781-8.578125-4.261719-3.3125-.214844-6.574218.917969-9.042968 3.140625l-163.585938 143.210937c-2.074219 1.777344-3.484375 4.199219-4.003906 6.875l-13.121094 61.859376c-.742188 3.816406.269531 7.761718 2.753906 10.75 2.382813 2.761718 5.847656 4.355468 9.496094 4.375h.75l64.234375-3.625c2.78125-.15625 5.425781-1.257813 7.496094-3.121094l163.464843-143.21875c2.511719-2.191406 4.039063-5.296875 4.246094-8.621094.277344-3.3125-.859375-6.578125-3.125-9.003906zm-126.972656 197.582031-43.609375 2.496094 8.867188-41.992188 150.964843-132.21875 34.617188 39.492188zm0 0"/><path d="m80.765625 216.332031h117.472656c6.902344 0 12.496094-5.601562 12.496094-12.5 0-6.902343-5.59375-12.496093-12.496094-12.496093h-117.472656c-6.902344 0-12.496094 5.59375-12.496094 12.496093 0 6.898438 5.59375 12.5 12.496094 12.5zm0 0"/><path d="m328.207031 286.058594c-.019531-6.890625-5.601562-12.472656-12.496093-12.496094h-234.945313c-6.902344 0-12.496094 5.601562-12.496094 12.496094 0 6.902344 5.59375 12.5 12.496094 12.5h234.945313c6.894531-.019532 12.476562-5.601563 12.496093-12.5zm0 0"/><path d="m245.230469 355.792969h-164.464844c-6.902344 0-12.496094 5.597656-12.496094 12.5 0 6.902343 5.59375 12.496093 12.496094 12.496093h164.464844c6.898437 0 12.496093-5.59375 12.496093-12.496093 0-6.902344-5.597656-12.5-12.496093-12.5zm0 0"/><path d="m245.230469 438.027344h-164.464844c-6.902344 0-12.496094 5.59375-12.496094 12.496094 0 6.902343 5.59375 12.496093 12.496094 12.496093h164.464844c6.898437 0 12.496093-5.59375 12.496093-12.496093 0-6.902344-5.597656-12.496094-12.496093-12.496094zm0 0"/></svg>