<svg height="533pt" viewBox="-41 -16 533 533.33453" width="533pt" xmlns="http://www.w3.org/2000/svg"><path d="m436.382812 171.296875c-8.386718-9.535156-20.226562-15.335937-32.902343-16.121094-2.601563-.160156-5.207031-.121093-7.800781.113281v-51.964843c.09375-3.285157-1.140626-6.472657-3.421876-8.84375l-90.714843-90.597657c-.039063-.039062-.019531-.074218-.058594-.105468-2.332031-2.417969-5.546875-3.78125025-8.902344-3.777344-.355469 0-.691406.257812-1.042969.289062-.355468-.03125-.699218.183594-1.054687.183594h-190.757813c-25.308593 0-46.222656 20.113282-46.222656 45.425782v9.523437h-8.953125c-25.308593-.09375-45.898437 20.347656-45.996093 45.65625v352.550781c0 25.308594 20.6875 46.371094 45.996093 46.371094h250.542969c25.308594 0 45.636719-21.0625 45.636719-46.371094v-9.824218h9.542969c24.890624.183593 45.21875-19.839844 45.40625-44.730469 0-.207031 0-.417969 0-.621094v-123.75l38.511718-33.734375c19.625-17.304688 21.609375-47.203125 4.449219-66.953125zm-59.046874 86.722656c-1.355469.796875-2.546876 1.851563-3.511719 3.097657l-25 22.039062-61.539063 53.882812-40.355468 2.304688 8.203124-38.851562 102.097657-89.757813 32.121093 36.691406zm-72.820313-215.4375 49.207031 49.054688h-49.207031zm11.238281 411.046875c0 11.535156-9.121094 21.394532-20.660156 21.394532h-250.542969c-11.660156-.226563-20.996093-9.730469-21.019531-21.394532v-352.550781c.078125-11.5 9.464844-20.757813 20.964844-20.679687h9.007812v318.054687c0 25.304687 20.914063 45.351563 46.222656 45.351563h216.027344zm54.949219-55.175781c.171875 11.082031-8.675781 20.203125-19.757813 20.375-.222656 0-.449218 0-.671874 0h-250.546876c-11.53125 0-21.246093-8.839844-21.246093-20.375v-323.652344c3-4.28125 3-9.984375 0-14.265625v-14.636718c0-11.535157 9.714843-20.449219 21.246093-20.449219h179.8125v78.109375c.230469 7.121094 5.949219 12.835937 13.074219 13.054687h78.089844v48.675781c0 .519532-1.0625 1.058594-1.703125 1.625l-17.152344 15.183594c-.683594.410156-1.328125.882813-1.917968 1.414063-.617188.550781-1.179688 1.164062-1.671876 1.824219l-112.75 99.140624c-2.019531 1.777344-3.410156 4.160157-3.964843 6.796876l-12.4375 58.890624c-.777344 3.679688.148437 7.519532 2.519531 10.441407 2.371094 2.929687 5.9375 4.625 9.703125 4.625.234375 0 .472656-.007813.710937-.023438l60.945313-3.480469c2.773437-.152343 5.421875-1.238281 7.515625-3.070312l63.1875-55.53125 7.015625-6.402344zm47.214844-176.21875-9.839844 8.675781-32.09375-36.667968 9.757813-8.574219c9.351562-8.222657 23.601562-7.304688 31.824218 2.046875l.03125.039062 2.375 2.710938c8.160156 9.355468 7.242188 23.542968-2.054687 31.769531zm0 0"/><path d="m130.445312 157.824219h88.375c6.890626 0 12.488282-5.589844 12.488282-12.488281 0-6.898438-5.597656-12.488282-12.488282-12.488282h-88.375c-6.898437 0-12.488281 5.589844-12.488281 12.488282 0 6.898437 5.589844 12.488281 12.488281 12.488281zm0 0"/><path d="m282.5 217.769531c0-6.898437-5.59375-12.488281-12.488281-12.488281h-139.566407c-6.898437 0-12.488281 5.589844-12.488281 12.488281 0 6.894531 5.589844 12.488281 12.488281 12.488281h139.566407c6.894531 0 12.488281-5.59375 12.488281-12.488281zm0 0"/></svg>