<svg height="533pt" viewBox="-44 -16 533 533.33587" width="533pt" xmlns="http://www.w3.org/2000/svg"><path d="m427.800781 193.273438c-9.136719-10.453126-22.070312-16.820313-35.925781-17.683594-3.394531-.214844-6.804688-.109375-10.179688.308594v-60.625c.039063-3.304688-1.25-6.488282-3.574218-8.839844l-102.738282-102.519532c-.042968-.046874-.070312-.085937-.113281-.128906-2.339843-2.417968-5.566406-3.78906225-8.9375-3.785156-.402343 0-.792969.257812-1.1875.296875-.402343-.039063-.800781.175781-1.203125.175781h-215.859375c-27.34375-.152344-49.625 21.898438-49.777343 49.242188v399.519531c0 27.734375 22.046874 50.769531 49.777343 50.769531h283.511719c27.734375 0 50.101562-23.035156 50.101562-50.769531v-140.769531l43.957032-38.664063c21.507812-19.007812 23.648437-51.808593 4.792968-73.453125zm-64.59375 98.371093c-1.464843.839844-2.742187 1.964844-3.757812 3.3125l-28.414063 25.050781-70.066406 61.339844-48.378906 2.761719 9.84375-46.59375 117.175781-103.015625 38.511719 43.992188zm-83.917969-249.0625 60.175782 60.292969h-60.175782zm77.429688 406.652344c0 13.960937-11.164062 25.792969-25.125 25.792969h-283.511719c-13.957031 0-24.800781-11.832032-24.800781-25.792969v-398.945313c-.183594-13.53125 10.632812-24.652343 24.171875-24.839843h206.859375v90.089843c-.199219 6.601563 4.992188 12.113282 11.59375 12.3125h90.8125v58.355469c-.976562.644531-1.871094 1.394531-2.667969 2.25l-19.621093 17.292969c-1.519532.863281-2.835938 2.03125-3.871094 3.4375l-127.734375 112.304688c-2.023438 1.777343-3.414063 4.164062-3.972657 6.796874l-14.070312 66.636719c-.78125 3.683594.144531 7.523438 2.515625 10.445313 2.371094 2.925781 5.9375 4.625 9.699219 4.625.238281 0 .476562-.007813.714844-.019532l68.964843-3.9375c2.773438-.160156 5.425781-1.246093 7.515625-3.074218l71.679688-62.839844 10.847656-9.644531zm52.507812-198.167969-12.363281 10.902344-38.488281-43.957031 12.269531-10.785157c11.265625-9.90625 28.429688-8.804687 38.335938 2.464844l.035156.042969 2.695313 3.074219c9.816406 11.265625 8.710937 28.351562-2.484376 38.257812zm0 0"/><path d="m82.839844 175.308594h100.003906c6.898438 0 12.488281-5.59375 12.488281-12.488282 0-6.898437-5.589843-12.488281-12.488281-12.488281h-100.003906c-6.898438 0-12.488282 5.589844-12.488282 12.488281 0 6.894532 5.589844 12.488282 12.488282 12.488282zm0 0"/><path d="m253.253906 243.992188c0-6.894532-5.589844-12.488282-12.488281-12.488282h-157.925781c-6.898438 0-12.488282 5.59375-12.488282 12.488282 0 6.894531 5.589844 12.488281 12.488282 12.488281h157.925781c6.898437 0 12.488281-5.59375 12.488281-12.488281zm0 0"/></svg>