<svg height="532pt" viewBox="-27 -17 532 532.00081" width="532pt" xmlns="http://www.w3.org/2000/svg"><path d="m477.34375 184.765625v-76.933594c-.035156-30.25-24.550781-54.765625-54.800781-54.800781h-14.429688v-8.652344c-.125-24.550781-20.0625-44.378906-44.609375-44.378906s-44.480468 19.828125-44.613281 44.378906v8.652344h-161.171875v-8.652344c-.125-24.550781-20.0625-44.378906-44.609375-44.378906s-44.480469 19.828125-44.613281 44.378906v8.652344h-14.433594c-30.246094.035156-54.761719 24.550781-54.796875 54.800781v336.117188c.035156 30.25 24.550781 54.765625 54.796875 54.800781h368.480469c30.25-.035156 54.765625-24.550781 54.800781-54.800781v-251.273438c.867188-2.566406.867188-5.34375 0-7.910156zm-113.839844-160.050781c10.851563.015625 19.644532 8.804687 19.65625 19.664062v26.273438c-.082031 10.792968-8.863281 19.5-19.664062 19.5-10.796875 0-19.574219-8.707032-19.660156-19.5v-26.273438c.011718-10.859375 8.808593-19.652344 19.667968-19.664062zm-270.0625 19.664062c.085938-10.800781 8.863282-19.507812 19.660156-19.507812 10.800782 0 19.574219 8.707031 19.664063 19.507812v26.273438c-.089844 10.792968-8.863281 19.5-19.664063 19.5-10.796874 0-19.574218-8.707032-19.660156-19.5zm-39.378906 33.601563h15.042969c3.585937 21.507812 22.191406 37.273437 43.996093 37.273437 21.808594 0 40.414063-15.765625 44-37.273437h162.402344c3.585938 21.507812 22.195313 37.273437 44 37.273437 21.804688 0 40.414063-15.765625 43.996094-37.273437h15.042969c16.480469.019531 29.832031 13.371093 29.851562 29.851562v68.410157h-428.179687v-68.40625c.015625-16.480469 13.375-29.835938 29.847656-29.855469zm368.480469 395.820312h-368.480469c-16.472656-.019531-29.828125-13.371093-29.847656-29.851562v-242.757813h428.179687v242.757813c-.019531 16.480469-13.371093 29.832031-29.851562 29.851562zm0 0"/><path d="m314.304688 312.421875-44.851563-6.390625-20.007813-39.746094c-2.117187-4.210937-6.425781-6.867187-11.144531-6.867187-4.710937 0-9.019531 2.65625-11.136719 6.867187l-20.015624 39.746094-44.84375 6.390625c-4.730469.671875-8.660157 3.988281-10.121094 8.535156-1.457032 4.546875-.195313 9.53125 3.261718 12.832031l32.300782 30.871094-7.609375 43.519532c-.816407 4.667968 1.078125 9.394531 4.898437 12.199218 3.816406 2.808594 8.894532 3.207032 13.105469 1.039063l40.167969-20.699219 40.167968 20.699219c4.207032 2.167969 9.285157 1.765625 13.097657-1.042969 3.8125-2.800781 5.714843-7.527344 4.902343-12.191406l-7.613281-43.519532 32.304688-30.871093c3.453125-3.296875 4.71875-8.285157 3.257812-12.828125-1.460937-4.546875-5.390625-7.867188-10.121093-8.539063zm-47.5 38.796875c-3.011719 2.875-4.386719 7.066406-3.667969 11.167969l4.433593 25.339843-23.550781-12.136718c-3.582031-1.847656-7.839843-1.847656-11.429687 0l-23.550782 12.136718 4.429688-25.339843c.722656-4.101563-.65625-8.292969-3.667969-11.167969l-18.546875-17.71875 25.867188-3.683594c4.042968-.574218 7.546875-3.09375 9.382812-6.738281l11.796875-23.4375 11.804688 23.4375c1.835937 3.644531 5.339843 6.164063 9.378906 6.738281l25.871094 3.683594zm0 0"/></svg>