<svg height="626pt" viewBox="-33 -19 626 626.68002" width="626pt" xmlns="http://www.w3.org/2000/svg"><path d="m477.050781 395.625c-2.339843-2.339844-5.507812-3.65625-8.816406-3.65625-3.304687 0-6.476563 1.316406-8.8125 3.65625l-36.746094 36.746094-38.878906-38.871094c-4.867187-4.867188-12.757813-4.867188-17.625 0-4.863281 4.867188-4.863281 12.757812 0 17.621094l38.875 38.878906-38.875 38.875c-2.339844 2.335938-3.652344 5.503906-3.652344 8.808594 0 3.3125 1.3125 6.480468 3.652344 8.816406 2.347656 2.363281 5.550781 3.671875 8.875 3.625 3.316406-.011719 6.5-1.3125 8.878906-3.625l38.871094-38.875 36.753906 36.75c2.34375 2.363281 5.546875 3.671875 8.871094 3.621094 3.316406-.007813 6.5-1.308594 8.875-3.621094 2.339844-2.335938 3.660156-5.507812 3.660156-8.8125 0-3.308594-1.320312-6.476562-3.660156-8.816406l-37-36.746094 36.753906-36.75c2.335938-2.335938 3.652344-5.507812 3.652344-8.8125s-1.316406-6.480469-3.652344-8.8125zm0 0"/><path d="m113.925781 286.375h193.75c6.902344 0 12.5-5.597656 12.5-12.5s-5.597656-12.5-12.5-12.5h-193.75c-6.90625 0-12.5 5.597656-12.5 12.5s5.59375 12.5 12.5 12.5zm0 0"/><path d="m229.921875 342.625h-115.996094c-6.90625 0-12.5 5.597656-12.5 12.5s5.59375 12.5 12.5 12.5h115.996094c6.902344 0 12.5-5.597656 12.5-12.5s-5.597656-12.5-12.5-12.5zm0 0"/><path d="m446.921875 314.871094v-215.996094c-.007813-34.515625-27.988281-62.488281-62.5-62.5h-51.25v-23.875c0-6.90625-5.59375-12.5-12.5-12.5-6.902344 0-12.5 5.59375-12.5 12.5v23.875h-170v-23.875c0-6.90625-5.59375-12.5-12.5-12.5-6.902344 0-12.5 5.59375-12.5 12.5v23.875h-51.25c-34.511719.011719-62.484375 27.984375-62.5 62.5v338.625c.015625 34.511719 27.988281 62.484375 62.5 62.5h231.378906c24.050781 61.601562 88.550781 97.359375 153.539063 85.125 64.988281-12.230469 112.074218-68.992188 112.085937-135.125.121094-67.125-48.253906-123.125-112.003906-135.128906zm-384.871094-253.496094h51.25v23.875c0 6.902344 5.59375 12.5 12.5 12.5 6.902344 0 12.5-5.597656 12.5-12.5v-23.875h170v23.875c0 6.902344 5.59375 12.5 12.5 12.5 6.902344 0 12.5-5.597656 12.5-12.5v-23.875h51.25c20.683594.058594 37.4375 16.8125 37.5 37.5v30.25h-397.5v-30.25c.015625-20.707031 16.796875-37.484375 37.5-37.5zm0 413.625c-20.6875-.058594-37.441406-16.816406-37.5-37.5v-283.5h397.371094v158.5h-.375c-40.824219.0625-79.515625 18.230469-105.632813 49.613281-26.121093 31.378907-36.964843 72.730469-29.617187 112.886719zm359.496094 87.5c-62.128906 0-112.5-50.367188-112.5-112.5s50.371094-112.5 112.5-112.5c62.132813 0 112.5 50.367188 112.5 112.5-.09375 62.09375-50.40625 112.40625-112.5 112.5zm0 0"/></svg>