<svg height="533pt" viewBox="-16 -20 533.33331 533" width="533pt" xmlns="http://www.w3.org/2000/svg"><path d="m437.5 42.730469h-33.75v-30.3125c0-6.90625-5.59375-12.5000002-12.5-12.5000002s-12.5 5.5937502-12.5 12.5000002v30.3125h-257.5v-30.3125c0-6.90625-5.59375-12.5000002-12.5-12.5000002s-12.5 5.5937502-12.5 12.5000002v30.3125h-33.75c-34.460938 0-62.5 28.425781-62.5 62.890625v324.921875c.0625 34.40625 28.011719 62.25 62.421875 62.1875h375.078125c34.410156.105469 62.390625-27.703125 62.5-62.109375v-325c0-34.464844-28.039062-62.890625-62.5-62.890625zm37.5 387.8125c-.046875 20.585937-16.777344 37.234375-37.363281 37.1875h-375.136719c-20.585938.121093-37.375-16.464844-37.5-37.050781v-325.058594c0-20.679688 16.820312-37.890625 37.5-37.890625h33.75v43.867187c0 6.902344 5.59375 12.5 12.5 12.5s12.5-5.597656 12.5-12.5v-43.867187h257.5v43.867187c0 6.902344 5.59375 12.5 12.5 12.5s12.5-5.597656 12.5-12.5v-43.867187h33.75c20.679688 0 37.5 17.210937 37.5 37.890625zm0 0"/><path d="m384.339844 280.230469h-268.679688c-6.90625 0-12.5 5.59375-12.5 12.5 0 6.902343 5.59375 12.5 12.5 12.5h268.679688c6.90625 0 12.5-5.597657 12.5-12.5 0-6.90625-5.59375-12.5-12.5-12.5zm0 0"/><path d="m384.339844 370.230469h-268.679688c-6.90625 0-12.5 5.59375-12.5 12.5 0 6.902343 5.59375 12.5 12.5 12.5h268.679688c6.90625 0 12.5-5.597657 12.5-12.5 0-6.90625-5.59375-12.5-12.5-12.5zm0 0"/><path d="m115.660156 216.480469h145.535156c6.90625 0 12.5-5.597657 12.5-12.5 0-6.90625-5.59375-12.5-12.5-12.5h-145.535156c-6.90625 0-12.5 5.59375-12.5 12.5 0 6.902343 5.59375 12.5 12.5 12.5zm0 0"/></svg>