<svg height="531pt" viewBox="-16 -52 531.99996 531" width="531pt" xmlns="http://www.w3.org/2000/svg"><path d="m330.816406 203.296875 25.402344-25.402344c2.980469-2.992187 6.558594-5.320312 10.507812-6.828125l53.496094-20.578125c3.9375-1.523437 6.839844-4.921875 7.71875-9.054687.875-4.125-.394531-8.417969-3.378906-11.402344l-128.277344-128.285156c-2.988281-2.980469-7.28125-4.253906-11.40625-3.375-4.125.875-7.53125 3.777344-9.046875 7.71875l-20.578125 53.492187c-1.511718 3.949219-3.839844 7.527344-6.832031 10.511719l-226.21875 226.210938c-29.652344 29.785156-29.597656 77.953124.125 107.675781 29.71875 29.71875 77.886719 29.777343 107.675781.128906l197.410156-197.414063c1.339844-.898437 2.5-2.058593 3.402344-3.398437zm-64.761718-115.570313c5.460937-5.445312 9.714843-11.984374 12.472656-19.1875l13.6875-35.585937 101.148437 101.140625-35.59375 13.6875c-7.203125 2.761719-13.742187 7.011719-19.1875 12.472656l-22.835937 22.835938-126.78125-18.269532zm-153.679688 298.738282c-20.03125 20.03125-52.5 20.03125-72.527344 0-20.027344-20.027344-20.027344-52.496094 0-72.523438l127.09375-127.085937 126.785156 18.261719zm0 0"/><path d="m433.703125 202.703125c-4.871094-4.871094-12.769531-4.871094-17.636719 0l-43.417968 43.410156c-28.796876 28.867188-28.796876 75.597657 0 104.460938 28.851562 28.847656 75.621093 28.847656 104.46875 0 28.84375-28.84375 28.84375-75.613281 0-104.460938zm25.773437 130.238281c-19.117187 19.078125-50.070312 19.078125-69.1875 0-19.105468-19.109375-19.105468-50.082031 0-69.191406l34.597657-34.59375 34.59375 34.59375c19.101562 19.109375 19.101562 50.082031 0 69.183594zm0 0"/></svg>