<svg height="631pt" viewBox="-19 -129 631.99934 631" width="631pt" xmlns="http://www.w3.org/2000/svg"><path d="m504.96875 83.089844c-30.621094-25.9375-61.867188-46.644532-92.859375-61.53125-39.242187-18.863282-78.222656-28.417969-115.859375-28.417969-37.632812 0-76.613281 9.558594-115.859375 28.417969-30.992187 14.886718-62.234375 35.597656-92.859375 61.53125-51.890625 43.949218-83.789062 87.332031-85.128906 89.15625-3.203125 4.386718-3.203125 10.347656 0 14.738281 1.332031 1.824219 33.238281 45.203125 85.128906 89.152344 30.621094 25.941406 61.867188 46.644531 92.859375 61.535156 39.242187 18.859375 78.226563 28.417969 115.859375 28.417969s76.613281-9.5625 115.859375-28.417969c30.992187-14.890625 62.234375-35.597656 92.859375-61.535156 51.890625-43.949219 83.789062-87.328125 85.121094-89.152344 3.210937-4.390625 3.210937-10.351563 0-14.738281-1.324219-1.824219-33.230469-45.207032-85.121094-89.15625zm-208.714844 258.011718c-76.992187 0-146.984375-45.496093-192.144531-83.667968-27.664063-23.496094-53.046875-49.550782-75.816406-77.816406 25.992187-32.507813 137.382812-161.492188 267.957031-161.492188 76.992188 0 146.984375 45.492188 192.144531 83.660156 27.660157 23.5 53.046875 49.554688 75.816407 77.816406-25.996094 32.511719-137.375 161.507813-267.960938 161.507813zm0 0"/><path d="m296.25 46.070312c-73.746094 0-133.535156 59.789063-133.535156 133.539063-.007813 73.75 59.78125 133.539063 133.535156 133.539063s133.539062-59.78125 133.542969-133.535157c-.082031-73.71875-59.824219-133.460937-133.542969-133.542969zm0 242.097657c-59.953125 0-108.554688-48.601563-108.554688-108.554688-.007812-59.957031 48.601563-108.5625 108.554688-108.5625s108.554688 48.601563 108.5625 108.558594c-.074219 59.925781-48.636719 108.484375-108.5625 108.554687zm0 0"/></svg>