<svg height="426pt" viewBox="-47 -13 426 426.66666" width="426pt" xmlns="http://www.w3.org/2000/svg"><path d="m323.332031 26.625c-3.863281-2.25-8.636719-2.25-12.5 0l-281.625 162.5c-3.359375 1.96875-5.621093 5.386719-6.125 9.25v-185.875c0-6.90625-5.59375-12.5-12.5-12.5-6.902343 0-12.5 5.59375-12.5 12.5v375c0 6.90625 5.597657 12.5 12.5 12.5 6.90625 0 12.5-5.59375 12.5-12.5v-186c.46875 3.875 2.742188 7.304688 6.125 9.25l281.625 162.625c3.886719 2.167969 8.617188 2.167969 12.5 0 3.878907-2.246094 6.261719-6.390625 6.25-10.875v-325.125c.039063-4.453125-2.359375-8.578125-6.25-10.75zm-18.75 314.375-244.125-141 244.125-141zm0 0"/></svg>