<svg height="426pt" viewBox="-47 -13 426 426.66666" width="426pt" xmlns="http://www.w3.org/2000/svg"><path d="m317.082031 0c-6.894531.0195312-12.480469 5.605469-12.5 12.5v186c-.46875-3.875-2.738281-7.304688-6.121093-9.25l-281.628907-162.625c-3.859375-2.25-8.636719-2.25-12.5 0-3.875 2.246094-6.257812 6.390625-6.25 10.875v325.25c-.007812 4.480469 2.375 8.625 6.25 10.875 3.886719 2.164062 8.613281 2.164062 12.5 0l281.628907-162.625c3.359374-1.972656 5.625-5.382812 6.121093-9.25v185.75c0 6.90625 5.597657 12.5 12.5 12.5 6.90625 0 12.5-5.59375 12.5-12.5v-375c-.019531-6.894531-5.605469-12.4804688-12.5-12.5zm-294 341v-282l244.128907 141zm0 0"/></svg>