<svg height="563pt" viewBox="-109 -17 563 563.99792" width="563pt" xmlns="http://www.w3.org/2000/svg"><path d="m333.691406 183.199219-243.144531-130.25v-40.460938c0-6.898437-5.589844-12.488281-12.488281-12.488281-6.898438 0-12.488282 5.589844-12.488282 12.488281v491.285157h-58.695312c-6.8945312 0-12.488281 5.59375-12.488281 12.488281s5.5937498 12.488281 12.488281 12.488281h142.367188c6.898437 0 12.488281-5.59375 12.488281-12.488281s-5.589844-12.488281-12.488281-12.488281h-58.695313v-168.214844l243.144531-130.253906c4.078125-2.179688 6.621094-6.429688 6.621094-11.050782 0-4.625-2.542969-8.867187-6.621094-11.054687zm-243.144531 124.011719v-225.910157l210.800781 112.890625zm0 0"/></svg>