<svg height="509pt" viewBox="-42 -16 509 509.33438" width="509pt" xmlns="http://www.w3.org/2000/svg"><path d="m421.441406 61.578125c-2.25-3.875-6.390625-6.253906-10.871094-6.246094h-161.125v-42.84375c-.019531-6.886719-5.59375-12.4687498-12.488281-12.488281h-226.074219c-6.886718.0195312-12.46875 5.601562-12.488281 12.488281v452.523438c0 6.898437 5.59375 12.488281 12.488281 12.488281 6.898438 0 12.492188-5.589844 12.492188-12.488281v-229.074219h110.664062v37.722656c.019532 6.890625 5.601563 12.472656 12.492188 12.492188h264.039062c4.480469.003906 8.621094-2.375 10.871094-6.246094 2.242188-3.863281 2.242188-8.628906 0-12.488281l-56.582031-96.679688 56.582031-96.671875c2.183594-3.878906 2.183594-8.613281 0-12.488281zm-398.066406-36.597656h201.089844v185.976562h-201.089844zm316.128906 139.390625c-2.25 3.90625-2.25 8.710937 0 12.613281l49.207032 84.1875h-229.691407v-25.234375h77.9375c6.894531-.019531 12.46875-5.597656 12.488281-12.488281v-143.261719h139.394532zm0 0"/></svg>