<svg height="531pt" viewBox="-142 -16 531 531.99886" width="531pt" xmlns="http://www.w3.org/2000/svg"><path d="m234.625 162.730469c-3.390625-2.8125-8.011719-3.625-12.164062-2.140625l-92.128907 33.007812-61.066406-185.035156c-1.792969-5.4375-7.0625-8.957031-12.769531-8.5273438-5.710938.4296878-10.394532 4.6914058-11.359375 10.3320318l-52.9375 309.453124c-.726563 4.269532.808593 8.613282 4.054687 11.464844 3.25 2.859375 7.75 3.832032 11.890625 2.5625l96.46875-29.566406 60.222657 185.851562c1.667968 5.132813 6.449218 8.613282 11.847656 8.617188.320312 0 .648437-.011719.972656-.035156 5.753906-.449219 10.445312-4.777344 11.347656-10.476563l49.980469-313.953125c.691406-4.347656-.964844-8.742187-4.359375-11.554687zm-62.082031 270.292969-47.984375-148.113282c-2.09375-6.480468-9.007813-10.078125-15.519532-8.078125l-88.84375 27.234375 41.078126-240.148437 49.382812 149.640625c2.15625 6.535156 9.210938 10.09375 15.75 7.933594.097656-.03125.203125-.066407.300781-.101563l84.332031-30.21875zm0 0"/></svg>