<svg height="558pt" viewBox="-120 -17 558 558.66699" width="558pt" xmlns="http://www.w3.org/2000/svg"><path d="m230.703125 298.761719c-11.507813-23.746094-17.457031-49.808594-17.382813-76.199219v-33.019531h10.082032c6.828125 0 12.363281-5.53125 12.363281-12.355469v-51.070312c.0625-6.898438-5.460937-12.554688-12.363281-12.640626h-142.382813c-6.894531.085938-12.425781 5.742188-12.355469 12.640626v50.976562c-.054687 6.824219 5.441407 12.402344 12.265626 12.449219h10.179687v33.019531c.066406 26.386719-5.878906 52.449219-17.390625 76.195312l-75.261719 153.613282c-7.503906 15.382812-6.550781 33.550781 2.523438 48.066406 9.078125 14.515625 24.992187 23.328125 42.109375 23.3125h218.246094c17.101562-.027344 32.988281-8.847656 42.050781-23.347656 9.070312-14.5 10.039062-32.648438 2.578125-48.03125zm-137.101563-160.34375h117.222657v26.1875h-117.222657zm2.503907 171.285156c13.1875-27.152344 20.011719-56.953125 19.945312-87.140625v-33.019531h72.328125v33.019531c-.070312 30.1875 6.75 59.988281 19.9375 87.140625l14.808594 30.734375h-141.820312zm186.113281 177.507813c-4.425781 7.277343-12.363281 11.6875-20.882812 11.597656h-218.246094c-8.507813-.003906-16.40625-4.398438-20.898438-11.617188-4.492187-7.222656-4.945312-16.25-1.1875-23.882812l48.054688-97.933594h166.3125l48.054687 97.933594c3.828125 7.628906 3.371094 16.703125-1.207031 23.902344zm0 0"/><path d="m152.214844 101.144531c17.816406.015625 33.886718-10.710937 40.707031-27.171875 6.820313-16.457031 3.046875-35.40625-9.5625-48l-22.324219-22.320312c-4.871094-4.871094-12.761718-4.871094-17.632812 0l-22.324219 22.320312c-12.609375 12.589844-16.382813 31.539063-9.566406 47.996094 6.816406 16.460938 22.882812 27.1875 40.703125 27.175781zm-13.511719-57.53125 13.511719-13.515625 13.507812 13.515625c7.460938 7.457031 7.460938 19.558594 0 27.015625-7.464844 7.460938-19.558594 7.460938-27.019531 0-7.460937-7.457031-7.460937-19.558594 0-27.015625zm0 0"/></svg>