<svg height="533pt" viewBox="-74 -16 533 533.33332" width="533pt" xmlns="http://www.w3.org/2000/svg"><path d="m282.65625 226.679688c-14.585938-29.640626-22.230469-62.207032-22.355469-95.238282v-43.941406h16.550781c6.589844.144531 12.054688-5.078125 12.199219-11.671875 0-.148437 0-.300781 0-.453125v-62.875c.144531-6.765625-5.234375-12.363281-12-12.5h-175.796875c-6.761718.0234375-12.226562 5.527344-12.203125 12.292969v63.082031c-.101562 6.59375 5.15625 12.023438 11.75 12.125h17v43.941406c-.121093 33.03125-7.765625 65.597656-22.351562 95.238282l-93.125 189.4375c-8.882813 18.027343-7.832031 39.359374 2.777343 56.425781 10.609376 17.066406 29.277344 27.445312 49.375 27.457031h269.152344c20.105469.019531 38.792969-10.351562 49.40625-27.425781 10.621094-17.078125 11.65625-38.429688 2.742188-56.453125zm-168.605469-201.679688h150v37.5h-150zm3.839844 212.792969c16.265625-33.101563 24.785156-69.472657 24.910156-106.351563v-43.941406h92.5v43.941406c.128907 36.878906 8.648438 73.25 24.914063 106.351563l20.90625 42.207031h-184.140625zm233.933594 221.550781c-6.039063 9.765625-16.710938 15.695312-28.195313 15.65625h-269.152344c-11.453124.007812-22.105468-5.894531-28.167968-15.605469-6.070313-9.71875-6.695313-21.875-1.65625-32.164062l60.054687-122.230469h208.691407l60.054687 122.230469c5.089844 10.253906 4.476563 22.425781-1.628906 32.113281zm0 0"/></svg>