<svg height="646pt" viewBox="-20 -73 646.66773 646" width="646pt" xmlns="http://www.w3.org/2000/svg"><path d="m568.8125 339.785156h-30.492188v-23.085937c-.023437-21.117188-17.132812-38.226563-38.25-38.253907h-184.46875v-125.503906h163.007813c20.667969-.023437 37.417969-16.773437 37.4375-37.4375v-81.292968c-.019531-20.664063-16.769531-37.414063-37.4375-37.4375h-350.972656c-20.664063.023437-37.414063 16.773437-37.4375 37.4375v81.292968c.023437 20.664063 16.773437 37.414063 37.4375 37.4375h163.007812v125.503906h-184.460937c-21.117188.019532-38.230469 17.136719-38.253906 38.253907v23.085937h-30.492188c-20.667969.019532-37.4140625 16.769532-37.4375 37.441406v81.285157c.0234375 20.667969 16.769531 37.417969 37.4375 37.4375h83.710938c20.667968-.019531 37.417968-16.769531 37.4375-37.4375v-81.285157c-.019532-20.664062-16.769532-37.414062-37.4375-37.441406h-28.257813v-23.085937c.003906-7.335938 5.949219-13.285157 13.292969-13.292969h184.460937v36.386719h-29.375c-20.664062.019531-37.414062 16.769531-37.441406 37.4375v81.28125c.027344 20.667969 16.777344 37.417969 37.441406 37.4375h83.714844c20.664063-.019531 37.414063-16.769531 37.4375-37.4375v-81.285157c-.023437-20.664062-16.773437-37.414062-37.4375-37.441406h-29.382813v-36.378906h184.46875c7.335938.003906 13.285157 5.953125 13.292969 13.292969v23.085937h-28.265625c-20.664062.019532-37.414062 16.769532-37.4375 37.441406v81.285157c.023438 20.667969 16.773438 37.417969 37.4375 37.4375h83.714844c20.664062-.019531 37.414062-16.769531 37.4375-37.4375v-81.285157c-.023438-20.664062-16.773438-37.414062-37.4375-37.441406zm-453.65625-224.28125v-81.292968c.011719-6.886719 5.59375-12.46875 12.480469-12.480469h350.972656c6.894531.011719 12.476563 5.59375 12.480469 12.480469v81.292968c-.003906 6.886719-5.585938 12.46875-12.480469 12.480469h-350.972656c-6.886719-.011719-12.46875-5.59375-12.480469-12.480469zm18.472656 261.722656v81.285157c-.007812 6.894531-5.59375 12.472656-12.480468 12.480469h-83.710938c-6.886719-.007813-12.46875-5.585938-12.480469-12.480469v-81.285157c.011719-6.890624 5.59375-12.472656 12.480469-12.480468h83.710938c6.890624.007812 12.472656 5.589844 12.480468 12.480468zm223.828125 0v81.285157c-.003906 6.894531-5.585937 12.472656-12.480469 12.480469h-83.707031c-6.890625-.007813-12.472656-5.585938-12.480469-12.480469v-81.285157c.007813-6.890624 5.589844-12.472656 12.480469-12.480468h83.714844c6.886719.007812 12.46875 5.589844 12.476563 12.480468zm223.835938 81.285157c-.011719 6.894531-5.59375 12.472656-12.480469 12.480469h-83.714844c-6.886718-.007813-12.46875-5.59375-12.480468-12.480469v-81.285157c.011718-6.890624 5.59375-12.472656 12.480468-12.480468h83.714844c6.886719.007812 12.46875 5.589844 12.480469 12.480468zm0 0"/></svg>