<svg height="573pt" viewBox="-18 -49 573.33331 573" width="573pt" xmlns="http://www.w3.org/2000/svg"><path d="m475 101.585938h-182.875c-14 .003906-26.832031-7.808594-33.25-20.25l-25.75-49.625c-10.722656-20.738282-32.15625-33.71875-55.5-33.628907h-115.125c-34.511719.015625-62.484375 27.988281-62.5 62.5v349.503907c.015625 34.511718 27.988281 62.484374 62.5 62.5h412.5c34.511719-.015626 62.484375-27.988282 62.5-62.5v-246c-.015625-34.511719-27.988281-62.492188-62.5-62.5zm-412.5-78.375h115.125c14-.011719 26.832031 7.808593 33.25 20.25l25.75 49.621093c1.597656 2.996094 3.394531 5.875 5.375 8.628907h-217v-40.878907c.003906-20.726562 16.773438-37.546875 37.5-37.621093zm450 386.996093c-.058594 20.6875-16.816406 37.441407-37.5 37.5h-412.5c-20.683594-.058593-37.441406-16.8125-37.5-37.5v-283.621093h254.875c1.226562.023437 2.449219-.144532 3.625-.5 2.902344.394531 5.820312.605468 8.75.625h182.75c20.683594.058593 37.441406 16.8125 37.5 37.5zm0 0"/></svg>