<svg height="533pt" viewBox="-124 -16 533 533.33328" width="533pt" xmlns="http://www.w3.org/2000/svg"><path d="m93 5.910156c-6.90625 0-12.5 5.59375-12.5 12.5v90.949219c.023438 12.351563-7.367188 23.496094-18.75 28.28125v-119.230469c0-6.90625-5.597656-12.5-12.5-12.5-6.90625 0-12.5 5.59375-12.5 12.5v119.230469c-10-4.8125-18.75-15.671875-18.75-28.28125v-90.949219c0-6.90625-5.597656-12.5-12.5-12.5-6.90625 0-12.5 5.59375-12.5 12.5v90.949219c.113281 26.140625 18.257812 48.742187 43.75 54.503906v108.609375c-17.851562 5.457032-30.035156 21.953125-30 40.625v170.996094c.164062 6.878906 5.875 12.316406 12.75 12.15625h60.046875c6.605469.136719 12.070313-5.101562 12.203125-11.707031 0-.148438 0-.300781 0-.445313v-171c.035156-18.671875-12.144531-35.167968-30-40.625v-108.609375c25.492188-5.761719 43.636719-28.359375 43.75-54.496093v-90.957032c0-6.90625-5.597656-12.5-12.5-12.5zm-26.25 465.339844h-35v-158.148438c0-9.667968 7.835938-17.5 17.5-17.5s17.5 7.832032 17.5 17.5zm0 0"/><path d="m264.746094 0-44.335938.453125h-.144531c-32.539063.71875-58.535156 27.316406-58.515625 59.859375v427.1875c-.019531 6.886719 5.546875 12.480469 12.429688 12.5h55.308593c6.792969-.019531 12.28125-5.542969 12.261719-12.332031 0-.054688 0-.113281 0-.167969v-137.5h23.125c6.902344 0 13.125-5.6875 13.125-12.59375v-324.90625c-.117188-3.375-1.558594-6.566406-4.015625-8.882812-2.492187-2.355469-5.804687-3.6562505-9.238281-3.617188zm-47.996094 475h-30v-125h30zm36.25-150h-66.25v-264.6875c0-18.785156 15.550781-34.410156 34.332031-34.859375l31.917969-.324219zm0 0"/></svg>