<svg height="560pt" viewBox="-17 -96 560.00207 560" width="560pt" xmlns="http://www.w3.org/2000/svg"><path d="m518.753906 167.625-285.308594-171.082031c-3.867187-2.355469-8.707031-2.398438-12.625-.128907-3.902343 2.238282-6.332031 6.375-6.371093 10.875v96.476563l-195.953125-107.472656c-3.878906-2.109375-8.582032-2.015625-12.375.25-3.773438 2.269531-6.0937502 6.339843-6.121094 10.746093v342.167969c.0273438 4.40625 2.347656 8.476563 6.121094 10.746094 1.9375 1.128906 4.136718 1.734375 6.375 1.75 2.09375.007813 4.15625-.507813 6-1.5l195.953125-107.347656v96.476562c-.011719 4.515625 2.429687 8.679688 6.371093 10.871094 3.929688 2.210937 8.738282 2.164063 12.625-.121094l285.429688-171.085937c3.824219-2.277344 6.152344-6.402344 6.125-10.847656-.027344-4.441407-2.40625-8.542969-6.246094-10.773438zm-279.308594 159.710938v-95.472657c-.03125-4.40625-2.351562-8.480469-6.125-10.75-3.789062-2.265625-8.496093-2.359375-12.371093-.25l-195.957031 107.472657v-299.925782l195.957031 107.347656c3.875 2.113282 8.582031 2.015626 12.371093-.25 3.773438-2.269531 6.09375-6.339843 6.125-10.746093v-95.480469l248.691407 149.09375zm0 0"/></svg>