<svg height="613pt" viewBox="-19 -165 613.33331 613" width="613pt" xmlns="http://www.w3.org/2000/svg"><path d="m538.125 55.417969h-30.625v-2.964844c.113281-34.144531-27.476562-61.917969-61.625-62.035156-.15625 0-.3125 0-.46875 0h-382.90625c-34.339844-.179688-62.320312 27.515625-62.5 61.851562v158.613281c.078125 34.339844 27.976562 62.113282 62.3125 62.035157h383.09375c34.144531.144531 61.945312-27.417969 62.09375-61.566407v-3.433593h30.625c20.109375.257812 36.617188-15.832031 36.875-35.941407 0-.113281 0-.222656 0-.332031v-79.949219c-.074219-20.105468-16.429688-36.351562-36.539062-36.277343zm-55.625 156.25c0 20.710937-16.789062 37.5-37.5 37.5h-382.5c-20.710938 0-37.5-16.789063-37.5-37.5v-158.75c0-20.707031 16.789062-37.5 37.5-37.5h382.5c20.710938 0 37.5 16.792969 37.5 37.5zm67.5-40.023438c0 6.542969-5.328125 11.273438-11.875 11.273438h-30.625v-102.5h30.625c6.546875 0 11.875 4.730469 11.875 11.277343zm0 0"/><path d="m113.75 82.800781c-6.90625 0-12.5 5.59375-12.5 12.5v72.75c0 6.902344 5.59375 12.5 12.5 12.5s12.5-5.597656 12.5-12.5v-72.746093c0-6.902344-5.59375-12.5-12.5-12.5zm0 0"/><path d="m198.75 82.800781c-6.90625 0-12.5 5.59375-12.5 12.5v72.75c0 6.902344 5.59375 12.5 12.5 12.5s12.5-5.597656 12.5-12.5v-72.746093c0-6.902344-5.59375-12.5-12.5-12.5zm0 0"/><path d="m283.75 82.800781c-6.90625 0-12.5 5.59375-12.5 12.5v72.75c0 6.902344 5.59375 12.5 12.5 12.5s12.5-5.597656 12.5-12.5v-72.746093c0-6.902344-5.59375-12.5-12.5-12.5zm0 0"/><path d="m368.75 82.800781c-6.90625 0-12.5 5.59375-12.5 12.5v72.75c0 6.902344 5.59375 12.5 12.5 12.5s12.5-5.597656 12.5-12.5v-72.746093c0-6.902344-5.59375-12.5-12.5-12.5zm0 0"/></svg>