<svg height="613pt" viewBox="-24 -19 613 613.33323" width="613pt" xmlns="http://www.w3.org/2000/svg"><path d="m502.582031 111.625h-56.875l10.128907-10.375c23.058593-23.203125 23.058593-60.675781 0-83.878906-23.160157-23.160156-60.71875-23.160156-83.878907 0l-88.125 88.003906-65.121093-65.125c-21.007813-21.023438-54.332032-23.242188-77.941407-5.195312-23.605469 18.046874-30.207031 50.785156-15.4375 76.570312h-63c-34.511719.011719-62.484375 27.988281-62.5 62.5v69.75c.019531 6.894531 5.605469 12.480469 12.5 12.5h22.75v256.125c.015625 34.511719 27.988281 62.484375 62.5 62.5h369.625c34.515625-.015625 62.488281-27.988281 62.5-62.5v-256.125h22.753907c6.894531-.019531 12.480468-5.605469 12.5-12.5v-69.75c.042968-16.566406-6.515626-32.46875-18.21875-44.199219-11.699219-11.726562-27.59375-18.308593-44.160157-18.300781zm-112.996093-76.625c6.417968-6.441406 15.15625-10.039062 24.246093-10 13.871094-.023438 26.390625 8.320312 31.703125 21.132812 5.3125 12.816407 2.371094 27.574219-7.449218 37.367188l-.128907.121094-27.25 27.878906h-97.75zm-150.875 196.375v-94.75h86.25v94.75zm-86.25-124.875c-13.296876-13.410156-13.246094-35.046875.101562-48.394531 13.355469-13.355469 34.984375-13.398438 48.394531-.109375l53.628907 53.628906h-97.003907zm-127.628907 67.625c.058594-20.6875 16.816407-37.441406 37.5-37.5h151.378907v94.75h-188.878907zm480 338.375c-.058593 20.683594-16.816406 37.441406-37.5 37.5h-369.75c-20.683593-.058594-37.4375-16.816406-37.5-37.5v-256.125h444.625v256.125zm35.25-281.125h-190.121093v-94.75h152.621093c20.6875.058594 37.441407 16.8125 37.5 37.5zm0 0"/><path d="m282.460938 528.875c69.03125 0 125-55.964844 125-125s-55.96875-125-125-125c-69.039063 0-125 55.964844-125 125 .113281 68.984375 56.011718 124.882812 125 125zm0-225c55.222656 0 100 44.773438 100 100s-44.777344 100-100 100c-55.230469 0-100-44.773438-100-100 .074218-55.199219 44.800781-99.925781 100-100zm0 0"/><path d="m258.710938 451.875c2.34375 2.363281 5.546874 3.671875 8.871093 3.621094 3.226563.035156 6.332031-1.222656 8.628907-3.496094l74.746093-71.375c4.96875-4.765625 5.140625-12.65625.375-17.628906-4.761719-4.96875-12.652343-5.136719-17.621093-.371094l-65.878907 63-33.75-33.75c-4.863281-4.867188-12.753906-4.867188-17.621093 0-4.871094 4.867188-4.871094 12.757812 0 17.625zm0 0"/></svg>