<svg height="585pt" viewBox="-18 -74 585.33194 585" width="585pt" xmlns="http://www.w3.org/2000/svg"><path d="m506.488281 243.414062h-4.070312c-3.597657-20.140624-21.0625-34.832031-41.519531-34.925781h-16.058594c-23.324219.148438-42.128906 19.148438-42.035156 42.476563v18.644531h-134.71875v-18.644531c.089843-6.117188-1.164063-12.179688-3.671876-17.757813.046876-.097656.222657-.203125.269532-.300781 9.058594-18.691406 13.792968-39.183594 13.84375-59.957031 0-72.566407-56.589844-132.328125-126.445313-138.660157v-12.910156h13.078125c6.890625 0 12.476563-5.589844 12.476563-12.472656 0-6.890625-5.585938-12.476562-12.476563-12.476562h-52.070312c-6.890625 0-12.476563 5.585937-12.476563 12.476562 0 6.882812 5.585938 12.472656 12.476563 12.472656h14.042968v12.910156c-71.101562 6.332032-127.132812 66.09375-127.132812 138.660157 0 70.703125 53.535156 129.925781 122.140625 138.222656v45.613281c.136719 23.4375 19.101563 42.410156 42.539063 42.550782h4.070312c4.167969 19.613281 21.472656 33.644531 41.523438 33.679687h16.050781c22.914062.152344 41.609375-18.296875 41.761719-41.210937 0-.195313 0-.390626 0-.585938v-19.324219h134.71875v19.324219c-.039063 23.042969 18.613281 41.753906 41.65625 41.796875h16.433593c20.050781-.035156 37.359375-14.066406 41.523438-33.679687h4.070312c23.390625-.164063 42.261719-19.164063 42.261719-42.550782v-71.382812c-.046875-23.238282-18.925781-42.039063-42.164062-41.988282zm-438.984375 18.65625 19.085938-19.023437c4.875-4.855469 4.886718-12.746094.03125-17.613281-4.859375-4.871094-12.746094-4.886719-17.613282-.03125l-18.992187 19.308594c-13.453125-16.90625-21.925781-37.222657-24.46875-58.675782h26.921875c6.882812 0 12.472656-5.589844 12.472656-12.476562 0-6.890625-5.589844-12.472656-12.472656-12.472656h-26.9375c2.304688-21.707032 10.808594-42.289063 24.484375-59.296876l19.011719 18.855469c4.910156 4.871094 12.835937 4.84375 17.707031-.066406 4.871094-4.90625 4.839844-12.835937-.066406-17.707031l-18.769531-19.015625c16.988281-13.683594 37.550781-22.191407 59.234374-24.5v26.9375c0 6.886719 5.582032 12.472656 12.472657 12.472656s12.472656-5.585937 12.472656-12.472656v-26.9375c21.480469 2.542969 41.828125 11.027343 58.753906 24.488281l-19.128906 19.007812c-4.871094 4.84375-4.890625 12.71875-.054687 17.585938 4.84375 4.875 12.71875 4.898438 17.589843.054688l19-18.703126c13.675781 17.007813 22.175781 37.59375 24.480469 59.296876h-26.9375c-6.890625 0-12.472656 5.582031-12.472656 12.472656 0 6.886718 5.582031 12.476562 12.472656 12.476562h26.941406c-1.136718 9.476563-3.40625 18.789063-6.753906 27.726563-6.015625-3.332031-12.761719-5.140625-19.640625-5.273438h-16.050781c-20.453125.09375-37.921875 14.785157-41.523438 34.925781h-4.074218c-23.300782 0-42.539063 18.679688-42.539063 41.988282v.582031c-19.984375-3.058594-38.824219-11.304687-54.636719-23.914063zm79.585938 94.714844v-71.382812c.164062-9.5625 8.03125-17.183594 17.589844-17.042969h3.617187v106.03125h-3.617187c-9.667969-.128906-17.46875-7.9375-17.589844-17.605469zm79.238281 51.285156h-16.050781c-9.222656.179688-16.847656-7.148437-17.035156-16.375 0-.160156 0-.320312 0-.476562v-140.253906c-.136719-9.542969 7.488281-17.394532 17.035156-17.53125h16.050781c9.550781 0 16.808594 7.980468 16.808594 17.53125v26.527344c0 1.550781-1.070313 3.253906-1.070313 5.054687s1.070313 3.507813 1.070313 5.050781v66.988282c0 1.546874-1.070313 3.25-1.070313 5.054687 0 1.796875 1.070313 3.507813 1.070313 5.050781v26.527344c.1875 9.121094-7.058594 16.664062-16.179688 16.851562-.210937 0-.417969 0-.628906 0zm41.757813-61.125v-52.390624h134.71875v52.390624zm209.5625 44.273438c.214843 9.09375-6.984376 16.636719-16.074219 16.851562-.226563 0-.449219 0-.675781 0h-16.058594c-9.246094.183594-16.902344-7.164062-17.085938-16.417968 0-.144532 0-.285156 0-.433594v-26.527344c0-1.542968 1.074219-3.253906 1.074219-5.050781 0-1.804687-1.074219-3.515625-1.074219-5.058594v-66.984375c0-1.550781 1.074219-3.253906 1.074219-5.058594 0-1.796874-1.074219-3.503906-1.074219-5.046874v-26.527344c-.109375-9.554688 7.535156-17.394532 17.085938-17.53125h16.054687c9.550781 0 16.753907 7.980468 16.753907 17.53125zm46.152343-34.429688c.003907 9.609376-7.703125 17.449219-17.3125 17.601563h-3.894531v-106.03125h3.894531c9.449219-.113281 17.195313 7.441406 17.3125 16.890625zm0 0"/><path d="m132.746094 184.785156 40.257812 25.253906c1.953125 1.246094 4.222656 1.902344 6.542969 1.902344 5.535156-.03125 10.402344-3.683594 11.972656-8.988281 1.574219-5.3125-.523437-11.027344-5.152343-14.0625l-34.289063-21.59375v-42.410156c0-6.890625-5.582031-12.472657-12.472656-12.472657s-12.472657 5.582032-12.472657 12.472657v49.320312c-.09375 4.265625 2.03125 8.269531 5.613282 10.578125zm0 0"/></svg>