<svg height="532pt" viewBox="-17 -36 532.00102 532" width="532pt" xmlns="http://www.w3.org/2000/svg"><path d="m444.730469 253.175781h-8.480469v-67.742187c0-102.917969-83.832031-186.746094-186.75-186.746094s-186.75 83.828125-186.75 186.746094v67.742187h-8.484375c-29.957031.019531-54.2460938 24.300781-54.265625 54.265625v97.554688c.0195312 29.957031 24.308594 54.242187 54.265625 54.265625h48.78125c6.878906-.019531 12.453125-5.59375 12.472656-12.476563v-181.136718c-.019531-6.882813-5.59375-12.453126-12.472656-12.472657h-15.472656v-67.742187c0-89.195313 72.601562-161.796875 161.796875-161.796875 89.199218 0 161.804687 72.601562 161.804687 161.796875v67.742187h-15.472656c-6.878906.019531-12.453125 5.589844-12.472656 12.472657v181.257812c.019531 6.882812 5.59375 12.457031 12.472656 12.476562h48.78125c29.957031-.019531 54.242187-24.300781 54.265625-54.265624v-97.554688c.09375-14.390625-5.554688-28.21875-15.695312-38.429688-10.140626-10.207031-23.933594-15.953124-38.324219-15.957031zm-354.160157 181.257813h-36.304687c-16.179687-.023438-29.292969-13.132813-29.316406-29.316406v-97.554688c.023437-16.175781 13.136719-29.289062 29.316406-29.316406h36.304687zm383.476563-29.316406c-.023437 16.183593-13.136719 29.292968-29.316406 29.316406h-36.300781v-156.308594h36.300781c16.179687.023438 29.292969 13.132812 29.316406 29.316406zm0 0"/></svg>