<svg height="631pt" viewBox="-19 -45 631.9981 631" width="631pt" xmlns="http://www.w3.org/2000/svg"><path d="m504.96875 172.339844c-16.886719-14.378906-34.742188-27.585938-53.433594-39.53125l112.765625-112.761719c4.882813-4.878906 4.882813-12.789063 0-17.667969-4.878906-4.878906-12.785156-4.875-17.664062 0l-117.285157 117.292969c-5.753906-3.152344-11.5-6.105469-17.238281-8.867187-39.25-18.859376-78.230469-28.417969-115.863281-28.417969s-76.617188 9.5625-115.859375 28.417969c-30.992187 14.890624-62.234375 35.597656-92.859375 61.535156-51.890625 43.949218-83.796875 87.332031-85.128906 89.15625-3.203125 4.386718-3.203125 10.347656 0 14.734375 1.332031 1.824219 33.238281 45.207031 85.128906 89.15625 17.460938 14.878906 35.964844 28.496093 55.363281 40.746093l-111.550781 111.542969c-4.878906 4.878907-4.878906 12.789063 0 17.664063 4.878906 4.878906 12.785156 4.878906 17.667969 0l116.191406-116.195313c5.0625 2.738281 10.125 5.328125 15.183594 7.769531 39.246093 18.863282 78.226562 28.417969 115.859375 28.417969 37.632812 0 76.617187-9.558593 115.859375-28.417969 30.992187-14.890624 62.234375-35.597656 92.863281-61.53125 51.886719-43.957031 83.792969-87.332031 85.125-89.15625 3.207031-4.390624 3.207031-10.347656 0-14.742187-1.335938-1.8125-33.238281-45.195313-85.125-89.144531zm-400.867188 174.347656c-27.660156-23.5-53.046874-49.554688-75.820312-77.820312 26-32.507813 137.390625-161.5 267.964844-161.5 41.082031 0 80.171875 12.960937 114.558594 30.847656l-28.566407 28.570312c-53-44.710937-131.40625-41.394531-180.433593 7.632813-49.03125 49.03125-52.347657 127.4375-7.640626 180.4375l-33.058593 33.058593c-20.050781-12.234374-39.109375-26.019531-57.003907-41.226562zm107.792969-9.570312c-34.988281-43.15625-31.726562-105.765626 7.558594-145.050782 39.28125-39.28125 101.898437-42.542968 145.046875-7.554687zm170.09375-134.757813c33.550781 43.191406 29.703125 104.601563-8.96875 143.273437-38.671875 38.671876-100.082031 42.515626-143.269531 8.972657zm-85.742187 227.988281c-40.257813 0-78.59375-12.445312-112.472656-29.777344l28.199218-28.199218c53.078125 43.277344 130.292969 39.363281 178.71875-9.0625 48.425782-48.425782 52.34375-125.640625 9.066406-178.71875l33.597657-33.597656c19.320312 11.949218 37.722656 25.332031 55.03125 40.042968 27.664062 23.5 53.050781 49.554688 75.820312 77.820313-25.992187 32.507812-137.382812 161.492187-267.960937 161.492187zm0 0"/></svg>