<svg height="637pt" viewBox="-93 -20 637 637.33331" width="637pt" xmlns="http://www.w3.org/2000/svg"><path d="m220.25 276.625c35.660156-.03125 64.535156-28.96875 64.5-64.625-.03125-35.65625-28.96875-64.535156-64.628906-64.5-35.652344.035156-64.53125 28.96875-64.496094 64.625.113281 35.625 29 64.453125 64.625 64.5zm0-104.125c21.882812 0 39.625 17.738281 39.625 39.625 0 21.882812-17.742188 39.625-39.625 39.625-21.886719 0-39.625-17.742188-39.625-39.625.003906-21.882812 17.746094-39.621094 39.625-39.625zm0 0"/><path d="m133.5 415.75h173.496094c6.902344-.015625 12.480468-5.601562 12.5-12.5 0-28.25-10.246094-54.25-28.996094-73.375-18.546875-18.796875-43.847656-29.375-70.25-29.375s-51.703125 10.578125-70.25 29.375c-18.75 19.125-29 45.125-29 73.375.019531 6.898438 5.601562 12.484375 12.5 12.5zm34.375-68.375c13.835938-13.996094 32.695312-21.875 52.375-21.875 19.675781 0 38.539062 7.878906 52.371094 21.875 11.472656 11.835938 18.835937 27.039062 21.003906 43.375h-146.75c2.140625-16.34375 9.507812-31.5625 21-43.375zm0 0"/><path d="m382.75 42.5h-112.5v-30c-.019531-6.894531-5.605469-12.4804688-12.5-12.5h-75c-6.894531.0195312-12.480469 5.605469-12.5 12.5v30h-112.5c-34.511719.015625-62.484375 27.988281-62.5 62.5v430c.015625 34.511719 27.988281 62.484375 62.5 62.5h325c34.511719-.015625 62.484375-27.988281 62.5-62.5v-430c-.015625-34.511719-27.988281-62.484375-62.5-62.5zm-187.5-17.5h50v50h-50zm225 510c-.058594 20.683594-16.816406 37.441406-37.5 37.5h-325c-20.683594-.058594-37.441406-16.816406-37.5-37.5v-430c.058594-20.683594 16.816406-37.441406 37.5-37.5h112.5v20c.019531 6.894531 5.605469 12.480469 12.5 12.5h75c6.894531-.019531 12.480469-5.605469 12.5-12.5v-20h112.5c20.683594.058594 37.441406 16.816406 37.5 37.5zm0 0"/><path d="m355.5 505h-270.5c-6.902344 0-12.5 5.59375-12.5 12.5s5.597656 12.5 12.5 12.5h270.625c6.90625-.035156 12.472656-5.660156 12.4375-12.5625-.035156-6.90625-5.660156-12.472656-12.5625-12.4375zm0 0"/><path d="m147.5 450c-6.902344 0-12.5 5.59375-12.5 12.5s5.597656 12.5 12.5 12.5h145.625c6.90625 0 12.5-5.59375 12.5-12.5s-5.59375-12.5-12.5-12.5zm0 0"/></svg>