<svg height="605pt" viewBox="-90 -19 605 605.33331" width="605pt" xmlns="http://www.w3.org/2000/svg"><path d="m207.917969 301.25c35.691406 0 64.621093-28.9375 64.621093-64.625 0-35.691406-28.929687-64.625-64.621093-64.625-35.695313 0-64.625 28.933594-64.625 64.625.042969 35.671875 28.949219 64.578125 64.625 64.625zm0-104.125c21.882812 0 39.621093 17.738281 39.621093 39.625 0 21.882812-17.738281 39.625-39.621093 39.625-21.886719 0-39.625-17.742188-39.625-39.625.003906-21.882812 17.742187-39.617188 39.625-39.625zm0 0"/><path d="m207.917969 325.125c-26.441407-.195312-51.816407 10.417969-70.25 29.375-18.75 19.125-29 45.125-29 73.375.019531 6.894531 5.601562 12.480469 12.5 12.5h173.496093c6.898438-.019531 12.480469-5.605469 12.5-12.5 0-28.25-10.25-54.25-29-73.375-18.429687-18.957031-43.808593-29.570312-70.246093-29.375zm-73.375 90.25c2.136719-16.34375 9.507812-31.554688 21-43.375 13.832031-13.996094 32.695312-21.875 52.375-21.875 19.675781 0 38.539062 7.878906 52.371093 21.875 11.46875 11.832031 18.832032 27.039062 21 43.375zm0 0"/><path d="m357.917969 0h-300c-34.511719.015625-62.488281 27.988281-62.5 62.5v442.5c.011719 34.511719 27.988281 62.484375 62.5 62.5h300c34.511719-.015625 62.484375-27.988281 62.5-62.5v-442.5c-.015625-34.511719-27.988281-62.484375-62.5-62.5zm37.5 505c-.058594 20.683594-16.816407 37.441406-37.5 37.5h-300c-20.683594-.058594-37.441407-16.816406-37.5-37.5v-442.5c.058593-20.683594 16.816406-37.441406 37.5-37.5h300c20.683593.058594 37.441406 16.816406 37.5 37.5zm0 0"/><path d="m155.792969 83.875h100c6.902343 0 12.5-5.597656 12.5-12.5s-5.597657-12.5-12.5-12.5h-100c-6.90625 0-12.5 5.597656-12.5 12.5s5.59375 12.5 12.5 12.5zm0 0"/></svg>