<svg height="533pt" viewBox="-16 -25 533.33332 533" width="533pt" xmlns="http://www.w3.org/2000/svg"><path d="m499.902344 204.03125c-.015625-.128906-.023438-.253906-.042969-.382812-.070313-.488282-.167969-.972657-.292969-1.449219-.019531-.074219-.050781-.140625-.070312-.214844-.117188-.410156-.257813-.816406-.417969-1.210937-.050781-.121094-.097656-.234376-.152344-.355469-.171875-.390625-.359375-.773438-.570312-1.144531-.039063-.058594-.070313-.121094-.101563-.183594-.265625-.441406-.546875-.867188-.867187-1.269532-.039063-.058593-.089844-.109374-.136719-.167968-.261719-.332032-.546875-.648438-.847656-.953125-.097656-.101563-.199219-.199219-.304688-.296875-.277344-.261719-.570312-.511719-.871094-.75-.105468-.078125-.203124-.167969-.304687-.246094-.042969-.027344-.335937-.0625-.375-.09375l-77.046875-55.214844v-12.523437c.199219-21.265625-16.875-38.671875-38.140625-38.871094h-12.035156l-109.585938-86.457031c-4.597656-3.605469-11.082031-3.542969-15.613281.148437l-106.324219 86.308594h-14.78125c-21.269531-.011719-38.515625 17.230469-38.519531 38.5v3.402344l-77.796875 65.289062h-.121094c-2.863281 2.359375-4.5390622 5.855469-4.582031 9.566407v231.816406c-.00390625 11.617187 4.433594 22.792968 12.414062 31.238281.476563.503906 1.003907.964844 1.574219 1.363281 8.511719 8.148438 19.871094 12.660156 31.65625 12.574219h408.710938c25.019531.191406 45.453125-19.933594 45.644531-44.953125 0-.070312 0-.148438 0-.222656v-231.816406c0-.082032-.015625-.15625-.015625-.234376-.007813-.402343-.03125-.800781-.082031-1.195312zm-474.902344 233.246094v-209.800782l57.5 35.167969v1.058594h1.125l99.984375 61.667969-157.984375 116.851562c-.40625-1.617187-.613281-3.277344-.625-4.945312zm235.84375-107.003906c-6.632812 4.117187-15.027344 4.113281-21.664062-.007813l-119.65625-73.839844 66.515624-44.632812 76.660157 78.589843c4.46875 4.578126 11.671875 5.046876 16.691406 1.089844l62.527344-49.332031 32.160156 18.445313zm-54.316406 8.984374 19.527344 12.164063c14.648437 9.132813 33.207031 9.160156 47.890624.089844l19.15625-12.003907 159.957032 117.945313h-406.628906zm109.527344-13.582031 100.734374-61.972656h.710938v-.800781l57.5-35.074219v209.449219c-.003906 1.777344-.242188 3.542968-.703125 5.261718zm148.398437-121.027343-46.953125 28.898437v-62.65625zm-214.339844-176.503907 76.824219 60.558594h-151.457031zm-129.09375 85.558594h257.960938c7.445312-.019531 13.496093 5.996094 13.519531 13.441406v115.484375l-45.726562-26.371094c-4.386719-2.546874-9.878907-2.136718-13.832032 1.027344l-60.265625 47.59375-76.039062-77.988281c-4.101563-4.316406-10.726563-5.019531-15.640625-1.65625l-73.5 49.503906v-107.164062c-.21875-7.445313 5.644531-13.65625 13.089844-13.871094zm-38.519531 119.566406-47.964844-29.597656 47.964844-40.382813zm0 0"/><path d="m273.714844 222.089844c25.125 0 45.496094-20.363282 45.496094-45.488282.003906-25.125-20.363282-45.492187-45.488282-45.496093-25.125 0-45.496094 20.359375-45.5 45.484375.023438 25.117187 20.375 45.472656 45.492188 45.5zm0-65.984375c11.320312 0 20.496094 9.175781 20.496094 20.492187 0 11.320313-9.175782 20.492188-20.488282 20.492188-11.320312 0-20.496094-9.171875-20.5-20.492188.015625-11.308594 9.179688-20.476562 20.492188-20.492187zm0 0"/></svg>