<svg height="558pt" viewBox="-17 -141 558.66582 558" width="558pt" xmlns="http://www.w3.org/2000/svg"><path d="m489.890625-7.890625h-271.109375c-21.003906 0-41.824219 16.449219-47.402344 37.269531l-52.410156 195.636719c-3.027344 11.296875-1.097656 22.730469 5.292969 31.054687 6.546875 8.300782 16.597656 13.070313 27.167969 12.886719h271.117187c21 0 41.820313-16.449219 47.402344-37.269531l52.398437-195.640625c3.027344-11.296875 1.097656-22.730469-5.289062-31.050781-6.546875-8.300782-16.597656-13.066406-27.167969-12.886719zm-44.03125 233.121094c-2.664063 9.933593-13.558594 18.785156-23.3125 18.785156h-271.113281c-2.332032 0-5.507813-.652344-7.378906-3.089844-1.65625-2.15625-2.007813-5.507812-.988282-9.308593l14.277344-53.3125 101.25-57.601563 57.453125 81.195313c3.875 5.46875 11.371094 6.902343 16.988281 3.242187l80.863282-52.671875 43.058593 31.257812zm52.402344-195.710938-34.394531 128.347657-42.273438-30.621094c-4.179688-3.03125-9.792969-3.171875-14.121094-.351563l-78 50.792969-57.046875-80.628906c-3.703125-5.238282-10.769531-6.8125-16.34375-3.640625l-89.671875 51.003906 29.058594-108.578125c2.660156-9.9375 13.550781-18.792969 23.308594-18.792969h271.113281c2.335937 0 5.511719.652344 7.382813 3.09375 1.65625 2.152344 2.003906 5.578125.988281 9.375zm0 0"/><path d="m367.273438 37.128906c-24.808594 0-49.410157 19.289063-56.007813 43.914063-3.519531 13.128906-1.3125 26.164062 6.054687 35.761719 7.125 9.289062 18.558594 14.613281 31.371094 14.613281 24.808594 0 49.414063-19.289063 56.011719-43.917969 3.519531-13.125 1.308594-26.160156-6.058594-35.761719-7.121093-9.285156-18.558593-14.609375-31.371093-14.609375zm13.339843 43.914063c-3.691406 13.789062-18.3125 25.433593-31.925781 25.433593-5.144531 0-9.148438-1.679687-11.585938-4.851562-2.644531-3.449219-3.269531-8.464844-1.75-14.125 3.699219-13.78125 18.3125-25.429688 31.929688-25.429688 5.144531 0 9.148438 1.675782 11.582031 4.851563 2.644531 3.449219 3.265625 8.460937 1.75 14.121094zm0 0"/><path d="m25.179688 81.898438h116.5c6.886718 0 12.46875-5.582032 12.46875-12.472657 0-6.886719-5.582032-12.46875-12.46875-12.46875h-116.5c-6.886719 0-12.46875 5.582031-12.46875 12.46875 0 6.890625 5.582031 12.472657 12.46875 12.472657zm0 0"/><path d="m122.378906 130.53125c0-6.886719-5.582031-12.46875-12.472656-12.46875h-68.839844c-6.890625 0-12.472656 5.582031-12.472656 12.46875 0 6.890625 5.582031 12.472656 12.472656 12.472656h68.835938c6.886718 0 12.46875-5.582031 12.46875-12.472656zm0 0"/><path d="m88.722656 179.167969h-76.253906c-6.886719 0-12.46875 5.582031-12.46875 12.472656 0 6.886719 5.582031 12.46875 12.46875 12.46875h76.253906c6.886719 0 12.46875-5.582031 12.46875-12.46875 0-6.890625-5.582031-12.472656-12.46875-12.472656zm0 0"/></svg>