<svg height="533pt" viewBox="-16 -78 533.33331 533" width="533pt" xmlns="http://www.w3.org/2000/svg"><path d="m500 58.582031c0-34.515625-27.984375-62.5-62.5-62.5h-375c-34.515625 0-62.5 27.984375-62.5 62.5v251.25c0 34.519531 27.984375 62.5 62.5 62.5h375c34.515625 0 62.5-27.980469 62.5-62.5zm-437.5-37.5h375c20.679688 0 37.5 17.253907 37.5 37.929688v229.214843l-111.054688-71.335937c-16.582031-11.648437-39.1875-9.390625-53.148437 5.300781l-35.460937 36.949219-84.476563-52.40625c-14.585937-9.019531-33.226563-8.066406-46.820313 2.386719l-119.039062 78.835937v-228.945312c0-20.675781 16.820312-37.929688 37.5-37.929688zm-36.855469 296.65625 132.613281-87.9375c.296876-.203125.589844-.464843.875-.691406 5.328126-4.238281 12.746094-4.679687 18.546876-1.105469l79.960937 49.808594-67.71875 70.769531h-127.421875c-18.089844-.121093-33.550781-13.058593-36.855469-30.84375zm411.855469 30.84375h-212.929688l104.261719-108.867187c5.480469-5.824219 14.410157-6.726563 20.949219-2.121094.144531.101562.296875.148438.449219.246094l124.125 79.929687c-3.308594 17.777344-18.773438 30.707031-36.855469 30.8125zm0 0"/><path d="m200.355469 189.039062c42.097656 0 76.222656-34.121093 76.222656-76.21875 0-42.097656-34.121094-76.21875-76.222656-76.222656-42.09375 0-76.214844 34.125-76.21875 76.21875.046875 42.074219 34.144531 76.171875 76.21875 76.222656zm0-127.4375c28.285156 0 51.222656 22.929688 51.222656 51.214844 0 28.292969-22.929687 51.222656-51.222656 51.222656-28.285157.003907-51.214844-22.929687-51.21875-51.21875.035156-28.273437 22.941406-51.191406 51.21875-51.21875zm0 0"/></svg>