<svg height="573pt" viewBox="-18 -66 573.33317 573" width="573pt" xmlns="http://www.w3.org/2000/svg"><path d="m537.5 215.375c-.25-1.5-.375-1.753906-.375-2 0-.125 0-.25-.125-.25l-44.375-167.625c0-.25-.125-.371094-.125-.5-8.277344-26.363281-32.613281-44.390625-60.25-44.621094l-321.246094-3.375c-27.484375-.335937-52.078125 17.003906-61 42.996094-.125.25-.125.378906-.246094.625l-47.878906 166.746094c0 .128906-.125.253906-.125.503906s-.121094.375-.121094.625c-.03125.210938-.074218.421875-.128906.625.019532.175781-.023437.351562-.121094.5v1.125l-1.37890575 158.496094c-.45312525 35.242187 27.75390575 64.183594 62.99999975 64.628906l408.496094 4.496094h.75c34.953125-.027344 63.375-28.171875 63.75-63.125l1.371094-158.621094v-.25c.09375-.324219.132812-.664062.128906-1zm-463.617188-167.496094c5.539063-15.644531 20.402344-26.035156 36.996094-25.875l321.246094 3.375c16.695312.136719 31.414062 10.96875 36.5 26.875l39.996094 151.496094-173.492188-1.746094c-6.878906-.007812-12.492187 5.496094-12.628906 12.371094-.097656 14.101562-5.863281 27.566406-16 37.371094-15.382812 15.039062-38.320312 19.3125-58.089844 10.820312-19.765625-8.484375-32.464844-28.054687-32.15625-49.570312.019532-3.292969-1.230468-6.472656-3.5-8.871094-2.300781-2.363281-5.449218-3.710938-8.75-3.75l-173.375-1.75zm437.238282 326.992188c-.265625 21.230468-17.519532 38.316406-38.746094 38.378906h-.371094l-408.5-4.503906c-10.3125-.0625-20.164062-4.246094-27.371094-11.621094-7.207031-7.371094-11.171874-17.316406-11-27.625l1.25-146.125 165.871094 1.75c5.746094 37.910156 38.109375 66.082031 76.453125 66.542969 38.339844.464843 71.378907-26.90625 78.042969-64.667969l165.875 1.75zm0 0"/><path d="m95.003906 154.375h334.996094c6.90625 0 12.5-5.59375 12.5-12.5 0-6.902344-5.59375-12.5-12.5-12.5h-334.996094c-6.902344 0-12.5 5.597656-12.5 12.5 0 6.90625 5.597656 12.5 12.5 12.5zm0 0"/><path d="m145.003906 90.625h222.496094c6.90625 0 12.5-5.59375 12.5-12.5 0-6.902344-5.59375-12.5-12.5-12.5h-222.496094c-6.902344 0-12.5 5.597656-12.5 12.5 0 6.90625 5.597656 12.5 12.5 12.5zm0 0"/></svg>