<svg height="493pt" viewBox="-15 -35 493.33437 493" width="493pt" xmlns="http://www.w3.org/2000/svg"><path d="m412.917969-1.105469h-167.617188c-27.675781.207031-50.015625 22.660157-50.082031 50.332031v44.589844c0 6.898438 5.589844 12.488282 12.488281 12.488282 6.898438 0 12.492188-5.589844 12.492188-12.488282v-44.460937c.023437-13.894531 11.210937-25.195313 25.101562-25.355469h167.617188c13.738281 0 24.601562 11.617188 24.601562 25.355469v322.984375c.097657 6.582031-2.429687 12.929687-7.019531 17.640625-4.59375 4.714843-10.878906 7.402343-17.460938 7.464843h-167.738281c-13.847656-.042968-25.058593-11.257812-25.101562-25.105468v-43.714844c0-6.894531-5.59375-12.488281-12.492188-12.488281-6.898437 0-12.488281 5.59375-12.488281 12.488281v43.59375c.125 27.605469 22.476562 49.953125 50.082031 50.082031h167.617188c27.480469-.109375 49.675781-22.472656 49.582031-49.960937v-323.113282c0-27.476562-22.105469-50.332031-49.582031-50.332031zm0 0"/><path d="m308.125 185.367188h-295.636719c-6.898437 0-12.488281 5.59375-12.488281 12.492187s5.589844 12.488281 12.488281 12.488281h298.382813l-64.070313 74.066406c-4.589843 5.207032-4.082031 13.148438 1.121094 17.734376 5.207031 4.585937 13.152344 4.082031 17.738281-1.121094l80.808594-93.050782c2.5625-2.078124 4.195312-5.09375 4.519531-8.375.328125-3.289062-.667969-6.570312-2.769531-9.109374-.652344-.804688-1.410156-1.519532-2.25-2.125l-80.933594-80.8125c-2.332031-2.335938-5.5-3.648438-8.808594-3.648438-3.300781 0-6.46875 1.3125-8.800781 3.648438-2.328125 2.257812-3.648437 5.351562-3.667969 8.59375-.023437 3.238281 1.25 6.355468 3.542969 8.644531l.125.125zm0 0"/></svg>