<svg height="533pt" viewBox="-16 -57 533.3344 533" width="533pt" xmlns="http://www.w3.org/2000/svg"><path d="m437.492188 201.226562h-283.746094v-93.617187c17.519531-6.097656 28.082031-23.953125 24.992187-42.242187-3.09375-18.296876-18.9375-31.6875-37.492187-31.6875-18.554688 0-34.398438 13.390624-37.488282 31.6875-3.089843 18.289062 7.472657 36.144531 24.988282 42.242187v93.617187h-66.246094c-34.339844-.179687-62.324219 27.519532-62.5 61.859376v45.449218c.144531 24.265625 14.261719 46.269532 36.25 56.527344v39.886719c-.179688 6.738281 5.136719 12.347656 11.875 12.523437h403.503906c6.738282-.042968 12.160156-5.535156 12.121094-12.273437 0-.082031 0-.167969 0-.25v-39.886719c21.988281-10.257812 36.101562-32.261719 36.25-56.527344v-45.269531c-.078125-34.34375-27.980469-62.121094-62.328125-62.039063zm-295.992188-142.734374c7.253906 0 13.125 5.871093 13.125 13.125 0 7.25-5.871094 13.125-13.125 13.125-7.246094 0-13.125-5.875-13.125-13.125 0-7.253907 5.878906-13.125 13.125-13.125zm297.242188 333.980468h-377.492188v-21.476562c.402344.136718.824219.214844 1.25.226562h374.992188c.425781-.011718.84375-.089844 1.25-.226562zm36.25-83.746094c0 20.707032-16.789063 37.5-37.5 37.5h-374.992188c-20.714844 0-37.5-16.792968-37.5-37.5v-45c0-20.710937 16.785156-37.5 37.5-37.5h374.992188c20.710937 0 37.5 16.789063 37.5 37.5zm0 0"/><path d="m198.25 95.371094c-.089844.085937-.175781.175781-.253906.246094-4.699219 4.96875-4.539063 12.789062.359375 17.554687 4.902343 4.769531 12.726562 4.710937 17.558593-.121094l.015626-.015625c24.335937-24.417968 24.316406-63.929687-.042969-88.316406-4.863281-4.902344-12.78125-4.9375-17.683594-.074219s-4.933594 12.777344-.070313 17.679688l.078126.078125c14.613281 14.625 14.628906 38.320312.039062 52.96875zm0 0"/><path d="m234.136719 118.886719c-4.882813 4.882812-4.878907 12.792969.003906 17.675781 4.878906 4.882812 12.792969 4.875 17.675781-.007812 37.320313-37.414063 37.320313-97.976563 0-135.390626-4.882812-4.882812-12.796875-4.882812-17.675781-.007812-4.882813 4.882812-4.886719 12.800781-.003906 17.683594 27.574219 27.644531 27.574219 72.394531 0 100.046875zm0 0"/><path d="m67.121094 113c4.882812 4.882812 12.800781 4.878906 17.683594-.007812 4.875-4.882813 4.871093-12.796876-.011719-17.675782-14.636719-14.617187-14.648438-38.328125-.027344-52.96875 4.847656-4.828125 4.910156-12.667968.128906-17.570312-4.777343-4.910156-12.617187-5.054688-17.570312-.332032-.074219.066407-.15625.148438-.234375.226563l-.019532.015625c-24.375 24.402344-24.355468 63.949219.046876 88.324219zm0 0"/><path d="m40.027344 140.226562c5.058594 0 9.621094-3.039062 11.554687-7.714843 1.9375-4.671875.867188-10.046875-2.707031-13.621094-27.578125-27.652344-27.578125-72.398437 0-100.046875 4.878906-4.882812 4.878906-12.796875-.003906-17.675781-4.882813-4.882813-12.796875-4.882813-17.679688 0-37.3125 37.421875-37.3125 97.976562 0 135.398437 2.34375 2.347656 5.523438 3.660156 8.835938 3.660156zm0 0"/><path d="m98.484375 250.605469c-19.03125 0-34.460937 15.429687-34.460937 34.46875 0 19.03125 15.429687 34.460937 34.460937 34.460937 19.039063 0 34.46875-15.429687 34.46875-34.460937-.019531-19.027344-15.441406-34.449219-34.46875-34.46875zm0 43.929687c-5.222656 0-9.460937-4.238281-9.460937-9.464844 0-5.226562 4.238281-9.464843 9.460937-9.464843 5.230469 0 9.46875 4.238281 9.46875 9.464843-.003906 5.222657-4.238281 9.460938-9.46875 9.460938zm0 0"/><path d="m182.351562 250.605469c-19.035156 0-34.464843 15.429687-34.46875 34.464843 0 19.035157 15.429688 34.464844 34.46875 34.464844 19.03125 0 34.460938-15.429687 34.460938-34.460937-.019531-19.027344-15.433594-34.449219-34.460938-34.46875zm0 43.929687c-5.230468 0-9.464843-4.238281-9.46875-9.460937 0-5.230469 4.238282-9.46875 9.46875-9.46875 5.222657 0 9.460938 4.234375 9.460938 9.464843-.003906 5.222657-4.238281 9.457032-9.460938 9.460938zm0 0"/></svg>