<svg height="590pt" viewBox="-18 -42 590.66849 590" width="590pt" xmlns="http://www.w3.org/2000/svg"><path d="m545.796875 102.441406-264.386719-102.96875c-2.914062-1.136718-6.144531-1.136718-9.0625 0l-264.390625 102.96875c-4.792969 1.867188-7.95312475 6.484375-7.95312475 11.632813 0 5.144531 3.16015575 9.765625 7.95312475 11.632812l264.390625 102.972657c2.917969 1.132812 6.148438 1.132812 9.0625 0l264.386719-102.972657c4.796875-1.867187 7.953125-6.488281 7.953125-11.632812 0-5.148438-3.15625-9.765625-7.953125-11.632813zm-268.917969 101.210938-230-89.578125 230-89.574219 229.992188 89.574219zm0 0"/><path d="m545.910156 240.023438-111.277344-44.582032c-4.136718-1.722656-8.878906-1.09375-12.425781 1.640625-3.550781 2.738281-5.351562 7.167969-4.738281 11.605469.617188 4.4375 3.570312 8.203125 7.726562 9.863281l.152344.066407 81.945313 32.828124-230.414063 89.742188-230.644531-89.828125 84.945313-34.542969c6.402343-2.566406 9.511718-9.828125 6.949218-16.230468-2.566406-6.398438-9.832031-9.511719-16.234375-6.945313l-.121093.046875-113.992188 46.359375c-4.734375 1.925781-7.8203125 6.542969-7.78125 11.652344.0390625 5.117187 3.1875 9.691406 7.953125 11.542969l264.390625 102.96875c2.914062 1.136718 6.148438 1.136718 9.058594 0l264.390625-102.96875c4.773437-1.855469 7.925781-6.445313 7.953125-11.570313.023437-5.125-3.085938-9.742187-7.839844-11.648437zm0 0"/><path d="m545.835938 377.535156-108.257813-42.601562c-6.398437-2.582032-13.667969.515625-16.25 6.914062-2.574219 6.390625.523437 13.660156 6.917969 16.242188l.1875.070312 78.59375 30.929688-230.148438 89.628906-230.589844-89.804688 84.210938-34.125c6.394531-2.589843 9.46875-9.867187 6.882812-16.257812-2.589843-6.386719-9.867187-9.46875-16.257812-6.882812l-113.328125 45.929687c-4.742187 1.917969-7.8320312 6.539063-7.796875 11.65625.0351562 5.113281 3.1875 9.6875 7.953125 11.546875l264.390625 102.96875c2.914062 1.136719 6.148438 1.136719 9.058594 0l264.390625-102.96875c4.789062-1.871094 7.945312-6.472656 7.953125-11.613281.011718-5.136719-3.128906-9.753907-7.914063-11.636719zm0 0"/></svg>