<svg height="572pt" viewBox="-18 -18 572.00902 572" width="572pt" xmlns="http://www.w3.org/2000/svg"><path d="m430.292969 255.601562h-250.0625l94.164062-94.164062c4.855469-4.855469 4.855469-12.730469 0-17.582031-4.859375-4.855469-12.730469-4.855469-17.582031 0l-115.367188 115.367187c-2.347656 2.34375-3.65625 5.535156-3.621093 8.851563.023437 3.308593 1.320312 6.480469 3.621093 8.859375l115.367188 115.363281c2.335938 2.355469 5.53125 3.660156 8.851562 3.617187 3.308594-.015624 6.484376-1.3125 8.855469-3.617187 2.335938-2.332031 3.648438-5.492187 3.648438-8.792969 0-3.296875-1.3125-6.464844-3.648438-8.792968l-94.289062-94.164063h250.0625c6.890625 0 12.472656-5.582031 12.472656-12.472656 0-6.886719-5.582031-12.472657-12.472656-12.472657zm0 0"/><path d="m268.15625-.0742188c-108.457031-.0195312-206.242188 65.3085938-247.746094 165.5117188-41.496094 100.207031-18.542968 215.542969 58.171875 292.210938 104.703125 104.703124 274.453125 104.703124 379.152344 0 104.699219-104.695313 104.699219-274.445313 0-379.148438-50.167969-50.453125-118.429687-78.746094-189.578125-78.5742188zm0 511.3554688c-134.074219 0-243.203125-109.132812-243.203125-243.207031s109.128906-243.203125 243.203125-243.203125 243.207031 109.128906 243.207031 243.203125-109.132812 243.207031-243.207031 243.207031zm0 0"/></svg>