<svg height="533pt" viewBox="-120 -16 533 533.33331" width="533pt" xmlns="http://www.w3.org/2000/svg"><path d="m196.429688 171.453125v-21.023437c.117187-18.414063-14.707032-33.433594-33.121094-33.554688h-10.628906v-104.375c0-6.90625-5.601563-12.5-12.5-12.5-6.90625 0-12.5 5.59375-12.5 12.5v104.375h-12.671876c-18.523437-.023438-33.558593 14.976562-33.578124 33.5v22.007812c-53.75 22.507813-88.179688 74-88.179688 130.707032-.019531 6.90625 5.5625 12.515625 12.460938 12.535156h63.042968c5.625 33.75 35.496094 59.023438 71.425782 59.023438 35.921874 0 65.800781-25.273438 71.421874-59.023438h63.039063c6.847656-.03125 12.371094-5.601562 12.34375-12.441406v-.09375c-.003906-57.8125-35.554687-109.660156-90.554687-131.636719zm-56.25 178.195313c-22.023438 0-40.585938-14.023438-45.878907-34.023438h91.753907c-5.292969 20-23.859376 34.023438-45.875 34.023438zm-121.269532-59.023438c4.917969-43.75 35.511719-82.398438 79.160156-97.886719 4.996094-1.78125 8.339844-6.507812 8.359376-11.808593v-30.503907c-.023438-4.703125 3.769531-8.53125 8.472656-8.550781h48.183594c4.589843-.015625 8.324218 3.691406 8.34375 8.28125v30.003906c.0625 5.410156 3.554687 10.183594 8.6875 11.886719 44.84375 15.019531 76.375 53.578125 81.335937 98.578125zm0 0"/><path d="m59.84375 378.339844-41.191406 39.84375c-4.921875 4.808594-5.035156 12.691406-.25 17.632812 4.78125 4.945313 12.660156 5.097656 17.625.335938l41.191406-39.84375c4.804688-4.828125 4.859375-12.613282.128906-17.503906-4.738281-4.898438-12.515625-5.101563-17.5-.464844zm0 0"/><path d="m200.804688 391.625c-4.878907-4.863281-12.769532-4.871094-17.648438-.015625-4.882812 4.859375-4.914062 12.75-.078125 17.648437.113281.113282.230469.226563.347656.335938l41.191407 39.84375c3.144531 3.183594 7.753906 4.445312 12.085937 3.300781 4.324219-1.140625 7.714844-4.511719 8.875-8.832031 1.167969-4.320312-.066406-8.9375-3.234375-12.101562-.117188-.117188-.230469-.222657-.351562-.335938zm0 0"/><path d="m132.679688 418.652344c-6.90625 0-12.5 5.597656-12.5 12.5v56.347656c0 6.90625 5.59375 12.5 12.5 12.5 6.898437 0 12.5-5.59375 12.5-12.5v-56.347656c0-6.902344-5.601563-12.5-12.5-12.5zm0 0"/></svg>