<svg height="532pt" viewBox="-65 -17 532 532.00047" width="532pt" xmlns="http://www.w3.org/2000/svg"><path d="m339.632812 61.261719c-37.9375-39.503907-88.398437-61.261719-142.097656-61.261719-53.699218 0-104.152344 21.753906-142.085937 61.257812l-.066407.074219c-37.808593 39.398438-58.625 91.746094-58.625 147.398438 0 55.65625 20.824219 108.003906 58.625 147.40625l133.15625 138.777343c4.769532 4.96875 12.660157 5.128907 17.632813.367188.121094-.125.25-.242188.363281-.367188l133.160156-138.777343c37.800782-39.402344 58.625-91.75 58.625-147.40625 0-55.652344-20.828124-108-58.625-147.398438zm-17.933593 277.609375-124.164063 129.402344-124.160156-129.402344c-68.828125-71.742188-68.859375-188.457032-.054688-260.226563l.066407-.066406c33.191406-34.589844 77.285156-53.640625 124.148437-53.640625 46.871094 0 90.960938 19.050781 124.152344 53.644531l.058594.0625c68.808594 71.765625 68.789062 188.484375-.046875 260.226563zm0 0"/><path d="m197.535156 76.097656c-61.972656 0-112.21875 50.246094-112.21875 112.222656 0 61.976563 50.246094 112.21875 112.21875 112.21875 61.980469 0 112.21875-50.242187 112.21875-112.21875-.066406-61.945312-50.269531-112.148437-112.21875-112.222656zm0 199.503906c-48.203125 0-87.28125-39.078124-87.28125-87.28125 0-48.203124 39.078125-87.285156 87.28125-87.285156 48.207032 0 87.28125 39.082032 87.28125 87.285156 0 48.203126-39.074218 87.28125-87.28125 87.28125zm0 0"/></svg>