<svg height="556pt" viewBox="-66 -17 556 556.00088" width="556pt" xmlns="http://www.w3.org/2000/svg"><path d="m356.996094 61.332031c-39.199219-39.269531-92.40625-61.332031-147.890625-61.332031-55.488281 0-108.691407 22.0625-147.894531 61.332031-37.796876 38.003907-60.558594 88.410157-64.078126 141.894531-1.816406 29.296876 2.480469 58.644532 12.613282 86.1875 9.996094 27.359376 26.234375 53.214844 48.339844 76.699219l141.902343 151.140625c2.359375 2.527344 5.65625 3.972656 9.117188 3.996094 3.46875.035156 6.792969-1.417969 9.121093-3.996094l141.894532-151.140625c22.105468-23.484375 38.34375-49.339843 48.339844-76.699219 10.257812-27.507812 14.558593-56.886718 12.617187-86.1875-3.546875-53.476562-26.304687-103.875-64.082031-141.894531zm27.855468 219.464844c-8.867187 24.230469-23.355468 47.21875-43.09375 68.199219l-132.652343 141.402344-132.78125-141.402344c-19.734375-20.980469-34.222657-43.96875-43.09375-68.199219-9.011719-24.25-12.796875-50.128906-11.113281-75.945313 3.089843-47.460937 23.277343-92.195312 56.832031-125.910156 34.503906-34.542968 81.328125-53.960937 130.15625-53.960937s95.648437 19.417969 130.15625 53.960937c33.550781 33.714844 53.746093 78.449219 56.832031 125.910156 1.585938 25.820313-2.242188 51.691407-11.242188 75.945313zm0 0"/><path d="m209.105469 101.929688c-53.710938 0-97.429688 44.710937-97.429688 99.671874 0 54.960938 43.71875 99.679688 97.429688 99.679688 53.710937 0 97.429687-44.71875 97.429687-99.679688 0-54.960937-43.71875-99.671874-97.429687-99.671874zm0 174.371093c-39.972657 0-72.449219-33.476562-72.449219-74.699219 0-41.21875 32.476562-74.691406 72.449219-74.691406 39.972656 0 72.449219 33.472656 72.449219 74.691406 0 41.222657-32.476563 74.699219-72.449219 74.699219zm0 0"/></svg>