<svg height="562pt" viewBox="-101 -17 562 562.66773" width="562pt" xmlns="http://www.w3.org/2000/svg"><path d="m293.644531 0h-175.625c-33.476562 0-60.707031 27.480469-60.707031 61.332031v81.316407c0 6.898437 5.589844 12.492187 12.492188 12.492187 6.898437 0 12.488281-5.59375 12.488281-12.492187v-81.191407c-.085938-9.558593 3.625-18.761719 10.324219-25.578125 6.707031-6.824218 15.839843-10.695312 25.402343-10.769531h175.75c19.738281 0 35.722657 16.359375 35.722657 36.347656v404.710938c.09375 9.558593-3.625 18.761719-10.324219 25.582031-6.699219 6.816406-15.839844 10.691406-25.398438 10.769531h-175.75c-19.734375 0-35.726562-16.367187-35.726562-36.351562v-80.691407c0-6.898437-5.589844-12.488281-12.488281-12.488281-6.902344 0-12.492188 5.589844-12.492188 12.488281v80.691407c0 33.851562 27.230469 61.332031 60.707031 61.332031h175.75c33.476563 0 60.703125-27.480469 60.703125-61.332031v-404.710938c0-33.851562-27.226562-61.457031-60.828125-61.457031zm0 0"/><path d="m150.121094 310.40625c-4.40625 5.28125-3.730469 13.128906 1.511718 17.582031 5.242188 4.457031 13.097657 3.855469 17.601563-1.34375l46.21875-54.585937.371094-.375c.125-.128906.253906-.378906.375-.5.15625-.121094.246093-.308594.246093-.503906.128907-.121094.253907-.375.378907-.496094.125-.125.125-.375.246093-.503906.128907-.121094.128907-.371094.253907-.496094s.125-.375.25-.496094c.121093-.253906.121093-.378906.25-.625 0-.128906.125-.375.125-.503906 0-.25.121093-.375.121093-.625 0-.121094.128907-.375.128907-.496094 0-.25.121093-.503906.121093-.753906v-.375c.128907-.785156.128907-1.585938 0-2.371094v-.375c0-.25-.121093-.496094-.121093-.746094 0-.128906-.128907-.375-.128907-.503906 0-.25-.121093-.375-.121093-.625 0-.121094-.125-.375-.125-.496094-.128907-.25-.128907-.375-.25-.625-.125-.125-.125-.375-.25-.503906-.125-.246094-.125-.371094-.253907-.496094-.121093-.128906-.121093-.375-.246093-.496094-.125-.128906-.25-.378906-.378907-.503906-.121093-.121094-.121093-.25-.246093-.5-.121094-.125-.25-.375-.375-.5l-.371094-.371094-46.21875-54.589843c-4.449219-5.273438-12.335937-5.949219-17.613281-1.5-5.28125 4.453125-5.949219 12.335937-1.5 17.617187l28.851562 34.101563h-171.75c-6.894531 0-12.492187 5.589843-12.492187 12.488281 0 6.894531 5.597656 12.492188 12.492187 12.492188h171.75zm0 0"/></svg>