<svg height="562pt" viewBox="-75 -17 562 562.66773" width="562pt" xmlns="http://www.w3.org/2000/svg"><path d="m347.824219 0h-175.628907c-33.476562 0-60.703124 27.480469-60.703124 61.332031v81.316407c0 6.898437 5.589843 12.492187 12.492187 12.492187 6.894531 0 12.488281-5.59375 12.488281-12.492187v-81.191407c-.089844-9.558593 3.625-18.761719 10.324219-25.578125 6.699219-6.824218 15.839844-10.695312 25.398437-10.769531h175.75c19.734376 0 35.726563 16.359375 35.726563 36.347656v404.710938c.085937 9.558593-3.625 18.761719-10.324219 25.582031-6.707031 6.816406-15.839844 10.691406-25.402344 10.769531h-175.75c-19.738281 0-35.722656-16.367187-35.722656-36.351562v-80.691407c0-6.898437-5.59375-12.488281-12.488281-12.488281-6.902344 0-12.492187 5.589844-12.492187 12.488281v80.691407c0 33.851562 27.226562 61.332031 60.703124 61.332031h175.75c33.476563 0 60.707032-27.480469 60.707032-61.332031v-404.710938c0-33.851562-27.230469-61.457031-60.828125-61.457031zm0 0"/><path d="m35.921875 276.300781h171.75c6.894531 0 12.492187-5.589843 12.492187-12.488281 0-6.902344-5.597656-12.492188-12.492187-12.492188h-171.75l28.851563-34.101562c4.449218-5.273438 3.78125-13.160156-1.5-17.609375-5.277344-4.449219-13.164063-3.78125-17.613282 1.496094l-46.21875 54.585937-.371094.375c-.125.128906-.253906.378906-.375.5-.15625.121094-.25.308594-.25.5-.125.125-.253906.378906-.375.5-.125.125-.125.375-.246093.503906-.128907.121094-.128907.367188-.253907.496094-.125.125-.125.375-.25.496094-.121093.253906-.121093.378906-.25.625 0 .128906-.125.375-.125.503906 0 .25-.125.375-.125.625 0 .121094-.125.375-.125.496094 0 .25-.121093.503906-.121093.753906v.375c-.128907.785156-.128907 1.585938 0 2.371094v.375c0 .25.121093.496094.121093.746094 0 .128906.125.375.125.503906 0 .246094.125.375.125.625 0 .121094.125.375.125.496094.128907.25.128907.375.25.625.125.125.125.375.25.503906.125.246094.125.371094.253907.496094.121093.125.121093.375.246093.496094.121094.128906.25.378906.375.503906.125.121094.125.25.25.496094.121094.128906.25.378906.375.503906l.371094.371094 46.21875 54.589843c4.503906 5.195313 12.359375 5.796875 17.597656 1.347657 5.246094-4.457032 5.921876-12.300782 1.515626-17.585938zm0 0"/></svg>