<svg height="533pt" viewBox="-17 -20 533.33559 533" width="533pt" xmlns="http://www.w3.org/2000/svg"><path d="m356.515625 175.832031 31.09375-74.753906c2.042969-4.917969.746094-10.589844-3.226563-14.128906-3.976562-3.542969-9.761718-4.175781-14.414062-1.578125l-68.398438 38.25-58.398437-53.28125c-3.953125-3.601563-9.757813-4.292969-14.441406-1.714844-4.683594 2.570312-7.214844 7.839844-6.285157 13.105469l14.0625 80.058593-67.300781 41.386719c-4.488281 2.761719-6.761719 8.042969-5.683593 13.203125 1.082031 5.15625 5.28125 9.085938 10.503906 9.8125l62.273437 8.703125-232.5 237.859375c-3.230469 3.125-4.527343 7.753906-3.402343 12.105469 1.128906 4.359375 4.515624 7.769531 8.859374 8.933594 4.34375 1.164062 8.980469-.09375 12.136719-3.300781.09375-.09375.1875-.183594.273438-.277344l232.84375-238.210938 13.890625 64.140625c1.136718 5.246094 5.5 9.183594 10.839844 9.773438 5.335937.59375 10.453124-2.292969 12.710937-7.167969l33.808594-72.960938 77.453125 7.503907c5.257812.507812 10.269531-2.347657 12.515625-7.128907 2.242187-4.789062 1.234375-10.464843-2.519531-14.183593zm-37.160156 44.226563c-5.28125-.507813-10.308594 2.371094-12.542969 7.183594l-21.871094 47.207031-11.105468-51.28125c-1.113282-5.121094-5.296876-9.003907-10.484376-9.726563l-51.449218-7.191406 44.925781-27.625c4.363281-2.6875 6.644531-7.761719 5.761719-12.808594l-9.195313-52.328125 37.980469 34.660157c3.972656 3.628906 9.824219 4.300781 14.519531 1.675781l44.777344-25.035157-20.460937 49.207032c-1.953126 4.695312-.871094 10.101562 2.746093 13.675781l37.730469 37.359375zm0 0"/><path d="m363.367188 292.53125c-3.769532-5.777344-11.507813-7.410156-17.285157-3.644531-5.785156 3.769531-7.421875 11.503906-3.652343 17.285156l28.851562 44.292969c3.765625 5.777344 11.503906 7.410156 17.289062 3.644531 5.78125-3.769531 7.414063-11.503906 3.648438-17.285156zm0 0"/><path d="m294.628906 76.902344c6.902344 0 12.496094-5.59375 12.496094-12.496094v-51.925781c0-6.902344-5.59375-12.496094-12.496094-12.496094-6.898437 0-12.492187 5.59375-12.492187 12.496094v51.925781c0 6.902344 5.59375 12.496094 12.492187 12.496094zm0 0"/><path d="m484.328125 129.675781-67.671875 17.78125c-6.671875 1.753907-10.664062 8.585938-8.90625 15.257813 1.75 6.675781 8.585938 10.660156 15.253906 8.910156l67.671875-17.78125c6.679688-1.753906 10.664063-8.582031 8.914063-15.257812-1.753906-6.671876-8.585938-10.664063-15.261719-8.910157zm0 0"/><path d="m118.4375 139.152344 50.105469 8.632812c.703125.121094 1.421875.179688 2.132812.179688 6.492188 0 11.894531-4.96875 12.445313-11.433594.546875-6.46875-3.941406-12.277344-10.335938-13.375l-50.101562-8.632812c-6.796875-1.171876-13.265625 3.390624-14.4375 10.191406-1.175782 6.796875 3.386718 13.265625 10.191406 14.4375zm0 0"/></svg>