<svg height="480pt" viewBox="-30 -15 480 480" width="480pt" xmlns="http://www.w3.org/2000/svg"><path d="m419.71875 87.960938c0-1.601563-.863281-3.125-.863281-4.539063v-45.921875c0-20.679688-17.222657-37.5-37.902344-37.5h-51.664063c-20.683593 0-37.933593 16.820312-37.933593 37.5v203.023438c0 45.5625-36.933594 82.5-82.5 82.5-45.5625 0-82.5-36.9375-82.5-82.5v-87.238282c1.730469-3.476562 1.730469-7.5625 0-11.039062v-48.769532c1.730469-3.476562 1.730469-7.558593 0-11.035156v-44.941406c-.113281-20.738281-16.949219-37.49609375-37.691407-37.5h-51.664062c-20.679688 0-36.894531 16.820312-36.894531 37.5v45.347656c-1.25 1.5625-1.101563 3.285156-1.101563 5.113282 0 1.820312-.148437 3.546874 1.101563 5.109374v49.582032c-1.25 1.5625-1.101563 3.289062-1.101563 5.113281 0 1.820313-.148437 3.546875 1.101563 5.109375v87.648438c0 115.507812 93.875 209.476562 209.375 209.476562s209.375-93.96875 209.375-209.476562v-88.222657c0-1.410156.863281-2.933593.863281-4.535156s-.863281-3.125-.863281-4.53125v-50.742187c0-1.40625.863281-2.929688.863281-4.53125zm-103.363281 12.039062h77.5v35h-77.5zm12.933593-75h51.664063c6.976563-.023438 12.707031 5.523438 12.902344 12.5v37.5h-77.5v-37.5c.214843-6.984375 5.945312-12.523438 12.933593-12.5zm-304.183593 75h76.25v35h-76.25zm11.894531-75h51.664062c6.9375-.003906 12.59375 5.5625 12.691407 12.5v37.5h-76.25v-37.5c0-6.894531 5-12.5 11.894531-12.5zm172.480469 400c-101.71875 0-184.375-82.75-184.375-184.476562v-80.523438h76.25v80.523438c0 59.367187 48.128906 107.5 107.5 107.5 59.375 0 107.5-48.132813 107.5-107.5v-80.523438h77.5v80.523438c0 101.726562-82.652344 184.476562-184.375 184.476562zm0 0"/></svg>