<svg height="533pt" viewBox="-180 -16 533 533.33332" width="533pt" xmlns="http://www.w3.org/2000/svg"><path d="m161.75 23.3125c0-12.878906-10.433594-23.3125-23.3125-23.3125h-125.871094c-12.878906-.00390625-23.3125 10.429688-23.316406 23.304688v453.375c-.003906 12.875 10.429688 23.316406 23.304688 23.320312h125.875c12.875.003906 23.316406-10.429688 23.320312-23.304688zm-147.5 451.6875v-450h122.5v67.5h-27.738281c-6.90625 0-12.5 5.597656-12.5 12.5 0 6.90625 5.59375 12.5 12.5 12.5h27.738281v72.5h-50.4375c-6.90625 0-12.5 5.597656-12.5 12.5 0 6.90625 5.59375 12.5 12.5 12.5h50.4375v71.25h-27.738281c-6.90625 0-12.5 5.597656-12.5 12.5 0 6.90625 5.59375 12.5 12.5 12.5h27.738281v71.25h-50.4375c-6.90625 0-12.5 5.597656-12.5 12.5 0 6.90625 5.59375 12.5 12.5 12.5h50.4375v67.5zm0 0"/></svg>