<svg height="454pt" viewBox="-14 -97 454.66786 454" width="454pt" xmlns="http://www.w3.org/2000/svg"><path d="m413.773438 229.359375h-401.296876c-6.890624 0-12.476562 5.589844-12.476562 12.476563 0 6.894531 5.585938 12.476562 12.476562 12.476562h401.296876c6.890624 0 12.476562-5.582031 12.476562-12.476562 0-6.886719-5.585938-12.476563-12.476562-12.476563zm0 0"/><path d="m413.773438 112.074219h-401.296876c-6.890624 0-12.476562 5.59375-12.476562 12.480469 0 6.890624 5.585938 12.476562 12.476562 12.476562h401.296876c6.890624 0 12.476562-5.585938 12.476562-12.476562 0-6.886719-5.585938-12.480469-12.476562-12.480469zm0 0"/><path d="m413.773438-5.207031h-401.296876c-6.890624 0-12.476562 5.589843-12.476562 12.476562 0 6.890625 5.585938 12.476563 12.476562 12.476563h401.296876c6.890624 0 12.476562-5.585938 12.476562-12.476563 0-6.886719-5.585938-12.476562-12.476562-12.476562zm0 0"/></svg>