<svg height="560pt" viewBox="-17 -35 560 560" width="560pt" xmlns="http://www.w3.org/2000/svg"><path d="m462.5-1.167969h-400c-34.511719.015625-62.484375 27.988281-62.5 62.5v269.875c.015625 34.515625 27.988281 62.488281 62.5 62.5h129.5l52.25 86.375c0 .128907.125.128907.125.25 3.546875 5.621094 9.730469 9.019531 16.375 9 6.636719-.011719 12.808594-3.402343 16.375-9 0-.121093.125-.121093.125-.25l52.25-86.375h133c34.511719-.011719 62.484375-27.984375 62.5-62.5v-269.875c-.015625-34.511719-27.988281-62.484375-62.5-62.5zm37.5 332.375c-.058594 20.6875-16.816406 37.441407-37.5 37.5h-140.125c-4.375.015625-8.445312 2.28125-10.75 6l-51 84.375-51-84.375c-2.285156-3.746093-6.363281-6.019531-10.75-6h-136.375c-20.683594-.058593-37.441406-16.8125-37.5-37.5v-269.875c.058594-20.683593 16.816406-37.441406 37.5-37.5h400c20.683594.058594 37.441406 16.816407 37.5 37.5zm0 0"/><path d="m347.625 132.960938-110.75 105.871093-59.25-59.246093c-4.867188-4.867188-12.757812-4.867188-17.625 0-4.867188 4.863281-4.867188 12.753906 0 17.621093l67.875 67.875c2.34375 2.363281 5.546875 3.671875 8.875 3.625 3.226562.035157 6.332031-1.226562 8.625-3.496093l119.625-114.253907c4.96875-4.792969 5.113281-12.714843.3125-17.683593-4.800781-4.972657-12.714844-5.113282-17.6875-.3125zm0 0"/></svg>