<svg height="600pt" viewBox="-145 -19 600 600" width="600pt" xmlns="http://www.w3.org/2000/svg"><path d="m146.582031 364.75c54.578125-.078125 98.800781-44.300781 98.878907-98.875v-167c0-54.609375-44.269532-98.875-98.878907-98.875s-98.875 44.265625-98.875 98.875v167c.078125 54.574219 44.300781 98.796875 98.875 98.875zm-73.875-265.875c0-40.796875 33.074219-73.875 73.875-73.875s73.878907 33.078125 73.878907 73.875v167c0 40.800781-33.078126 73.875-73.878907 73.875s-73.875-33.074219-73.875-73.875zm0 0"/><path d="m289.082031 261.625c-6.894531.019531-12.480469 5.605469-12.5 12.5 0 69.25-58.371093 125.625-130 125.625-71.625 0-130-56.375-130-125.625 0-6.902344-5.59375-12.5-12.5-12.5-6.902343 0-12.5 5.597656-12.5 12.5 0 79 62.878907 144 142.5 150.25v113.125h-47.996093c-6.90625 0-12.5 5.59375-12.5 12.5s5.59375 12.5 12.5 12.5h120.875c6.902343 0 12.5-5.59375 12.5-12.5s-5.597657-12.5-12.5-12.5h-47.878907v-113.25c79.625-6.25 142.5-71.25 142.5-150.25-.070312-6.851562-5.648437-12.367188-12.5-12.375zm0 0"/></svg>