<svg height="546pt" viewBox="-116 -17 546 546.66669" width="546pt" xmlns="http://www.w3.org/2000/svg"><path d="m262.914062 0h-225.214843c-24.28125 0-44.03125 19.355469-44.03125 43.144531v426.210938c0 23.789062 19.75 43.144531 44.03125 43.144531h225.214843c24.277344 0 44.035157-19.355469 44.035157-43.144531v-426.210938c0-23.789062-19.757813-43.144531-44.035157-43.144531zm19.035157 469.355469c0 10-8.542969 18.144531-19.035157 18.144531h-225.214843c-10.503907 0-19.03125-8.140625-19.03125-18.144531v-426.210938c0-10 8.535156-18.144531 19.03125-18.144531h225.214843c10.503907 0 19.035157 8.140625 19.035157 18.144531zm0 0"/><path d="m234.535156 46.429688h-168.460937c-13.800781.015624-24.980469 11.195312-25 25v323.214843c.019531 13.796875 11.199219 24.980469 25 25h168.460937c13.804688-.019531 24.984375-11.203125 25-25v-323.214843c-.015625-13.804688-11.195312-24.984376-25-25zm0 348.214843h-168.460937v-323.214843h168.460937zm0 0"/><path d="m150.308594 424.105469c-16.210938.269531-29.160156 13.582031-28.984375 29.792969.179687 16.210937 13.417969 29.230468 29.628906 29.144531 16.214844-.09375 29.308594-13.257813 29.304687-29.472657 0-7.898437-3.167968-15.464843-8.804687-21.007812-5.628906-5.535156-13.25-8.582031-21.144531-8.457031zm0 33.933593c-2.410156-.25-4.179688-2.367187-4.015625-4.777343.167969-2.410157 2.21875-4.257813 4.632812-4.175781 2.417969.085937 4.332031 2.066406 4.332031 4.484374-.140624 2.597657-2.351562 4.59375-4.949218 4.46875zm0 0"/></svg>