<svg height="577pt" viewBox="-18 -20 577.33539 577" width="577pt" xmlns="http://www.w3.org/2000/svg"><path d="m478.839844.0351562h-416.425782c-34.464843.0078126-62.398437 27.9492188-62.414062 62.4140628v304.824219c.015625 34.464843 27.949219 62.398437 62.414062 62.414062h195.730469v82.136719h-90.628906c-6.894531 0-12.480469 5.589843-12.480469 12.484375 0 6.894531 5.585938 12.480468 12.480469 12.480468h212.207031c6.894532 0 12.484375-5.585937 12.484375-12.480468 0-6.894532-5.589843-12.484375-12.484375-12.484375h-96.613281v-82.136719h195.730469c34.460937-.015625 62.398437-27.949219 62.410156-62.414062v-304.824219c-.011719-34.464844-27.949219-62.4062502-62.410156-62.4140628zm-416.425782 24.9648438h416.546876c20.660156.058594 37.390624 16.789062 37.449218 37.449219v248.277343h-491.445312v-248.277343c.015625-20.675781 16.773437-37.433594 37.449218-37.449219zm416.425782 379.722656h-416.425782c-20.65625-.058594-37.390624-16.792968-37.449218-37.449218v-31.582032h491.445312v31.582032c-.074218 20.699218-16.871094 37.445312-37.570312 37.449218zm0 0"/></svg>