<svg height="474pt" viewBox="-14 -174 474.66578 474" width="474pt" xmlns="http://www.w3.org/2000/svg"><path d="m382.457031-10.382812c-34.539062-.003907-62.539062 28-62.539062 62.542968 0 34.539063 28 62.539063 62.539062 62.539063 34.542969 0 62.542969-28 62.542969-62.539063-.039062-34.527344-28.015625-62.503906-62.542969-62.542968zm0 100.148437c-20.765625 0-37.605469-16.839844-37.605469-37.605469 0-20.769531 16.839844-37.605468 37.605469-37.605468 20.769531 0 37.605469 16.832031 37.605469 37.605468-.023438 20.757813-16.847656 37.574219-37.605469 37.605469zm0 0"/><path d="m222.503906-10.382812c-34.542968 0-62.546875 28-62.546875 62.542968 0 34.539063 28.003907 62.539063 62.546875 62.539063 34.539063 0 62.539063-28 62.539063-62.539063 0-34.542968-28-62.542968-62.539063-62.542968zm0 100.148437c-20.773437 0-37.613281-16.839844-37.613281-37.605469 0-20.773437 16.839844-37.605468 37.613281-37.605468 20.765625 0 37.601563 16.832031 37.601563 37.605468 0 20.765625-16.835938 37.605469-37.601563 37.605469zm0 0"/><path d="m62.542969-10.382812c-34.542969 0-62.542969 28-62.542969 62.542968 0 34.539063 28 62.539063 62.542969 62.539063 34.539062 0 62.539062-28 62.539062-62.539063-.039062-34.527344-28.015625-62.503906-62.539062-62.542968zm0 100.148437c-20.769531 0-37.605469-16.839844-37.605469-37.605469 0-20.773437 16.835938-37.605468 37.605469-37.605468s37.601562 16.832031 37.601562 37.605468c0 20.765625-16.835937 37.605469-37.601562 37.605469zm0 0"/></svg>