<svg height="514pt" viewBox="-57 -16 514 514.673" width="514pt" xmlns="http://www.w3.org/2000/svg"><path d="m374.953125 14.285156c-14.367187-11.894531-33.3125-16.710937-51.621094-13.125l-159.613281 31c-29.335938 5.78125-50.523438 31.464844-50.621094 61.367188v264.980468c-25.203125-21.222656-61.769531-22.082031-87.945312-2.058593-26.171875 20.019531-34.90625 55.546875-21.011719 85.425781 13.898437 29.875 46.699219 46.082031 78.871094 38.96875 32.175781-7.113281 55.082031-35.636719 55.085937-68.589844v-318.597656c.023438-17.9375 12.757813-33.347656 30.375-36.746094l159.609375-31c10.980469-2.136718 22.34375.742188 30.976563 7.851563 8.636718 7.113281 13.640625 17.710937 13.644531 28.894531v227.730469c-25.203125-21.222657-61.773437-22.082031-87.941406-2.058594-26.175781 20.023437-34.910157 55.546875-21.015625 85.425781 13.902344 29.878906 46.695312 46.082032 78.871094 38.96875 32.175781-7.113281 55.085937-35.636718 55.085937-68.589844v-281.597656c.0625-18.6875-8.292969-36.410156-22.75-48.25zm-306.972656 443.09375c-24.988281 0-45.25-20.257812-45.25-45.246094 0-24.988281 20.261719-45.246093 45.25-45.246093s45.246093 20.257812 45.246093 45.246093c-.039062 24.972657-20.273437 45.207032-45.246093 45.246094zm259.476562-68.371094c-24.988281 0-45.246093-20.257812-45.246093-45.246093 0-24.992188 20.257812-45.25 45.246093-45.25s45.246094 20.257812 45.246094 45.25c-.035156 24.96875-20.273437 45.207031-45.246094 45.246093zm0 0"/></svg>