<svg height="533pt" viewBox="-79 -16 533 533.33257" width="533pt" xmlns="http://www.w3.org/2000/svg"><path d="m315.808594 33.949219h-80.355469c-9.105469-20.632813-29.535156-33.949219-52.089844-33.949219-22.558593 0-42.988281 13.316406-52.09375 33.949219h-80.359375c-30.3125.035156-54.875 24.601562-54.910156 54.914062v356.222657c.035156 30.3125 24.597656 54.878906 54.910156 54.914062h264.898438c30.3125-.035156 54.878906-24.601562 54.914062-54.914062v-356.222657c-.035156-30.3125-24.601562-54.878906-54.914062-54.914062zm-175.496094 25c5.867188 0 10.945312-4.082031 12.207031-9.820313 3.070313-13.976562 16.042969-24.128906 30.84375-24.128906s27.769531 10.152344 30.839844 24.128906c1.257813 5.738282 6.335937 9.820313 12.210937 9.820313h24.785157v10.96875c-.019531 16.511719-13.398438 29.890625-29.910157 29.910156h-75.855468c-16.515625-.019531-29.894532-13.398437-29.914063-29.910156v-10.96875zm205.410156 386.136719c-.015625 16.515624-13.398437 29.898437-29.914062 29.914062h-264.898438c-16.511718-.015625-29.890625-13.398438-29.910156-29.914062v-356.222657c.019531-16.515625 13.398438-29.894531 29.910156-29.914062h39.609375v10.96875c.035157 30.3125 24.601563 54.875 54.914063 54.910156h75.855468c30.3125-.035156 54.875-24.597656 54.910157-54.910156v-10.96875h39.609375c16.515625.019531 29.894531 13.398437 29.914062 29.914062zm0 0"/><path d="m245.226562 230.957031-82.0625 80.125-41.671874-40.675781c-4.902344-4.796875-12.753907-4.738281-17.59375.121094-4.835938 4.863281-4.855469 12.714844-.039063 17.597656l.167969.164062 50.398437 49.210938c4.859375 4.742188 12.613281 4.742188 17.46875 0l90.792969-88.648438c4.910156-4.828124 4.988281-12.714843.183594-17.640624-4.8125-4.925782-12.695313-5.035157-17.644532-.246094zm0 0"/></svg>