<svg height="533pt" viewBox="-53 -16 533 533.33331" width="533pt" xmlns="http://www.w3.org/2000/svg"><path d="m363.199219 0h-303.394531c-34.347657.0742188-62.132813 27.976562-62.054688 62.328125v375.171875c-.171875 34.34375 27.535156 62.328125 61.878906 62.5h307.828125c31.992188-.074219 57.867188-26.0625 57.792969-58.054688v-379.445312c.171875-34.34375-27.527344-62.324219-61.875-62.5zm-236.699219 25h170v55.488281c-.058594 6.695313-5.53125 12.074219-12.230469 12.015625-.097656 0-.195312 0-.292969 0h-144.945312c-6.695312.226563-12.300781-5.019531-12.527344-11.714844 0-.09375 0-.199218 0-.296874zm273.75 416.757812c.191406 18.167969-14.382812 33.050782-32.554688 33.242188h-307.890624c-20.527344-.058594-37.113282-16.75-37.054688-37.269531 0-.078125 0-.152344 0-.230469v-375c-.183594-20.523438 16.304688-37.3125 36.828125-37.5h41.921875v55.488281c.078125 20.519531 16.773438 37.089844 37.289062 37.011719h145.1875c20.515626.210938 37.320313-16.253906 37.523438-36.777344 0-.078125 0-.15625 0-.234375v-55.488281h41.699219c20.523437.058594 37.109375 16.75 37.050781 37.269531zm0 0"/><path d="m101.285156 231.25h94.640625c6.902344 0 12.5-5.59375 12.5-12.5s-5.597656-12.5-12.5-12.5h-94.640625c-6.898437 0-12.5 5.59375-12.5 12.5s5.601563 12.5 12.5 12.5zm0 0"/><path d="m321.714844 286.25h-220.429688c-6.898437 0-12.5 5.59375-12.5 12.5s5.601563 12.5 12.5 12.5h220.429688c6.90625 0 12.5-5.59375 12.5-12.5s-5.59375-12.5-12.5-12.5zm0 0"/><path d="m321.714844 366.25h-220.429688c-6.898437 0-12.5 5.59375-12.5 12.5s5.601563 12.5 12.5 12.5h220.429688c6.90625 0 12.5-5.59375 12.5-12.5s-5.59375-12.5-12.5-12.5zm0 0"/></svg>