<svg height="560pt" viewBox="-17 -133 560.00208 560" width="560pt" xmlns="http://www.w3.org/2000/svg"><path d="m377.535156-7.671875h-230.195312c-81.375 0-147.339844 65.964844-147.339844 147.335937 0 81.375 65.964844 147.34375 147.339844 147.34375h230.320312c81.332032-.101562 147.238282-66.007812 147.339844-147.34375 0-81.230468-66.230469-147.335937-147.464844-147.335937zm0 269.6875h-230.195312c-67.570313 0-122.347656-54.777344-122.347656-122.351563 0-67.566406 54.777343-122.34375 122.347656-122.34375h230.320312c67.570313.035157 122.320313 54.835938 122.285156 122.410157-.035156 67.570312-54.839843 122.316406-122.410156 122.285156zm0 0"/><path d="m147.339844 45.9375c-51.761719 0-93.730469 41.964844-93.730469 93.726562 0 51.765626 41.96875 93.730469 93.730469 93.730469 51.761718 0 93.726562-41.964843 93.726562-93.730469-.0625-51.734374-41.988281-93.664062-93.726562-93.726562zm0 162.460938c-37.960938 0-68.734375-30.773438-68.734375-68.734376 0-37.957031 30.773437-68.730468 68.734375-68.730468 37.960937 0 68.730468 30.773437 68.730468 68.730468-.066406 37.9375-30.796874 68.667969-68.730468 68.734376zm0 0"/></svg>