<svg height="646pt" viewBox="-20 -53 646.66773 646" width="646pt" xmlns="http://www.w3.org/2000/svg"><path d="m568.8125 381.210938h-30.492188v-23.085938c-.023437-21.117188-17.132812-38.226562-38.25-38.25h-184.46875v-122.878906c52.296876-6.589844 90.460938-52.703125 87.160157-105.304688-3.296875-52.609375-46.929688-93.585937-99.636719-93.585937s-96.335938 40.976562-99.636719 93.585937c-3.304687 52.601563 34.859375 98.714844 87.15625 105.304688v122.878906h-184.460937c-21.117188.023438-38.230469 17.132812-38.253906 38.25v23.085938h-30.492188c-20.667969.027343-37.4140625 16.769531-37.4375 37.441406v81.285156c.0234375 20.667969 16.769531 37.414062 37.4375 37.4375h83.714844c20.664062-.023438 37.414062-16.769531 37.4375-37.4375v-81.285156c-.023438-20.671875-16.773438-37.414063-37.4375-37.441406h-28.261719v-23.085938c.007813-7.339844 5.949219-13.28125 13.292969-13.292969h184.460937v36.378907h-29.375c-20.664062.027343-37.414062 16.777343-37.441406 37.441406v81.289062c.027344 20.664063 16.777344 37.414063 37.441406 37.4375h83.714844c20.664063-.023437 37.414063-16.773437 37.4375-37.4375v-81.289062c-.023437-20.671875-16.773437-37.414063-37.4375-37.441406h-29.382813v-36.382813h184.46875c7.335938.007813 13.28125 5.957031 13.292969 13.292969v23.085937h-28.265625c-20.664062.023438-37.414062 16.773438-37.4375 37.4375v81.292969c.023438 20.664062 16.773438 37.414062 37.4375 37.4375h83.714844c20.664062-.023438 37.414062-16.773438 37.4375-37.4375v-81.285156c-.023438-20.671875-16.773438-37.414063-37.4375-37.441406zm-340.566406-283.246094c0-41.351563 33.523437-74.878906 74.878906-74.878906 41.351562 0 74.875 33.527343 74.875 74.878906 0 41.351562-33.523438 74.875-74.875 74.875-41.355469 0-74.878906-33.523438-74.878906-74.875zm-94.613282 320.6875v81.285156c-.011718 6.886719-5.59375 12.46875-12.480468 12.480469h-83.714844c-6.886719-.011719-12.46875-5.59375-12.480469-12.480469v-81.285156c.011719-6.890625 5.59375-12.476563 12.480469-12.480469h83.714844c6.886718.003906 12.46875 5.589844 12.480468 12.480469zm223.828126 0v81.285156c-.007813 6.886719-5.589844 12.46875-12.476563 12.480469h-83.714844c-6.890625-.011719-12.472656-5.59375-12.480469-12.480469v-81.285156c.007813-6.890625 5.589844-12.476563 12.480469-12.480469h83.714844c6.886719.003906 12.46875 5.589844 12.476563 12.480469zm223.832031 81.285156c-.011719 6.886719-5.59375 12.46875-12.480469 12.480469h-83.714844c-6.886718-.011719-12.46875-5.59375-12.480468-12.480469v-81.285156c.011718-6.890625 5.59375-12.476563 12.480468-12.480469h83.714844c6.886719.003906 12.46875 5.589844 12.480469 12.480469zm0 0"/><path d="m38.53125 464.097656 24.113281 23.554688c3.882813 3.785156 10.074219 3.785156 13.953125 0l43.457032-42.429688c3.945312-3.851562 4.023437-10.171875.171874-14.117187-3.855468-3.949219-10.171874-4.019531-14.121093-.171875l-36.480469 35.621094-17.148438-16.738282c-2.523437-2.535156-6.214843-3.527344-9.671874-2.589844-3.457032.929688-6.144532 3.640626-7.054688 7.101563-.90625 3.460937.109375 7.148437 2.660156 9.652344zm0 0"/><path d="m262.359375 464.097656 24.121094 23.554688c3.878906 3.789062 10.070312 3.789062 13.953125 0l43.457031-42.429688c3.945313-3.851562 4.023437-10.171875.164063-14.117187-3.847657-3.949219-10.167969-4.019531-14.117188-.171875l-36.480469 35.621094-17.148437-16.738282c-3.945313-3.851562-10.261719-3.777344-14.117188.164063-3.851562 3.949219-3.773437 10.265625.167969 14.117187zm0 0"/><path d="m553.773438 430.933594-36.488282 35.621094-17.148437-16.738282c-3.945313-3.851562-10.265625-3.777344-14.117188.164063-3.851562 3.949219-3.773437 10.265625.171875 14.117187l24.121094 23.554688c3.878906 3.789062 10.070312 3.789062 13.949219 0l43.460937-42.429688c3.976563-3.820312 4.101563-10.140625.285156-14.117187-3.816406-3.976563-10.140624-4.105469-14.117187-.289063l-.121094.117188zm0 0"/></svg>