<svg height="533pt" viewBox="-23 -16 533 533.33268" width="533pt" xmlns="http://www.w3.org/2000/svg"><path d="m474.261719 423.730469h-285.851563c-4.808594-25.636719-24.617187-45.828125-50.152344-51.136719v-310.078125c.21875-34.308594-27.417968-62.296875-61.726562-62.515625h-64.285156c-6.902344 0-12.5 5.59375-12.5 12.5 0 6.902344 5.597656 12.5 12.5 12.5h64.035156c20.488281.066406 37.042969 16.730469 36.976562 37.21875v309.90625c-32.820312 6-55.640624 36.058594-52.601562 69.285156 3.039062 33.222656 30.933594 58.644532 64.300781 58.589844 31.023438 0 57.121094-22.519531 63.214844-51.269531h286.089844c6.902343 0 12.496093-5.59375 12.496093-12.496094 0-6.90625-5.59375-12.5-12.496093-12.5zm-349.167969 51.246093c-21.78125 0-39.4375-17.65625-39.4375-39.4375 0-21.777343 17.65625-39.429687 39.4375-39.429687 21.777344 0 39.429688 17.652344 39.429688 39.429687 0 21.78125-17.652344 39.4375-39.429688 39.4375zm0 0"/><path d="m469.488281 88.746094c0-34.515625-27.980469-62.496094-62.496093-62.496094h-144.992188c-34.515625 0-62.496094 27.980469-62.496094 62.496094v194.988281c0 34.515625 27.980469 62.5 62.496094 62.5h144.992188c34.515624 0 62.496093-27.984375 62.496093-62.5zm-244.984375 195.117187v-85.125h97.492188v122.496094h-60.386719c-20.492187 0-37.101563-16.609375-37.105469-37.101563 0-.089843 0-.183593 0-.269531zm182.003906 37.371094h-59.511718v-122.496094h97.496094v85.125c0 20.671875-17.304688 37.371094-37.984376 37.371094zm37.984376-232.570313v85.078126h-97.496094v-122.496094h59.511718c20.679688 0 37.984376 16.738281 37.984376 37.417968zm-182.882813-37.417968h60.386719v122.496094h-97.492188v-85.078126c-.152344-20.511718 16.351563-37.265624 36.863282-37.417968zm0 0"/></svg>