<svg height="620pt" viewBox="-48 -19 620 620.00197" width="620pt" xmlns="http://www.w3.org/2000/svg"><path d="m392.609375 3.871094-.125-.125c-2.355469-2.429688-5.605469-3.7812502-8.988281-3.746094h-177.519532c-34.46875.015625-62.410156 27.953125-62.417968 62.421875v26.09375h-83.019532c-34.46875.007813-62.410156 27.945313-62.417968 62.417969v367.898437c.007812 34.46875 27.949218 62.40625 62.417968 62.417969h254.046876c34.46875-.011719 62.40625-27.949219 62.417968-62.417969v-26.09375h83.019532c34.46875-.007812 62.40625-27.949219 62.417968-62.417969v-291.621093c-.023437-3.3125-1.320312-6.488281-3.621094-8.867188zm3.371094 38.703125 84.015625 83.890625h-46.5625c-20.660156-.058594-37.394532-16.796875-37.453125-37.453125zm-81.394531 513.710937h-254.046876c-20.660156-.0625-37.394531-16.796875-37.453124-37.453125v-367.898437c.058593-20.660156 16.792968-37.394532 37.453124-37.453125h165.164063v64.039062c.007813 34.472657 27.945313 62.410157 62.417969 62.421875h64.039062v278.890625c-.117187 20.683594-16.894531 37.398438-37.574218 37.453125zm20.097656-341.3125h-46.5625c-20.660156-.058594-37.394532-16.789062-37.453125-37.453125v-46.4375zm125.339844 252.796875h-83.019532v-240.5625c-.023437-3.3125-1.320312-6.480469-3.621094-8.859375l-126.085937-125.964844-.125-.125c-2.355469-2.425781-5.605469-3.78125-8.984375-3.742187h-69.664062v-26.09375c.058593-20.660156 16.792968-37.390625 37.453124-37.453125h165.164063v64.042969c.007813 34.46875 27.945313 62.40625 62.417969 62.417969h63.917968v278.890624c-.058593 20.660157-16.796874 37.390626-37.453124 37.449219zm0 0"/></svg>