<svg height="426pt" viewBox="-59 -13 426 426.66666" width="426pt" xmlns="http://www.w3.org/2000/svg"><path d="m117.75 0h-108c-6.894531.0195312-12.480469 5.605469-12.5 12.5v375c.019531 6.894531 5.605469 12.480469 12.5 12.5h108c6.898438-.019531 12.476562-5.605469 12.5-12.5v-375c-.023438-6.894531-5.601562-12.4804688-12.5-12.5zm-12.5 375h-83v-350h83zm0 0"/><path d="m293.371094 0h-108.125c-6.894532.0195312-12.480469 5.605469-12.5 12.5v375c.019531 6.894531 5.605468 12.480469 12.5 12.5h108.003906c6.894531-.019531 12.480469-5.605469 12.5-12.5v-375c.039062-3.304688-1.25-6.488281-3.574219-8.835938-2.324219-2.351562-5.496093-3.66796825-8.804687-3.664062zm-12.5 375h-83.125v-350h83.003906v350zm0 0"/></svg>