<svg height="633pt" viewBox="-20 -96 633.33225 633" width="633pt" xmlns="http://www.w3.org/2000/svg"><path d="m560.5 12.824219c-23.691406-23.695313-62.105469-23.695313-85.796875 0l-200.382813 200.378906c-7.5625 7.566406-12.992187 17-15.738281 27.339844l-26.304687 99.125c-1.132813 4.265625.074218 8.8125 3.164062 11.957031 3.09375 3.148438 7.621094 4.429688 11.90625 3.371094l100.257813-24.804688c10.722656-2.65625 20.515625-8.183594 28.328125-15.992187l124.691406-124.699219c4.269531-1.152344 7.601562-4.484375 8.757812-8.75l34.394532-34.394531c4.265625-1.15625 7.597656-4.488281 8.753906-8.757813l23.476562-23.480468c23.65625-23.703126 23.65625-62.085938 0-85.796876zm-64.332031 145.808593-65.976563-65.972656 25.484375-25.488281 65.980469 65.976563zm-137.90625 137.90625c-4.589844 4.59375-10.351563 7.84375-16.660157 9.40625l-79.777343 19.730469 20.894531-78.730469c1.621094-6.078124 4.8125-11.632812 9.261719-16.082031l120.550781-120.542969 65.980469 65.980469zm200.074219-200.070312-19.023438 19.019531-65.976562-65.972656 19.019531-19.023437c13.9375-13.9375 36.535156-13.9375 50.472656 0l15.503906 15.503906c13.914063 13.949218 13.914063 36.523437 0 50.46875zm0 0"/><path d="m12.488281 117.539062h299.554688c6.898437 0 12.492187-5.589843 12.492187-12.488281 0-6.898437-5.59375-12.488281-12.492187-12.488281h-299.554688c-6.898437 0-12.488281 5.589844-12.488281 12.488281 0 6.898438 5.589844 12.488281 12.488281 12.488281zm0 0"/><path d="m12.488281 223.695312h179.820313c6.898437 0 12.488281-5.59375 12.488281-12.492187s-5.589844-12.488281-12.488281-12.488281h-179.820313c-6.898437 0-12.488281 5.589844-12.488281 12.488281s5.589844 12.492187 12.488281 12.492187zm0 0"/><path d="m12.488281 329.847656h179.820313c6.898437 0 12.488281-5.589844 12.488281-12.488281s-5.589844-12.488281-12.488281-12.488281h-179.820313c-6.898437 0-12.488281 5.589844-12.488281 12.488281s5.589844 12.488281 12.488281 12.488281zm0 0"/><path d="m359.511719 411.027344h-347.023438c-6.898437 0-12.488281 5.589844-12.488281 12.488281s5.589844 12.488281 12.488281 12.488281h347.023438c6.898437 0 12.488281-5.589844 12.488281-12.488281s-5.589844-12.488281-12.488281-12.488281zm0 0"/></svg>