<svg height="533pt" viewBox="-27 -16 533 533.33331" width="533pt" xmlns="http://www.w3.org/2000/svg"><path d="m477.765625 154.886719c4.0625-16.335938-.195313-27.523438-4.476563-34.027344-14.636718-22.210937-52.210937-27.5-108.671874-15.277344-13.875 2.996094-28.5 6.976563-43.652344 11.824219-2.996094-13.347656-6.738282-26.523438-11.191406-39.460938-22.464844-64.425781-50.664063-77.945312-70.359376-77.945312-19.703124 0-47.902343 13.519531-70.367187 77.945312-4.453125 12.9375-8.1875 26.113282-11.191406 39.460938-15.152344-4.847656-29.78125-8.828125-43.652344-11.824219-56.457031-12.21875-94.035156-6.933593-108.667969 15.277344-4.285156 6.5-8.542968 17.691406-4.476562 34.027344 7.285156 29.308593 37.582031 61.160156 61.714844 82.714843 4.628906 4.136719 9.441406 8.265626 14.453124 12.398438-4.996093 4.125-9.816406 8.261719-14.453124 12.398438-24.132813 21.554687-54.429688 53.40625-61.714844 82.714843-4.066406 16.335938.191406 27.523438 4.476562 34.027344 9.496094 14.414063 28.65625 21.699219 56.371094 21.699219 14.992188 0 32.488281-2.132813 52.304688-6.421875 13.875-2.996094 28.496093-6.976563 43.648437-11.824219 3.003906 13.347656 6.738281 26.523438 11.195313 39.460938 22.457031 64.425781 50.65625 77.945312 70.359374 77.945312 19.695313 0 47.894532-13.519531 70.359376-77.945312 4.453124-12.9375 8.195312-26.113282 11.191406-39.460938 15.152344 4.847656 29.78125 8.828125 43.652344 11.824219 19.820312 4.289062 37.308593 6.421875 52.300781 6.421875 27.710937 0 46.875-7.285156 56.375-21.699219 4.285156-6.5 8.542969-17.691406 4.480469-34.027344-7.285157-29.308593-37.585938-61.160156-61.714844-82.714843-4.628906-4.136719-9.449219-8.265626-14.453125-12.398438 4.988281-4.125 9.808593-8.261719 14.453125-12.398438 24.125-21.554687 54.417968-53.40625 61.707031-82.714843zm-285.105469-68.710938c13.355469-38.300781 30.828125-61.175781 46.753906-61.175781 15.917969 0 33.398438 22.875 46.746094 61.175781 4.4375 12.90625 8.121094 26.058594 11.03125 39.394531-18.792968 6.890626-38.183594 14.984376-57.785156 24.125-19.601562-9.144531-38.996094-17.238281-57.785156-24.125 2.914062-13.335937 6.601562-26.488281 11.039062-39.394531zm117.066406 163.824219c0 11.765625-.304687 23.394531-.894531 34.804688-10.597656 6.445312-21.527343 12.757812-32.789062 18.929687-12.488281 6.832031-24.695313 13.136719-36.625 18.914063-11.914063-5.789063-24.132813-12.09375-36.640625-18.914063-11.25-6.15625-22.183594-12.464844-32.792969-18.929687-.589844-11.410157-.894531-23.039063-.894531-34.804688s.304687-23.394531.894531-34.804688c10.601563-6.445312 21.527344-12.753906 32.792969-18.929687 12.5-6.835937 24.707031-13.140625 36.628906-18.90625 11.921875 5.785156 24.128906 12.089844 36.632812 18.90625 11.25 6.15625 22.183594 12.464844 32.792969 18.929687.589844 11.410157.894531 23.039063.894531 34.804688zm24.753907-18.5c9.179687 6.101562 18 12.269531 26.460937 18.503906-8.453125 6.226563-17.269531 12.398438-26.460937 18.507813.160156-6.128907.246093-12.296875.246093-18.507813.003907-6.207031-.078124-12.378906-.246093-18.503906zm-27.964844 83.765625c-1.195313 11.796875-2.703125 23.269531-4.535156 34.328125-10.765625-4.015625-21.929688-8.535156-33.496094-13.554688 6.519531-3.351562 13.042969-6.8125 19.554687-10.375 6.25-3.417968 12.410157-6.882812 18.476563-10.398437zm-96.171875 20.78125c-11.550781 5.027344-22.71875 9.542969-33.5 13.554687-1.824219-11.0625-3.339844-22.539062-4.53125-34.335937 6.066406 3.515625 12.222656 6.980469 18.472656 10.398437 6.507813 3.5625 13.03125 7.027344 19.558594 10.375zm-66-67.539063c-9.183594-6.105468-18.003906-12.273437-26.460938-18.507812 8.449219-6.226562 17.265626-12.390625 26.457032-18.507812-.160156 6.128906-.246094 12.300781-.25 18.507812s.078125 12.378906.25 18.507812zm27.96875-83.773437c1.191406-11.796875 2.707031-23.269531 4.53125-34.335937 10.765625 4.023437 21.933594 8.542968 33.5 13.5625-6.523438 3.351562-13.046875 6.8125-19.558594 10.375-6.25 3.417968-12.414062 6.882812-18.476562 10.398437zm115.734375-10.398437c-6.511719-3.5625-13.035156-7.023438-19.558594-10.375 11.554688-5.03125 22.722657-9.546876 33.496094-13.5625 1.832031 11.066406 3.339844 22.539062 4.539063 34.335937-6.070313-3.507813-12.234376-6.976563-18.488282-10.398437zm-208.613281 44.625c-41.027344-36.652344-51.511719-59.660157-54.113282-70.109376-2.269531-9.128906.265626-12.972656 1.09375-14.238281 4.476563-6.785156 16.535157-10.496093 34.71875-10.496093 22.296876 0 53.8125 5.601562 91.789063 17.929687-3.226563 18.582031-5.605469 38.28125-7.074219 58.6875-17.242187 10.871094-33.496094 22.070313-48.523437 33.402344-6.25-5.050781-12.234375-10.113281-17.898438-15.175781zm-53.023438 146.425781c-.832031-1.265625-3.363281-5.109375-1.09375-14.238281 2.601563-10.449219 13.085938-33.457032 54.109375-70.109376 5.664063-5.0625 11.652344-10.125 17.890625-15.175781 15.03125 11.332031 31.285156 22.527344 48.527344 33.402344 1.46875 20.414063 3.847656 40.109375 7.078125 58.699219-68.964844 22.390625-116.550781 22.535156-126.511719 7.421875zm259.75 48.4375c-13.347656 38.300781-30.828125 61.175781-46.746094 61.175781-15.917968 0-33.398437-22.875-46.753906-61.175781-4.4375-12.90625-8.121094-26.058594-11.03125-39.394531 18.792969-6.890626 38.183594-14.984376 57.789063-24.125 19.605469 9.144531 38.992187 17.238281 57.789062 24.125-2.917969 13.335937-6.601562 26.488281-11.046875 39.394531zm113.226563-132.785157c41.03125 36.652344 51.515625 59.660157 54.113281 70.109376 2.269531 9.128906-.265625 12.972656-1.09375 14.238281-4.472656 6.785156-16.527344 10.496093-34.71875 10.496093-22.292969 0-53.808594-5.601562-91.789062-17.929687 3.230468-18.582031 5.605468-38.28125 7.074218-58.6875 17.242188-10.871094 33.5-22.070313 48.523438-33.402344 6.25 5.050781 12.234375 10.113281 17.898437 15.175781zm-66.414063-80.304687c-1.46875-20.40625-3.84375-40.105469-7.074218-58.6875 37.980468-12.328125 69.496093-17.929687 91.789062-17.929687 18.179688 0 30.25 3.710937 34.71875 10.496093.828125 1.265625 3.363281 5.109375 1.09375 14.238281-2.597656 10.453126-13.082031 33.457032-54.113281 70.109376-5.664063 5.0625-11.644531 10.125-17.890625 15.179687-15.019532-11.335937-31.277344-22.53125-48.519532-33.40625zm0 0"/></svg>