<svg height="478pt" viewBox="-15 -15 478.66749 478" width="478pt" xmlns="http://www.w3.org/2000/svg"><path d="m429.878906 92.132812-72.929687-72.929687c-25.367188-25.265625-66.386719-25.265625-91.75 0l-14.839844 14.835937c-2.34375 2.34375-3.648437 5.53125-3.613281 8.847657.023437 3.308593 1.320312 6.480469 3.613281 8.855469l12.839844 12.839843-39.394531 39.394531h-42.386719c-17.203125-.054687-33.722657 6.765626-45.875 18.953126l-27.925781 27.921874c-2.34375 2.347657-3.648438 5.535157-3.613282 8.851563.023438 3.304687 1.320313 6.472656 3.613282 8.847656l77.667968 77.667969-181.636718 181.390625c-2.339844 2.328125-3.648438 5.492187-3.648438 8.789063 0 3.296874 1.308594 6.457031 3.648438 8.789062 2.335937 2.355469 5.53125 3.660156 8.847656 3.613281 3.3125-.011719 6.480468-1.308593 8.851562-3.613281l181.515625-181.515625 77.664063 77.667969c2.34375 2.355468 5.535156 3.660156 8.851562 3.613281 3.308594-.011719 6.484375-1.308594 8.855469-3.613281l27.921875-27.925782c12.183594-12.152343 19.007812-28.667968 18.949219-45.875v-42.386718l39.394531-39.394532 12.84375 12.839844c2.328125 2.335938 5.488281 3.648438 8.785156 3.648438 3.300782 0 6.460938-1.3125 8.789063-3.648438l14.839843-14.835937c25.277344-25.289063 25.332032-66.269531.121094-91.628907zm-17.703125 74.054688-5.984375 5.984375-12.839844-12.84375c-2.34375-2.347656-5.535156-3.644531-8.851562-3.617187-3.304688.023437-6.476562 1.320312-8.851562 3.617187l-51.859376 51.859375c-2.347656 2.347656-3.652343 5.535156-3.617187 8.851562v47.5c.050781 10.621094-4.171875 20.820313-11.714844 28.300782l-19.078125 19.074218-155.332031-155.335937 19.074219-19.074219c7.480468-7.542968 17.675781-11.765625 28.296875-11.71875h47.5c3.304687-.023437 6.472656-1.320312 8.851562-3.617187l51.859375-51.859375c2.347656-2.347656 3.648438-5.535156 3.617188-8.851563-.023438-3.300781-1.320313-6.472656-3.617188-8.847656l-12.839844-12.84375 5.984376-5.984375c15.628906-15.625 40.96875-15.625 56.601562 0l72.929688 72.929688c15.484374 15.660156 15.425781 40.882812-.128907 56.476562zm0 0"/></svg>