<svg height="533pt" viewBox="-16 -38 533.33331 533" width="533pt" xmlns="http://www.w3.org/2000/svg"><path d="m435.59375 331.214844c-31.460938-9.605469-73.296875-16.550782-119.515625-19.941406l60.464844-87.390626c19.238281-27.671874 27.90625-61.328124 24.414062-94.851562-3.746093-33.632812-19.292969-64.84375-43.878906-88.09375-59.039063-56.25-155.117187-56.25-214.15625 0-24.585937 23.25-40.132813 54.460938-43.878906 88.09375-3.488281 33.515625 5.175781 67.175781 24.414062 94.84375l60.464844 87.398438c-46.144531 3.382812-87.921875 10.3125-119.375 19.898437-42.832031 13.054687-64.546875 30.261719-64.546875 51.152344 0 23.171875 26.566406 41.742187 78.953125 55.175781 45.847656 11.757812 106.59375 18.230469 171.046875 18.230469s125.199219-6.472657 171.046875-18.230469c52.386719-13.4375 78.953125-32.003906 78.953125-55.175781 0-20.863281-21.671875-38.058594-64.40625-51.109375zm-311.691406-199.527344c3.113281-27.742188 15.960937-53.484375 36.257812-72.644531 50.601563-47.1875 129.078125-47.1875 179.679688 0 20.296875 19.160156 33.144531 44.902343 36.257812 72.644531 2.855469 27.558594-4.28125 55.226562-20.113281 77.96875l-105.984375 153.195312-105.984375-153.195312c-15.832031-22.742188-22.96875-50.410156-20.113281-77.96875zm290.933594 281.597656c-43.878907 11.25-102.414063 17.445313-164.835938 17.445313s-120.960938-6.195313-164.835938-17.445313c-49.351562-12.660156-60.164062-26.640625-60.164062-30.960937 0-.128907.539062-13.125 46.835938-27.238281 33.015624-10.0625 78.496093-17.054688 128.675781-19.828126l39.210937 56.679688c2.332032 3.375 6.175782 5.386719 10.277344 5.386719s7.945312-2.011719 10.277344-5.386719l39.210937-56.675781c50.246094 2.78125 95.785157 9.785156 128.808594 19.878906 46.164063 14.085937 46.703125 27.050781 46.703125 27.183594 0 4.320312-10.8125 18.300781-60.164062 30.960937zm0 0"/><path d="m316.957031 136.335938c0-36.980469-29.980469-66.957032-66.957031-66.957032-36.984375 0-66.957031 29.980469-66.957031 66.957032 0 36.984374 29.972656 66.960937 66.957031 66.960937s66.957031-29.976563 66.957031-66.960937zm-108.914062 0c0-23.171876 18.785156-41.957032 41.957031-41.957032s41.957031 18.785156 41.957031 41.957032c0 23.175781-18.785156 41.960937-41.957031 41.960937s-41.957031-18.785156-41.957031-41.960937zm0 0"/></svg>