<svg height="629pt" viewBox="-77 -19 629 629.34204" width="629pt" xmlns="http://www.w3.org/2000/svg"><path d="m233.386719 294.496094c62.046875-.097656 117.402343-39 138.523437-97.339844 40.9375-.34375 73.847656-33.8125 73.5-74.753906-.339844-40.9375-33.8125-73.847656-74.75-73.5h-27.703125c-45.175781-50.332032-118.828125-63.421875-178.578125-31.730469-59.742187 31.683594-90.222656 100.003906-73.890625 165.632813 16.324219 65.628906 75.265625 111.695312 142.898438 111.691406zm0-24.957032c-65.269531 0-118.800781-51.542968-122.175781-116.058593 18.761718 6.828125 38.566406 10.375 58.53125 10.480469 15.769531.046874 31.441406-2.4375 46.421874-7.363282 21.214844-6.988281 40.433594-18.964844 57.53125-35.566406 11.855469 22.839844 36.441407 61.023438 73.003907 72.253906-18.769531 46.082032-63.558594 76.21875-113.3125 76.253906zm137.273437-195.550781c25.601563.007813 46.914063 19.65625 49 45.171875 2.082032 25.519532-15.753906 48.367188-41.015625 52.535156 1.371094-8.039062 2.039063-16.179687 2-24.335937.042969-25.757813-6.714843-51.066406-19.59375-73.371094zm-14.976562 73.25c-.023438 7.40625-.691406 14.796875-1.996094 22.089844-18.59375-5.867187-33.695312-22.464844-43.550781-36.441406-7.148438-10.089844-13.332031-20.828125-18.472657-32.070313 10.070313-13.160156 18.808594-27.292968 26.082032-42.179687 24.171875 23.144531 37.871094 55.136719 37.9375 88.601562zm-122.296875-122.296875c22.71875-.015625 44.984375 6.34375 64.269531 18.34375-22.589844 47.292969-52.539062 77.371094-89.105469 89.601563-41.679687 13.976562-81.363281.5-95.839843-5.613281 9.882812-58.976563 60.878906-102.21875 120.675781-102.332032zm0 0"/><path d="m233.386719 331.308594c-64.019531 0-123.546875 24.832031-167.726563 70.007812-44.796875 45.804688-69.382812 108.320313-69.382812 176.210938.019531 6.886718 5.597656 12.460937 12.480468 12.480468h449.257813c6.882813-.019531 12.460937-5.59375 12.480469-12.480468 0-67.761719-24.585938-130.40625-69.386719-176.085938-44.175781-45.171875-103.703125-70.132812-167.722656-70.132812zm-211.898438 233.742187c2.742188-56.410156 24.582031-107.949219 61.898438-146.136719 39.429687-40.308593 92.71875-62.523437 149.875-62.523437 57.28125 0 110.441406 22.214844 149.878906 62.523437 37.4375 38.1875 59.148437 89.726563 61.894531 146.136719zm0 0"/></svg>