<svg height="629pt" viewBox="-77 -19 629 629.33435" width="629pt" xmlns="http://www.w3.org/2000/svg"><path d="m233.371094 294.5c81.328125 0 147.25-65.925781 147.25-147.25 0-81.320312-65.921875-147.25-147.25-147.25-81.320313 0-147.25 65.929688-147.25 147.25.0625 81.296875 65.953125 147.1875 147.25 147.25zm0-269.542969c67.542968 0 122.292968 54.75 122.292968 122.292969s-54.75 122.292969-122.292968 122.292969c-67.535156 0-122.292969-54.75-122.292969-122.292969.113281-67.492188 54.800781-122.183594 122.292969-122.292969zm0 0"/><path d="m233.371094 331.3125c-64.011719 0-123.539063 24.832031-167.710938 70.007812-44.800781 45.796876-69.386718 108.3125-69.386718 176.203126.019531 6.882812 5.597656 12.457031 12.480468 12.476562h449.238282c6.886718-.019531 12.457031-5.59375 12.476562-12.476562 0-67.761719-24.582031-130.40625-69.378906-176.078126-44.175782-45.175781-103.699219-70.132812-167.71875-70.132812zm-211.886719 233.730469c2.746094-56.402344 24.582031-107.941407 61.894531-146.128907 39.433594-40.308593 92.71875-62.515624 149.871094-62.515624s110.4375 22.207031 149.867188 62.515624c37.4375 38.1875 59.152343 89.726563 61.898437 146.128907zm0 0"/></svg>