<svg height="531pt" viewBox="-106 -16 531 531.99965" width="531pt" xmlns="http://www.w3.org/2000/svg"><path d="m300.738281 69.71875h-31.140625v-57.25c0-6.886719-5.582031-12.46875-12.46875-12.46875h-214.464844c-26.585937 0-48.21875 21.207031-48.230468 47.328125v334.421875c0 26.082031 21.632812 47.300781 48.230468 47.300781h34.441407v57.230469c0 4.472656 2.394531 8.601562 6.277343 10.824219 3.882813 2.21875 8.65625 2.191406 12.511719-.074219l35.84375-21.074219 35.839844 21.074219c3.855469 2.265625 8.628906 2.289062 12.507813.066406 3.878906-2.21875 6.277343-6.34375 6.277343-10.816406v-57.230469h114.375c6.886719 0 12.46875-5.585937 12.46875-12.46875v-334.394531c0-6.886719-5.582031-12.46875-12.46875-12.46875zm-258.074219-44.78125h201.996094v44.78125h-201.996094c-12.84375 0-23.292968-10.035156-23.292968-22.414062 0-12.332032 10.449218-22.367188 23.292968-22.367188zm118.761719 439.546875-23.371093-13.738281c-3.898438-2.292969-8.738282-2.292969-12.636719 0l-23.375 13.742187v-35.4375h59.382812zm126.84375-60.371094h-245.605469c-12.84375 0-23.292968-10.03125-23.292968-22.371093v-292.980469c7.148437 3.882812 15.160156 5.910156 23.292968 5.894531h245.605469zm0 0"/><path d="m99.578125 236.90625h108.476563c6.890624 0 12.46875-5.582031 12.46875-12.46875s-5.578126-12.46875-12.46875-12.46875h-108.476563c-6.882813 0-12.46875 5.582031-12.46875 12.46875s5.585937 12.46875 12.46875 12.46875zm0 0"/><path d="m99.578125 286.78125h108.476563c6.890624 0 12.46875-5.582031 12.46875-12.46875s-5.578126-12.46875-12.46875-12.46875h-108.476563c-6.882813 0-12.46875 5.582031-12.46875 12.46875s5.585937 12.46875 12.46875 12.46875zm0 0"/></svg>