<svg height="533pt" viewBox="-68 -16 533 533.33261" width="533pt" xmlns="http://www.w3.org/2000/svg"><path d="m299.984375 3.863281c-.046875-.054687-.101563-.097656-.15625-.148437-.082031-.082032-.167969-.160156-.257813-.246094-.210937-.203125-.417968-.402344-.640624-.582031-.085938-.078125-.183594-.140625-.277344-.214844-.222656-.175781-.453125-.355469-.6875-.519531-.117188-.078125-.246094-.144532-.363282-.21875-.222656-.140625-.441406-.28125-.671874-.410156-.179688-.101563-.371094-.183594-.566407-.277344-.195312-.089844-.347656-.175782-.527343-.25-.308594-.125-.625-.242188-.949219-.347656-.066407-.023438-.136719-.085938-.203125-.109376-.785156-.304687-1.613282-.4843745-2.457032-.539062-.105468 0-.21875.0234375-.328124.015625-.3125-.01953125-.625-.015625-.941407-.015625h-245.507812c-26.820313.0195312-48.585938 21.710938-48.699219 48.53125v402.941406c.113281 26.824219 21.878906 48.511719 48.699219 48.527344h300.097656c26.828125-.015625 48.589844-21.703125 48.703125-48.527344v-344.222656c-.03125-3.226562-1.304688-6.320312-3.550781-8.636719zm3.015625 39.785157 49.355469 51.351562h-49.355469zm42.546875 431.351562h-300.097656c-13.019531 0-23.601563-10.507812-23.699219-23.527344v-402.941406c.097656-13.023438 10.679688-23.53125 23.699219-23.53125h232.550781v82.285156c.1875 7.03125 5.910156 12.648438 12.941406 12.714844h78.308594v331.472656c-.09375 13.019532-10.679688 23.527344-23.703125 23.527344zm0 0"/><path d="m85.242188 304.558594c0-25.550782 11.074218-53.105469 29.621093-73.714844 20.246094-22.820312 49.324219-35.832031 79.824219-35.730469 30.925781 0 56.859375 13.785157 74.882812 30.15625l-29.269531-.734375c-6.90625-.175781-12.636719 5.28125-12.808593 12.183594-.175782 6.898438 5.277343 12.636719 12.183593 12.808594l54.722657 1.375c4.382812 1.265625 9.101562.050781 12.320312-3.179688 3.222656-3.226562 4.433594-7.953125 3.15625-12.328125l-1.375-54.699219c-.175781-6.90625-5.90625-12.359374-12.8125-12.1875-6.898438.175782-12.351562 5.90625-12.179688 12.8125l.585938 23.265626c-21.984375-19.257813-52.59375-34.476563-89.410156-34.476563-80.425782 0-134.449219 69.519531-134.449219 134.445313 0 6.90625 5.597656 12.5 12.5 12.5 6.90625 0 12.5-5.59375 12.5-12.5zm0 0"/><path d="m318.261719 292.058594c-6.902344 0-12.5 5.597656-12.5 12.5 0 25.554687-11.074219 53.113281-29.628907 73.722656-20.242187 22.820312-49.320312 35.835938-79.824218 35.726562-30.917969 0-56.859375-13.785156-74.882813-30.15625l29.273438.738282c6.90625.175781 12.636719-5.285156 12.8125-12.183594.171875-6.898438-5.28125-12.636719-12.1875-12.808594l-54.722657-1.375c-4.378906-1.265625-9.101562-.050781-12.316406 3.179688-3.222656 3.222656-4.433594 7.941406-3.160156 12.324218l1.375 54.699219c.171875 6.777344 5.710938 12.183594 12.492188 12.1875h.316406c6.90625-.175781 12.359375-5.90625 12.183594-12.8125l-.585938-23.265625c21.988281 19.257813 52.59375 34.472656 89.410156 34.472656 80.421875 0 134.445313-69.515624 134.445313-134.449218 0-6.902344-5.59375-12.5-12.5-12.5zm0 0"/></svg>