<svg height="559pt" viewBox="-64 -17 559 559.9993" width="559pt" xmlns="http://www.w3.org/2000/svg"><path d="m341.195312 3.863281c-.046874-.054687-.105468-.097656-.15625-.152343-.082031-.078126-.164062-.152344-.242187-.230469-.214844-.203125-.429687-.410157-.660156-.59375-.082031-.070313-.171875-.128907-.253907-.199219-.234374-.183594-.46875-.363281-.714843-.527344-.105469-.078125-.222657-.144531-.335938-.210937-.230469-.148438-.453125-.292969-.691406-.421875-.175781-.097656-.367187-.179688-.554687-.265625-.183594-.09375-.355469-.1875-.539063-.265625-.308594-.125-.625-.238282-.945313-.347656-.066406-.023438-.140624-.085938-.207031-.109376-.789062-.304687-1.617187-.4843745-2.457031-.539062-.109375 0-.21875.0234375-.332031.015625-.3125-.01953125-.625-.015625-.9375-.015625h-224.984375c-25.097656 0-46.101563 20.421875-46.101563 45.519531v13.230469h-18.605469c-25.027343.09375-45.234374 20.460938-45.144531 45.484375v375.246094c-.144531 24.992187 19.992188 45.371093 44.980469 45.519531h281.0625c25.023438-.054688 45.261719-20.382812 45.207031-45.40625v-19.59375h13.613281c24.847657.078125 45.058594-20.003906 45.136719-44.859375 0-.121094 0-.238281 0-.359375v-315.449219c.070313-3.195312-1.101562-6.292969-3.277343-8.636719zm3.636719 39.785157 41.152344 42.601562h-41.152344zm-1.25 435.832031c.132813 11.203125-8.839843 20.390625-20.046875 20.519531h-281.058594c-11.167968-.042969-20.183593-9.132812-20.144531-20.296875 0-.074219 0-.148437 0-.222656v-375.140625c-.164062-11.199219 8.777344-20.417969 19.976563-20.589844h18.773437v331.03125c0 25.097656 21.003907 45.21875 46.101563 45.21875h236.398437zm38.613281-44.480469h-275.011718c-11.316406 0-21.101563-8.910156-21.101563-20.21875v-369.261719c0-11.316406 9.785157-20.519531 21.101563-20.519531h212.648437v74.359375c0 6.90625 5.421875 11.890625 12.320313 11.890625h70.179687v303.53125c.140625 11.023438-8.6875 20.082031-19.714843 20.21875-.144532 0-.285157 0-.421876 0zm0 0"/><path d="m144.6875 280.144531c0-23.15625 10.046875-48.152343 26.875-66.851562 18.355469-20.695313 44.714844-32.496094 72.378906-32.398438 26.84375 0 49.558594 11.464844 65.789063 25.472657l-23.96875-.601563h-.324219c-6.902344-.085937-12.566406 5.441406-12.648438 12.34375-.089843 6.90625 5.4375 12.570313 12.34375 12.65625l50.019532 1.257813c4.34375 1.210937 9.007812-.015626 12.195312-3.210938 3.1875-3.191406 4.410156-7.855469 3.191406-12.199219l-1.257812-50c-.171875-6.90625-5.902344-12.359375-12.808594-12.1875-6.898437.175781-12.351562 5.90625-12.179687 12.8125l.476562 18.96875c-20.175781-17.0625-47.792969-30.3125-80.828125-30.3125-74.328125 0-124.253906 64.246094-124.253906 124.25 0 6.90625 5.59375 12.5 12.5 12.5 6.902344 0 12.5-5.59375 12.5-12.5zm0 0"/><path d="m357.1875 267.644531c-6.90625 0-12.5 5.601563-12.5 12.5 0 23.164063-10.050781 48.160157-26.875 66.863281-18.351562 20.6875-44.71875 32.488282-72.375 32.394532-26.847656 0-49.558594-11.464844-65.792969-25.472656l23.972657.601562c6.90625.175781 12.640624-5.285156 12.8125-12.1875.171874-6.90625-5.28125-12.636719-12.1875-12.8125l-50.019532-1.25c-4.34375-1.210938-9.007812.015625-12.195312 3.207031-3.191406 3.195313-4.410156 7.863281-3.195313 12.207031l1.261719 50c.167969 6.777344 5.710938 12.179688 12.488281 12.179688h.324219c6.898438-.171875 12.355469-5.910156 12.179688-12.808594l-.476563-18.96875c20.175781 17.054688 47.792969 30.3125 80.828125 30.3125 74.328125 0 124.253906-64.253906 124.253906-124.253906.003906-6.90625-5.585937-12.503906-12.492187-12.511719zm0 0"/></svg>