<svg height="586pt" viewBox="-82 -18 586 586.66853" width="586pt" xmlns="http://www.w3.org/2000/svg"><path d="m273.011719 3.882812-.125-.128906c-2.359375-2.429687-5.609375-3.7890622-8.996094-3.74999975-.460937-.01953125-.925781.01953125-1.371094.12890575h-201.457031c-35.882812.011719-64.964844 29.097657-64.984375 64.984376v419.898437c.019531 35.882813 29.101563 64.964844 64.984375 64.984375h292.179688c35.886718-.019531 64.972656-29.101562 64.984374-64.984375v-331.046875c-.023437-3.3125-1.320312-6.488281-3.621093-8.871094zm3.375 38.613282 99.476562 99.222656h-59.488281c-22.058594-.0625-39.925781-17.929688-39.988281-39.988281zm76.855469 482.257812h-292.179688c-22.0625-.0625-39.921875-17.929687-39.992188-39.992187v-419.898438c.070313-22.054687 17.929688-39.921875 39.992188-39.992187h190.328125v76.859375c.019531 35.882812 29.105469 64.96875 64.984375 64.984375h76.859375v318.046875c-.019531 22.082031-17.910156 39.972656-39.992187 39.992187zm0 0"/><path d="m85.558594 348.046875h155.714844c6.898437 0 12.496093-5.59375 12.496093-12.496094 0-6.902343-5.597656-12.496093-12.496093-12.496093h-155.714844c-6.902344 0-12.5 5.59375-12.5 12.496093 0 6.902344 5.597656 12.496094 12.5 12.496094zm0 0"/><path d="m328.75 417.65625h-243.191406c-6.902344 0-12.5 5.59375-12.5 12.496094s5.597656 12.496094 12.5 12.496094h243.191406c6.898438 0 12.5-5.59375 12.5-12.496094s-5.601562-12.496094-12.5-12.496094zm0 0"/><path d="m135.546875 179.089844c25.328125 0 45.863281-20.539063 45.863281-45.863282 0-25.332031-20.535156-45.871093-45.863281-45.871093-25.332031 0-45.863281 20.539062-45.863281 45.871093.011718 25.320313 20.535156 45.84375 45.863281 45.863282zm0-66.613282c11.523437 0 20.867187 9.34375 20.867187 20.871094 0 11.523438-9.34375 20.867188-20.867187 20.867188-11.527344 0-20.871094-9.34375-20.871094-20.867188.019531-11.515625 9.355469-20.851562 20.871094-20.871094zm0 0"/><path d="m85.558594 272.441406c6.890625-.019531 12.476562-5.605468 12.496094-12.496094v-10c0-20.707031 16.78125-37.492187 37.492187-37.492187 20.703125 0 37.488281 16.785156 37.488281 37.492187v10c0 6.902344 5.597656 12.496094 12.5 12.496094s12.496094-5.59375 12.496094-12.496094v-10c0-34.507812-27.976562-62.484374-62.484375-62.484374s-62.488281 27.976562-62.488281 62.484374v10c.019531 6.890626 5.605468 12.476563 12.5 12.496094zm0 0"/></svg>