<svg height="533pt" viewBox="-16 -28 533.33406 533" width="533pt" xmlns="http://www.w3.org/2000/svg"><path d="m400.21875 256.804688c14.277344-25.679688 21.757812-54.574219 21.722656-83.957032 0-95.628906-77.800781-173.429687-173.429687-173.429687-95.628907 0-173.433594 77.800781-173.433594 173.429687-.035156 29.402344 7.457031 58.316406 21.753906 84.011719l-94.976562 154.195313c-2.519531 4.09375-2.46875 9.265624.128906 13.308593 2.589844 4.042969 7.273437 6.242188 12.042969 5.652344l54.351562-6.6875 22.015625 46.503906c1.953125 4.113281 5.988281 6.84375 10.539063 7.121094.25.015625.507812.027344.761718.027344 4.28125 0 8.269532-2.195313 10.5625-5.8125l84.105469-132.898438c33.957031 10.691407 70.390625 10.6875 104.347657-.015625l83.839843 132.695313c2.289063 3.621093 6.277344 5.824219 10.566407 5.824219.199218 0 .40625 0 .609374-.015626 4.503907-.222656 8.535157-2.851562 10.558594-6.875l22.9375-45.625 56.601563 7.65625c4.804687.652344 9.554687-1.535156 12.183593-5.613281 2.625-4.074219 2.660157-9.300781.082032-13.414062zm-296.941406 181.800781-16.167969-34.136719c-2.308594-4.867188-7.476563-7.710938-12.820313-7.054688l-37.511718 4.613282 75.289062-122.234375c16.269532 20.710937 37.015625 37.480469 60.683594 49.039062zm-3.199219-265.757813c0-81.976562 66.457031-148.429687 148.433594-148.429687 81.976562-.007813 148.429687 66.449219 148.429687 148.425781s-66.453125 148.433594-148.429687 148.4375c-81.9375-.09375-148.339844-66.492188-148.433594-148.433594zm323.65625 225.433594c-5.289063-.714844-10.449219 2.007812-12.847656 6.773438l-17.011719 33.847656-69.554688-110.097656c23.695313-11.574219 44.457032-28.378907 60.726563-49.132813l77.6875 123.894531zm0 0"/><path d="m248.511719 63.863281c-60.191407 0-108.980469 48.796875-108.980469 108.984375 0 60.191406 48.792969 108.984375 108.984375 108.984375s108.984375-48.792969 108.984375-108.984375c0-60.195312-48.792969-108.988281-108.988281-108.984375zm0 192.96875c-46.382813-.003906-83.984375-37.605469-83.980469-83.988281 0-46.382812 37.601562-83.984375 83.984375-83.984375 46.386719.003906 83.984375 37.609375 83.984375 83.988281 0 46.382813-37.601562 83.984375-83.988281 83.984375zm0 0"/></svg>