<svg height="533pt" viewBox="-63 -16 533 533.33331" width="533pt" xmlns="http://www.w3.org/2000/svg"><path d="m345.832031 293.75c0-6.90625-5.59375-12.5-12.5-12.5h-323.75c-6.902343 0-12.5 5.59375-12.5 12.5v126.25c0 6.90625 5.597657 12.5 12.5 12.5h323.75c6.90625 0 12.5-5.59375 12.5-12.5zm-23.75 113.75h-300v-101.25h300zm0 0"/><path d="m347.082031 91.25c0-6.90625-5.59375-12.5-12.5-12.5h-198.75c-6.902343 0-12.5 5.59375-12.5 12.5v115c0 6.90625 5.597657 12.5 12.5 12.5h198.75c6.90625 0 12.5-5.59375 12.5-12.5zm-25 102.5h-173.75v-90h173.75zm0 0"/><path d="m392.082031 0c-6.902343 0-12.5 5.59375-12.5 12.5v475c0 6.90625 5.597657 12.5 12.5 12.5 6.90625 0 12.5-5.59375 12.5-12.5v-475c0-6.90625-5.59375-12.5-12.5-12.5zm0 0"/></svg>