<svg height="572pt" viewBox="-18 -18 572.00902 572" width="572pt" xmlns="http://www.w3.org/2000/svg"><path d="m279.628906 143.855469c-4.851562-4.855469-12.722656-4.855469-17.582031 0-4.855469 4.851562-4.855469 12.726562 0 17.582031l94.164063 94.164062h-250.191407c-6.886719 0-12.472656 5.585938-12.472656 12.472657 0 6.890625 5.585937 12.472656 12.472656 12.472656h250.066407l-94.164063 94.164063c-2.335937 2.328124-3.648437 5.496093-3.648437 8.792968 0 3.300782 1.3125 6.460938 3.648437 8.792969 2.335937 2.355469 5.535156 3.660156 8.855469 3.617187 3.308594-.015624 6.484375-1.3125 8.851562-3.617187l115.367188-115.363281c2.347656-2.351563 3.65625-5.542969 3.621094-8.859375-.023438-3.308594-1.320313-6.472657-3.621094-8.851563zm0 0"/><path d="m268.15625-.0742188c-108.457031-.0195312-206.242188 65.3085938-247.746094 165.5117188-41.496094 100.207031-18.542968 215.542969 58.171875 292.210938 104.703125 104.703124 274.453125 104.703124 379.152344 0 104.699219-104.695313 104.699219-274.445313 0-379.148438-50.167969-50.453125-118.429687-78.746094-189.578125-78.5742188zm0 511.3554688c-134.074219 0-243.203125-109.132812-243.203125-243.207031s109.128906-243.203125 243.203125-243.203125 243.207031 109.128906 243.207031 243.203125-109.132812 243.207031-243.207031 243.207031zm0 0"/></svg>