<svg height="531pt" viewBox="-16 -18 531.99792 531" width="531pt" xmlns="http://www.w3.org/2000/svg"><path d="m418.28125 58.988281h-8.828125c-2.183594-32.4375-29.246094-58.636719-62.21875-58.636719h-284.855469c-34.394531 0-62.378906 28.300782-62.378906 62.695313v16.636719c0 34.398437 27.984375 62.890625 62.378906 62.890625h284.851563c33.023437 0 60.117187-26.199219 62.226562-58.636719h8.824219c30.660156 0 55.515625 24.859375 55.515625 55.519531 0 30.664063-24.855469 55.515625-55.515625 55.515625h-224.625c-7.015625.160156-12.65625 5.84375-12.757812 12.867188v81.949218h-35.378907c-6.890625 0-12.027343 6.164063-12.027343 13.054688v130.621094c0 33.417968 26.96875 60.925781 60.390624 60.925781 33.425782 0 60.621094-27.507813 60.621094-60.929687v-130.621094c-.0625-7.046875-5.660156-12.796875-12.703125-13.050782h-35.949219v-69.863281h212.429688c44.441406 0 80.46875-36.023437 80.46875-80.46875 0-44.441406-36.027344-80.46875-80.46875-80.46875zm-34.027344 19.960938c0 20.671875-16.753906 37.425781-37.425781 37.425781h-284.449219c-20.671875 0-37.425781-16.753906-37.425781-37.425781v-16.21875c0-20.667969 16.753906-37.425781 37.425781-37.425781h284.449219c20.671875 0 37.425781 16.757812 37.425781 37.425781zm-154.699218 354.511719c0 19.632812-15.921876 35.554687-35.554688 35.554687-19.636719 0-35.558594-15.921875-35.558594-35.554687v-118.71875h30.039063c1.578125 1.246093 3.328125 1.132812 5.175781 1.132812 1.851562 0 3.601562.113281 5.179688-1.132812h30.71875zm0 0"/></svg>