<svg height="637pt" viewBox="-20 -69 637.33331 637" width="637pt" xmlns="http://www.w3.org/2000/svg"><path d="m534.378906 241.878906h-223.128906v-116.628906c17.742188-4.914062 31.25-21.195312 31.25-40.488281v-2.585938c0-23.164062-19.289062-41.546875-42.457031-41.546875h-2.585938c-23.167969 0-42.457031 18.382813-42.457031 41.550782v2.589843c0 19.285157 13.507812 35.570313 31.25 40.488281v116.621094h-223.125c-34.46875 0-63.125 27.5-63.125 61.964844v74.714844c0 27.703125 18.75 51.238281 43.75 59.414062v20.3125c.023438 21.300782 17.296875 38.566406 38.597656 38.59375h432.804688c21.300781-.027344 38.574218-17.292968 38.597656-38.59375v-20.3125c25-8.175781 43.75-31.710937 43.75-59.414062v-74.714844c0-34.464844-28.65625-61.964844-63.121094-61.964844zm-218.128906-157.019531c0 9.402344-7.617188 17.019531-17.015625 17.019531h-2.21875c-9.398437 0-17.015625-7.617187-17.015625-17.019531v-2.214844c0-9.398437 7.617188-17.015625 17.015625-17.015625h2.21875c9.398437 0 17.015625 7.617188 17.015625 17.015625zm198.902344 387.019531h-432.804688c-7.503906-.007812-13.589844-6.089844-13.597656-13.59375v-17.65625h460v17.65625c-.007812 7.503906-6.09375 13.585938-13.597656 13.59375zm56.097656-92.5c0 20.710938-16.789062 37.5-37.5 37.5h-471.25c-20.710938 0-37.5-16.789062-37.5-37.5v-75c0-20.710937 16.789062-37.5 37.5-37.5h471.25c20.710938 0 37.5 16.789063 37.5 37.5zm0 0"/><path d="m395.75 80.191406c.035156 12.617188-4.972656 24.726563-13.910156 33.640625-4.933594 4.824219-5.035156 12.734375-.21875 17.667969 4.820312 4.941406 12.730468 5.046875 17.671875.230469l.230469-.21875c28.324218-28.359375 28.296874-74.3125-.0625-102.640625-4.886719-4.84375-12.773438-4.820313-17.632813.046875-4.867187 4.867187-4.878906 12.753906-.03125 17.640625 8.953125 8.898437 13.980469 21.007812 13.953125 33.632812zm0 0"/><path d="m438.046875 159.796875c4.882813 4.882813 12.796875 4.882813 17.679687 0 43.886719-44.007813 43.886719-115.238281 0-159.246094-4.886718-4.851562-12.773437-4.832031-17.640624.03125-4.867188 4.871094-4.882813 12.75-.039063 17.644531 34.148437 34.238282 34.148437 89.65625 0 123.898438-4.878906 4.882812-4.875 12.792969 0 17.671875zm0 0"/><path d="m206.875 135.128906c5.058594 0 9.613281-3.046875 11.546875-7.71875s.867187-10.054687-2.714844-13.628906c-18.589843-18.5625-18.605469-48.6875-.042969-67.28125l.042969-.042969-8.832031-8.84375-8.890625-8.789062c-28.328125 28.359375-28.300781 74.3125.054687 102.636719 2.34375 2.351562 5.519532 3.667968 8.835938 3.667968zm0 0"/><path d="m150.617188 163.460938c5.050781 0 9.609374-3.046876 11.546874-7.722657 1.933594-4.667969.863282-10.042969-2.710937-13.617187-34.148437-34.242188-34.148437-89.664063 0-123.90625 4.84375-4.886719 4.828125-12.773438-.039063-17.636719-4.867187-4.867187-12.753906-4.882813-17.640624-.039063-43.886719 44.015626-43.886719 115.238282 0 159.253907 2.34375 2.347656 5.523437 3.667969 8.84375 3.667969zm0 0"/><path d="m116.53125 301.28125c-21.492188 0-38.914062 17.425781-38.914062 38.921875 0 21.488281 17.421874 38.914063 38.914062 38.914063 21.496094 0 38.917969-17.425782 38.917969-38.914063-.023438-21.484375-17.433594-38.898437-38.917969-38.921875zm0 52.835938c-7.683594 0-13.914062-6.230469-13.914062-13.914063 0-7.691406 6.230468-13.921875 13.914062-13.921875 7.6875 0 13.917969 6.230469 13.917969 13.921875-.011719 7.679687-6.234375 13.90625-13.917969 13.914063zm0 0"/><path d="m217.390625 301.28125c-21.488281 0-38.914063 17.425781-38.914063 38.921875 0 21.488281 17.425782 38.914063 38.914063 38.914063 21.496094 0 38.917969-17.425782 38.917969-38.914063-.023438-21.484375-17.433594-38.898437-38.917969-38.921875zm0 52.835938c-7.683594 0-13.914063-6.230469-13.914063-13.914063 0-7.691406 6.230469-13.921875 13.914063-13.921875 7.6875 0 13.917969 6.230469 13.917969 13.921875-.003906 7.679687-6.230469 13.90625-13.917969 13.914063zm0 0"/></svg>