<svg height="532pt" viewBox="-17 -17 532 532.00164" width="532pt" xmlns="http://www.w3.org/2000/svg"><path d="m407.605469 12.902344c-17.242188-17.203125-45.15625-17.203125-62.394531 0l-332.386719 332.386718c-17.203125 17.246094-17.203125 45.15625 0 62.398438l78.160156 78.160156c17.242187 17.203125 45.152344 17.203125 62.398437 0l332.386719-332.386718c17.199219-17.242188 17.199219-45.152344 0-62.398438zm60.535156 122.921875-332.398437 332.394531c-7.496094 7.476562-19.628907 7.476562-27.125 0l-78.160157-78.167969c-7.476562-7.496093-7.476562-19.628906 0-27.121093l69.976563-69.984376 47.53125 47.53125c4.871094 4.867188 12.765625 4.867188 17.632812-.003906 4.871094-4.867187 4.871094-12.761718 0-17.632812l-47.527344-47.527344 58.035157-58.035156 33.886719 33.886718c4.871093 4.867188 12.765624 4.867188 17.636718-.003906 4.867188-4.867187 4.867188-12.761718 0-17.632812l-33.886718-33.890625 58.039062-58.03125 47.527344 47.527343c4.867187 4.871094 12.765625 4.871094 17.636718 0 4.867188-4.871093 4.867188-12.769531 0-17.640624l-47.53125-47.523438 58.039063-58.039062 33.886719 33.886718c3.117187 3.25 7.742187 4.570313 12.109375 3.445313 4.363281-1.121094 7.777343-4.511719 8.9375-8.867188 1.160156-4.347656-.117188-8.992187-3.339844-12.136719l-33.960937-33.960937 17.757812-17.761719c7.496094-7.476562 19.628906-7.476562 27.125 0l78.171875 78.167969c7.476563 7.488281 7.476563 19.625 0 27.121094zm0 0"/><path d="m97.597656 382.59375c-4.875-4.835938-12.742187-4.820312-17.597656.039062-4.851562 4.851563-4.871094 12.71875-.039062 17.59375l18.480468 18.480469c4.875 4.832031 12.742188 4.816407 17.597656-.039062 4.859376-4.851563 4.871094-12.71875.039063-17.59375zm0 0"/></svg>