<svg height="533pt" viewBox="-103 -16 533 533.33333" width="533pt" xmlns="http://www.w3.org/2000/svg"><path d="m293.167969 131.632812v-35.382812h5.222656c12.847656.035156 23.332031-10.269531 23.527344-23.113281v-49.988281c-.191407-12.851563-10.671875-23.164063-23.527344-23.148438h-280.449219c-12.855468-.015625-23.335937 10.296875-23.523437 23.148438v49.988281c.195312 12.84375 10.675781 23.148437 23.523437 23.113281h5.226563v35.382812c-.019531 16.757813 7.617187 32.605469 20.734375 43.03125l94.039062 75.183594-92.191406 71.511719c-13.496094 10.398437-21.386719 26.496094-21.332031 43.539063v38.851562h-6.476563c-12.847656-.035156-23.328125 10.269531-23.523437 23.113281v49.988281c.1875 12.851563 10.667969 23.164063 23.523437 23.148438h280.449219c12.855469.015625 23.335937-10.296875 23.527344-23.148438v-49.988281c-.195313-12.84375-10.679688-23.148437-23.527344-23.113281h-3.972656v-38.605469c-.078125-17.210937-8.140625-33.410156-21.824219-43.851562l-94.066406-71.542969 93.921875-75.089844c13.113281-10.425781 20.746093-26.277344 20.71875-43.027344zm-273.75-106.632812h277.5v46.25h-277.5zm277.5 450h-277.5v-46.25h15.34375c.71875 0 1.445312.203125 2.199219.203125.75 0 1.484374-.203125 2.203124-.203125h240.390626c.714843 0 1.449218.203125 2.199218.203125.753906 0 1.484375-.203125 2.199219-.203125h12.964844zm-27.5-109.855469v38.605469h-220v-38.851562c-.019531-9.3125 4.289062-18.105469 11.671875-23.785157l97.140625-75.351562 99.222656 75.425781c7.484375 5.703125 11.90625 14.550781 11.964844 23.957031zm-12.605469-210.007812-98.621094 78.859375-98.65625-78.859375c-7.179687-5.6875-11.367187-14.34375-11.367187-23.503907v-35.382812h220v35.382812c0 9.160157-4.179688 17.8125-11.355469 23.503907zm0 0"/></svg>