<svg height="533pt" viewBox="-16 -35 533.33398 533" width="533pt" xmlns="http://www.w3.org/2000/svg"><path d="m499.804688 278.894531v-236.609375c0-23.574218-19.375-43.308594-42.945313-43.308594h-413.71875c-23.574219 0-42.945313 19.734376-42.945313 43.308594v236.609375c0 .695313-.195312 1.402344-.195312 2.136719 0 .726562.195312 1.4375.195312 2.132812v41.417969c.105469 23.65625 19.285157 42.792969 42.945313 42.855469h143.160156v33.078125c.082031 9.878906-4.300781 19.257813-11.921875 25.535156l-13.617187 11.332031h-40.3125c-6.898438 0-12.492188 5.59375-12.492188 12.492188s5.59375 12.488281 12.492188 12.488281h264.507812c6.902344 0 12.492188-5.589843 12.492188-12.488281s-5.589844-12.492188-12.492188-12.492188h-45.71875l-13.617187-11.332031c-7.621094-6.277343-12.003906-15.65625-11.921875-25.535156v-33.078125h143.160156c23.660156-.0625 42.832031-19.199219 42.945313-42.855469v-41.417969c0-.695312.195312-1.40625.195312-2.132812 0-.734375-.195312-1.441406-.195312-2.136719zm-456.664063-254.9375h413.71875c9.796875 0 17.964844 8.53125 17.964844 18.328125v226.480469h-449.648438v-226.480469c0-9.796875 8.167969-18.328125 17.964844-18.328125zm258.359375 413.425781h-102.996094c8.414063-9.992187 12.777344-23.324218 12.777344-36.867187v-33.078125h77.4375v33.078125c0 13.542969 4.363281 26.875 12.78125 36.867187zm155.359375-94.925781h-413.71875c-9.871094-.042969-17.871094-8.011719-17.964844-17.875v-30.835937h449.648438v30.835937c-.09375 9.863281-8.09375 17.832031-17.964844 17.875zm0 0"/></svg>