<svg height="519pt" viewBox="-16 -16 519.9981 519" width="519pt" xmlns="http://www.w3.org/2000/svg"><path d="m384.351562 367.101562c36.066407-40.269531 56.007813-92.433593 55.996094-146.492187 0-121.367187-98.742187-220.113281-220.113281-220.113281-121.492187-.121094-220.234375 98.621094-220.234375 219.988281s98.742188 220.113281 220.113281 220.113281c54.074219.089844 106.261719-19.859375 146.488281-56l99.492188 99.496094c2.347656 2.359375 5.550781 3.667969 8.875 3.625 3.316406-.015625 6.5-1.316406 8.878906-3.625 2.335938-2.339844 3.652344-5.507812 3.652344-8.8125s-1.316406-6.480469-3.652344-8.8125zm-359.351562-146.617187c0-107.617187 87.492188-195.109375 195.113281-195.109375 107.613281 0 195.109375 87.492188 195.109375 195.109375s-87.496094 195.113281-195.109375 195.113281c-107.621093.121094-195.113281-87.496094-195.113281-195.113281zm0 0"/></svg>