<svg height="574pt" viewBox="-18 -57 574.66912 574" width="574pt" xmlns="http://www.w3.org/2000/svg"><path d="m170.007812 61.191406c-3.558593-3.636718-8.960937-4.757812-13.675781-2.851562-4.710937 1.910156-7.808593 6.476562-7.832031 11.5625v374.367187c.027344 6.949219 5.628906 12.578125 12.574219 12.652344h365.203125c5.027344-.039063 9.550781-3.074219 11.496094-7.710937 1.945312-4.640626.9375-9.996094-2.5625-13.605469zm3.449219 370.769532v-46.171876h24.710938c6.890625 0 12.476562-5.585937 12.476562-12.476562 0-6.894531-5.585937-12.480469-12.476562-12.480469h-24.710938v-36.1875h38.113281c6.894532 0 12.480469-5.585937 12.480469-12.480469 0-6.890624-5.585937-12.476562-12.480469-12.476562h-38.113281v-36.191406h24.710938c6.890625 0 12.476562-5.585938 12.476562-12.476563 0-6.894531-5.585937-12.480469-12.476562-12.480469h-24.710938v-36.1875h38.113281c6.894532 0 12.480469-5.589843 12.480469-12.480468 0-6.894532-5.585937-12.480469-12.480469-12.480469h-38.113281v-76.820313l323.210938 331.390626zm0 0"/><path d="m240.347656 387.039062h110.910156c4.914063.132813 9.429688-2.707031 11.4375-7.195312 2.003907-4.484375 1.113282-9.738281-2.257812-13.316406l-110.917969-120.332032c-3.382812-3.765624-8.757812-5.019531-13.460937-3.132812-4.734375 1.910156-7.800782 6.550781-7.695313 11.660156v120.398438c-.183593 6.398437 4.855469 11.730468 11.253907 11.917968.242187.007813.484374.007813.730468 0zm12.976563-100.355468 69.464843 75.398437h-69.464843zm0 0"/><path d="m123.542969 10.175781c0-6.894531-5.585938-12.480469-12.480469-12.480469h-98.582031c-6.894531 0-12.480469 5.585938-12.480469 12.480469v434.265625c0 6.894532 5.585938 12.480469 12.480469 12.480469h98.582031c6.894531 0 12.480469-5.585937 12.480469-12.480469zm-98.585938 421.785157v-118.546876h42.644531c6.890626 0 12.476563-5.585937 12.476563-12.480468 0-6.894532-5.585937-12.480469-12.476563-12.480469h-42.644531v-82.359375h23.335938c6.890625 0 12.480469-5.585938 12.480469-12.480469 0-6.890625-5.589844-12.476562-12.480469-12.476562h-23.335938v-82.363281h42.644531c6.890626 0 12.476563-5.585938 12.476563-12.476563 0-6.894531-5.585937-12.480469-12.476563-12.480469h-42.644531v-51.164062h74.875v364.011718c-2.3125-4.433593-6.917969-7.179687-11.914062-7.113281h-26.15625c-6.886719 0-12.480469 5.585938-12.480469 12.480469 0 6.890625 5.59375 12.476562 12.480469 12.476562h26.15625c5.183593 0 9.417969-3.703124 11.914062-8.203124v35.65625zm0 0"/></svg>