<svg height="532pt" viewBox="-23 -17 532 532.00035" width="532pt" xmlns="http://www.w3.org/2000/svg"><path d="m20.554688 3.761719c-3.453126-3.625-8.78125-4.753907-13.410157-2.839844-4.652343 1.933594-7.640625 6.511719-7.554687 11.546875v473.8125c-.203125 6.6875 5.054687 12.269531 11.742187 12.46875h462.503907c5.015624 0 9.542968-3.003906 11.492187-7.628906 1.945313-4.621094.933594-9.957032-2.570313-13.546875zm3.972656 470.050781v-63.589844h18.246094c6.886718 0 12.46875-5.582031 12.46875-12.46875 0-6.886718-5.582032-12.46875-12.46875-12.46875h-18.246094v-53.617187h35.214844c6.886718 0 12.46875-5.582031 12.46875-12.46875s-5.582032-12.46875-12.46875-12.46875h-35.214844v-52.367188h18.246094c6.886718 0 12.46875-5.582031 12.46875-12.46875s-5.582032-12.46875-12.46875-12.46875h-18.246094v-52.371093h35.214844c6.886718 0 12.46875-5.578126 12.46875-12.46875 0-6.886719-5.582032-12.46875-12.46875-12.46875h-35.214844v-109.011719l419.726562 430.707031zm0 0"/><path d="m111.949219 411.46875h140.378906c4.960937-.054688 9.433594-3.023438 11.414063-7.578125 1.976562-4.554687 1.101562-9.847656-2.25-13.519531l-140.375-152.414063c-3.492188-3.78125-8.949219-5.042969-13.75-3.1875-4.800782 1.859375-7.988282 6.460938-8.027344 11.613281v152.378907c.042968 6.960937 5.652344 12.605469 12.609375 12.707031zm12.328125-133.152344 99.609375 108.214844h-99.609375zm0 0"/></svg>