<svg height="533pt" viewBox="-21 -16 533 533.33585" width="533pt" xmlns="http://www.w3.org/2000/svg"><path d="m482.667969 191.851562c7.730469-5.820312 9.90625-16.484374 5.082031-24.871093l-51.273438-86.25c-6.390624-10.632813-16.753906-11.144531-23.851562-7.121094l-54.382812 25.023437c-12.109376-8.820312-25.113282-16.347656-38.796876-22.457031l-5.429687-59.78125c-.050781-.507812-.144531-1.007812-.277344-1.503906-2.097656-8.910156-9.5-14.890625-18.003906-14.890625h-100.144531c-9.625 0-17.796875 7.164062-18.246094 16.089844l-5.460938 60.199218c-15.53125 6.910157-28.339843 14.21875-38.929687 22.347657l-54.53125-25.113281c-.191406-.085938-.386719-.183594-.582031-.261719-8.523438-3.414063-18.894532 0-22.992188 7.457031l-50.105468 86.25c-4.902344 8.4375-2.652344 19.210938 5.21875 24.980469.085937.0625.171874.125.257812.1875l49 34.835937c-2.441406 14.902344-2.445312 30.101563-.015625 45.007813l-51.332031 34.945312c-.167969.113281-.328125.230469-.492188.351563-7.640625 5.820312-9.785156 16.402344-5.011718 24.738281l50.082031 86.195313c.03125.046874.058593.101562.09375.15625 2.261719 3.960937 5.84375 7 10.121093 8.582031 4.566407 1.535156 9.578126.984375 13.691407-1.507813l54.40625-25.027344c12.109375 8.816407 25.105469 16.347657 38.785156 22.460938l5.4375 59.792969c.054687.660156.148437 1.320312.277344 1.96875 2.101562 8.90625 9.503906 15.367187 18.003906 15.367187h100.144531c9.625 0 17.792969-7.628906 18.253906-16.558594l5.46875-60.449218c13.8125-5.929688 26.878907-13.46875 38.925782-22.460938l54.515625 25.058594c.210937.09375.417969.171875.632812.253906 8.488281 3.347656 18.839844-.078125 22.925781-7.472656l50.128907-86.273438c4.902343-8.40625 2.6875-19.160156-5.144531-24.941406l-45.859376-34.929687c1.152344-7.515625 1.769532-15.101563 1.851563-22.707031-.078125-7.546876-.6875-15.085938-1.832031-22.550782l49.117187-34.921875c.09375-.0625.175781-.132812.273438-.199219zm-70.078125 19.15625c-3.808594 2.710938-5.785156 7.320313-5.125 11.949219l.5 3.554688c1.277344 7.609375 1.992187 15.296875 2.144531 23.011719-.144531 7.710937-.859375 15.398437-2.136719 23.003906l-.496094 3.421875c-.644531 4.488281 1.191407 8.976562 4.800782 11.726562l47.75 36.375-44.351563 76.34375-56.195312-25.855469c-4.34375-2.007812-9.453125-1.355468-13.160157 1.671876l-2.835937 2.324218c-10.125 8.285156-23.164063 15.792969-39.859375 22.953125l-3.210938 1.375c-4.238281 1.910157-7.121093 5.960938-7.523437 10.597657l-5.554687 61.535156h-87.996094l-5.574219-61.535156c-.417969-4.605469-3.296875-8.621094-7.527344-10.476563l-3.210937-1.433594c-14.390625-6.144531-27.972656-14.023437-40.453125-23.460937l-2.800781-2.113282c-3.664063-2.761718-8.554688-3.28125-12.722657-1.363281l-56.039062 25.773438-44.21875-76.097657 49.882812-33.957031c.097657-.070312.195313-.136719.292969-.207031l3.011719-2.183594c3.753906-2.71875 5.699219-7.292968 5.042969-11.886718l-.515626-3.632813c-1.269531-7.570313-1.984374-15.222656-2.136718-22.898437.15625-7.714844.875-15.410157 2.15625-23.019532l.496094-3.546875c.660156-4.628906-1.316407-9.238281-5.132813-11.949219l-50.828125-36.144531 44.261719-76.191406 56.207031 25.847656c4.339844 2 9.4375 1.34375 13.132812-1.679687l2.84375-2.324219c10.140626-8.292969 23.179688-15.804687 39.847657-22.949219l3.222656-1.375c4.203125-1.703125 7.105469-5.605468 7.527344-10.121094l5.546875-61.070312h88l5.570312 61.0625c.421875 4.546875 3.316406 8.488281 7.53125 10.246094l3.214844 1.316406c14.390625 6.113281 27.980469 13.972656 40.457031 23.394531l2.800781 2.085938c3.671876 2.757812 8.558594 3.277343 12.730469 1.355469l56.085938-25.808594 45.339843 76.25zm0 0"/><path d="m245.070312 114.359375c-75.789062 0-135.160156 59.375-135.160156 135.164063 0 75.792968 59.375 135.171874 135.160156 135.171874 75.792969 0 135.175782-59.375 135.175782-135.171874 0-75.792969-59.375-135.164063-135.175782-135.164063zm0 245.335937c-61.769531 0-110.160156-48.394531-110.160156-110.171874 0-61.773438 48.390625-110.164063 110.160156-110.164063 61.777344 0 110.175782 48.390625 110.175782 110.164063 0 61.773437-48.390625 110.171874-110.175782 110.171874zm0 0"/><path d="m245.070312 181.78125c-37.414062 0-67.746093 30.332031-67.746093 67.75 0 37.414062 30.332031 67.746094 67.746093 67.746094 37.421876 0 67.753907-30.332032 67.753907-67.746094.402343-37.019531-29.277344-67.347656-66.292969-67.75-.484375-.003906-.972656-.003906-1.460938 0zm0 110.492188c-23.605468 0-42.746093-19.140626-42.746093-42.75 0-23.613282 19.140625-42.746094 42.746093-42.746094 23.613282 0 42.753907 19.132812 42.753907 42.746094.253906 23.355468-18.46875 42.496093-41.824219 42.75-.308594.003906-.617188.003906-.929688 0zm0 0"/></svg>