<svg height="557pt" viewBox="-19 -17 557 557.33369" width="557pt" xmlns="http://www.w3.org/2000/svg"><path d="m434.496094 170.492188c47.078125 0 85.242187-38.171876 85.242187-85.246094 0-47.082032-38.164062-85.246094-85.242187-85.246094s-85.242188 38.164062-85.242188 85.246094c-.007812 2.457031.121094 4.914062.375 7.359375l-201.566406 111.953125c-23.554688-25.746094-60.425781-34.527344-93.050781-22.15625-32.625 12.367187-54.410157 43.390625-54.9687502 78.277344-.5585938 34.886718 20.2226562 66.59375 52.4335932 80 32.214844 13.40625 69.351563 5.8125 93.710938-19.171876l203.3125 119.941407c1.777344 43.980469 37.035156 79.222656 81.015625 80.984375 43.980469 1.757812 81.9375-30.554688 87.222656-74.253906 5.285157-43.695313-23.878906-84.128907-67.011719-92.902344-43.132812-8.777344-85.769531 17.046875-97.980468 59.335937l-192.082032-113.328125c12.359376-23.679687 12.824219-51.804687 1.25-75.878906l193.699219-107.589844c13.296875 31.835938 44.382813 52.597656 78.882813 52.675782zm0 207.925781c33.289062 0 60.28125 26.992187 60.28125 60.285156s-26.992188 60.28125-60.28125 60.28125c-33.292969 0-60.28125-26.988281-60.28125-60.28125.019531-33.285156 27-60.257813 60.28125-60.285156zm-349.464844-56.164063c-33.292969 0-60.28125-26.988281-60.28125-60.28125 0-33.289062 26.988281-60.28125 60.28125-60.28125 33.289062 0 60.28125 26.992188 60.28125 60.28125-.019531 33.28125-26.996094 60.261719-60.28125 60.28125zm349.464844-297.417968c33.289062 0 60.28125 26.988281 60.28125 60.28125 0 33.296874-26.992188 60.285156-60.28125 60.285156-33.292969 0-60.28125-26.988282-60.28125-60.285156.019531-33.28125 27-60.257813 60.28125-60.28125zm0 0"/></svg>