<svg height="533pt" viewBox="-60 -17 533 533.33142" width="533pt" xmlns="http://www.w3.org/2000/svg"><path d="m389.707031 114.035156-161.746093-106.695312c-14.808594-9.785156-34.027344-9.785156-48.835938 0l-161.828125 106.695312c-12.476563 8.167969-20.007813 22.066406-20.046875 36.976563v75.691406c.027344 113.273437 67.257812 215.730469 171.15625 260.851563.054688.023437.175781.050781.230469.074218l27.316406 11.398438c1.992187.839844 4.164063 1.144531 6.308594.875.402343.042968.816406.0625 1.230469.0625 3.453124.007812 6.753906-1.429688 9.105468-3.953125l22.277344-9.65625c105.824219-44.25 174.757812-147.6875 174.863281-262.398438v-72.945312c-.03125-14.910157-7.554687-28.808594-20.03125-36.976563zm-367.460937 112.667969v-75.691406c.046875-6.507813 3.351562-12.558594 8.804687-16.113281l159.941407-105.464844v440.410156l-12.699219-5.246094c-94.722657-41.175781-156.011719-134.613281-156.046875-237.894531zm362.492187-2.734375c-.117187 104.636719-62.996093 198.976562-159.523437 239.351562-.054688.019532-.125.046876-.179688.066407l-9.042968 3.90625v-437.859375l159.945312 105.464844c5.457031 3.554687 8.761719 9.605468 8.800781 16.113281zm0 0"/></svg>