<svg height="585pt" viewBox="-92 -18 585 585.33123" width="585pt" xmlns="http://www.w3.org/2000/svg"><path d="m384.597656 139.839844h-76.96875v-31.5625c0-59.796875-48.480468-108.277344-108.277344-108.277344-59.800781 0-108.28125 48.480469-108.28125 108.277344v31.5625h-83.328124c-6.878907.019531-12.457032 5.589844-12.476563 12.476562v334.058594c.015625 34.445312 27.933594 62.363281 62.375 62.375h277.179687c34.445313-.011719 62.363282-27.929688 62.371094-62.375v-334.058594c-.078125-6.910156-5.691406-12.464844-12.59375-12.476562zm-268.703125-31.6875c0-46.019532 37.3125-83.332032 83.328125-83.332032 46.027344 0 83.332032 37.3125 83.332032 83.332032v31.5625h-166.660157zm256.226563 378.222656c-.0625 20.648438-16.78125 37.367188-37.421875 37.425781h-277.179688c-20.648437-.058593-37.367187-16.777343-37.425781-37.425781v-321.585938h70.851562v50.769532c0 6.890625 5.589844 12.476562 12.472657 12.476562 6.890625 0 12.476562-5.585937 12.476562-12.476562v-50.769532h166.785157v50.769532c0 6.890625 5.585937 12.476562 12.476562 12.476562 6.882812 0 12.472656-5.585937 12.472656-12.476562v-50.769532h64.492188zm0 0"/><path d="m196.105469 219.550781c-68.890625 0-124.742188 55.851563-124.742188 124.742188 0 68.894531 55.851563 124.746093 124.742188 124.746093 68.898437 0 124.746093-55.851562 124.746093-124.746093-.113281-68.847657-55.898437-124.632813-124.746093-124.742188zm0 224.539063c-55.117188 0-99.796875-44.679688-99.796875-99.796875 0-55.117188 44.679687-99.792969 99.796875-99.792969 55.117187 0 99.796875 44.675781 99.796875 99.792969-.074219 55.089843-44.710938 99.722656-99.796875 99.796875zm0 0"/><path d="m247.25 303-65.738281 62.875-33.679688-33.679688c-4.859375-4.859374-12.734375-4.859374-17.59375 0-4.851562 4.859376-4.851562 12.730469 0 17.585938l42.292969 42.289062c2.339844 2.355469 5.535156 3.660157 8.855469 3.617188 3.21875.03125 6.316406-1.226562 8.609375-3.492188l74.597656-71.226562c2.382812-2.28125 3.761719-5.417969 3.835938-8.71875.066406-3.296875-1.175782-6.488281-3.464844-8.871094-4.824219-4.910156-12.683594-5.074218-17.714844-.378906zm0 0"/></svg>