<svg height="604pt" viewBox="-19 -53 604.00045 604" width="604pt" xmlns="http://www.w3.org/2000/svg"><path d="m404.644531 385.148438c-30.800781 0-55.773437 24.964843-55.773437 55.765624 0 30.808594 24.964844 55.777344 55.765625 55.777344 30.808593 0 55.773437-24.96875 55.773437-55.769531-.027344-30.792969-24.980468-55.742187-55.765625-55.773437zm0 86.570312c-17.015625 0-30.800781-13.789062-30.800781-30.796875 0-17.011719 13.785156-30.800781 30.792969-30.800781 17.015625-.007813 30.800781 13.789062 30.800781 30.792968-.019531 17.003907-13.792969 30.777344-30.792969 30.804688zm0 0"/><path d="m553.757812 76.375h-443.070312l-7.792969-31.703125c-6.730469-27.65625-31.558593-47.078125-60.015625-46.960937h-30.394531c-6.894531 0-12.484375 5.589843-12.484375 12.488281 0 6.894531 5.589844 12.484375 12.484375 12.484375h30.394531c16.933594-.136719 31.742188 11.394531 35.765625 27.847656l60.625 247.582031c6.765625 27.601563 31.613281 46.9375 60.027344 46.71875h259.328125c28.8125.230469 53.886719-19.648437 60.238281-47.746093l47.070313-205.738282c.851562-3.65625-.035156-7.5-2.40625-10.417968-2.386719-2.933594-5.984375-4.613282-9.769532-4.554688zm-59.234374 215.222656c-3.804688 16.707032-18.761719 28.484375-35.898438 28.261719h-259.328125c-16.910156.183594-31.726563-11.296875-35.765625-27.71875l-46.734375-190.792969h421.292969zm0 0"/><path d="m235.75 385.148438c-30.800781 0-55.773438 24.964843-55.773438 55.765624 0 30.808594 24.96875 55.777344 55.769532 55.777344 30.804687 0 55.773437-24.96875 55.773437-55.769531-.027343-30.792969-24.980469-55.742187-55.769531-55.773437zm0 86.570312c-17.011719 0-30.800781-13.789062-30.800781-30.796875 0-17.011719 13.789062-30.800781 30.796875-30.800781 17.011718-.007813 30.800781 13.789062 30.800781 30.792968-.019531 17.003907-13.796875 30.777344-30.796875 30.804688zm0 0"/></svg>