<svg height="559pt" viewBox="-17 -31 559.99933 559" width="559pt" xmlns="http://www.w3.org/2000/svg"><path d="m207.515625 390.65625c-29.324219 0-53.09375 23.769531-53.09375 53.085938-.003906 29.320312 23.765625 53.089843 53.085937 53.089843 29.324219.007813 53.09375-23.761719 53.09375-53.085937-.035156-29.304688-23.78125-53.054688-53.085937-53.089844zm0 81.175781c-15.515625 0-28.09375-12.570312-28.09375-28.085937-.003906-15.511719 12.574219-28.089844 28.085937-28.089844 15.515626 0 28.09375 12.574219 28.09375 28.085938-.019531 15.503906-12.585937 28.066406-28.085937 28.085937zm0 0"/><path d="m390.210938 390.65625c-29.324219 0-53.09375 23.769531-53.09375 53.089844 0 29.324218 23.769531 53.085937 53.09375 53.085937 29.320312 0 53.085937-23.761719 53.085937-53.085937-.03125-29.304688-23.78125-53.054688-53.085937-53.089844zm0 81.175781c-15.515626 0-28.09375-12.570312-28.09375-28.085937s12.578124-28.089844 28.09375-28.089844c15.511718 0 28.085937 12.574219 28.085937 28.089844 0 15.507812-12.574219 28.085937-28.085937 28.085937zm0 0"/><path d="m522.679688 80.964844c-2.359376-3.261719-6.152344-5.175782-10.179688-5.132813h-386.03125l-4.398438-27.996093c-4.25-27.753907-28.121093-48.253907-56.195312-48.253907h-53.375c-6.90625 0-12.5 5.597657-12.5 12.5 0 6.90625 5.59375 12.5 12.5 12.5h53.375c15.734375 0 29.113281 11.484375 31.496094 27.042969l42.265625 267.171875c4.246093 27.761719 28.117187 48.269531 56.203125 48.285156h261.160156c6.902344 0 12.5-5.59375 12.5-12.5 0-6.902343-5.597656-12.5-12.5-12.5h-261.160156c-15.792969-.113281-29.15625-11.695312-31.507813-27.308593l-6.5-41.441407h263.085938c24.214843.0625 45.800781-15.234375 53.769531-38.09375l49.625-143.078125c1.320312-3.773437.714844-7.953125-1.632812-11.195312zm-27.738282 19.867187-12.953125 37.5h-345.640625l-5.921875-37.5zm-354.640625 62.5h333.019531l-7.492187 21.25h-322.101563zm280.617188 85h-267.042969l-6.191406-38.75h309.484375l-6.105469 17.453125c-4.472656 12.804688-16.582031 21.359375-30.144531 21.296875zm0 0"/></svg>