<svg height="546pt" viewBox="-115 -17 546 546.66669" width="546pt" xmlns="http://www.w3.org/2000/svg"><path d="m272.21875 94.527344-13.476562-51.601563c-6.621094-25.277343-29.453126-42.910156-55.582032-42.925781h-103.820312c-26.144532.0117188-49.003906 17.640625-55.652344 42.925781l-13.402344 51.601563c-22.28125 10.160156-36.570312 32.410156-36.535156 56.898437v209.648438c-.035156 24.335937 14.074219 46.472656 36.144531 56.71875l13.789063 51.992187c6.703125 25.167969 29.480468 42.683594 55.519531 42.714844h104.09375c26.058594-.023438 48.855469-17.539062 55.59375-42.714844l13.71875-51.992187c22.070313-10.246094 36.175781-32.382813 36.140625-56.71875v-209.648438c.035156-24.488281-14.253906-46.738281-36.53125-56.898437zm-204.351562-45.339844c3.769531-14.28125 16.703124-24.21875 31.472656-24.1875h103.820312c14.769532-.03125 27.703125 9.90625 31.472656 24.1875l10.417969 39.5625h-187.597656zm166.875 414.242188c-3.820313 14.222656-16.722657 24.09375-31.445313 24.070312h-104.09375c-14.71875.023438-27.621094-9.847656-31.4375-24.070312l-10.605469-39.679688h188.183594zm49.007812-102.179688c0 20.710938-16.785156 37.5-37.5 37.5h-190c-20.710938 0-37.5-16.789062-37.5-37.5v-210c0-20.710938 16.789062-37.5 37.5-37.5h190c20.714844 0 37.5 16.789062 37.5 37.5zm0 0"/><path d="m205.738281 247.5h-48.238281v-67.703125c0-6.90625-5.59375-12.5-12.5-12.5-6.902344 0-12.5 5.59375-12.5 12.5v80.246094c.09375 6.933593 5.761719 12.496093 12.695312 12.457031h60.542969c6.902344 0 12.5-5.59375 12.5-12.5s-5.597656-12.5-12.5-12.5zm0 0"/></svg>