<svg height="558pt" viewBox="-17 -29 558.6707 558" width="558pt" xmlns="http://www.w3.org/2000/svg"><path d="m513.0625 180.78125-165.828125-24.09375-74.167969-150.273438c-2.101562-4.261718-6.441406-6.957031-11.1875-6.957031-4.75 0-9.089844 2.695313-11.199218 6.957031l-74.160157 150.273438-165.828125 24.085938c-4.707031.6875-8.613281 3.980468-10.082031 8.5-1.464844 4.515624-.242187 9.476562 3.160156 12.796874l120 116.96875-28.332031 165.15625c-.800781 4.683594 1.121094 9.417969 4.96875 12.210938 3.84375 2.789062 8.941406 3.160156 13.144531.945312l148.328125-77.972656 148.324219 77.980469c4.203125 2.210937 9.300781 1.84375 13.144531-.953125 3.84375-2.789062 5.769532-7.523438 4.964844-12.210938l-28.328125-165.152343 120-116.972657c3.402344-3.316406 4.625-8.277343 3.160156-12.796874-1.472656-4.515626-5.378906-7.8125-10.082031-8.492188zm-135.203125 124.960938c-2.945313 2.871093-4.285156 7-3.59375 11.050781l25.164063 146.699219-131.746094-69.257813c-3.636719-1.917969-7.980469-1.917969-11.613282 0l-131.746093 69.257813 25.15625-146.699219c.699219-4.050781-.640625-8.179688-3.585938-11.050781l-106.585937-103.890626 147.292968-21.402343c4.066407-.589844 7.582032-3.144531 9.402344-6.832031l65.875-133.472657 65.871094 133.472657c1.816406 3.6875 5.332031 6.242187 9.398438 6.832031l147.296874 21.402343zm0 0"/></svg>