<svg height="506pt" viewBox="-89 -16 506 506.66364" width="506pt" xmlns="http://www.w3.org/2000/svg"><path d="m292.664062 133.339844-8.109374-38.085938c-3.410157-16.363281-17.792969-28.132812-34.511719-28.226562l-7.160157-.070313c-3.449218-39.140625-37.105468-68.617187-76.355468-66.8828122-39.25 1.7304692-70.179688 34.0585932-70.167969 73.3515622v326.753907h-76.863281c-13.296875.015624-24.066406 10.785156-24.082032 24.082031v26.660156c.015626 13.289063 10.785157 24.0625 24.082032 24.074219h180.078125c13.289062-.011719 24.0625-10.785156 24.078125-24.074219v-26.660156c-.015625-13.296875-10.789063-24.066407-24.078125-24.082031h-78.214844v-326.753907c.003906-25.429687 19.671875-46.519531 45.039063-48.289062 25.363281-1.773438 47.773437 16.378906 51.308593 41.558593l-7.902343-.082031c-17.222657-.171875-32.105469 11.988281-35.375 28.890625l-7.105469 36.753906c-1.082031.988282-2.148438 2.003907-3.203125 3.046876-17.460938 17.414062-27.109375 41.167968-26.734375 65.828124l.035156 3.289063c.070313 6.808594 5.570313 12.308594 12.378906 12.378906l20.773438.210938c5.898437 30.023437 31.988281 51.828125 62.578125 52.320312h.699218c30.105469.097657 55.941407-21.417969 61.285157-51.046875l16.230469.171875h.125c6.902343 0 12.496093-5.601562 12.496093-12.5v-.128906l-.03125-3.292969c-.339843-26.417968-11.679687-51.496094-31.292969-69.195312zm-94.007812 316.65625h-178.246094v-24.816406h178.246094zm.316406-349.746094c.96875-5.0625 5.421875-8.699219 10.570313-8.636719l40.238281.414063c5 .023437 9.296875 3.546875 10.320312 8.4375l3.105469 14.585937c-10.597656-4.164062-21.867187-6.359375-33.246093-6.480469-11.523438-.125-22.972657 1.898438-33.75 5.976563zm61.296875 133.21875c-7.003906 7.011719-16.527343 10.929688-26.4375 10.875h-.46875c-16.800781-.28125-31.605469-11.121094-36.949219-27.058594l73.109376.75c-1.761719 5.832032-4.941407 11.132813-9.253907 15.433594zm-97.394531-41.535156c4.039062-33.710938 32.910156-58.914063 66.855469-58.363282 34.34375.546876 63.285156 25.796876 68.472656 59.75zm0 0"/></svg>