<svg height="533pt" viewBox="-17 -17 533 533.33266" width="533pt" xmlns="http://www.w3.org/2000/svg"><path d="m478.636719 3.621094-74.324219 74.324218-13.019531-13.019531c-22.414063-22.410156-58.75-22.410156-81.160157 0l-255.324218 255.316407-13.019532-13.023438c-4.882812-4.882812-12.792968-4.882812-17.675781 0-4.882812 4.878906-4.882812 12.796875 0 17.679688l13.019531 13.023437 17.675782 17.667969 35.925781 35.929687-42.292969 42.296875-26.988281-26.996094c-4.886719-4.839843-12.769531-4.820312-17.636719.039063-4.867187 4.867187-4.882812 12.75-.039062 17.636719l71.660156 71.652344c3.121094 3.261718 7.761719 4.578124 12.132812 3.457031 4.375-1.128907 7.796876-4.519531 8.957032-8.882813 1.167968-4.363281-.117188-9.015625-3.347656-12.164062l-27.070313-27.074219 42.296875-42.292969 66.628906 66.628906c4.882813 4.878907 12.789063 4.878907 17.671875 0 4.878907-4.882812 4.878907-12.796874 0-17.675781l-13.015625-13.023437 255.316406-255.320313c22.410157-22.414062 22.410157-58.75 0-81.160156l-13.023437-13.019531 74.328125-74.328125c4.839844-4.886719 4.820312-12.769531-.039062-17.632813-4.867188-4.867187-12.75-4.882812-17.636719-.039062zm-352.558594 387.898437-53.59375-53.597656 79.726563-79.726563 89.527343 89.527344-79.726562 79.726563zm291.253906-219.394531-157.917969 157.921875-89.527343-89.535156 157.914062-157.914063c12.652344-12.648437 33.164063-12.648437 45.816407 0l43.714843 43.710938c12.644531 12.652344 12.644531 33.164062 0 45.816406zm0 0"/></svg>