<svg height="560pt" viewBox="-82 -17 560 560" width="560pt" xmlns="http://www.w3.org/2000/svg"><path d="m346.832031 0h-307.332031c-24.171875 0-43.832031 19.355469-43.832031 43.144531v438.710938c0 23.789062 19.660156 43.144531 43.832031 43.144531h307.332031c24.171875 0 43.835938-19.355469 43.835938-43.144531v-438.710938c0-23.789062-19.664063-43.144531-43.835938-43.144531zm18.835938 481.855469c0 10-8.449219 18.144531-18.835938 18.144531h-307.332031c-10.386719 0-18.832031-8.140625-18.832031-18.144531v-438.710938c0-10 8.445312-18.144531 18.832031-18.144531h307.332031c10.386719 0 18.835938 8.140625 18.835938 18.144531zm0 0"/><path d="m343.480469 33.929688h-300.625c-6.90625 0-12.5 5.597656-12.5 12.5v371.964843c0 6.902344 5.59375 12.5 12.5 12.5h300.625c6.902343 0 12.5-5.597656 12.5-12.5v-371.964843c0-6.902344-5.597657-12.5-12.5-12.5zm-12.5 371.964843h-275.625v-346.964843h275.625zm0 0"/><path d="m193.167969 436.605469c-16.226563.210937-29.230469 13.492187-29.089844 29.71875.136719 16.222656 13.367187 29.28125 29.589844 29.214843 16.226562-.070312 29.34375-13.242187 29.34375-29.46875 0-7.882812-3.15625-15.429687-8.765625-20.96875-5.605469-5.535156-13.199219-8.59375-21.078125-8.496093zm0 33.933593c-2.417969-.203124-4.238281-2.289062-4.109375-4.710937.132812-2.421875 2.167968-4.300781 4.597656-4.230469 2.421875.0625 4.355469 2.050782 4.355469 4.472656-.113281 2.566407-2.277344 4.5625-4.84375 4.46875zm0 0"/></svg>