<svg height="532pt" viewBox="-17 -17 532.00152 532" width="532pt" xmlns="http://www.w3.org/2000/svg"><path d="m485.367188 1-203.242188-1h-.121094c-3.304687.0234375-6.476562 1.320312-8.855468 3.613281l-255.359376 255.488281c-23.609374 23.722657-23.609374 62.0625 0 85.785157l136.15625 136.160156c23.726563 23.605469 62.066407 23.605469 85.789063 0l255.484375-255.488281c2.324219-2.355469 3.625-5.539063 3.617188-8.851563l-1-203.238281c-.105469-6.84375-5.625-12.363281-12.46875-12.46875zm-263.339844 462.339844c-6.667969 6.703125-15.730469 10.472656-25.183594 10.472656-9.457031 0-18.523438-3.769531-25.1875-10.472656l-136.164062-136.160156c-6.699219-6.664063-10.46875-15.734376-10.46875-25.1875 0-9.453126 3.769531-18.515626 10.46875-25.183594l251.75-251.871094 185.65625 1 1 185.65625zm0 0"/><path d="m351.328125 86.90625c-28.824219.074219-53.589844 20.488281-59.164063 48.765625-5.570312 28.285156 9.601563 56.566406 36.246094 67.566406 26.644532 10.996094 57.347656 1.65625 73.347656-22.324219 16-23.976562 12.84375-55.917968-7.535156-76.300781-11.386718-11.351562-26.816406-17.722656-42.894531-17.707031zm25.1875 85.785156c-12.007813 11.945313-30.777344 13.746094-44.84375 4.308594-14.0625-9.441406-19.503906-27.496094-13-43.128906 6.5-15.640625 23.140625-24.515625 39.753906-21.199219 16.609375 3.316406 28.566407 17.894531 28.566407 34.835937.003906 9.453126-3.765626 18.523438-10.476563 25.183594zm0 0"/></svg>