<svg height="533pt" viewBox="-16 -26 533.33331 533" width="533pt" xmlns="http://www.w3.org/2000/svg"><path d="m462.5-.5h-322.820312c-20.53125 0-37.175782 16.636719-37.179688 37.167969v229.082031h-40c-34.460938 0-62.5 28.65625-62.5 63.125v87.152344c.0507812 35.078125 28.511719 63.488281 63.589844 63.472656h360.046875c42.136719.003906 76.308593-34.117188 76.363281-76.25v-366.363281c-.035156-20.675781-16.820312-37.414063-37.5-37.386719zm-360 416.523438c0 21.402343-17.347656 38.75-38.75 38.75s-38.75-17.347657-38.75-38.75v-87.148438c0-20.679688 16.820312-38.125 37.5-38.125h40zm372.5-12.773438c-.039062 28.332031-23.027344 51.269531-51.363281 51.25h-309.539063c8.695313-10.9375 13.421875-24.5 13.402344-38.476562v-379.136719c-.136719-6.707031 5.195312-12.253907 11.90625-12.386719h323.09375c6.859375-.042969 12.457031 5.480469 12.5 12.339844zm0 0"/><path d="m199.292969 137h68.582031c6.90625 0 12.5-5.59375 12.5-12.5 0-6.902344-5.59375-12.5-12.5-12.5h-68.582031c-6.90625 0-12.5 5.597656-12.5 12.5 0 6.90625 5.59375 12.5 12.5 12.5zm0 0"/><path d="m393.304688 218.25h-194.011719c-6.90625 0-12.5 5.597656-12.5 12.5 0 6.90625 5.59375 12.5 12.5 12.5h194.011719c6.90625 0 12.5-5.59375 12.5-12.5 0-6.902344-5.59375-12.5-12.5-12.5zm0 0"/><path d="m393.304688 313.25h-194.011719c-6.90625 0-12.5 5.597656-12.5 12.5 0 6.90625 5.59375 12.5 12.5 12.5h194.011719c6.90625 0 12.5-5.59375 12.5-12.5 0-6.902344-5.59375-12.5-12.5-12.5zm0 0"/></svg>