<svg height="619pt" viewBox="-19 -21 619.99954 619" width="619pt" xmlns="http://www.w3.org/2000/svg"><path d="m288.78125 25.402344c46.398438 0 92.863281 13.160156 134.371094 38.070312 27.703125 16.660156 52.4375 37.835938 73.164062 62.652344l-73.597656-2.425781h-.421875c-6.808594.011719-12.355469 5.480469-12.464844 12.296875-.113281 6.808594 5.257813 12.453125 12.0625 12.691406l95.574219 3.152344c4.734375 2.113281 10.28125 1.089844 13.941406-2.578125 3.667969-3.667969 4.6875-9.214844 2.5625-13.945313l-3.152344-95.5625c-.152343-6.902344-5.871093-12.375-12.773437-12.21875-6.90625.152344-12.371094 5.875-12.222656 12.777344 0 .085938 0 .175781.011719.261719l2 60.683593c-20.898438-23.171874-45.101563-43.128906-71.824219-59.222656-45.390625-27.234375-96.304688-41.628906-147.234375-41.628906-81.355469 0-156.363282 33.550781-211.1875 94.460938-24.460938 27.296874-43.910156 58.695312-57.457032 92.757812-13.171874 33.277344-20.132812 68.402344-20.132812 101.566406 0 6.902344 5.59375 12.496094 12.496094 12.496094s12.5-5.59375 12.5-12.496094c0-61.6875 26.605468-128.085937 71.175781-177.601562 50.019531-55.582032 118.421875-86.1875 192.609375-86.1875zm0 0"/><path d="m568.746094 276.691406c-6.902344 0-12.496094 5.597656-12.496094 12.5 0 61.683594-26.605469 128.078125-71.175781 177.597656-50.019531 55.578126-118.421875 86.1875-192.613281 86.1875-46.394532 0-92.859376-13.164062-134.371094-38.066406-27.703125-16.667968-52.433594-37.84375-73.15625-62.660156l73.59375 2.425781c6.882812.207031 12.632812-5.191406 12.863281-12.074219.222656-6.886718-5.160156-12.65625-12.039063-12.902343l-95.574218-3.15625c-4.730469-2.109375-10.277344-1.082031-13.9375 2.582031-3.664063 3.667969-4.679688 9.214844-2.558594 13.945312l3.152344 95.554688c.09375 4.464844 2.5625 8.546875 6.484375 10.695312 3.914062 2.152344 8.683593 2.046876 12.5-.277343 3.824219-2.324219 6.109375-6.507813 6-10.976563 0-.089844 0-.179687-.003907-.265625l-2-60.675781c20.890626 23.164062 45.097657 43.121094 71.824219 59.214844 45.390625 27.234375 96.300781 41.632812 147.230469 41.632812 81.359375 0 156.367188-33.546875 211.191406-94.464844 24.457032-27.296874 43.90625-58.695312 57.453125-92.753906 13.175781-33.28125 20.136719-68.402344 20.136719-101.5625 0-6.902344-5.59375-12.5-12.496094-12.5zm0 0"/><path d="m140.652344 309.664062c0 81.203126 64.632812 147.648438 145.800781 149.910157 81.167969 2.253906 149.390625-60.5 153.90625-141.578125 4.511719-81.070313-56.320313-151.011719-137.238281-157.777344v-16h15.746094c6.898437 0 12.5-5.59375 12.5-12.496094s-5.601563-12.496094-12.5-12.496094h-56.476563c-6.902344 0-12.496094 5.59375-12.496094 12.496094s5.59375 12.496094 12.496094 12.496094h15.734375v16c-77.664062 6.585938-137.378906 71.503906-137.472656 149.445312zm207.589844-57.625c4.882812 4.882813 12.796874 4.882813 17.675781 0l21.433593-21.664062c15.546876 18.898438 25.160157 41.96875 27.621094 66.3125h-30.363281c-6.902344 0-12.496094 5.59375-12.496094 12.5 0 6.902344 5.59375 12.496094 12.496094 12.496094h30.363281c-2.460937 24.488281-12.0625 47.714844-27.621094 66.789062l-21.433593-21.300781c-4.90625-4.882813-12.839844-4.863281-17.71875.042969-4.882813 4.90625-4.859375 12.839844.042969 17.722656l21.429687 21.441406c-18.972656 15.574219-42.128906 25.191406-66.550781 27.640625v-30.371093c0-6.902344-5.597656-12.496094-12.5-12.496094s-12.496094 5.59375-12.496094 12.496094v30.371093c-24.421875-2.449219-47.578125-12.058593-66.546875-27.632812l21.425781-21.425781c4.875-4.882813 4.875-12.796876 0-17.675782-4.882812-4.878906-12.796875-4.878906-17.679687 0l-21.425781 21.1875c-15.558594-19.074218-25.164063-42.300781-27.625-66.789062h30.371093c6.902344 0 12.496094-5.59375 12.496094-12.496094 0-6.90625-5.59375-12.5-12.496094-12.5h-30.371093c2.464843-24.34375 12.078124-47.414062 27.625-66.3125l21.425781 21.546875c4.855469 4.832031 12.6875 4.847656 17.5625.039063 4.867187-4.8125 4.9375-12.652344.164062-17.558594l-.046875-.050782-21.425781-21.414062c18.96875-15.574219 42.125-25.179688 66.546875-27.621094v30.359375c0 6.902344 5.59375 12.496094 12.496094 12.496094s12.5-5.59375 12.5-12.496094v-30.359375c24.421875 2.441406 47.578125 12.050782 66.550781 27.625l-21.429687 21.425782c-4.753907 4.929687-4.753907 12.742187 0 17.671874zm0 0"/><path d="m303.121094 305.601562v-48.066406c0-6.902344-5.597656-12.496094-12.5-12.496094s-12.496094 5.59375-12.496094 12.496094v53.492188c0 3.460937 1.433594 6.765625 3.964844 9.128906l43.792968 40.917969c5.003907 4.753906 12.914063 4.554687 17.667969-.449219 4.753907-5.003906 4.554688-12.917969-.449219-17.671875l-.15625-.140625zm0 0"/></svg>