<svg height="619pt" viewBox="-19 -21 619.99954 619" width="619pt" xmlns="http://www.w3.org/2000/svg"><path d="m288.78125 25.402344c46.398438 0 92.863281 13.160156 134.371094 38.070312 27.703125 16.660156 52.4375 37.835938 73.164062 62.652344l-73.597656-2.425781h-.421875c-6.808594.011719-12.355469 5.480469-12.464844 12.296875-.113281 6.808594 5.257813 12.453125 12.0625 12.691406l95.574219 3.152344c4.734375 2.113281 10.28125 1.089844 13.941406-2.578125 3.667969-3.667969 4.6875-9.214844 2.5625-13.945313l-3.152344-95.5625c-.152343-6.902344-5.871093-12.375-12.773437-12.21875-6.90625.152344-12.371094 5.875-12.222656 12.777344 0 .085938 0 .175781.011719.261719l2 60.683593c-20.898438-23.171874-45.101563-43.128906-71.824219-59.222656-45.390625-27.234375-96.304688-41.628906-147.234375-41.628906-81.355469 0-156.363282 33.550781-211.1875 94.460938-24.460938 27.296874-43.910156 58.695312-57.457032 92.757812-13.171874 33.277344-20.132812 68.402344-20.132812 101.566406 0 6.902344 5.59375 12.496094 12.496094 12.496094s12.5-5.59375 12.5-12.496094c0-61.6875 26.605468-128.085937 71.175781-177.601562 50.019531-55.582032 118.421875-86.1875 192.609375-86.1875zm0 0"/><path d="m568.746094 276.691406c-6.902344 0-12.496094 5.597656-12.496094 12.5 0 61.683594-26.605469 128.078125-71.175781 177.597656-50.019531 55.578126-118.421875 86.1875-192.613281 86.1875-46.394532 0-92.859376-13.164062-134.371094-38.066406-27.703125-16.667968-52.433594-37.84375-73.15625-62.660156l73.59375 2.425781c6.882812.207031 12.632812-5.191406 12.863281-12.074219.222656-6.886718-5.160156-12.65625-12.039063-12.902343l-95.574218-3.15625c-4.730469-2.109375-10.277344-1.082031-13.9375 2.582031-3.664063 3.667969-4.679688 9.214844-2.558594 13.945312l3.152344 95.554688c.09375 4.464844 2.5625 8.546875 6.484375 10.695312 3.914062 2.152344 8.683593 2.046876 12.5-.277343 3.824219-2.324219 6.109375-6.507813 6-10.976563 0-.089844 0-.179687-.003907-.265625l-2-60.675781c20.890626 23.164062 45.097657 43.121094 71.824219 59.214844 45.390625 27.234375 96.300781 41.632812 147.230469 41.632812 81.359375 0 156.367188-33.546875 211.191406-94.464844 24.457032-27.296874 43.90625-58.695312 57.453125-92.753906 13.175781-33.28125 20.136719-68.402344 20.136719-101.5625 0-6.902344-5.59375-12.5-12.496094-12.5zm0 0"/><path d="m386.851562 208.214844v-20.242188c10.96875.039063 19.910157-8.796875 19.996094-19.769531v-34.195313c0-10.90625-9.390625-19.78125-20.304687-19.78125h-191.84375c-10.910157 0-20.300781 8.871094-20.300781 19.78125v34.195313c.085937 10.972656 9.023437 19.808594 19.996093 19.769531v20.242188c-.03125 12.660156 5.730469 24.640625 15.632813 32.519531l60.398437 48.304687-58.882812 45.84375c-10.144531 7.886719-16.023438 20.054688-15.902344 32.902344v22.632813h-.941406c-10.910157 0-20.300781 8.847656-20.300781 19.757812v34.191407c0 10.910156 9.390624 19.785156 20.300781 19.785156h191.84375c10.914062 0 20.304687-8.875 20.304687-19.785156v-34.191407c-.195312-10.441406-8.328125-19-18.746094-19.726562v-22.496094c-.121093-13.023437-6.269531-25.261719-16.648437-33.136719l-60.40625-45.875 60.226563-48.207031c9.886718-7.890625 15.628906-19.871094 15.578124-32.519531zm-187.460937-68.992188h182.460937v23.742188h-182.460937zm182.460937 299.9375h-182.460937v-23.746094h6.542969c.582031 0 1.171875.136719 1.777344.136719.605468 0 1.191406-.136719 1.769531-.136719h163.914062c.574219 0 1.164063.136719 1.769531.136719.605469 0 1.195313-.136719 1.773438-.136719h4.914062zm-18.746093-71.207031v22.464844h-142.46875v-22.632813c-.0625-5.109375 2.234375-9.960937 6.230469-13.148437l63.9375-49.6875 65.570312 49.757812c4.167969 3.140625 6.652344 8.03125 6.730469 13.246094zm-7.496094-146.738281-64.988281 51.976562-64.984375-51.96875c-3.960938-3.15625-6.257813-7.941406-6.25-12.996094v-20.265624h142.46875v20.253906c.011719 5.058594-2.289063 9.847656-6.246094 12.996094zm0 0"/></svg>