<svg height="533pt" viewBox="-16 -46 533.33338 533" width="533pt" xmlns="http://www.w3.org/2000/svg"><path d="m420.636719-1.355469c-.703125-.199219-1.425781-.335937-2.15625-.410156h-.410157c-.832031 0-1.671874-.066406-2.511718-.066406-.847656 0-1.679688.066406-2.515625.066406h-280.292969c-73.199219 0-132.75 61.292969-132.75 136.117187v291.03125c-.0273438 6.972657 5.527344 12.6875 12.5 12.851563h331.113281c6.996094-.15625 12.601563-5.847656 12.636719-12.851563v-124.648437h59.308594c47.347656 0 84.441406-66.472656 84.441406-151.175781 0-81.65625-34.46875-146.363282-79.363281-150.914063zm-89.386719 414.589844h-306.25v-278.882813c0-61.039062 48.339844-111.117187 107.75-111.117187h235.613281c-22.609375 27.5-37.113281 73.207031-37.113281 126.410156zm25-155.359375c3.441406 6.351562 7.519531 12.335938 12.171875 17.859375h-12.171875zm99.085938-16.011719c-11.164063 21.503907-25.667969 33.84375-39.777344 33.84375-14.113282 0-28.609375-12.339843-39.777344-33.84375-12.683594-24.425781-19.667969-57.171875-19.667969-92.21875 0-35.042969 6.984375-68 19.667969-92.425781 10.707031-20.632812 24.492188-32.734375 38.050781-33.984375h3.445313c13.5625 1.25 27.34375 13.351563 38.058594 33.984375 12.683593 24.425781 19.664062 57.28125 19.664062 92.320312 0 35.042969-6.980469 67.898438-19.664062 92.320313zm0 0"/><path d="m415.558594 105.671875c-16.714844 0-28.84375 18.5-28.84375 43.972656 0 25.476563 12.125 43.976563 28.84375 43.976563 16.710937 0 28.839844-18.496094 28.839844-43.976563 0-25.476562-12.132813-43.972656-28.839844-43.972656zm0 61.308594c-1.699219-2.90625-3.84375-8.746094-3.84375-17.335938 0-8.59375 2.144531-14.425781 3.84375-17.332031 1.699218 2.90625 3.839844 8.746094 3.839844 17.332031 0 8.589844-2.140626 14.429688-3.839844 17.335938zm0 0"/></svg>