<svg height="533pt" viewBox="-16 -63 533.33331 533" width="533pt" xmlns="http://www.w3.org/2000/svg"><path d="m432.5 67.082031c0-6.902343-5.59375-12.5-12.5-12.5h-126.25c-6.90625 0-12.5 5.597657-12.5 12.5v323.75c0 6.90625 5.59375 12.5 12.5 12.5h126.25c6.90625 0 12.5-5.59375 12.5-12.5zm-25 312.5h-101.25v-300h101.25zm0 0"/><path d="m218.75 67.082031c0-6.902343-5.59375-12.5-12.5-12.5h-115c-6.90625 0-12.5 5.597657-12.5 12.5v198.75c0 6.90625 5.59375 12.5 12.5 12.5h115c6.90625 0 12.5-5.59375 12.5-12.5zm-25 186.25h-90v-173.75h90zm0 0"/><path d="m487.5-2.917969h-475c-6.90625 0-12.5 5.597657-12.5 12.5 0 6.90625 5.59375 12.5 12.5 12.5h475c6.90625 0 12.5-5.59375 12.5-12.5 0-6.902343-5.59375-12.5-12.5-12.5zm0 0"/></svg>