<svg height="532pt" viewBox="-17 -17 532.00381 532" width="532pt" xmlns="http://www.w3.org/2000/svg"><path d="m272.449219 83.378906c-13.015625-12.980468-34.082031-12.980468-47.09375 0l-17.929688 17.933594c-7.769531 7.792969-13.742187 17.195312-17.496093 27.539062l-34.792969 96.324219-139.390625 139.386719c-21.105469 21.152344-21.105469 55.398438 0 76.554688l41.8125 41.804687c21.152344 21.109375 55.40625 21.109375 76.558594 0l139.269531-139.261719 96.636719-35.167968c10.210937-3.734376 19.5-9.632813 27.226562-17.296876l17.945312-17.84375c13.039063-12.972656 13.097657-34.058593.125-47.097656l-.0625-.0625zm-155.96875 381.910156c-11.40625 11.382813-29.871094 11.382813-41.28125 0l-41.808594-41.8125c-11.382813-11.40625-11.382813-29.875 0-41.285156l132.046875-132.046875 83.332031 82.851563zm281.125-209.628906-17.945313 17.851563c-5.15625 5.109375-11.359375 9.042969-18.171875 11.539062l-91.941406 33.457031-89.472656-88.964843 33.3125-92.222657c2.507812-6.898437 6.492187-13.171874 11.675781-18.375l17.933594-17.929687c3.257812-3.265625 8.546875-3.269531 11.816406-.011719l.007812.011719 142.800782 142.800781c3.261718 3.265625 3.261718 8.558594 0 11.828125l-.019532.019531zm0 0"/><path d="m188.375 310.292969c-4.867188-4.867188-12.761719-4.867188-17.632812 0l-30.316407 30.324219c-4.769531 4.882812-4.714843 12.691406.105469 17.519531 4.828125 4.828125 12.636719 4.875 17.527344.113281l30.316406-30.324219c4.871094-4.871093 4.871094-12.761719 0-17.632812zm0 0"/><path d="m379.710938 131.429688c3.304687.003906 6.480468-1.308594 8.816406-3.648438l42.851562-42.855469c4.710938-4.894531 4.636719-12.660156-.164062-17.460937-4.804688-4.804688-12.566406-4.878906-17.460938-.171875l-42.855468 42.851562c-3.566407 3.5625-4.632813 8.925781-2.703126 13.589844 1.929688 4.65625 6.472657 7.695313 11.515626 7.695313zm0 0"/><path d="m482.480469 159.902344-42.855469 13.390625c-6.570312 2.054687-10.238281 9.050781-8.183594 15.625 2.058594 6.570312 9.050782 10.234375 15.621094 8.179687l42.855469-13.390625c6.574219-2.054687 10.238281-9.050781 8.183593-15.621093-2.054687-6.574219-9.050781-10.238282-15.621093-8.183594zm0 0"/><path d="m309.753906 67.226562c6.566406 2.058594 13.558594-1.589843 15.617188-8.152343l.011718-.03125 13.386719-42.847657c2.058594-6.578124-1.605469-13.570312-8.179687-15.621093-6.574219-2.054688-13.566406 1.605469-15.621094 8.175781l-13.390625 42.855469c-2.054687 6.574219 1.605469 13.570312 8.175781 15.621093zm0 0"/></svg>