<svg height="629pt" viewBox="-57 -19 629 629.33331" width="629pt" xmlns="http://www.w3.org/2000/svg"><path d="m449.550781 65h-96.882812v-2.375c0-34.460938-28.515625-62.625-62.984375-62.625h-69.035156c-34.464844 0-62.980469 28.164062-62.980469 62.625v2.375h-96.886719c-34.460938 0-63.113281 28.195312-63.113281 62.65625v54.640625c0 6.902344 6.210937 12.703125 13.113281 12.703125h34.386719v332.375c0 34.464844 27.484375 62.625 61.953125 62.625h271.09375c30.046875 0 86.953125-24.46875 86.953125-62.625v-332.375h34.382812c6.90625 0 13.117188-5.800781 13.117188-12.703125v-54.640625c0-34.460938-28.652344-62.65625-63.117188-62.65625zm-266.882812-2.375c0-20.671875 17.304687-37.625 37.980469-37.625h69.035156c20.679687 0 37.984375 16.953125 37.984375 37.625v2.375h-145zm257.5 464.75c0 7.625-7.578125 16.875-20.734375 24.660156-13.050782 7.714844-29.449219 12.964844-41.21875 12.964844h-271.09375c-20.679688 0-36.953125-16.953125-36.953125-37.625v-332.375h370zm47.5-357.375h-465v-42.34375c0-20.679688 17.433593-37.65625 38.113281-37.65625h388.769531c20.679688 0 38.117188 16.976562 38.117188 37.65625zm0 0"/><path d="m135.734375 330.976562c3.050781 2.039063 6.84375 2.632813 10.375 1.617188l65.203125-1.386719c6.90625-.097656 12.421875-5.777343 12.320312-12.683593-.097656-6.902344-5.777343-12.414063-12.679687-12.316407h-.171875l-39.929688.847657c18.015626-16.40625 43.976563-30.238282 74.941407-30.238282 30.480469-.101562 59.539062 12.90625 79.769531 35.707032 18.535156 20.601562 29.605469 48.144531 29.605469 73.679687 0 25.53125-11.070313 53.070313-29.605469 73.664063-20.230469 22.808593-49.289062 35.8125-79.769531 35.710937-48.085938 0-75.835938-28.878906-88.097657-46.09375-4.03125-5.542969-11.777343-6.804687-17.359374-2.828125-5.578126 3.972656-6.921876 11.703125-3.007813 17.324219 25.621094 35.964843 65.152344 56.589843 108.464844 56.589843 80.375 0 134.375-69.480468 134.375-134.375 0-64.890624-54-134.375-134.375-134.375-36.867188 0-67.5 15.265626-89.484375 34.566407l.722656-33.929688c.148438-6.90625-5.332031-12.617187-12.230469-12.765625-6.90625-.144531-12.621093 5.332032-12.769531 12.230469l-1.382812 65.1875c-1.507813 5.234375.546874 10.84375 5.085937 13.867187zm0 0"/></svg>