<svg height="629pt" viewBox="-57 -19 629 629.33331" width="629pt" xmlns="http://www.w3.org/2000/svg"><path d="m449.550781 65h-96.882812v-2.375c0-34.460938-28.515625-62.625-62.984375-62.625h-69.035156c-34.464844 0-62.980469 28.164062-62.980469 62.625v2.375h-96.886719c-34.460938 0-63.113281 28.195312-63.113281 62.65625v54.640625c0 6.902344 6.210937 12.703125 13.113281 12.703125h34.386719v332.375c0 34.464844 27.484375 62.625 61.953125 62.625h271.09375c30.046875 0 86.953125-24.46875 86.953125-62.625v-332.375h34.382812c6.90625 0 13.117188-5.800781 13.117188-12.703125v-54.640625c0-34.460938-28.652344-62.65625-63.117188-62.65625zm-266.882812-2.375c0-20.671875 17.304687-37.625 37.980469-37.625h69.035156c20.679687 0 37.984375 16.953125 37.984375 37.625v2.375h-145zm257.5 464.75c0 7.625-7.578125 16.875-20.734375 24.660156-13.050782 7.714844-29.449219 12.964844-41.21875 12.964844h-271.09375c-20.679688 0-36.953125-16.953125-36.953125-37.625v-332.375h370zm47.5-357.375h-465v-42.34375c0-20.679688 17.433593-37.65625 38.113281-37.65625h388.769531c20.679688 0 38.117188 16.976562 38.117188 37.65625zm0 0"/><path d="m116.417969 395c6.902343 0 12.5-5.59375 12.5-12.5 0-29.265625 12.667969-60.824219 33.894531-84.410156 23.1875-26.136719 56.496094-41.042969 91.4375-40.921875 37.09375 0 67.921875 17.324219 88.632812 37.226562l-21.613281-.714843c-.140625-.003907-.28125-.007813-.417969-.007813-6.90625-.113281-12.59375 5.394531-12.707031 12.300781-.113281 6.902344 5.394531 12.585938 12.300781 12.699219l46.667969 1.542969c4.453125 1.40625 9.316407.210937 12.617188-3.089844 3.296875-3.304688 4.480469-8.175781 3.0625-12.625l-1.542969-46.648438c-.21875-6.734374-5.742188-12.078124-12.480469-12.085937h-.417969c-6.902343.230469-12.3125 6.007813-12.082031 12.90625l.46875 14.292969c-24.75-22.589844-59.902343-40.808594-102.488281-40.808594-89.929688.011719-150.332031 77.746094-150.332031 150.34375 0 6.90625 5.59375 12.5 12.5 12.5zm0 0"/><path d="m347.515625 466.910156c-23.183594 26.136719-56.488281 41.042969-91.429687 40.921875-37.101563 0-67.929688-17.324219-88.625-37.226562l21.605468.714843c6.886719.203126 12.636719-5.195312 12.867188-12.082031.226562-6.886719-5.15625-12.65625-12.039063-12.90625l-46.671875-1.535156c-4.453125-1.414063-9.316406-.222656-12.617187 3.085937-3.296875 3.304688-4.476563 8.167969-3.066407 12.617188l1.542969 46.648438c.21875 6.734374 5.742188 12.078124 12.480469 12.085937h.421875c6.898437-.230469 12.308594-6.007813 12.078125-12.90625l-.46875-14.292969c24.75 22.589844 59.902344 40.808594 102.492188 40.808594 89.925781-.011719 150.332031-77.746094 150.332031-150.34375 0-6.90625-5.597657-12.5-12.5-12.5-6.90625 0-12.5 5.59375-12.5 12.5 0 29.265625-12.675781 60.824219-33.902344 84.410156zm0 0"/></svg>