<svg height="617pt" viewBox="-85 -19 617 617.33331" width="617pt" xmlns="http://www.w3.org/2000/svg"><path d="m219.121094 319.375c-6.894532.019531-12.480469 5.605469-12.5 12.5v152.5c0 6.90625 5.601562 12.5 12.5 12.5 6.902344 0 12.5-5.59375 12.5-12.5v-152.5c-.019532-6.894531-5.601563-12.480469-12.5-12.5zm0 0"/><path d="m299.121094 319.375c-6.894532.019531-12.480469 5.605469-12.5 12.5v152.5c0 6.90625 5.601562 12.5 12.5 12.5 6.902344 0 12.5-5.59375 12.5-12.5v-152.5c-.019532-6.894531-5.601563-12.480469-12.5-12.5zm0 0"/><path d="m139.121094 319.375c-6.894532.019531-12.480469 5.605469-12.5 12.5v152.5c0 6.90625 5.601562 12.5 12.5 12.5 6.902344 0 12.5-5.59375 12.5-12.5v-152.5c-.019532-6.894531-5.601563-12.480469-12.5-12.5zm0 0"/><path d="m386.121094 64h-71.496094v-36.375c-.007812-15.257812-12.375-27.62109375-27.628906-27.625h-135.746094c-15.257812.00390625-27.621094 12.367188-27.628906 27.625v36.5h-71.496094c-27.515625.007812-51.003906 19.863281-55.582031 46.992188-4.582031 27.128906 11.09375 53.601562 37.078125 62.632812-.246094.894531-.371094 1.820312-.375 2.75v339.75c.015625 34.511719 27.988281 62.484375 62.5 62.5h246.875c34.511718-.015625 62.492187-27.988281 62.5-62.5v-339.75c.011718-.929688-.117188-1.855469-.375-2.75 26.019531-9.0625 41.6875-35.585938 37.078125-62.75s-28.152344-47.023438-55.703125-47zm-237.371094-36.375c.003906-1.449219 1.175781-2.617188 2.621094-2.625h135.753906c1.445312.007812 2.617188 1.175781 2.621094 2.625v36.5h-140.996094zm193.75 526.125h-246.753906c-20.683594-.058594-37.4375-16.816406-37.5-37.5v-339.375h321.875v339.375c-.117188 20.707031-16.914063 37.453125-37.621094 37.5zm43.621094-401.875h-333.996094c-17.332031 0-31.378906-14.046875-31.378906-31.375s14.046875-31.375 31.378906-31.375h333.996094c17.332031 0 31.378906 14.046875 31.378906 31.375s-14.046875 31.375-31.378906 31.375zm0 0"/></svg>