<svg height="573pt" viewBox="-18 -30 573.33098 573" width="573pt" xmlns="http://www.w3.org/2000/svg"><path d="m525.003906 434.160156h-332.039062c-4.871094-25.996094-24.652344-46.648437-50.417969-52.632812v-318.398438c0-35.183594-29.164063-63.808594-64.351563-63.808594h-65.699218c-6.902344 0-12.496094 5.59375-12.496094 12.496094 0 6.898438 5.59375 12.492188 12.496094 12.492188h65.699218c21.40625 0 39.359376 17.417968 39.359376 38.820312v317.925782c-32.769532 5.433593-56.347657 34.449218-54.957032 67.640624 1.398438 33.191407 27.332032 60.128907 60.441406 62.789063 33.113282 2.660156 63.011719-19.792969 69.6875-52.332031h332.277344c6.898438 0 12.492188-5.59375 12.492188-12.496094s-5.59375-12.496094-12.492188-12.496094zm-396.730468 52.480469c-22.527344 0-40.785157-18.261719-40.785157-40.785156-.003906-22.527344 18.257813-40.792969 40.785157-40.792969 22.527343 0 40.789062 18.261719 40.789062 40.789062-.023438 22.519532-18.273438 40.765626-40.789062 40.789063zm0 0"/><path d="m220.769531 412.917969h282.238281c13.960938 0 25.644532-10.996094 25.644532-24.96875v-214.972657c-.058594-2.398437-.792969-4.726562-2.121094-6.714843l-56.019531-87.757813c-4.667969-7.316406-12.753907-11.734375-21.433594-11.710937h-174.378906c-8.65625-.019531-16.71875 4.398437-21.355469 11.710937l-56.152344 87.757813c-1.335937 1.984375-2.085937 4.3125-2.164062 6.714843v214.972657c0 13.972656 11.78125 24.96875 25.742187 24.96875zm171.683594-24.992188h-61.226563v-112.550781l61.226563 25.597656zm110.554687 0h-85.5625v-95.265625c-.011718-5.039062-3.035156-9.578125-7.683593-11.523437l-86.046875-36.074219c-3.875-1.617188-8.304688-1.203125-11.808594 1.109375-3.507812 2.308594-5.632812 6.214844-5.671875 10.417969v131.335937h-85.464844c-.1875 0-.753906.210938-.753906.023438v-202.449219h283.648437v202.449219c0 .1875-.476562-.023438-.65625-.023438zm-53.652343-295.96875 43.695312 68.554688h-118.089843v-68.726563h74.117187c.113281.003906.21875.070313.277344.171875zm-174.933594 0c.0625-.101562.164063-.167969.28125-.171875h75.265625v68.726563h-119.242188zm0 0"/></svg>