<svg height="533pt" viewBox="-16 -45 533.33331 533" width="533pt" xmlns="http://www.w3.org/2000/svg"><path d="m487.5 415.28125h-475c-6.90625 0-12.5 5.59375-12.5 12.5 0 6.902344 5.59375 12.5 12.5 12.5h475c6.90625 0 12.5-5.597656 12.5-12.5 0-6.90625-5.59375-12.5-12.5-12.5zm0 0"/><path d="m154.902344 109.78125 82.597656-71.707031v287.300781c0 6.902344 5.59375 12.5 12.5 12.5s12.5-5.597656 12.5-12.5v-287.300781l82.597656 71.707031c3.320313 3.027344 8.007813 4.039062 12.28125 2.652344 4.277344-1.386719 7.472656-4.960938 8.382813-9.359375.910156-4.398438-.613281-8.949219-3.988281-11.917969-.097657-.085938-.191407-.167969-.289063-.25l-103.289063-89.679688c-.039062-.03125-.085937-.0625-.125-.097656-.140624-.125-.292968-.234375-.4375-.34375-.152343-.113281-.328124-.25-.503906-.378906-.171875-.125-.300781-.199219-.457031-.296875-.179687-.11328125-.351563-.222656-.535156-.328125-.160157-.085938-.320313-.167969-.488281-.253906-.160157-.085938-.367188-.183594-.550782-.265625-.179687-.085938-.339844-.148438-.519531-.222657-.171875-.066406-.375-.140624-.5625-.203124-.191406-.0625-.359375-.121094-.542969-.171876-.183594-.046874-.394531-.105468-.597656-.15625-.179688-.039062-.355469-.082031-.535156-.117187-.230469-.042969-.460938-.074219-.695313-.105469-.15625-.019531-.308593-.046875-.464843-.058594-.375-.039062-.753907-.058593-1.136719-.058593h-.089844c-.378906 0-.757813.019531-1.140625.058593-.15625.011719-.304688.039063-.460938.058594-.234374.03125-.464843.0625-.695312.105469-.179688.035156-.355469.078125-.539062.117187-.199219.050782-.398438.097657-.59375.15625-.199219.058594-.359376.113282-.542969.171876-.179688.0625-.375.132812-.566407.203124-.1875.078126-.34375.144532-.523437.222657-.167969.078125-.367187.175781-.546875.265625-.171875.089844-.324219.167968-.484375.253906-.183594.105469-.359375.21484375-.535156.328125-.15625.097656-.3125.195313-.464844.296875-.144531.109375-.328125.25-.496094.378906-.167969.121094-.296875.222656-.441406.34375-.039063.035156-.082031.066406-.121094.097656l-103.285156 89.679688c-5.28125 4.449219-5.957031 12.339844-1.507813 17.617188 4.445313 5.28125 12.335938 5.957031 17.617188 1.507812.09375-.082031.183594-.164062.277344-.25zm0 0"/></svg>