<svg height="586pt" viewBox="-95 -18 586 586.66647" width="586pt" xmlns="http://www.w3.org/2000/svg"><path d="m328.660156.00390625h-194.496094c-.421874-.01953125-.84375.01953125-1.25.12890575-.25 0-.625.121094-.875.121094h-.375c-.375.125-.753906.125-1 .25h-.128906c-.335937.105469-.671875.226563-.996094.375h-.125c-.359374.117188-.695312.28125-1.003906.503906-.066406 0-.121094.050782-.121094.121094-.277343.195313-.570312.359375-.878906.503906-.121094 0-.121094.121094-.25.121094-.246094.125-.496094.375-.746094.503906l-.253906.246094c-.25.25-.625.5-.875.75l-.121094.125-127.25 127.25c0 .121094-.125.121094-.125.25-.210937.21875-.375.472656-.5.75 0 .125-.125.125-.125.25-.191406.273438-.363281.566406-.5.875 0 .066406-.058593.125-.125.125-.191406.320313-.355468.65625-.5.996094v.128906c-.105468.339844-.226562.671875-.375 1v.121094c-.125.324219-.210937.660156-.25 1.003906v.375c0 .25-.125.625-.125.875 0 .375-.121093.871094-.121093 1.25v348.496094c.007812 34.511719 27.980469 62.484375 62.496093 62.5h270.996094c34.515625-.015625 62.488282-27.988281 62.5-62.5v-424.996094c-.011718-34.511718-27.984375-62.4843748-62.5-62.49999975zm-206.996094 42.62890575v46.25c-.0625 20.679688-16.816406 37.433594-37.5 37.496094h-46.25zm244.496094 444.867188c-.058594 20.683594-16.8125 37.441406-37.5 37.5h-270.996094c-20.6875-.058594-37.441406-16.816406-37.5-37.5v-336.121094h63.875c34.507813-.011718 62.488282-27.988281 62.496094-62.496094v-63.878906h182c20.683594.058594 37.4375 16.816406 37.5 37.5v424.996094zm0 0"/><path d="m280.910156 268.878906-79.75-66.875c-.121094-.125-.25-.253906-.371094-.253906-.125-.121094-.375-.246094-.503906-.371094-.121094-.125-.246094-.125-.375-.253906-.121094-.121094-.371094-.246094-.496094-.371094-.128906-.125-.378906-.125-.5-.253906-.125-.121094-.375-.121094-.503906-.246094-.121094-.125-.375-.125-.496094-.25-.25-.128906-.375-.128906-.625-.25-.128906 0-.375-.125-.503906-.125-.25 0-.371094-.125-.625-.125-.121094 0-.371094-.125-.496094-.125-.25 0-.5-.128906-.753906-.128906h-.371094c-.789062-.121094-1.589843-.121094-2.378906 0h-.375c-.25 0-.496094.128906-.746094.128906-.128906 0-.375.125-.503906.125-.25 0-.371094.125-.625.125-.121094 0-.371094.125-.496094.125-.25.121094-.378906.121094-.625.25-.128906.125-.378906.125-.5.25-.253906.125-.375.125-.503906.246094-.121094.128906-.375.128906-.496094.253906-.191406.09375-.363281.222656-.503906.371094-.121094.128906-.25.128906-.371094.253906-.191406.09375-.359374.222656-.503906.371094-.121094.128906-.246094.128906-.375.253906l-79.746094 66.875c-5.28125 4.453125-5.957031 12.34375-1.503906 17.621094 4.453125 5.285156 12.34375 5.953125 17.628906 1.5l59.246094-49.625v182.75c0 6.902344 5.597656 12.5 12.5 12.5 6.90625 0 12.5-5.597656 12.5-12.5v-182.75l59.253906 49.625c5.320313 4.398438 13.191407 3.671875 17.621094-1.621094 4-5.488281 3.070313-13.132812-2.125-17.5zm0 0"/></svg>