<svg height="646pt" viewBox="-65 -20 646 646.6644" width="646pt" xmlns="http://www.w3.org/2000/svg"><path d="m452.414062 95.699219h-43.042968v-44.914063c-.074219-28.015625-22.765625-50.7109372-50.785156-50.78124975h-149.097657c-.417969-.01953125-.835937.01953125-1.246093.12890575-.25 0-.625.121094-.875.121094h-.246094c-.375.125-.75.125-1.121094.246094h-.128906c-.339844.109375-.671875.230469-.996094.378906h-.125c-.355469.117188-.695312.28125-.996094.5-.070312 0-.128906.054688-.128906.121094-.246094.128906-.621094.375-.871094.503906-.128906 0-.128906.121094-.25.121094-.246094.125-.5.375-.75.5l-.25.25c-.246094.25-.621094.496094-.871094.746094l-92.078124 92.078125h-51.402344c-33.074219.011719-59.886719 26.816406-59.890625 59.890625v289.335937c.003906 33.070313 26.816406 59.878907 59.890625 59.890625h185.152344v76.476563h-85.339844c-6.890625 0-12.476563 5.589843-12.476563 12.476562 0 6.894531 5.585938 12.476563 12.476563 12.476563h201.371094c6.894531 0 12.476562-5.582032 12.476562-12.476563 0-6.886719-5.582031-12.476562-12.476562-12.476562h-91.078126v-76.605469h185.15625c33.070313-.007812 59.878907-26.8125 59.890626-59.886719v-289.332031c-.109376-33.015625-26.878907-59.730469-59.890626-59.769531zm0 24.953125c19.273438.058594 34.878907 15.664062 34.9375 34.9375v234.9375h-77.859374v-269.875zm-67.996093-69.988282v339.863282h-259.269531v-268.746094h46.039062c28.019531-.070312 50.710938-22.765625 50.777344-50.785156v-46.164063h136.621094c14.253906.027344 25.800781 11.574219 25.832031 25.832031zm-241.679688 46.164063 54.273438-54.277344v28.445313c-.023438 14.253906-11.574219 25.800781-25.824219 25.832031zm-85.585937 23.824219h43.042968v269.875h-77.980468v-235.058594c.070312-19.25 15.691406-34.816406 34.9375-34.816406zm395.261718 359.082031h-395.261718c-19.292969-.011719-34.925782-15.644531-34.9375-34.933594v-29.320312h465.007812v29.320312c.019532 9.25-3.636718 18.128907-10.160156 24.683594-6.53125 6.550781-15.398438 10.242187-24.648438 10.25zm0 0"/><path d="m261.890625 192.644531c-.121094-.121093-.246094-.121093-.371094-.25-.125-.121093-.375-.246093-.5-.375-.121093-.121093-.375-.121093-.496093-.25-.128907-.121093-.375-.121093-.503907-.246093-.121093-.128907-.371093-.128907-.496093-.25-.25-.125-.375-.125-.625-.246094-.125 0-.375-.128906-.496094-.128906-.253906 0-.375-.125-.625-.125-.125 0-.375-.121094-.5-.121094-.25 0-.5-.128906-.746094-.128906h-.375c-.785156-.121094-1.589844-.121094-2.375 0h-.371094c-.253906 0-.5.128906-.75.128906-.125 0-.375.121094-.496094.121094-.253906 0-.375.125-.625.125-.125 0-.375.128906-.5.128906-.25.121094-.375.121094-.625.246094-.121093.121093-.375.121093-.496093.25-.25.125-.375.125-.503907.246093-.121093.128907-.371093.128907-.496093.25-.191407.097657-.355469.226563-.496094.375-.128906.128907-.253906.128907-.375.25-.128906.125-.378906.253907-.503906.375-.121094.125-.25.25-.371094.25l-61.136719 51.28125c-5.273437 4.441407-5.945312 12.320313-1.5 17.59375 4.445313 5.265625 12.320313 5.941407 17.59375 1.496094l40.675782-34.0625v106.050781c0 6.890625 5.585937 12.476563 12.476562 12.476563 6.886719 0 12.476562-5.585938 12.476562-12.476563v-106.050781l40.671876 34.0625c5.3125 4.386719 13.175781 3.664063 17.59375-1.625 4.382812-5.289063 3.71875-13.121094-1.496094-17.59375l-61.136719-51.277344c-.125-.125-.25-.246093-.375-.246093-.871094 0-.996094-.128907-1.125-.253907zm0 0"/></svg>