<svg height="560pt" viewBox="-17 -55 560 560" width="560pt" xmlns="http://www.w3.org/2000/svg"><path d="m512.5 215.21875c-6.894531.019531-12.480469 5.605469-12.5 12.5v157.75c-.058594 20.683594-16.816406 37.441406-37.5 37.5h-400c-20.683594-.058594-37.441406-16.816406-37.5-37.5v-157.75c0-6.90625-5.59375-12.5-12.5-12.5s-12.5 5.59375-12.5 12.5v157.75c.015625 34.511719 27.988281 62.484375 62.5 62.5h400c34.511719-.015625 62.484375-27.988281 62.5-62.5v-157.75c-.019531-6.894531-5.605469-12.480469-12.5-12.5zm0 0"/><path d="m187.25 87.71875 59-50.503906v308.003906c0 6.902344 5.59375 12.5 12.5 12.5s12.5-5.597656 12.5-12.5v-308.003906l58.875 50.503906c5.246094 4.488281 13.136719 3.871094 17.625-1.378906 4.484375-5.242188 3.871094-13.132813-1.375-17.621094l-79.5-68.125c-.070312 0-.125-.058594-.125-.125l-.375-.3789062c-.125-.1210938-.375-.2460938-.5-.3749998-.117188-.152344-.304688-.242188-.5-.25-.125-.121094-.375-.246094-.5-.375-.125-.121094-.25-.121094-.5-.25-.25-.121094-.375-.246094-.625-.246094-.125-.128906-.375-.128906-.5-.25-.25-.128906-.375-.128906-.625-.25-.125 0-.375-.125-.5-.125-.25 0-.375-.128906-.625-.128906-.125 0-.375-.121094-.5-.121094-.25 0-.5-.128906-.75-.128906h-.375c-.789062-.121094-1.589844-.121094-2.375 0h-.375c-.25 0-.5.128906-.75.128906-.125 0-.375.121094-.5.121094-.25 0-.375.128906-.625.128906-.125 0-.375.125-.5.125-.25.121094-.375.121094-.625.25-.125.121094-.375.121094-.5.25-.25.125-.375.125-.625.246094-.125.128906-.375.128906-.5.25-.125.128906-.375.253906-.5.375-.125.128906-.25.128906-.5.25-.125.128906-.375.253906-.5.3749998l-.375.3789062c-.070312 0-.125.050781-.125.125l-79.5 68.125c-5.25 4.488281-5.863281 12.378906-1.375 17.621094 4.484375 5.25 12.375 5.867187 17.625 1.378906zm0 0"/></svg>