<svg height="533pt" viewBox="-144 -16 533 533.33331" width="533pt" xmlns="http://www.w3.org/2000/svg"><path d="m223.582031 93.75h-16.914062v-60.679688c0-18.234374-15.230469-33.070312-33.46875-33.070312h-118.066407c-18.238281 0-33.464843 14.835938-33.464843 33.070312v60.679688h-16.914063c-7.121094.199219-12.859375 5.90625-13.085937 13.027344v188.832031c0 34.464844 28.621093 61.890625 63.085937 61.890625h24.414063v130c-.175781 6.726562 5.128906 12.324219 11.859375 12.5h46.015625c6.722656-.03125 12.152343-5.507812 12.125-12.234375 0-.089844 0-.179687 0-.265625v-130h24.414062c34.460938 0 63.085938-27.425781 63.085938-61.890625v-188.832031c-.230469-7.121094-5.96875-12.828125-13.085938-13.027344zm-176.914062-60.679688c.1875-4.523437 3.929687-8.09375 8.464843-8.070312h118.066407c4.535156-.023438 8.277343 3.546875 8.46875 8.070312v60.679688h-135zm77.5 441.929688h-20v-117.5h20zm87.5-179.390625c0 20.679687-17.410157 36.890625-38.085938 36.890625h-118.828125c-20.679687 0-38.085937-16.210938-38.085937-36.890625v-176.859375h195zm0 0"/></svg>