<svg height="533pt" viewBox="-143 -17 533 533.33337" width="533pt" xmlns="http://www.w3.org/2000/svg"><path d="m226.527344 120.003906h-21.03125v-107.972656c.09375-6.542969-5.128906-11.929688-11.671875-12.02734375-.175781 0-.359375 0-.535157 0h-155.585937c-6.550781-.19531225-12.011719 4.95703175-12.203125 11.49999975v108.5h-21.035156c-7.027344.1875-12.652344 5.902344-12.714844 12.933594v247.089844c0 65.890625 53.824219 119.972656 119.714844 119.972656h8.0625c65.890625 0 119.71875-54.082031 119.71875-119.972656v-247.089844c-.066406-7.03125-5.6875-12.746094-12.71875-12.933594zm-176.027344-95h129.996094v95h-129.996094zm163.746094 355.023438c0 52.105468-42.609375 94.972656-94.71875 94.972656h-8.0625c-52.109375 0-94.714844-42.867188-94.714844-94.972656v-235.023438h197.496094zm0 0"/><path d="m88 43.453125c-6.90625 0-12.5 5.601563-12.5 12.5v32.285156c0 6.902344 5.59375 12.5 12.5 12.5 6.898438 0 12.5-5.597656 12.5-12.5v-32.285156c0-6.898437-5.601562-12.5-12.5-12.5zm0 0"/><path d="m142.996094 43.453125c-6.902344 0-12.496094 5.601563-12.496094 12.5v32.285156c0 6.902344 5.59375 12.5 12.496094 12.5s12.5-5.597656 12.5-12.5v-32.285156c0-6.898437-5.597656-12.5-12.5-12.5zm0 0"/></svg>