<svg height="618pt" viewBox="-19 -23 618.68191 618" width="618pt" xmlns="http://www.w3.org/2000/svg"><path d="m442.589844 296.5c-37.789063-.132812-73.9375 15.429688-99.808594 42.976562-37.210938-29.6875-83.441406-45.777343-131.042969-45.597656h-.375c-57.210937.121094-110.300781 22.359375-149.648437 62.832032-39.976563 40.851562-61.835938 96.6875-61.714844 157.273437.0234375 3.316406 1.324219 6.488281 3.625 8.867187 2.347656 2.351563 5.542969 3.660157 8.867188 3.625l327.914062-.625c.75.875 1.496094 1.625 2.25 2.5 43.050781 45.5625 111.484375 56.21875 166.355469 25.910157 54.871093-30.3125 82.285156-93.90625 66.640625-154.609375-15.644532-60.703125-70.375-103.132813-133.0625-103.152344zm-417.230469 204.867188c2.625-49.09375 21.613281-93.9375 54.214844-127.289063 34.605469-35.601563 81.449219-55.214844 131.789062-55.214844h.375c42.015625-.164062 82.828125 14.023438 115.675781 40.222657-27.675781 42.746093-29.5 97.28125-4.746093 141.785156zm417.230469 44.972656c-62.09375 0-112.425782-50.335938-112.425782-112.429688 0-62.085937 50.332032-112.425781 112.425782-112.425781s112.425781 50.339844 112.425781 112.425781c0 62.09375-50.332031 112.429688-112.425781 112.429688zm0 0"/><path d="m211.488281 264.148438c72.921875 0 132.039063-59.117188 132.039063-132.039063 0-72.925781-59.117188-132.0429688-132.039063-132.0429688s-132.039062 59.1171878-132.039062 132.0429688c.070312 72.890625 59.144531 131.96875 132.039062 132.039063zm0-239.097657c59.128907 0 107.054688 47.933594 107.054688 107.058594 0 59.121094-47.925781 107.054687-107.054688 107.054687-59.125 0-107.054687-47.933593-107.054687-107.054687.070312-59.097656 47.957031-106.984375 107.054687-107.058594zm0 0"/><path d="m484.6875 395.8125-60.339844 49.09375-22.109375-25.859375c-4.484375-5.246094-12.367187-5.859375-17.609375-1.375-5.246094 4.484375-5.859375 12.371094-1.375 17.617187l29.980469 35.097657c2.378906 2.765625 5.84375 4.363281 9.496094 4.371093 2.859375.03125 5.640625-.945312 7.863281-2.746093l69.835938-56.839844c5.273437-4.359375 6.042968-12.164063 1.726562-17.476563-4.324219-5.316406-12.117188-6.152343-17.46875-1.882812zm0 0"/></svg>