<svg height="605pt" viewBox="-19 -19 605.33433 605" width="605pt" xmlns="http://www.w3.org/2000/svg"><path d="m211.488281 264.21875c72.917969 0 132.035157-59.113281 132.035157-132.035156 0-72.925782-59.117188-132.042969-132.035157-132.042969-72.921875 0-132.039062 59.117187-132.039062 132.042969.070312 72.890625 59.140625 131.96875 132.039062 132.035156zm0-239.09375c59.125 0 107.050781 47.933594 107.050781 107.058594 0 59.121094-47.925781 107.054687-107.050781 107.054687-59.128906 0-107.054687-47.933593-107.054687-107.054687.066406-59.097656 47.957031-106.984375 107.054687-107.058594zm0 0"/><path d="m567.5 436.726562c.042969-50.667968-30.554688-96.335937-77.4375-115.570312-46.878906-19.234375-100.734375-8.21875-136.296875 27.882812-38.597656-35.601562-89.0625-55.085937-142.527344-55.085937-57.214843.121094-110.304687 22.355469-149.652343 62.828125-39.847657 40.851562-61.707032 96.6875-61.585938 157.273438.0195312 6.890624 5.601562 12.472656 12.492188 12.492187l341.023437-.625v-1.625c33.535156 34.28125 83.757813 46.277344 129.167969 30.855469l62.082031 10.867187c.703125.101563 1.410156.144531 2.125.125 4.175781-.023437 8.070313-2.132812 10.371094-5.617187 2.308593-3.484375 2.730469-7.890625 1.121093-11.746094l-15.738281-37.101562c6.789063-8.933594 12.292969-18.773438 16.359375-29.230469 5.601563-14.589844 8.480469-30.085938 8.496094-45.722657zm-542.140625 64.710938c2.625-49.09375 21.734375-93.9375 54.210937-127.289062 34.609376-35.601563 81.453126-55.214844 131.789063-55.214844h.375c46.890625-.226563 92.082031 17.519531 126.292969 49.59375-26.167969 39.988281-27.1875 91.417968-2.625 132.410156zm510.289063-28.355469c-4.074219 10.320313-9.8125 19.898438-16.992188 28.355469-3.109375 3.585938-3.882812 8.636719-1.996094 12.992188l9.746094 22.855468-42.601562-7.492187c-.699219-.105469-1.414063-.144531-2.121094-.125-1.492188-.003907-2.972656.25-4.371094.75-40.945312 15.175781-87.003906 2-113.734375-32.527344-26.730469-34.53125-27.945313-82.414063-3-118.253906 24.945313-35.839844 70.269531-51.332031 111.933594-38.253907 41.660156 13.070313 70.011719 51.683594 70.003906 95.34375.039063 12.449219-2.285156 24.785157-6.867187 36.355469zm0 0"/><path d="m480.683594 408.996094h-76.199219c-6.898437 0-12.492187 5.59375-12.492187 12.492187 0 6.902344 5.59375 12.492188 12.492187 12.492188h76.199219c6.898437 0 12.492187-5.589844 12.492187-12.492188 0-6.898437-5.59375-12.492187-12.492187-12.492187zm0 0"/><path d="m440.710938 454.71875h-36.226563c-6.898437 0-12.492187 5.59375-12.492187 12.492188 0 6.898437 5.59375 12.492187 12.492187 12.492187h36.226563c6.898437 0 12.492187-5.59375 12.492187-12.492187 0-6.898438-5.59375-12.492188-12.492187-12.492188zm0 0"/></svg>