<svg height="618pt" viewBox="-19 -23 618.68191 618" width="618pt" xmlns="http://www.w3.org/2000/svg"><path d="m442.589844 296.5c-37.789063-.132812-73.9375 15.429688-99.808594 42.976562-37.339844-29.800781-83.769531-45.898437-131.539062-45.597656-57.214844.121094-110.304688 22.359375-149.65625 62.832032-39.847657 40.851562-61.707032 96.6875-61.585938 157.273437.0234375 3.316406 1.324219 6.488281 3.625 8.867187 2.347656 2.351563 5.542969 3.660157 8.867188 3.625l327.914062-.625c.75.875 1.496094 1.625 2.25 2.5 43.050781 45.5625 111.484375 56.21875 166.355469 25.910157 54.871093-30.3125 82.285156-93.90625 66.640625-154.609375-15.644532-60.703125-70.375-103.132813-133.0625-103.152344zm-417.230469 204.867188c2.625-49.09375 21.734375-93.9375 54.214844-127.289063 34.605469-35.601563 81.449219-55.214844 131.789062-55.214844h.375c42.015625-.164062 82.828125 14.023438 115.675781 40.222657-27.675781 42.746093-29.5 97.28125-4.746093 141.785156zm417.230469 44.972656c-62.09375 0-112.425782-50.335938-112.425782-112.429688 0-62.085937 50.332032-112.425781 112.425782-112.425781s112.425781 50.339844 112.425781 112.425781c0 62.09375-50.332031 112.429688-112.425781 112.429688zm0 0"/><path d="m472.945312 456.644531-28.980468-18.609375v-62.460937c0-6.898438-5.597656-12.492188-12.492188-12.492188-6.898437 0-12.492187 5.59375-12.492187 12.492188v69.203125c-.027344 4.261718 2.144531 8.226562 5.746093 10.496094l34.726563 22.238281c2 1.316406 4.347656 2.007812 6.746094 1.996093 5.511719.007813 10.371093-3.617187 11.933593-8.90625 1.558594-5.285156-.554687-10.96875-5.1875-13.957031zm0 0"/><path d="m211.488281 264.148438c72.921875 0 132.039063-59.117188 132.039063-132.039063 0-72.925781-59.117188-132.0429688-132.039063-132.0429688s-132.039062 59.1171878-132.039062 132.0429688c.070312 72.890625 59.144531 131.96875 132.039062 132.039063zm0-239.097657c59.128907 0 107.054688 47.933594 107.054688 107.058594 0 59.121094-47.925781 107.054687-107.054688 107.054687-59.125 0-107.054687-47.933593-107.054687-107.054687.070312-59.097656 47.957031-106.984375 107.054687-107.058594zm0 0"/></svg>