<svg height="606pt" viewBox="-19 -19 606 606.66669" width="606pt" xmlns="http://www.w3.org/2000/svg"><path d="m211.6875 263.957031c72.886719 0 131.976562-59.085937 131.976562-131.976562s-59.089843-131.980469-131.976562-131.980469c-72.890625 0-131.980469 59.089844-131.980469 131.980469.066407 72.863281 59.113281 131.910156 131.980469 131.976562zm0-238.984375c59.097656 0 107.003906 47.910156 107.003906 107.007813 0 59.097656-47.90625 107.003906-107.003906 107.003906-59.101562 0-107.007812-47.90625-107.007812-107.003906.066406-59.074219 47.933593-106.941407 107.007812-107.007813zm0 0"/><path d="m442.683594 443.761719c-6.886719.019531-12.46875 5.597656-12.488282 12.484375v56.316406c0 6.894531 5.589844 12.484375 12.488282 12.484375 6.894531 0 12.484375-5.589844 12.484375-12.484375v-56.316406c-.019531-6.886719-5.597657-12.464844-12.484375-12.484375zm0 0"/><path d="m485.382812 443.761719c-6.886718.019531-12.464843 5.597656-12.484374 12.484375v56.316406c0 6.894531 5.589843 12.484375 12.484374 12.484375 6.898438 0 12.488282-5.589844 12.488282-12.484375v-56.316406c-.019532-6.886719-5.601563-12.464844-12.488282-12.484375zm0 0"/><path d="m400.101562 443.761719c-6.886718.019531-12.464843 5.597656-12.484374 12.484375v56.316406c0 6.894531 5.589843 12.484375 12.484374 12.484375 6.898438 0 12.488282-5.589844 12.488282-12.484375v-56.316406c-.019532-6.886719-5.601563-12.464844-12.488282-12.484375zm0 0"/><path d="m531.710938 307.785156h-32.34375v-26.09375c-.003907-11.308594-9.167969-20.46875-20.476563-20.480468h-72.292969c-11.308594.011718-20.46875 9.171874-20.480468 20.480468v26.09375h-32.335938c-12.570312.015625-24.222656 6.597656-30.71875 17.355469-33.351562-20.714844-71.863281-31.621094-111.128906-31.464844h-.375c-57.183594.128907-110.25 22.355469-149.582032 62.808594-39.957031 40.828125-61.804687 96.640625-61.683593 157.199219.019531 6.890625 5.597656 12.464844 12.484375 12.484375l325.019531-.621094v4.121094c.035156 21.570312 17.511719 39.046875 39.082031 39.082031h131.605469c21.574219-.035156 39.046875-17.511719 39.082031-39.082031v-153.832031c14.933594-7.382813 22.820313-24.078126 19.042969-40.3125-3.785156-16.226563-18.238281-27.710938-34.898437-27.738282zm-120.742188-21.601562h63.425781v21.601562h-63.425781zm-57.1875 46.574218h177.929688c4.765624.007813 8.972656 3.113282 10.378906 7.671876 1.40625 4.558593-.324219 9.5-4.261719 12.179687-.894531-.242187-1.820313-.371094-2.746094-.371094-2.582031.035157-5.097656.816407-7.246093 2.246094h-170.308594c-2.132813-1.464844-4.660156-2.25-7.242188-2.246094-.933594-.007812-1.855468.117188-2.746094.371094-3.960937-2.695313-5.683593-7.671875-4.246093-12.242187 1.433593-4.570313 5.699219-7.65625 10.488281-7.609376zm-328.140625 168.316407c2.625-49.070313 21.722656-93.894531 54.1875-127.238281 34.589844-35.585938 81.414063-55.1875 131.730469-55.1875h.375c38.320312-.21875 75.738281 11.574218 107.007812 33.714843 2.613282 10.144531 9.492188 18.660157 18.855469 23.347657v124.738281zm482.84375 42.703125h-131.480469c-3.742187.003906-7.332031-1.484375-9.980468-4.125-2.648438-2.648438-4.132813-6.238282-4.125-9.984375v-150.085938h159.824218v150.085938c-.144531 7.785156-6.453125 14.042969-14.238281 14.109375zm0 0"/></svg>