<svg height="630pt" viewBox="-19 -32 630.66479 630" width="630pt" xmlns="http://www.w3.org/2000/svg"><path d="m212.390625 263.417969c72.886719 0 131.976563-59.089844 131.976563-131.984375 0-72.886719-59.089844-131.976563-131.976563-131.976563-72.890625 0-131.980469 59.089844-131.980469 131.976563.070313 72.863281 59.117188 131.910156 131.980469 131.984375zm0-238.988281c59.09375 0 107.007813 47.910156 107.007813 107.003906 0 59.101562-47.914063 107.011718-107.007813 107.011718-59.097656 0-107.007813-47.910156-107.007813-107.011718.070313-59.066406 47.9375-106.9375 107.007813-107.003906zm0 0"/><path d="m528.289062 289.011719c-2.335937-2.339844-5.5-3.652344-8.800781-3.652344-3.304687 0-6.472656 1.3125-8.804687 3.652344l-32.589844 32.585937-80.410156 80.414063c-37.550782-67.15625-108.476563-108.753907-185.417969-108.753907-116.996094 0-212.265625 95.269532-212.265625 212.261719.0195312 6.886719 5.597656 12.46875 12.484375 12.488281h309.785156l-10.242187 30.589844c-1.527344 4.46875-.367188 9.417969 3 12.734375 2.359375 2.332031 5.542968 3.632813 8.859375 3.625 1.359375-.023437 2.703125-.234375 4-.625l88.773437-29.59375c.128906 0 .128906 0 .25-.125.398438-.109375.777344-.28125 1.125-.5.09375-.011719.183594-.054687.25-.125.375-.246093.875-.5 1.25-.75.375-.246093.75-.625 1.121094-.871093.125-.128907.253906-.128907.253906-.25.121094-.125.371094-.25.496094-.503907l133.601562-133.222656 32.59375-32.585937c2.335938-2.339844 3.648438-5.503907 3.648438-8.804688 0-3.304688-1.3125-6.472656-3.648438-8.804688zm-115.375 216.132812-41.578124-41.578125 115.496093-115.496094 41.582031 41.578126zm-387.445312-12.238281c6.496094-97.511719 87.78125-174.804688 186.921875-174.804688 70.414063.101563 134.859375 39.582032 166.9375 102.265626l-34.460937 34.457031-.5.503906c-.125.121094-.125.25-.246094.25-.617188.785156-1.15625 1.617187-1.625 2.496094-.015625.09375-.058594.179687-.128906.246093-.121094.378907-.375.753907-.496094 1.128907 0 .121093 0 .121093-.125.25l-11.113282 33.335937h-305.164062zm333.757812-6.242188 30.589844 30.589844-45.949218 15.359375zm186.914063-114.746093-41.574219-41.578125 14.855469-14.855469 41.582031 41.578125zm0 0"/></svg>