<svg height="618pt" viewBox="-22 -19 618 618.66565" width="618pt" xmlns="http://www.w3.org/2000/svg"><path d="m211.683594 264.132812c72.9375 0 132.066406-59.125 132.066406-132.066406 0-72.9375-59.128906-132.066406-132.066406-132.066406-72.941406 0-132.070313 59.128906-132.070313 132.066406.066407 72.914063 59.160157 132 132.070313 132.066406zm0-239.144531c59.136718 0 107.078125 47.945313 107.078125 107.078125 0 59.140625-47.941407 107.078125-107.078125 107.078125-59.136719 0-107.082032-47.9375-107.082032-107.078125.070313-59.109375 47.972657-107.007812 107.082032-107.078125zm0 0"/><path d="m511.554688 308.367188h-1.503907v-6.621094c0-6.902344-5.589843-12.496094-12.492187-12.496094s-12.496094 5.59375-12.496094 12.496094v6.621094h-84.585938v-6.621094c0-6.902344-5.59375-12.496094-12.496093-12.496094-6.902344 0-12.496094 5.59375-12.496094 12.496094v6.621094h-1.496094c-17.488281-.007813-34.175781 7.335937-45.980469 20.242187-34.433593-22.84375-74.882812-34.933594-116.199218-34.738281h-.378906c-57.21875.128906-110.320313 22.371094-149.679688 62.851562-39.859375 40.855469-61.7265625 96.703125-61.601562 157.304688.027343 3.3125 1.324218 6.492187 3.625 8.871094 2.351562 2.355468 5.546874 3.65625 8.871093 3.621093l299.621094-.625c4.207031 30.957031 30.613281 54.050781 61.847656 54.105469h137.441407c34.496093-.011719 62.460937-27.976562 62.472656-62.472656v-146.6875c-.011719-34.496094-27.976563-62.460938-62.472656-62.472656zm-137.441407 24.988281h1.5v15.371093c0 6.898438 5.59375 12.496094 12.496094 12.496094 6.898437 0 12.492187-5.597656 12.492187-12.496094v-15.371093h84.589844v15.371093c0 6.898438 5.59375 12.496094 12.492188 12.496094 6.902344 0 12.496094-5.597656 12.496094-12.496094v-15.371093h1.496093c20.679688.058593 37.425781 16.804687 37.484375 37.484375v14.617187h-212.40625v-14.617187c-.042968-20.667969 16.6875-37.457032 37.359375-37.484375zm-294.5 40.730469c34.613281-35.609376 81.46875-55.222657 131.816407-55.222657h.378906c36.796875-.195312 72.804687 10.6875 103.328125 31.234375-2.363281 6.707032-3.585938 13.757813-3.621094 20.867188v129.941406l-286.253906.625c2.875-49.226562 21.863281-94.078125 54.351562-127.445312zm431.941407 180.800781h-137.441407c-20.679687-.0625-37.421875-16.808594-37.480469-37.484375v-106.953125h212.40625v106.953125c.011719 9.945312-3.933593 19.484375-10.964843 26.519531-7.035157 7.03125-16.578125 10.976563-26.519531 10.964844zm0 0"/><path d="m511.300781 442.4375h-136.9375c-6.902343 0-12.496093 5.59375-12.496093 12.492188 0 6.898437 5.59375 12.496093 12.496093 12.496093h136.9375c6.902344 0 12.496094-5.597656 12.496094-12.496093 0-6.898438-5.59375-12.492188-12.496094-12.492188zm0 0"/><path d="m453.578125 500.535156h-79.214844c-6.902343 0-12.496093 5.59375-12.496093 12.496094 0 6.894531 5.59375 12.496094 12.496093 12.496094h79.214844c6.902344 0 12.492187-5.601563 12.492187-12.496094 0-6.902344-5.589843-12.496094-12.492187-12.496094zm0 0"/></svg>