<svg height="612pt" viewBox="-35 -19 612 612.00088" width="612pt" xmlns="http://www.w3.org/2000/svg"><path d="m210.464844 264.074219c72.917968 0 132.035156-59.109375 132.035156-132.035157 0-72.921874-59.117188-132.039062-132.035156-132.039062-72.925782 0-132.042969 59.117188-132.042969 132.039062.066406 72.894532 59.144531 131.96875 132.042969 132.035157zm0-239.089844c59.121094 0 107.050781 47.929687 107.050781 107.054687s-47.929687 107.050782-107.050781 107.050782c-59.128906 0-107.058594-47.925782-107.058594-107.050782.066406-59.097656 47.960938-106.988281 107.058594-107.054687zm0 0"/><path d="m529.003906 281.5625h-224.851562c-6.894532.019531-12.472656 5.601562-12.492188 12.492188v15.742187c-25.675781-10.578125-53.183594-16.011719-80.949218-15.992187h-.375c-57.210938.128906-110.304688 22.363281-149.652344 62.835937-39.972656 40.847656-61.835938 96.683594-61.707032 157.269531.019532 6.894532 5.601563 12.472656 12.492188 12.492188l368.003906-.625v35.480468c-.007812 4.3125 2.210938 8.328126 5.875 10.617188 1.980469 1.238281 4.28125 1.890625 6.617188 1.875 1.960937.035156 3.898437-.441406 5.621094-1.375l49.222656-24.609375c4.199218-2.113281 6.855468-6.414063 6.871094-11.117187v-81.324219l83.445312-71.578125c2.757812-2.386719 4.351562-5.84375 4.371094-9.488282v-80.203124c.007812-3.3125-1.304688-6.5-3.648438-8.839844-2.34375-2.347656-5.53125-3.660156-8.84375-3.652344zm-12.492187 24.984375v13.117187h-199.867188v-13.117187zm-492.175781 194.75c2.621093-49.09375 21.605468-93.9375 54.210937-127.292969 34.601563-35.601562 81.445313-55.214844 131.789063-55.214844h.375c28.019531-.035156 55.6875 6.242188 80.949218 18.363282v37.105468c.015625 3.644532 1.609375 7.101563 4.371094 9.488282l83.441406 71.578125v45.46875zm408.730468-61.210937c-2.761718 2.386718-4.359375 5.847656-4.371094 9.492187v79.324219l-24.238281 12.121094v-91.445313c-.015625-3.644531-1.609375-7.105469-4.371093-9.492187l-83.441407-71.578126v-23.984374h199.867188v23.984374zm0 0"/></svg>