<svg height="624pt" viewBox="-20 -23 624.00091 624" width="624pt" xmlns="http://www.w3.org/2000/svg"><path d="m211.488281 263.890625c72.921875 0 132.039063-59.117187 132.039063-132.042969 0-72.921875-59.117188-132.039062-132.039063-132.039062s-132.039062 59.117187-132.039062 132.039062c.070312 72.894532 59.140625 131.96875 132.039062 132.042969zm0-239.097656c59.125 0 107.054688 47.933593 107.054688 107.054687 0 59.125-47.929688 107.058594-107.054688 107.058594s-107.054687-47.933594-107.054687-107.058594c.070312-59.09375 47.957031-106.988281 107.054687-107.054687zm0 0"/><path d="m583.496094 347.585938c-2.179688-3.980469-6.339844-6.460938-10.867188-6.5h-81.449218v-31.105469c-.019532-6.890625-5.601563-12.472657-12.492188-12.492188h-127.289062c-6.890626.019531-12.472657 5.601563-12.492188 12.492188v26.105469c-36.660156-27.949219-81.570312-42.933594-127.667969-42.59375-57.210937.125-110.304687 22.359374-149.652343 62.835937-39.847657 40.96875-61.707032 96.8125-61.585938 157.398437.0195312 6.890626 5.601562 12.464844 12.492188 12.492188l326.414062-.625v40.34375c0 6.898438 5.589844 12.492188 12.492188 12.492188 6.898437 0 12.488281-5.59375 12.488281-12.492188v-135.90625h51.34375v28.226562c.019531 6.890626 5.597656 12.472657 12.492187 12.492188h144.78125c4.613282.035156 8.859375-2.523438 10.992188-6.621094 2.117187-4.089844 1.878906-8.996094-.625-12.863281l-29.355469-43.722656 29.605469-47.34375c2.367187-3.835938 2.507812-8.648438.375-12.613281zm-558.136719 153.519531c2.625-49.09375 21.734375-93.9375 54.214844-127.289063 34.605469-35.601562 81.449219-55.21875 131.789062-55.21875h.375c47.96875 0 93.0625 17.867188 127.167969 50.34375v131.667969zm338.527344-108.550781v-69.953126h102.1875v82.445313h-102.1875zm164.394531 22.230468 20.863281 30.980469h-108.808593v-15.734375h38.351562c6.890625-.027344 12.472656-5.601562 12.492188-12.492188v-51.34375h58.964843l-21.988281 35.105469c-2.714844 4.097657-2.660156 9.433594.125 13.484375zm0 0"/></svg>