<svg height="633pt" viewBox="-30 -20 633 633.3323" width="633pt" xmlns="http://www.w3.org/2000/svg"><path d="m210.757812 263.859375c72.859376 0 131.929688-59.0625 131.929688-131.929687 0-72.863282-59.070312-131.929688-131.929688-131.929688-72.867187 0-131.933593 59.066406-131.933593 131.929688.066406 72.835937 59.097656 131.859374 131.933593 131.929687zm0-238.894531c59.074219 0 106.964844 47.890625 106.964844 106.964844 0 59.078124-47.890625 106.964843-106.964844 106.964843-59.078124 0-106.972656-47.886719-106.972656-106.964843.070313-59.046876 47.921875-106.898438 106.972656-106.964844zm0 0"/><path d="m539.648438 433.359375v-31.078125c.011718-45.949219-30.074219-86.488281-74.066407-99.773438-43.988281-13.28125-91.488281 3.828126-116.902343 42.109376-38.164063-33.207032-87.09375-51.390626-137.675782-51.171876h-.375c-57.164062.121094-110.210937 22.339844-149.527344 62.777344-39.941406 40.941406-61.785156 96.734375-61.660156 157.269532.027344 3.308593 1.324219 6.484374 3.617188 8.863281 2.351562 2.351562 5.546875 3.652343 8.867187 3.617187l300.554688-.625c5.839843 4.253906 12.878906 6.523438 20.09375 6.496094h25.714843c6.882813-.019531 12.460938-5.597656 12.480469-12.480469v-73.394531c-.019531-6.882812-5.597656-12.460938-12.480469-12.480469h-2.246093v-30.957031c0-43.773438 35.484375-79.257812 79.257812-79.257812 43.773438 0 79.257813 35.484374 79.257813 79.257812v30.957031h-2.25c-6.882813.019531-12.460938 5.597657-12.480469 12.480469v73.394531c.019531 6.882813 5.597656 12.460938 12.480469 12.480469h2.25v6.609375c-.039063 7.777344-6.328125 14.074219-14.105469 14.105469h-10.234375c-4.339844-9.933594-14.121094-16.390625-24.964844-16.472656h-23.089844c-15.011718.03125-27.175781 12.199218-27.210937 27.210937v3.242187c.035156 15.015626 12.199219 27.175782 27.210937 27.210938h23.089844c10.878906.039062 20.722656-6.457031 24.964844-16.476562h10.234375c21.5625-.035157 39.035156-17.503907 39.066406-39.066407v-6.617187c18.457031-.804688 33.023438-15.972656 33.078125-34.445313v-29.332031c.003906-18.449219-14.519531-33.636719-32.949218-34.453125zm-460.824219-59.664063c34.578125-35.570312 81.382812-55.164062 131.679687-55.164062h.375c47.429688 0 92.117188 17.472656 126.0625 49.425781-3.863281 11.074219-5.84375 22.722657-5.863281 34.449219v31.082031c-18.460937.804688-33.023437 15.972657-33.078125 34.445313v29.332031c-.019531 1.042969.019531 2.085937.128906 3.121094l-273.601562.621093c2.871094-49.171874 21.84375-93.980468 54.296875-127.3125zm266.984375 133.058594h-13.105469c-5.242187 0-9.488281-4.246094-9.488281-9.488281v-29.332031c0-5.238282 4.246094-9.484375 9.488281-9.484375h13.226563v48.304687zm121.941406 59.785156c0 .597657-.234375 1.167969-.65625 1.59375-.417969.417969-.996094.65625-1.589844.652344h-23.089844c-.597656.003906-1.171874-.234375-1.589843-.652344-.425781-.425781-.660157-.996093-.660157-1.59375v-3.242187c0-.601563.234376-1.171875.660157-1.59375.417969-.421875.992187-.65625 1.589843-.65625h23.089844c.59375 0 1.171875.234375 1.589844.65625.421875.421875.65625.992187.65625 1.59375zm80.011719-69.273437c0 5.242187-4.253907 9.488281-9.488281 9.488281h-13.234376v-48.429687h13.234376c5.234374 0 9.488281 4.246093 9.488281 9.488281zm0 0"/></svg>