<svg height="612pt" viewBox="-19 -30 612.00022 612" width="612pt" xmlns="http://www.w3.org/2000/svg"><path d="m211.503906 263.402344c72.925782 0 132.042969-59.117188 132.042969-132.042969 0-72.933594-59.117187-132.046875-132.042969-132.046875-72.925781 0-132.046875 59.113281-132.046875 132.046875.066407 72.894531 59.144531 131.976563 132.046875 132.042969zm0-239.105469c59.128906 0 107.058594 47.929687 107.058594 107.0625 0 59.125-47.929688 107.058594-107.058594 107.058594-59.132812 0-107.0625-47.933594-107.0625-107.058594.066406-59.101563 47.960938-106.996094 107.0625-107.0625zm0 0"/><path d="m571.789062 380.835938c-8.121093-40.105469-37.351562-65.964844-74.453124-65.964844-17.617188 0-36.355469 6.125-54.59375 17.867187-18.488282-12.242187-37.105469-18.488281-55.21875-18.488281-18.785157-.230469-36.890626 7-50.34375 20.113281-36.296876-26.964843-80.335938-41.472656-125.550782-41.351562h-.375c-57.21875.125-110.3125 22.363281-149.664062 62.839843-39.847656 40.976563-61.710938 96.816407-61.589844 157.40625.0195312 6.890626 5.601562 12.472657 12.492188 12.492188l373.53125-.625c15.40625 10.230469 31.867187 18.773438 49.097656 25.484375.25.125.375.125.625.253906 2.207031.789063 4.527344 1.214844 6.871094 1.25 2.339843-.027343 4.667968-.445312 6.871093-1.25.246094-.128906.496094-.128906.75-.253906 98.941407-40.097656 132.421875-114.054687 121.550781-169.773437zm-546.425781 119.800781c2.625-49.089844 21.613281-93.941407 54.214844-127.296875 34.609375-35.605469 81.457031-55.21875 131.796875-55.21875h.375c39.871094-.128906 78.703125 12.671875 110.6875 36.480468-4.332031 8.3125-7.363281 17.25-8.992188 26.480469-7.125 36.980469 4.996094 81.707031 42.21875 119.183594zm417.253907 26.113281c-84.453126-34.105469-113.433594-95.320312-104.691407-141.042969 5.375-28.609375 24.488281-46.347656 49.597657-46.347656 14.742187 0 31.230468 6.496094 47.597656 18.613281 4.417968 3.226563 10.394531 3.273438 14.863281.125 16.367187-11.867187 32.734375-18.113281 47.472656-18.113281 25.113281 0 44.226563 17.613281 49.972657 45.847656 11.992187 62.464844-43.726563 115.558594-104.8125 140.917969zm0 0"/></svg>