<svg height="640pt" viewBox="-20 -55 640 640" width="640pt" xmlns="http://www.w3.org/2000/svg"><path d="m537.5-2.332031h-475c-34.511719.011719-62.484375 27.988281-62.5 62.5v405c.015625 34.511719 27.988281 62.484375 62.5 62.5h475c34.511719-.015625 62.484375-27.988281 62.5-62.5v-405c-.015625-34.511719-27.988281-62.488281-62.5-62.5zm-475 25h475c20.683594.058593 37.441406 16.816406 37.5 37.5v52.121093h-550v-52.121093c.058594-20.683594 16.816406-37.441407 37.5-37.5zm475 480h-475c-20.683594-.058594-37.441406-16.816407-37.5-37.5v-327.878907h550v327.878907c-.058594 20.683593-16.816406 37.441406-37.5 37.5zm0 0"/><path d="m179.25 320.167969c35.691406 0 64.625-28.9375 64.625-64.625 0-35.695313-28.933594-64.625-64.625-64.625s-64.625 28.929687-64.625 64.625c.046875 35.667969 28.953125 64.574219 64.625 64.625zm0-104.128907c21.882812 0 39.625 17.742188 39.625 39.625 0 21.886719-17.742188 39.628907-39.625 39.628907-21.886719 0-39.625-17.742188-39.625-39.628907.007812-21.878906 17.742188-39.613281 39.625-39.625zm0 0"/><path d="m179.25 344.042969c-26.441406-.195313-51.820312 10.414062-70.25 29.375-18.75 19.121093-29 45.121093-29 73.375.019531 6.894531 5.605469 12.480469 12.5 12.5h173.5c6.894531-.019531 12.480469-5.605469 12.5-12.5 0-28.253907-10.25-54.253907-29-73.375-18.429688-18.960938-43.804688-29.570313-70.25-29.375zm-73.375 90.25c2.140625-16.34375 9.507812-31.558594 21-43.375 13.832031-14 32.695312-21.875 52.375-21.875s38.542969 7.875 52.375 21.875c11.46875 11.832031 18.835938 27.035156 21 43.375zm0 0"/><path d="m506.75 349.042969h-158.125c-6.902344 0-12.5 5.597656-12.5 12.5 0 6.898437 5.597656 12.5 12.5 12.5h158.125c6.902344 0 12.5-5.601563 12.5-12.5 0-6.902344-5.597656-12.5-12.5-12.5zm0 0"/><path d="m506.75 421.792969h-158.125c-6.902344 0-12.5 5.59375-12.5 12.5 0 6.902343 5.597656 12.5 12.5 12.5h158.125c6.902344 0 12.5-5.597657 12.5-12.5 0-6.90625-5.597656-12.5-12.5-12.5zm0 0"/><path d="m506.75 203.539062h-158.125c-6.902344 0-12.5 5.597657-12.5 12.5 0 6.90625 5.597656 12.5 12.5 12.5h158.125c6.902344 0 12.5-5.59375 12.5-12.5 0-6.902343-5.597656-12.5-12.5-12.5zm0 0"/><path d="m506.75 276.289062h-158.125c-6.902344 0-12.5 5.601563-12.5 12.5 0 6.90625 5.597656 12.5 12.5 12.5h158.125c6.902344 0 12.5-5.59375 12.5-12.5 0-6.898437-5.597656-12.5-12.5-12.5zm0 0"/></svg>