<svg height="615pt" viewBox="-27 -19 615 615.99806" width="615pt" xmlns="http://www.w3.org/2000/svg"><path d="m211.140625 263.734375c72.832031 0 131.867187-59.035156 131.867187-131.867187 0-72.828126-59.035156-131.867188-131.867187-131.867188-72.828125 0-131.867187 59.039062-131.867187 131.867188.066406 72.800781 59.070312 131.796874 131.867187 131.867187zm0-238.78125c59.050781 0 106.914063 47.867187 106.914063 106.914063 0 59.050781-47.863282 106.914062-106.914063 106.914062s-106.917969-47.863281-106.917969-106.914062c.070313-59.019532 47.898438-106.847657 106.917969-106.914063zm0 0"/><path d="m441.941406 343.328125c-31.6875 0-57.511718 26.328125-57.511718 58.765625 0 32.433594 25.824218 58.757812 57.511718 58.757812 31.691406 0 57.511719-26.324218 57.511719-58.757812 0-32.4375-25.820313-58.765625-57.511719-58.765625zm0 92.449219c-17.964844 0-32.558594-15.097656-32.558594-33.8125 0-18.710938 14.59375-33.804688 32.558594-33.804688s32.5625 15.09375 32.5625 33.804688c0 18.714844-14.597656 33.8125-32.5625 33.8125zm0 0"/><path d="m524.527344 323.496094c-21.871094-21.964844-51.589844-34.308594-82.585938-34.308594s-60.71875 12.34375-82.589844 34.308594c-5.332031 5.421875-10.175781 11.308594-14.472656 17.585937-37.570312-30.976562-84.792968-47.835937-133.492187-47.65625h-.367188c-57.140625.128907-110.164062 22.335938-149.460937 62.753907-39.921875 40.796874-61.753906 96.5625-61.6328128 157.066406.0195313 6.886718 5.5937498 12.457031 12.4765628 12.476562l375.019531-.625 45.410156 48.410156c2.359375 2.527344 5.652344 3.96875 9.109375 3.988282 3.46875.039062 6.78125-1.417969 9.105469-3.988282l75.230469-80.222656c12.226562-13.097656 21.332031-27.445312 26.824218-42.664062 5.695313-15.378906 8.078126-31.789063 6.980469-48.152344-1.832031-29.78125-14.472656-57.863281-35.554687-78.972656zm-499.273438 177.152344c2.621094-49.027344 21.710938-93.816407 54.144532-127.128907 34.558593-35.554687 81.339843-55.140625 131.621093-55.140625h.367188c44.617187-.226562 87.773437 15.832032 121.390625 45.160156-5.09375 12.40625-8.167969 25.550782-9.109375 38.929688-1.070313 16.363281 1.308593 32.765625 6.988281 48.152344 5.941406 15.902344 15.070312 30.417968 26.824219 42.664062l6.363281 6.863282zm504.519532-58.632813c-4.367188 12.097656-11.730469 23.574219-21.585938 34.179687l-66.121094 70.488282-66.121094-70.488282c-9.464843-9.789062-16.8125-21.425781-21.582031-34.179687-4.558593-12.101563-6.46875-25.03125-5.617187-37.929687 1.59375-23.773438 11.6875-46.183594 28.445312-63.125 17.179688-17.25 40.527344-26.949219 64.875-26.949219s47.691406 9.699219 64.875 26.949219c16.777344 16.925781 26.875 39.34375 28.445313 63.125.726562 12.894531-1.183594 25.796874-5.613281 37.929687zm0 0"/></svg>