<svg height="623pt" viewBox="-33 -19 623 623.99896" width="623pt" xmlns="http://www.w3.org/2000/svg"><path d="m211.976562 264.136719c72.9375 0 132.066407-59.125 132.066407-132.070313 0-72.9375-59.128907-132.066406-132.066407-132.066406-72.945312 0-132.074218 59.128906-132.074218 132.066406.074218 72.914063 59.160156 132 132.074218 132.070313zm0-239.148438c59.132813 0 107.078126 47.945313 107.078126 107.078125 0 59.140625-47.945313 107.078125-107.078126 107.078125-59.140624 0-107.085937-47.9375-107.085937-107.078125.074219-59.109375 47.972656-107.007812 107.085937-107.078125zm0 0"/><path d="m543.085938 403.953125c-6.898438.019531-12.476563 5.601563-12.496094 12.496094 0 46.605469-39.238282 84.460937-87.464844 84.460937-48.230469 0-87.460938-37.855468-87.460938-84.460937 0-6.902344-5.597656-12.496094-12.496093-12.496094-6.898438 0-12.492188 5.59375-12.492188 12.496094.023438 29.191406 11.933594 57.113281 32.984375 77.339843h-338.734375c6.503907-97.582031 87.839844-174.925781 187.050781-174.925781 61.925782.019531 119.855469 30.597657 154.804688 81.71875 1.125 1.617188 2.25 3.371094 3.25 4.996094v5.121094c0 40.367187 32.726562 73.09375 73.09375 73.09375 40.371094 0 73.09375-32.726563 73.09375-73.09375v-79.71875c0-40.367188-32.722656-73.09375-73.09375-73.09375-40.367188 0-73.09375 32.726562-73.09375 73.09375v33.367187c-40.265625-44.921875-97.734375-70.589844-158.054688-70.597656-117.078124 0-212.410156 95.332031-212.410156 212.410156.019532 6.890625 5.597656 12.476563 12.496094 12.496094h391.082031c8.824219 3.257812 18.007813 5.441406 27.359375 6.496094v34.855468h-29.859375c-6.902343 0-12.496093 5.59375-12.496093 12.496094s5.59375 12.496094 12.496093 12.496094h84.835938c6.902343 0 12.496093-5.59375 12.496093-12.496094s-5.59375-12.496094-12.496093-12.496094h-29.859375v-34.855468c56.097656-6.125 99.957031-52.476563 99.957031-108.703125-.019531-6.894531-5.601563-12.476563-12.492187-12.496094zm-99.960938-121.074219c26.542969.058594 48.046875 21.5625 48.105469 48.101563v79.71875c0 26.570312-21.539063 48.105469-48.105469 48.105469-26.570312 0-48.101562-21.535157-48.101562-48.105469v-3.125c1.058593-2.773438 1.058593-5.847657 0-8.617188v-67.847656c0-26.585937 21.511718-48.160156 48.101562-48.230469zm0 0"/></svg>