<svg height="622pt" viewBox="-46 -19 622 622.66877" width="622pt" xmlns="http://www.w3.org/2000/svg"><path d="m210.074219 264.191406c72.953125 0 132.097656-59.136718 132.097656-132.09375 0-72.953125-59.144531-132.097656-132.097656-132.097656-72.957031 0-132.09375 59.144531-132.09375 132.097656.066406 72.925782 59.164062 132.027344 132.09375 132.09375zm0-239.195312c59.148437 0 107.101562 47.953125 107.101562 107.101562 0 59.152344-47.953125 107.097656-107.101562 107.097656-59.152344 0-107.101563-47.945312-107.101563-107.097656.070313-59.125 47.980469-107.035156 107.101563-107.101562zm0 0"/><path d="m512.007812 294.0625c-9.71875-8.101562-22.570312-11.40625-34.992187-8.996094l-108.101563 18.617188h-.25c-16.125 3.1875-29 15.335937-33.117187 31.246094-36.269531-26.847657-80.226563-41.265626-125.351563-41.117188h-.371093c-57.238281.125-110.351563 22.371094-149.71875 62.859375-39.867188 40.992187-61.738281 96.855469-61.613281 157.464844.027343 3.316406 1.324218 6.492187 3.625 8.875 2.351562 2.355469 5.550781 3.65625 8.875 3.625l255.320312-.625c-.800781 3.484375-1.21875 7.046875-1.25 10.621093 0 26.023438 21.09375 47.117188 47.113281 47.117188s47.113281-21.09375 47.113281-47.117188v-191.207031c-.019531-8.316406 5.84375-15.488281 13.996094-17.121093l108.101563-18.621094h.253906c5.128906-.964844 10.425781.359375 14.496094 3.625 4.015625 3.332031 6.351562 8.277344 6.375 13.496094v127.222656c-18.695313-9.941406-41.730469-6.199219-56.3125 9.160156-14.574219 15.359375-17.117188 38.554688-6.21875 56.710938 10.902343 18.152343 32.578125 26.800781 52.984375 21.148437 20.402344-5.652344 34.535156-24.230469 34.542968-45.402344v-168.839843c.023438-12.6875-5.667968-24.714844-15.5-32.742188zm-434.027343 80.105469c34.613281-35.617188 81.480469-55.238281 131.84375-55.238281h.371093c46.496094 0 90.234376 16.75 123.976563 47.367187v128.722656c-17.167969-9.121093-38.179687-6.742187-52.863281 5.996094l-257.695313.625c2.871094-49.238281 21.871094-94.101563 54.367188-127.472656zm234.195312 184.589843c-12.21875 0-22.117187-9.90625-22.117187-22.125 0-12.214843 9.898437-22.117187 22.117187-22.117187 12.214844 0 22.121094 9.902344 22.121094 22.117187.007813 5.875-2.316406 11.507813-6.46875 15.65625-4.148437 4.148438-9.785156 6.476563-15.652344 6.46875zm168.214844-40.992187c-12.21875 0-22.121094-9.90625-22.121094-22.121094 0-12.21875 9.902344-22.121093 22.121094-22.121093 12.214844 0 22.121094 9.902343 22.121094 22.121093.007812 5.871094-2.320313 11.503907-6.46875 15.652344-4.148438 4.148437-9.78125 6.476563-15.652344 6.46875zm0 0"/></svg>