<svg height="618pt" viewBox="-19 -26 618.6679 618" width="618pt" xmlns="http://www.w3.org/2000/svg"><path d="m533.261719 501.800781c43.015625-52.605469 36.085937-129.949219-15.605469-174.058593-51.6875-44.109376-129.160156-38.796876-174.34375 11.957031-37.3125-30.070313-83.832031-46.382813-131.753906-46.207031h-.375c-57.199219.125-110.273438 22.351562-149.613282 62.816406-39.835937 40.964844-61.691406 96.785156-61.570312 157.355468.0195312 6.886719 5.601562 12.46875 12.488281 12.488282l353.179688-.625c45.71875 31.730468 106.941406 29.28125 149.988281-5.996094l42.957031 42.960938c2.34375 2.359374 5.542969 3.667968 8.871094 3.625 3.3125-.015626 6.488281-1.3125 8.863281-3.625 2.335938-2.332032 3.652344-5.5 3.652344-8.800782 0-3.308594-1.316406-6.472656-3.652344-8.804687zm-453.832031-128.007812c34.59375-35.59375 81.425781-55.199219 131.753906-55.199219h.375c42.636718-.199219 84.015625 14.460938 117.019531 41.460938-25.949219 44.492187-21.882813 100.359374 10.238281 140.617187l-313.710937.503906c2.871093-49.207031 21.855469-94.039062 54.324219-127.382812zm257.265624 48.953125c0-55.179688 44.726563-99.90625 99.90625-99.90625 55.179688 0 99.910157 44.726562 99.910157 99.90625 0 55.179687-44.730469 99.910156-99.910157 99.910156-55.148437-.074219-99.835937-44.761719-99.90625-99.910156zm0 0"/><path d="m211.433594 263.894531c72.902344 0 132.003906-59.101562 132.003906-132.003906 0-72.90625-59.101562-132.007813-132.003906-132.007813s-132.003906 59.101563-132.003906 132.007813c.066406 72.871094 59.125 131.933594 132.003906 132.003906zm0-239.035156c59.109375 0 107.023437 47.921875 107.023437 107.03125 0 59.105469-47.914062 107.027344-107.023437 107.027344-59.113282 0-107.027344-47.921875-107.027344-107.027344.070312-59.082031 47.945312-106.957031 107.027344-107.03125zm0 0"/></svg>