<svg height="618pt" viewBox="-28 -19 618 618.66574" width="618pt" xmlns="http://www.w3.org/2000/svg"><path d="m211.265625 264.132812c72.9375 0 132.066406-59.125 132.066406-132.066406 0-72.9375-59.128906-132.066406-132.066406-132.066406s-132.066406 59.128906-132.066406 132.066406c.070312 72.914063 59.15625 131.996094 132.066406 132.066406zm0-239.144531c59.140625 0 107.078125 47.945313 107.078125 107.078125 0 59.140625-47.9375 107.078125-107.078125 107.078125-59.136719 0-107.074219-47.9375-107.074219-107.078125.066406-59.109375 47.964844-107.007812 107.074219-107.078125zm0 0"/><path d="m554.492188 337.976562-107.703126-57.347656c-3.710937-2.023437-8.203124-1.976562-11.871093.121094l-98.582031 53.976562c-36.109376-26.863281-79.34375-40.855468-125.316407-40.855468-57.226562.125-110.328125 22.367187-149.6875 62.847656-39.859375 40.855469-61.726562 96.707031-61.597656 157.304688.019531 6.894531 5.601563 12.476562 12.492187 12.496093l347.597657-.625c16.339843 20.289063 37.347656 36.320313 61.222656 46.730469l14.496094 6.371094c1.574219.703125 3.28125 1.042968 5 1 1.710937-.03125 3.40625-.367188 4.996093-1l16.367188-7.121094c60.136719-25.230469 99.25-84.09375 99.207031-149.3125v-73.46875c.003907-4.640625-2.539062-8.910156-6.621093-11.117188zm-529.394532 163.429688c2.621094-49.105469 21.738282-93.957031 54.226563-127.320312 34.605469-35.609376 81.460937-55.226563 131.816406-55.226563h.375c41.359375 0 80.09375 12.996094 112.203125 37.609375v67.59375c.019531 26.835938 6.714844 53.242188 19.488281 76.839844zm511.027344-78.84375c.023438 55.21875-33.140625 105.039062-84.089844 126.324219h-.125l-11.367187 4.871093-9.5-4.125c-49.96875-21.832031-82.28125-71.160156-82.335938-125.691406v-67.597656l92.332031-50.601562 95.085938 50.726562zm0 0"/><path d="m406.804688 415.941406c-4.484376-5.242187-12.371094-5.855468-17.617188-1.371094-5.242188 4.484376-5.855469 12.371094-1.371094 17.613282l28.359375 33.109375c2.382813 2.769531 5.847657 4.363281 9.496094 4.375 2.863281.023437 5.644531-.945313 7.871094-2.75l65.972656-53.597657c5.347656-4.382812 6.128906-12.269531 1.746094-17.621093-4.378907-5.347657-12.265625-6.128907-17.613281-1.746094l-56.476563 45.980469zm0 0"/></svg>