<svg height="640pt" viewBox="-20 -74 640 640" width="640pt" xmlns="http://www.w3.org/2000/svg"><path d="m193 237.914062c66.6875 0 120.75-54.0625 120.75-120.746093 0-66.6875-54.0625-120.75-120.75-120.75s-120.75 54.0625-120.75 120.75c.089844 66.652343 54.097656 120.660156 120.75 120.746093zm0-216.496093c52.878906 0 95.75 42.871093 95.75 95.75 0 52.882812-42.871094 95.746093-95.75 95.746093-52.882812 0-95.75-42.863281-95.75-95.746093.050781-52.859375 42.886719-95.703125 95.75-95.75zm0 0"/><path d="m445.625 229.164062c40.679688-.042968 77.078125-25.285156 91.375-63.371093 3.277344.75 6.632812 1.125 10 1.121093 24.164062 0 43.75-19.585937 43.75-43.75 0-24.160156-19.585938-43.75-43.75-43.75-5.792969-.023437-11.535156 1.125-16.875 3.378907-23.675781-41.03125-73.390625-59.128907-117.90625-42.933594-44.515625 16.199219-70.964844 62.027344-62.730469 108.671875 8.226563 46.648438 48.769531 80.648438 96.136719 80.632812zm0-25c-34.210938-.058593-63.765625-23.933593-71-57.371093 3.613281.371093 7.246094.535156 10.875.496093 8.414062.011719 16.804688-.949218 25-2.875 16.253906-3.816406 31.289062-11.640624 43.75-22.75 3.75 4.875 7.933594 9.390626 12.5 13.503907 14.25 12.996093 30.125 20.125 46.875 21.25-10.304688 28.679687-37.523438 47.792969-68 47.746093zm101.375-99.75c10.351562 0 18.75 8.398438 18.75 18.75 0 10.355469-8.398438 18.75-18.75 18.75-1.433594.03125-2.863281-.140624-4.25-.496093.355469-3.28125.523438-6.578125.5-9.875-.011719-8.699219-1.195312-17.363281-3.5-25.75 2.316406-.890625 4.773438-1.355469 7.25-1.378907zm-28.75 27.128907c-23.5-.125-39.5-18.378907-46.75-28.628907 6.777344-9.257812 12.523438-19.238281 17.125-29.75 18.609375 13.628907 29.617188 35.308594 29.625 58.378907zm-72.625-72.5c7.023438.03125 14.003906 1.039062 20.75 3-13.75 31.746093-34 51.25-60.5 57.875-10.5 2.621093-21.414062 3.171875-32.125 1.625 5.09375-35.804688 35.710938-62.429688 71.875-62.5zm0 0"/><path d="m445.625 266.542969c-49 0-93.625 22.5-122.25 60.875-35.371094-32.988281-82.007812-51.230469-130.375-51-52.125 0-100.625 20.246093-136.625 57-36.375 37.246093-56.375 88.125-56.375 143.246093.0195312 6.894532 5.605469 12.480469 12.5 12.5h361c6.894531-.019531 12.480469-5.605468 12.5-12.5 0-12.609374-1.085938-25.199218-3.25-37.621093h204.75c6.894531-.019531 12.480469-5.605469 12.5-12.5 0-44.003907-16-84.628907-45.125-114.375-28.722656-29.398438-68.152344-45.863281-109.25-45.625zm-420.25 197.621093c2.75-43.75 19.875-83.5 48.875-113.246093 31.394531-31.679688 74.148438-49.5 118.75-49.5s87.351562 17.820312 118.75 49.5c1.375 1.371093 2.75 2.871093 4.125 4.375l.25.25c26.375 29.125 42 67.125 44.625 108.621093zm351.5-50.121093c-7.453125-24.824219-19.726562-47.933594-36.125-68.003907 21.871094-31.09375 56.40625-50.890624 94.296875-54.050781 37.886719-3.164062 75.226563 10.632813 101.953125 37.679688 21.75 22.246093 34.75 51.875 37.5 84.375zm0 0"/></svg>