<svg height="400pt" viewBox="0 0 400 400" width="400pt" xmlns="http://www.w3.org/2000/svg"><path d="m200 0c-110.300781 0-200 89.699219-200 200s89.699219 200 200 200 200-89.699219 200-200-89.699219-200-200-200zm92 354.898438c-56.800781 33.402343-127.199219 33.402343-184 0v-33.597657c0-49.402343 40.699219-89.300781 90.101562-89.300781h3.796876c49.402343 0 90.101562 39.898438 90.101562 89.300781zm20-13.699219v-19.898438c0-60.402343-49.601562-109.300781-110.101562-109.300781h-3.796876c-60.5 0-110.101562 48.898438-110.101562 109.300781v19.898438c-41-33-68.199219-84-68.199219-141.199219 0-99.300781 80.898438-180 180.097657-180 99.203124 0 180.300781 80.699219 180.300781 180 0 57.199219-27.199219 108.199219-68.199219 141.199219zm0 0"/><path d="m270.199219 120.101562c0-38.703124-31.5-70.203124-70.199219-70.203124s-70.199219 31.5-70.199219 70.203124c0 38.699219 31.5 70.199219 70.199219 70.199219 9.398438 12.597657 24.300781 20.199219 40.199219 20.199219 27.699219 0 50.199219-22.5 50.199219-50.199219 0-15.902343-7.597657-30.800781-20.199219-40.199219zm-120.398438 0c0-27.703124 22.5-50.203124 50.199219-50.203124s50.199219 22.5 50.199219 50.203124c0 1.296876-.097657 2.796876-.199219 4.296876-2.101562 24.402343-21.300781 43.601562-45.699219 45.703124-1.601562.097657-3 .199219-4.300781.199219-27.699219 0-50.199219-22.5-50.199219-50.199219zm90.398438 70.398438c-5.699219 0-11.199219-1.601562-15.898438-4.5 19.300781-7.101562 34.5-22.300781 41.5-41.5 2.898438 4.699219 4.5 10.199219 4.5 15.898438.097657 16.5-13.402343 30.101562-30.101562 30.101562zm0 0"/></svg>