<svg height="597pt" viewBox="-26 -19 597 597.33307" width="597pt" xmlns="http://www.w3.org/2000/svg"><path d="m211.054688 263.910156c72.878906 0 131.957031-59.074218 131.957031-131.957031 0-72.875-59.078125-131.953125-131.957031-131.953125-72.875 0-131.957032 59.078125-131.957032 131.953125.070313 72.851563 59.109375 131.886719 131.957032 131.957031zm0-238.941406c59.085937 0 106.988281 47.902344 106.988281 106.984375 0 59.089844-47.902344 106.988281-106.988281 106.988281-59.085938 0-106.988282-47.898437-106.988282-106.988281.066406-59.058594 47.929688-106.917969 106.988282-106.984375zm0 0"/><path d="m517.910156 292.253906h-161.789062c-18.164063.050782-33.898438 12.625-37.953125 30.332032-32.363281-19.101563-69.28125-29.109376-106.863281-28.964844h-.375c-57.175782.128906-110.234376 22.351562-149.558594 62.796875-39.949219 40.820312-61.792969 96.625-61.667969 157.171875.023437 3.3125 1.316406 6.484375 3.617187 8.863281 2.351563 2.351563 5.546876 3.652344 8.867188 3.621094l304.980469-.625v18.726562c-.058594 6.101563 3.457031 11.667969 8.992187 14.234375 5.464844 2.667969 11.980469 1.933594 16.726563-1.875.246093-.125.375-.375.625-.5l60.921875-54.804687 55.050781 54.433593c.300781.320313.640625.621094 1 .871094 2.785156 2.171875 6.207031 3.363282 9.738281 3.371094 2.421875.015625 4.816406-.539062 6.992188-1.625 5.496094-2.601562 8.992187-8.148438 8.988281-14.226562v-147.6875h18.847656c22.394531-.042969 40.535157-18.183594 40.574219-40.574219v-24.71875c0-8.738281-.25-16.605469-3.121094-23.472657-3.996094-9.859374-12.734375-15.347656-24.59375-15.347656zm-492.867187 208.730469c2.621093-49.0625 21.722656-93.878906 54.183593-127.214844 34.578126-35.582031 81.394532-55.179687 131.703126-55.179687h.375c37.847656-.21875 74.832031 11.292968 105.863281 32.960937v148.808594zm436.191406-169.785156v191.128906l-47.6875-47.0625c-4.691406-4.664063-12.214844-4.824219-17.105469-.375l-54.304687 48.8125v-192.503906c-.007813-3.710938 1.464843-7.269531 4.089843-9.894531 2.625-2.621094 6.183594-4.09375 9.894532-4.085938h107.734375c-1.777344 4.445312-2.667969 9.195312-2.621094 13.980469zm59.421875 24.59375c0 8.617187-6.984375 15.605469-15.605469 15.605469h-18.847656v-40.324219c-.003906-3.710938 1.460937-7.269531 4.085937-9.894531s6.183594-4.089844 9.894532-4.085938h17.855468c.539063-.039062 1.089844.003906 1.621094.125 1.121094 2.621094 1.121094 10.734375 1.121094 13.855469v24.71875zm0 0"/></svg>