<svg height="480pt" viewBox="-17 -15 479 480" width="480pt" xmlns="http://www.w3.org/2000/svg"><path d="m409.855469 0h-79.230469c-19.222656 0-35.292969 15.644531-35.292969 34.875v31.375h-145v-28.75c0-20.679688-17.25-37.5-37.929687-37.5h-73.964844c-20.671875 0-38.105469 16.820312-38.105469 37.5v76.960938c.265625 20.929687 17.183594 37.8125 38.105469 38.039062h26.894531v145h-26.894531c-20.921875.226562-37.839844 17.109375-38.105469 38.039062v76.960938c0 20.679688 17.433594 37.5 38.105469 37.5h73.964844c20.679687 0 37.929687-16.820312 37.929687-37.5v-18.75h145v21.382812c0 19.222657 16.070313 34.867188 35.292969 34.867188h79.230469c19.226562 0 35.476562-15.644531 35.476562-34.867188v-82.234374c-.261719-19.464844-16.003906-35.171876-35.476562-35.398438h-24.523438v-145h24.523438c19.472656-.226562 35.214843-15.933594 35.476562-35.398438v-82.226562c0-19.230469-16.25-34.875-35.476562-34.875zm-285.773438 115c0 6.90625-5.59375 12.5-12.5 12.5h-73.75c-6.902343 0-12.5-5.59375-12.5-12.5v-77.5c0-6.90625 5.597657-12.5 12.5-12.5h73.75c6.90625 0 12.5 5.59375 12.5 12.5zm1.25 297.5c-.207031 6.984375-5.941406 12.523438-12.929687 12.5h-73.964844c-6.886719 0-13.105469-5.605469-13.105469-12.5v-76.960938c.25-7.125 5.988281-12.828124 13.105469-13.039062h73.964844c7.089844.226562 12.765625 5.945312 12.929687 13.039062zm293.75 2.632812c-.003906 5.449219-4.421875 9.867188-9.871093 9.867188h-79.003907c-5.449219 0-9.867187-4.417969-9.875-9.867188v-82.757812c0-5.457031 4.421875-9.875 9.875-9.875h79.003907c5.453124 0 9.871093 4.417969 9.871093 9.875zm-58.75-117.632812h-29.707031c-19.433594.238281-35.109375 15.96875-35.292969 35.398438v35.851562h-145v-33.210938c-.183593-20.890624-17.039062-37.796874-37.929687-38.039062h-22.070313v-145h22.070313c20.890625-.242188 37.746094-17.148438 37.929687-38.039062v-23.210938h145v25.851562c.183594 19.429688 15.859375 35.160157 35.292969 35.398438h29.707031zm58.75-179.875c0 5.457031-4.417969 9.875-9.871093 9.875h-79.003907c-5.453125 0-9.875-4.417969-9.875-9.875v-82.75c0-5.457031 4.421875-9.875 9.875-9.875h79.003907c5.453124 0 9.871093 4.417969 9.871093 9.875zm0 0"/></svg>