<svg height="600pt" viewBox="-89 -19 600 600" width="600pt" xmlns="http://www.w3.org/2000/svg"><path d="m354.582031 39.5h-55v-27c-.019531-6.894531-5.601562-12.4804688-12.5-12.5h-161.75c-6.894531.0195312-12.480469 5.605469-12.5 12.5v27h-55c-34.511719.011719-62.484375 27.984375-62.5 62.5v398c.015625 34.511719 27.988281 62.484375 62.5 62.5h296.75c34.515625-.015625 62.488281-27.988281 62.5-62.5v-398c-.011719-34.515625-27.984375-62.488281-62.5-62.5zm-216.75-14.5h136.75v51.75h-136.75zm254.25 475c-.058593 20.683594-16.8125 37.441406-37.5 37.5h-296.75c-20.683593-.058594-37.441406-16.816406-37.5-37.5v-398c.058594-20.6875 16.816407-37.4375 37.5-37.5h55v24.875c.019531 6.894531 5.605469 12.480469 12.5 12.5h161.75c6.898438-.019531 12.480469-5.605469 12.5-12.5v-24.875h55c20.6875.0625 37.441407 16.8125 37.5 37.5zm0 0"/><path d="m206.207031 176c-69.03125 0-125 55.960938-125 125 0 69.035156 55.96875 125 125 125 69.039063 0 125-55.964844 125-125-.113281-68.988281-56.011719-124.886719-125-125zm0 225c-55.230469 0-100-44.769531-100-100 0-55.226562 44.769531-100 100-100s100 44.773438 100 100c-.074219 55.195312-44.800781 99.929688-100 100zm0 0"/><path d="m257.457031 259.625-65.875 63-33.75-33.75c-4.867187-4.867188-12.757812-4.867188-17.625 0-4.863281 4.867188-4.863281 12.757812 0 17.625l42.378907 42.375c2.34375 2.359375 5.546874 3.667969 8.871093 3.625 3.226563.03125 6.332031-1.230469 8.628907-3.5l74.75-71.375c2.386718-2.28125 3.769531-5.429688 3.84375-8.734375.066406-3.304687-1.179688-6.507813-3.472657-8.890625-4.835937-4.917969-12.710937-5.082031-17.75-.375zm0 0"/></svg>