<svg height="584pt" viewBox="-18 -42 584.00007 584" width="584pt" xmlns="http://www.w3.org/2000/svg"><path d="m277.613281 177.558594c49.464844 0 89.566407-40.105469 89.566407-89.570313 0-49.46875-40.101563-89.570312-89.566407-89.570312-49.46875 0-89.570312 40.101562-89.570312 89.570312 0 49.464844 40.101562 89.570313 89.570312 89.570313zm0-154.140625c35.65625 0 64.570313 28.910156 64.570313 64.570312 0 35.664063-28.914063 64.570313-64.570313 64.570313-35.660156 0-64.570312-28.90625-64.570312-64.570313 0-35.660156 28.910156-64.570312 64.570312-64.570312zm0 0"/><path d="m93.207031 153.808594c36.351563 0 65.824219-29.46875 65.824219-65.820313 0-36.355469-29.472656-65.820312-65.824219-65.820312-36.347656 0-65.820312 29.464843-65.820312 65.820312.046875 36.335938 29.488281 65.78125 65.820312 65.820313zm0-106.640625c22.550781 0 40.824219 18.273437 40.824219 40.820312 0 22.542969-18.273438 40.820313-40.824219 40.820313-22.542969 0-40.820312-18.277344-40.820312-40.820313 0-22.546875 18.277343-40.820312 40.820312-40.820312zm0 0"/><path d="m541.488281 216.769531c-3.691406-2.25-8.3125-2.324219-12.074219-.199219l-124.414062 68.457032v-26.945313c0-34.460937-28.527344-62.167969-62.988281-62.167969h-279.757813c-34.28125-.097656-62.1562498 27.617188-62.253906 61.902344v178.097656c-.078125 34.445313 27.785156 62.425782 62.226562 62.5h279.78125c34.464844 0 62.992188-28.035156 62.992188-62.5v-26.917968l124.476562 68.433594c1.796876 1.011718 3.828126 1.542968 5.886719 1.542968 2.183594 0 4.324219-.605468 6.183594-1.742187 3.757813-2.273438 6.023437-6.367188 5.953125-10.757813v-238.945312c.046875-4.398438-2.242188-8.492188-6.011719-10.757813zm-199.476562 256.644531h-279.757813c-20.617187-.042968-37.296875-16.789062-37.253906-37.410156v-177.921875c-.0625-20.460937 16.476562-37.101562 36.933594-37.167969h280.074218c20.675782 0 37.992188 16.492188 37.992188 37.167969v177.832031c0 20.679688-17.316406 37.5-37.988281 37.5zm180.488281-28.058593-117.5-64.875v-66.9375l117.5-64.898438zm0 0"/></svg>