<svg height="533pt" viewBox="-16 -65 533.33331 533" width="533pt" xmlns="http://www.w3.org/2000/svg"><path d="m500 50.179688c0-29.371094-23.808594-53.179688-53.179688-53.179688h-393.640624c-29.371094 0-53.179688 23.808594-53.179688 53.179688v297.390624c0 29.371094 23.808594 53.179688 53.179688 53.179688h393.640624c29.371094 0 53.179688-23.808594 53.179688-53.179688zm-392.5 131.820312h-82.5v-62.5h82.5zm-82.5 25h82.5v72.5h-82.5zm107.5-185h235v355h-235zm260 97.5h82.5v62.5h-82.5zm0 87.5h82.5v72.5h-82.5zm82.5-156.25v43.75h-82.5v-72.5h54.320312c15.539063 0 28.179688 13.207031 28.179688 28.75zm-421.820312-28.75h54.320312v72.5h-82.5v-43.75c0-15.542969 12.640625-28.75 28.179688-28.75zm-28.179688 326.25v-43.75h82.5v72.5h-54.320312c-15.539063 0-28.179688-13.207031-28.179688-28.75zm421.820312 28.75h-54.320312v-72.5h82.5v43.75c0 15.542969-12.640625 28.75-28.179688 28.75zm0 0"/></svg>