<svg height="533pt" viewBox="-16 -98 533.3299 533" width="533pt" xmlns="http://www.w3.org/2000/svg"><path d="m401.753906 40.5c-91.976562-61.003906-211.539062-61.003906-303.515625 0-43.367187 28.757812-77.222656 69.738281-97.28125 117.753906-1.277343 3.074219-1.277343 6.53125 0 9.601563 20.0625 48.015625 53.917969 88.996093 97.292969 117.757812 91.972656 61 211.53125 61 303.507812 0 43.367188-28.761719 77.226563-69.742187 97.28125-117.757812 1.277344-3.070313 1.277344-6.527344 0-9.601563-20.054687-48.015625-53.917968-88.996094-97.285156-117.753906zm-13.894531 224.328125c-83.566406 55.378906-192.160156 55.378906-275.726563 0-37.78125-25.050781-67.621093-60.351563-86.035156-101.773437 18.414063-41.417969 48.253906-76.722657 86.035156-101.769532 83.566407-55.382812 192.160157-55.382812 275.726563 0 37.773437 25.046875 67.621094 60.351563 86.035156 101.769532-18.414062 41.421874-48.261719 76.722656-86.035156 101.773437zm0 0"/><path d="m160.09375 73.152344c-49.648438 49.65625-49.648438 130.152344 0 179.800781 49.652344 49.652344 130.152344 49.652344 179.796875 0 49.65625-49.648437 49.65625-130.144531 0-179.800781-49.644531-49.644532-130.144531-49.644532-179.796875 0zm162.128906 162.128906c-39.878906 39.839844-104.5 39.820312-144.355468-.042969-39.851563-39.867187-39.851563-104.492187 0-144.355469 39.855468-39.867187 104.476562-39.886718 144.355468-.042968 39.910156 39.871094 39.910156 104.5625 0 144.441406zm0 0"/><path d="m211.335938 124.394531c-21.324219 21.367188-21.324219 55.957031 0 77.324219 21.351562 21.351562 55.96875 21.351562 77.320312 0 21.355469-21.355469 21.355469-55.972656 0-77.324219-21.351562-21.359375-55.96875-21.359375-77.320312 0zm59.644531 59.648438c-11.589844 11.589843-30.378907 11.589843-41.96875 0-11.59375-11.59375-11.59375-30.382813 0-41.972657 11.589843-11.59375 30.378906-11.59375 41.96875 0 11.59375 11.589844 11.59375 30.378907 0 41.972657zm0 0"/></svg>