<svg height="573pt" viewBox="-18 -38 573.33558 573" width="573pt" xmlns="http://www.w3.org/2000/svg"><path d="m533.597656 160.804688c-2.335937-2.339844-5.503906-3.652344-8.808594-3.652344-3.304687 0-6.476562 1.3125-8.808593 3.652344l-69.089844 69.089843-69.089844-69.089843c-4.859375-4.863282-12.746093-4.863282-17.613281 0-4.867188 4.863281-4.867188 12.75 0 17.617187l69.089844 69.089844-69.089844 69.089843c-2.34375 2.332032-3.65625 5.5-3.65625 8.800782 0 3.3125 1.3125 6.476562 3.65625 8.8125 2.34375 2.359375 5.542969 3.667968 8.867188 3.625 3.320312-.015625 6.496093-1.3125 8.871093-3.625l69.089844-69.089844 69.089844 69.089844c2.34375 2.359375 5.546875 3.667968 8.867187 3.625 3.316406-.015625 6.496094-1.3125 8.875-3.625 2.335938-2.335938 3.65625-5.5 3.65625-8.8125 0-3.300782-1.320312-6.46875-3.65625-8.800782l-69.464844-68.96875 69.089844-69.085937c2.386719-2.328125 3.738282-5.515625 3.761719-8.847656.023437-3.328125-1.285156-6.535157-3.636719-8.894531zm0 0"/><path d="m306.964844.765625c-5.800782-2.992187-12.78125-2.507813-18.117188 1.25l-179.402344 126.183594h-46.976562c-34.496094.007812-62.453125 27.972656-62.46875 62.464843v114.066407c.015625 34.496093 27.972656 62.453125 62.46875 62.46875h46.976562l179.402344 126.183593c5.320313 3.773438 12.296875 4.261719 18.089844 1.265626 5.789062-3.003907 9.414062-8.984376 9.394531-15.511719v-462.753907c.109375-6.570312-3.523437-12.625-9.367187-15.617187zm-15.492188 463.753906-166.914062-117.308593c-2.355469-3.234376-6.121094-5.136719-10.117188-5.125h-51.972656c-20.675781-.058594-37.421875-16.808594-37.480469-37.480469v-114.066407c.058594-20.671874 16.804688-37.417968 37.480469-37.480468h51.972656c3.992188-.015625 7.742188-1.914063 10.117188-5.121094l166.914062-117.316406zm0 0"/></svg>