<svg height="530pt" viewBox="-71 -16 530 530.66722" width="530pt" xmlns="http://www.w3.org/2000/svg"><path d="m312.984375 384.628906v-367.179687c.019531-6.515625-3.605469-12.496094-9.390625-15.496094-5.789062-3-12.765625-2.515625-18.085938 1.261719l-170.097656 119.519531-75.808594-100.410156c-4.136718-5.515625-11.96875-6.640625-17.484374-2.496094-5.519532 4.136719-6.636719 11.964844-2.5 17.484375l69.316406 91.914062h-29.847656c-34.484376.015626-62.433594 27.964844-62.445313 62.445313v114.027344c.011719 34.480469 27.960937 62.4375 62.445313 62.445312h47.082031l179.339843 126.140625c5.320313 3.777344 12.296876 4.265625 18.085938 1.261719 5.785156-3 9.410156-8.980469 9.390625-15.496094v-53.832031l48.835937 64.820312c2.375 3.125 6.0625 4.96875 9.992188 4.996094 2.695312-.027344 5.316406-.902344 7.492188-2.496094 5.5-4.152343 6.617187-11.960937 2.496093-17.484374zm-24.976563-352.816406v319.597656l-157.613281-208.816406zm0 433.625-166.851562-117.273438c-2.355469-3.230468-6.117188-5.132812-10.117188-5.117187h-51.953124c-20.667969-.066406-37.40625-16.804687-37.464844-37.46875v-114.027344c.058594-20.667969 16.796875-37.40625 37.464844-37.464843h48.707031l180.09375 238.789062v72.5625zm0 0"/></svg>