<svg height="530pt" viewBox="-28 -16 530 530.66889" width="530pt" xmlns="http://www.w3.org/2000/svg"><path d="m361.910156 136.550781c-6.898437 0-12.488281 5.589844-12.488281 12.488281 0 6.894532 5.589844 12.484376 12.488281 12.484376 48.128906 0 87.148438 39.019531 87.148438 87.15625 0 48.132812-39.019532 87.152343-87.148438 87.152343-6.898437 0-12.488281 5.59375-12.488281 12.484375 0 6.898438 5.589844 12.488282 12.488281 12.488282 61.925782 0 112.125-50.199219 112.125-112.125 0-61.929688-50.199218-112.128907-112.125-112.128907zm0 0"/><path d="m306.34375 1.945312c-5.796875-2.988281-12.773438-2.503906-18.105469 1.25l-179.304687 126.113282h-46.953125c-34.472657.015625-62.417969 27.957031-62.429688 62.433594v114c.011719 34.472656 27.957031 62.417968 62.429688 62.433593h46.953125l179.304687 126.113281c5.3125 3.773438 12.292969 4.261719 18.078125 1.261719s9.414063-8.980469 9.394532-15.5v-462.496093c.105468-6.558594-3.527344-12.613282-9.367188-15.609376zm-15.484375 463.496094-166.816406-117.246094c-2.359375-3.226562-6.121094-5.128906-10.117188-5.121093h-51.945312c-20.660157-.058594-37.394531-16.792969-37.457031-37.457031v-114.003907c.0625-20.660156 16.796874-37.394531 37.457031-37.457031h51.945312c3.992188-.015625 7.742188-1.914062 10.117188-5.117188l166.816406-117.25zm0 0"/></svg>