<svg height="546pt" viewBox="-17 -17 546 546.66669" width="546pt" xmlns="http://www.w3.org/2000/svg"><path d="m256.335938 0c-141.160157 0-256.003907 114.953125-256.003907 256.25s114.84375 256.25 256.003907 256.25c141.15625 0 256-114.953125 256-256.25s-114.84375-256.25-256-256.25zm0 487.5c-127.378907 0-231.003907-103.742188-231.003907-231.25s103.625-231.25 231.003907-231.25c127.371093 0 231 103.742188 231 231.25s-103.628907 231.25-231 231.25zm0 0"/><path d="m391.023438 237.324219-137.839844 12.601562-62.902344-62.988281c-4.855469-4.90625-12.769531-4.945312-17.675781-.085938-4.910157 4.851563-4.949219 12.765626-.089844 17.675782l.078125.078125 67.046875 67.132812c2.34375 2.347657 5.527344 3.667969 8.84375 3.667969.375 0 .761719-.015625 1.140625-.050781l143.667969-13.132813c6.871093-.636718 11.921875-6.714844 11.292969-13.585937-.625-6.871094-6.699219-11.925781-13.5625-11.3125zm0 0"/></svg>