<svg height="533pt" viewBox="-89 -16 533 533.33334" width="533pt" xmlns="http://www.w3.org/2000/svg"><path d="m297.039062 123.464844-7.773437-79.15625c-2.417969-25.265625-23.738281-44.496094-49.113281-44.308594h-135.152344c-25.375-.1875-46.691406 19.042969-49.109375 44.308594l-7.773437 79.277344c-69.597657 68.503906-70.484376 180.460937-1.976563 250.0625.652344.664062 1.3125 1.324218 1.976563 1.976562l7.773437 79.613281c2.371094 25.359375 23.648437 44.742188 49.109375 44.761719h135.152344c25.46875-.023438 46.738281-19.417969 49.113281-44.773438l7.773437-79.511718c69.652344-68.644532 70.476563-180.761719 1.828126-250.414063-.605469-.617187-1.214844-1.230469-1.828126-1.835937zm-216.265624-76.71875c1.199218-12.441406 11.734374-21.890625 24.226562-21.746094h135.152344c12.496094-.144531 23.027344 9.304688 24.230468 21.746094l5.375 54.746094c-58.957031-38.878907-135.410156-38.863282-194.355468.03125zm183.609374 406.042968c-1.160156 12.535157-11.640624 22.144532-24.230468 22.210938h-135.152344c-12.585938-.066406-23.070312-9.675781-24.226562-22.210938l-5.375-54.992187c58.996093 38.703125 135.335937 38.710937 194.355468.03125zm-91.808593-51.015624c-84.078125 0-152.242188-68.164063-152.242188-152.242188 0-84.082031 68.164063-152.246094 152.242188-152.246094 84.082031 0 152.246093 68.164063 152.246093 152.246094-.097656 84.039062-68.203124 152.144531-152.246093 152.242188zm0 0"/><path d="m218.953125 237.5h-33.878906v-48.550781c0-6.902344-5.59375-12.496094-12.5-12.496094-6.898438 0-12.5 5.59375-12.5 12.496094v60.582031c0 6.898438 5.601562 12.96875 12.5 12.96875h46.378906c6.902344 0 12.5-5.59375 12.5-12.5 0-6.902344-5.597656-12.5-12.5-12.5zm0 0"/><path d="m172.574219 125.328125c-68.59375 0-124.199219 55.605469-124.199219 124.203125 0 68.59375 55.605469 124.199219 124.199219 124.199219 68.597656 0 124.203125-55.605469 124.203125-124.199219-.078125-68.5625-55.636719-124.125-124.203125-124.203125zm0 223.402344c-54.785157 0-99.199219-44.414063-99.199219-99.203125 0-54.785156 44.414062-99.199219 99.199219-99.199219 54.789062 0 99.203125 44.414063 99.203125 99.199219-.0625 54.761718-44.4375 99.140625-99.203125 99.203125zm0 0"/></svg>