<svg height="533pt" viewBox="-96 -16 533 533.33179" width="533pt" xmlns="http://www.w3.org/2000/svg"><path d="m262.964844 139.605469-86.558594-133.886719c-2.304688-3.566406-6.261719-5.71875-10.503906-5.71875-4.242188 0-8.199219 2.152344-10.496094 5.71875l-86.558594 133.886719c-11.214844 17.34375-23.355468 34.984375-36.078125 52.425781-26.289062 36.023438-39.660156 81.46875-37.65625 127.949219 2.023438 46.84375 19.574219 90.984375 49.417969 124.28125 32.210938 35.941406 75.316406 55.738281 121.371094 55.738281 46.054687 0 89.164062-19.796875 121.378906-55.738281 29.839844-33.296875 47.390625-77.4375 49.410156-124.28125 2.007813-46.480469-11.359375-91.925781-37.648437-127.949219-12.726563-17.4375-24.863281-35.078125-36.078125-52.425781zm48.746094 179.296875c-1.769532 41.070312-17.058594 79.675781-43.058594 108.675781-27.40625 30.578125-63.898438 47.421875-102.753906 47.421875-38.859376 0-75.351563-16.84375-102.757813-47.421875-25.992187-29-41.28125-67.597656-43.058594-108.675781-1.761719-40.847656 9.914063-80.671875 32.875-112.140625 13.003907-17.816407 25.40625-35.84375 36.875-53.582031l76.070313-117.652344 76.066406 117.652344c11.46875 17.738281 23.875 35.769531 36.875 53.585937 22.960938 31.472656 34.636719 71.296875 32.875 112.140625zm0 0"/><path d="m263.609375 318.453125c-6.90625 0-12.5 5.59375-12.5 12.5 0 39.253906-28.042969 71.1875-62.511719 71.1875-6.902344 0-12.5 5.597656-12.5 12.5 0 6.90625 5.597656 12.5 12.5 12.5 48.253906 0 87.511719-43.148437 87.511719-96.1875 0-6.90625-5.597656-12.5-12.5-12.5zm0 0"/></svg>