<svg height="533pt" viewBox="-16 -44 533.33331 533" width="533pt" xmlns="http://www.w3.org/2000/svg"><path d="m500 60.832031c0-34.515625-27.984375-62.5-62.5-62.5h-375c-34.515625 0-62.5 27.984375-62.5 62.5v320c0 34.519531 27.984375 62.5 62.5 62.5h375c34.515625 0 62.5-27.980469 62.5-62.5zm-437.5-37.5h375c20.699219.019531 37.476562 16.792969 37.5 37.492188v92.507812h-450v-92.507812c.023438-20.699219 16.800781-37.472657 37.5-37.492188zm375 395h-375c-20.699219-.019531-37.476562-16.789062-37.5-37.488281v-202.511719h450v202.511719c-.023438 20.699219-16.800781 37.46875-37.5 37.488281zm0 0"/><path d="m248.011719 122.800781c21.773437 0 39.488281-17.996093 39.488281-40.132812 0-22.132813-17.714844-40.128907-39.488281-40.128907-21.777344 0-39.492188 17.996094-39.492188 40.128907 0 22.136719 17.714844 40.132812 39.492188 40.132812zm0-55.261719c8.355469-.367187 15.425781 6.113282 15.792969 14.472657.359374 8.351562-6.113282 15.421875-14.472657 15.789062-8.355469.367188-15.429687-6.113281-15.796875-14.46875-.011718-.21875-.015625-.4375-.015625-.65625-.164062-8.179687 6.316407-14.949219 14.492188-15.136719zm0 0"/><path d="m159.941406 122.800781c21.777344 0 39.492188-17.996093 39.492188-40.132812 0-22.132813-17.714844-40.128907-39.492188-40.128907-21.773437 0-39.488281 17.996094-39.488281 40.128907 0 22.136719 17.714844 40.132812 39.488281 40.132812zm0-55.261719c8.359375-.367187 15.429688 6.113282 15.792969 14.472657.363281 8.351562-6.117187 15.421875-14.46875 15.789062-8.359375.367188-15.429687-6.113281-15.796875-14.46875-.007812-.21875-.015625-.4375-.015625-.65625-.164063-8.179687 6.3125-14.949219 14.488281-15.136719zm0 0"/><path d="m77.269531 122.800781c21.777344 0 39.492188-17.996093 39.492188-40.132812 0-22.132813-17.714844-40.128907-39.492188-40.128907-21.769531 0-39.488281 17.996094-39.488281 40.128907 0 22.136719 17.71875 40.132812 39.488281 40.132812zm0-55.261719c8.359375-.367187 15.429688 6.113282 15.796875 14.464844.367188 8.359375-6.113281 15.429688-14.472656 15.796875-8.355469.367188-15.425781-6.109375-15.796875-14.46875-.007813-.21875-.015625-.4375-.015625-.65625-.164062-8.179687 6.316406-14.949219 14.488281-15.136719zm0 0"/></svg>