<svg height="560pt" viewBox="-115 -17 560 560.00003" width="560pt" xmlns="http://www.w3.org/2000/svg"><path d="m189.875 250h-33.875v-48.550781c0-6.902344-5.597656-12.496094-12.5-12.496094-6.90625 0-12.5 5.59375-12.5 12.496094v60.582031c0 6.898438 5.59375 12.96875 12.5 12.96875h46.375c6.90625 0 12.5-5.59375 12.5-12.5 0-6.902344-5.59375-12.5-12.5-12.5zm0 0"/><path d="m267.5 130.09375-7.300781-85.863281c0-.054688-.011719.132812-.015625.078125-2.417969-25.265625-23.730469-44.492188-49.105469-44.308594h-135.152344c-25.378906-.1875-46.699219 19.042969-49.109375 44.308594 0 .054687-.015625-.015625-.015625.039062l-7.300781 85.804688c-16.3125 11.703125-25.992188 30.546875-26 50.625v162.5c.007812 20.09375 9.683594 38.953125 26 50.683594l7.300781 85.867187c0 .054687.007813.34375.015625.398437 2.371094 25.355469 23.640625 44.75 49.109375 44.773438h135.152344c25.46875-.023438 46.738281-19.417969 49.109375-44.773438 0-.054687.011719-.226562.015625-.28125l7.300781-85.921874c16.316406-11.753907 25.992188-30.632813 25.996094-50.742188v-162.5c-.003906-20.097656-9.683594-38.957031-26-50.6875zm-215.796875-83.421875c1.234375-12.414063 11.753906-21.816406 24.222656-21.671875h135.152344c12.46875-.144531 22.984375 9.257812 24.222656 21.671875l6.183594 72.859375c-3.46875-.550781-6.972656-.8125-10.484375-.78125h-175c-3.511719-.03125-7.015625.230469-10.484375.78125zm183.597656 431.191406c-1.195312 12.503907-11.664062 22.070313-24.222656 22.136719h-135.152344c-12.5625-.066406-23.03125-9.632812-24.222656-22.136719l-6.1875-72.628906c3.457031.636719 6.96875.972656 10.484375 1.015625h175c3.515625-.042969 7.027344-.378906 10.484375-1.015625zm33.199219-134.113281c0 20.714844-16.789062 37.5-37.5 37.5h-175c-20.707031 0-37.5-16.785156-37.5-37.5v-162.5c0-20.707031 16.792969-37.5 37.5-37.5h175c20.710938 0 37.5 16.792969 37.5 37.5zm0 0"/><path d="m311 232.03125c-6.90625 0-12.5 5.597656-12.5 12.5v35c0 6.898438 5.59375 12.5 12.5 12.5 6.902344 0 12.5-5.601562 12.5-12.5v-35c0-6.902344-5.597656-12.5-12.5-12.5zm0 0"/></svg>