<svg height="532pt" viewBox="-54 -17 532 532.00041" width="532pt" xmlns="http://www.w3.org/2000/svg"><path d="m9.886719 386.230469c1.121093 0 2.238281-.152344 3.316406-.449219l114.269531-31.507812c2.277344-.628907 4.488282-1.464844 6.609375-2.492188 3.210938-.589844 6.058594-2.425781 7.917969-5.117188.917969-.761718 1.820312-1.558593 2.667969-2.402343l142.714843-142.710938c4.621094-1.066406 8.230469-4.671875 9.292969-9.292969l35.742188-35.746093c4.625-1.0625 8.226562-4.671875 9.292969-9.292969l24.519531-24.519531c25.523437-25.578125 25.523437-66.984375 0-92.5625l-10.878907-10.882813c-25.5625-25.5625-67-25.5625-92.5625 0l-221.75 221.746094c-.929687.9375-1.8125 1.921875-2.640624 2.949219-.402344.3125-.792969.652343-1.15625 1.011719-1.566407 1.566406-2.679688 3.519531-3.234376 5.660156-1.144531 2.203125-2.074218 4.511718-2.78125 6.886718l-33.292968 112.722657c-1.113282 3.769531-.382813 7.847656 1.9687498 10.996093 2.3593752 3.148438 6.0585942 5.003907 9.9882812 5.003907zm121.902343-64.355469-68.179687-68.179688 133.792969-133.785156 68.175781 68.179688zm110.644532-247.003906 68.179687 68.179687-27.402343 27.402344-68.179688-68.179687zm37.988281-37.984375c15.820313-15.820313 41.472656-15.820313 57.292969 0l10.882812 10.878906c15.796875 15.835937 15.796875 41.46875 0 57.296875l-20.347656 20.351562-68.183594-68.179687zm-228.910156 239.980469 56.820312 56.8125-80.125 22.097656zm0 0"/><path d="m408.765625 473.894531h-397.652344c-6.886719 0-12.46875 5.582031-12.46875 12.46875s5.582031 12.46875 12.46875 12.46875h397.652344c6.886719 0 12.46875-5.582031 12.46875-12.46875s-5.582031-12.46875-12.46875-12.46875zm0 0"/></svg>