<svg height="532pt" viewBox="-17 -17 532 532.00082" width="532pt" xmlns="http://www.w3.org/2000/svg"><path d="m391.539062 374.117188c78.863282-88.046876 76.015626-223.878907-8.570312-308.460938-86.515625-86.433594-226.3125-87.6875-314.363281-2.8125-88.054688 84.871094-91.941407 224.621094-8.742188 314.253906 83.199219 89.636719 222.851563 96.15625 314.035157 14.660156l103.378906 103.378907c4.878906 4.835937 12.746094 4.816406 17.601562-.039063 4.855469-4.855468 4.875-12.722656.039063-17.601562zm-308.460937-8.570313c-78.300781-77.578125-78.890625-203.941406-1.316406-282.25 77.578125-78.300781 203.945312-78.890625 282.25-1.316406l1.316406 1.316406c77.816406 77.816406 77.816406 204.429687 0 282.25-77.820313 77.820313-204.4375 77.816406-282.25 0zm0 0"/><path d="m299.035156 211.921875h-149.667968c-6.882813 0-12.472657 5.589844-12.472657 12.472656 0 6.890625 5.589844 12.472657 12.472657 12.472657h149.667968c6.890625 0 12.472656-5.582032 12.472656-12.472657 0-6.882812-5.582031-12.472656-12.472656-12.472656zm0 0"/></svg>