<?xml version="1.0" encoding="UTF-8" standalone="no"?>
<svg
   xmlns:dc="http://purl.org/dc/elements/1.1/"
   xmlns:cc="http://creativecommons.org/ns#"
   xmlns:rdf="http://www.w3.org/1999/02/22-rdf-syntax-ns#"
   xmlns:svg="http://www.w3.org/2000/svg"
   xmlns="http://www.w3.org/2000/svg"
   xmlns:sodipodi="http://sodipodi.sourceforge.net/DTD/sodipodi-0.dtd"
   xmlns:inkscape="http://www.inkscape.org/namespaces/inkscape"
   height="16"
   width="16"
   version="1.1"
   id="svg4"
   sodipodi:docname="playlist_symbolic_src.svg"
   inkscape:version="0.92.4 (5da689c313, 2019-01-14)">
  <metadata
     id="metadata10">
    <rdf:RDF>
      <cc:Work
         rdf:about="">
        <dc:format>image/svg+xml</dc:format>
        <dc:type
           rdf:resource="http://purl.org/dc/dcmitype/StillImage" />
        <dc:title></dc:title>
      </cc:Work>
    </rdf:RDF>
  </metadata>
  <defs
     id="defs8" />
  <sodipodi:namedview
     pagecolor="#ffffff"
     bordercolor="#666666"
     borderopacity="1"
     objecttolerance="10"
     gridtolerance="10"
     guidetolerance="10"
     inkscape:pageopacity="0"
     inkscape:pageshadow="2"
     inkscape:window-width="1920"
     inkscape:window-height="1017"
     id="namedview6"
     showgrid="true"
     inkscape:snap-bbox="true"
     inkscape:bbox-nodes="true"
     inkscape:bbox-paths="true"
     inkscape:snap-page="false"
     inkscape:zoom="32"
     inkscape:cx="12.821484"
     inkscape:cy="5.1433467"
     inkscape:window-x="-8"
     inkscape:window-y="-8"
     inkscape:window-maximized="1"
     inkscape:current-layer="svg4">
    <inkscape:grid
       type="xygrid"
       id="grid829" />
  </sodipodi:namedview>
  <path
     d="M 1,0 V 16 H 15 V 0 Z M 2,1 H 14 V 15 H 2 Z"
     style="color:#000000;overflow:visible;fill:#808080;marker:none"
     overflow="visible"
     id="path2"
     inkscape:connector-curvature="0"
     sodipodi:nodetypes="cccccccccc" />
  <g
     transform="matrix(0,-0.07140033,-0.07140033,0,41.453961,32.735296)"
     id="g4845-2-3-4-5-7-9-9"
     style="display:inline;fill:#808080;fill-opacity:1;enable-background:new">
    <g
       id="g1145-4-2-7-4-1-5-27"
       style="fill:#808080;fill-opacity:1">
      <path
         id="path4176-4-7-8-9-0-3-55"
         d="m 416.4588,524.55886 -56.02215,0.004 c 0,0 -5e-5,-2.7e-4 28.02866,-50.00391 0.004,0 0.009,0.003 0.0156,0.004 0.004,0.003 0.012,0.006 0.0176,0.0117 0.004,0.003 0.0139,0.009 0.0195,0.0117 0.004,0.003 0.0101,0.006 0.0156,0.006 27.92519,49.96651 27.92509,49.96677 27.92509,49.96677 z"
         style="color:#000000;display:inline;overflow:visible;visibility:visible;fill:#808080;fill-opacity:1;fill-rule:nonzero;stroke:none;stroke-width:3.00059342;marker:none;enable-background:accumulate"
         inkscape:connector-curvature="0"
         sodipodi:nodetypes="ccccccccc" />
    </g>
  </g>
  <g
     transform="matrix(0,-0.07140033,-0.07140033,0,41.453961,38.735296)"
     id="g4845-2-3-4-5-7-9-9-0"
     style="display:inline;fill:#808080;fill-opacity:1;enable-background:new">
    <g
       id="g1145-4-2-7-4-1-5-27-2"
       style="fill:#808080;fill-opacity:1">
      <path
         id="path4176-4-7-8-9-0-3-55-8"
         d="m 416.4588,524.55886 -56.02215,0.004 c 0,0 -5e-5,-2.7e-4 28.02866,-50.00391 0.004,0 0.009,0.003 0.0156,0.004 0.004,0.003 0.012,0.006 0.0176,0.0117 0.004,0.003 0.0139,0.009 0.0195,0.0117 0.004,0.003 0.0101,0.006 0.0156,0.006 27.92519,49.96651 27.92509,49.96677 27.92509,49.96677 z"
         style="color:#000000;display:inline;overflow:visible;visibility:visible;fill:#808080;fill-opacity:1;fill-rule:nonzero;stroke:none;stroke-width:3.00059342;marker:none;enable-background:accumulate"
         inkscape:connector-curvature="0"
         sodipodi:nodetypes="ccccccccc" />
    </g>
  </g>
  <g
     transform="matrix(0,-0.07140033,-0.07140033,0,46.453676,32.735296)"
     id="g4845-2-3-4-5-7-9-9-2"
     style="display:inline;fill:#808080;fill-opacity:1;enable-background:new">
    <g
       id="g1145-4-2-7-4-1-5-27-5"
       style="fill:#808080;fill-opacity:1">
      <path
         id="path4176-4-7-8-9-0-3-55-4"
         d="m 416.4588,524.55886 -56.02215,0.004 c 0,0 -5e-5,-2.7e-4 28.02866,-50.00391 0.004,0 0.009,0.003 0.0156,0.004 0.004,0.003 0.012,0.006 0.0176,0.0117 0.004,0.003 0.0139,0.009 0.0195,0.0117 0.004,0.003 0.0101,0.006 0.0156,0.006 27.92519,49.96651 27.92509,49.96677 27.92509,49.96677 z"
         style="color:#000000;display:inline;overflow:visible;visibility:visible;fill:#808080;fill-opacity:1;fill-rule:nonzero;stroke:none;stroke-width:3.00059342;marker:none;enable-background:accumulate"
         inkscape:connector-curvature="0"
         sodipodi:nodetypes="ccccccccc" />
    </g>
  </g>
  <g
     transform="matrix(0,-0.07140033,-0.07140033,0,46.453961,38.735296)"
     id="g4845-2-3-4-5-7-9-9-3"
     style="display:inline;fill:#808080;fill-opacity:1;enable-background:new">
    <g
       id="g1145-4-2-7-4-1-5-27-55"
       style="fill:#808080;fill-opacity:1">
      <path
         id="path4176-4-7-8-9-0-3-55-0"
         d="m 416.4588,524.55886 -56.02215,0.004 c 0,0 -5e-5,-2.7e-4 28.02866,-50.00391 0.004,0 0.009,0.003 0.0156,0.004 0.004,0.003 0.012,0.006 0.0176,0.0117 0.004,0.003 0.0139,0.009 0.0195,0.0117 0.004,0.003 0.0101,0.006 0.0156,0.006 27.92519,49.96651 27.92509,49.96677 27.92509,49.96677 z"
         style="color:#000000;display:inline;overflow:visible;visibility:visible;fill:#808080;fill-opacity:1;fill-rule:nonzero;stroke:none;stroke-width:3.00059342;marker:none;enable-background:accumulate"
         inkscape:connector-curvature="0"
         sodipodi:nodetypes="ccccccccc" />
    </g>
  </g>
</svg>
