<?xml version="1.0" encoding="UTF-8"?>
<svg id="svg121" width="1080" height="256" version="1.1" viewBox="0 0 285.75 67.733" xmlns="http://www.w3.org/2000/svg" xmlns:xlink="http://www.w3.org/1999/xlink">
 <defs id="defs69">
  <linearGradient id="linearGradient4470-1-4" x1="256" x2="256" y1="375" y2="135.28" gradientTransform="matrix(.081979 0 0 .082046 -6.2743 27.845)" gradientUnits="userSpaceOnUse" xlink:href="#linearGradient10518"/>
  <linearGradient id="linearGradient10518">
   <stop id="stop3" stop-color="#fff" offset="0"/>
   <stop id="stop5" stop-color="#e6e6e6" offset="1"/>
  </linearGradient>
  <filter id="filter4460-1-25" x="-.012754" y="-.01133" width="1.0255" height="1.0227" color-interpolation-filters="sRGB">
   <feGaussianBlur id="feGaussianBlur8" stdDeviation="1.1330049"/>
  </filter>
  <linearGradient id="linearGradient999-8" x1="256" x2="256" y1="138" y2="375" gradientUnits="userSpaceOnUse" xlink:href="#linearGradient4295"/>
  <linearGradient id="linearGradient4295">
   <stop id="stop12" stop-opacity="0" offset="0"/>
   <stop id="stop14" offset=".50477"/>
   <stop id="stop16" stop-opacity="0" offset="1"/>
  </linearGradient>
  <filter id="filter4415-4-9" x="-.10203" y="-.09064" width="1.2041" height="1.1813" color-interpolation-filters="sRGB">
   <feGaussianBlur id="feGaussianBlur19" stdDeviation="9.0640396"/>
  </filter>
  <linearGradient id="linearGradient4470-1-6" x1="256" x2="256" y1="375" y2="135.28" gradientTransform="matrix(.081979 0 0 .082046 24.791 27.845)" gradientUnits="userSpaceOnUse" xlink:href="#linearGradient10518"/>
  <filter id="filter4460-1-7" x="-.012754" y="-.01133" width="1.0255" height="1.0227" color-interpolation-filters="sRGB">
   <feGaussianBlur id="feGaussianBlur23" stdDeviation="1.1330049"/>
  </filter>
  <filter id="filter4415-4-2" x="-.10203" y="-.09064" width="1.2041" height="1.1813" color-interpolation-filters="sRGB">
   <feGaussianBlur id="feGaussianBlur26" stdDeviation="9.0640396"/>
  </filter>
  <linearGradient id="linearGradient4470-1-5" x1="256" x2="256" y1="375" y2="135.28" gradientTransform="matrix(.081979 0 0 .082046 -6.2744 -2.9695)" gradientUnits="userSpaceOnUse" xlink:href="#linearGradient10518"/>
  <filter id="filter4460-1-2" x="-.012754" y="-.01133" width="1.0255" height="1.0227" color-interpolation-filters="sRGB">
   <feGaussianBlur id="feGaussianBlur30" stdDeviation="1.1330049"/>
  </filter>
  <filter id="filter4415-4-3" x="-.10203" y="-.09064" width="1.2041" height="1.1813" color-interpolation-filters="sRGB">
   <feGaussianBlur id="feGaussianBlur33" stdDeviation="9.0640396"/>
  </filter>
  <linearGradient id="linearGradient4470-1" x1="256" x2="256" y1="375" y2="135.28" gradientTransform="matrix(.081979 0 0 .082046 24.791 -2.9695)" gradientUnits="userSpaceOnUse" xlink:href="#linearGradient10518"/>
  <filter id="filter4460-1" x="-.012754" y="-.01133" width="1.0255" height="1.0227" color-interpolation-filters="sRGB">
   <feGaussianBlur id="feGaussianBlur37" stdDeviation="1.1330049"/>
  </filter>
  <filter id="filter4415-4" x="-.10203" y="-.09064" width="1.2041" height="1.1813" color-interpolation-filters="sRGB">
   <feGaussianBlur id="feGaussianBlur40" stdDeviation="9.0640396"/>
  </filter>
  <linearGradient id="linearGradient1694-5" x1="39.998" x2="264" y1="204" y2="108" gradientTransform="matrix(0 .27759 -.27736 0 74.226 -8.4462)" gradientUnits="userSpaceOnUse">
   <stop id="stop43" stop-color="#787878" offset="0"/>
   <stop id="stop45" stop-color="#878787" offset="1"/>
  </linearGradient>
  <linearGradient id="linearGradient1694-6" x1="39.998" x2="264" y1="204" y2="108" gradientTransform="matrix(0 .27759 -.27736 0 74.335 -8.4462)" gradientUnits="userSpaceOnUse">
   <stop id="stop48" stop-color="#585858" offset="0"/>
   <stop id="stop50" stop-color="#878787" offset="1"/>
  </linearGradient>
  <linearGradient id="linearGradient1694-8" x1="39.998" x2="264" y1="204" y2="108" gradientTransform="matrix(0 .27759 -.27736 0 74.335 -8.7294)" gradientUnits="userSpaceOnUse">
   <stop id="stop53" stop-color="#a3a3a3" offset="0"/>
   <stop id="stop55" stop-color="#878787" offset="1"/>
  </linearGradient>
  <linearGradient id="linearGradient1694-1" x1="39.998" x2="264" y1="204" y2="108" gradientTransform="matrix(0 .27759 -.27736 0 74.226 -8.7294)" gradientUnits="userSpaceOnUse">
   <stop id="stop58" stop-color="#e6e6e6" offset="0"/>
   <stop id="stop60" stop-color="#878787" offset="1"/>
  </linearGradient>
 </defs>
 <g id="g1308">
  <path id="path77" d="m4.3115e-5 33.468v20.266c0 9.818 1.0055 10.824 10.796 10.824h20.269v-31.09z" color="#000000" fill="url(#linearGradient1694-8)" stroke-width="1.0487"/>
  <path id="path75" d="m30.956 33.468v31.09h20.269c9.7901 0 10.844-1.0066 10.796-10.824v-20.266z" color="#000000" fill="url(#linearGradient1694-1)" stroke-width="1.0487"/>
  <path id="path79" d="m10.796 2.654c-9.7901 0-10.796 1.0064-10.796 10.824v20.266h31.065v-31.09z" color="#000000" fill="url(#linearGradient1694-6)" stroke-width="1.0487"/>
  <path id="path81" d="m30.956 2.654v31.09h31.065v-20.266c0.048013-9.8179-1.0055-10.824-10.796-10.824z" color="#000000" fill="url(#linearGradient1694-5)" stroke-width="1.0487"/>
  <path id="path83" transform="matrix(.081979 0 0 .082046 24.791 -2.9695)" d="m155.41 138v240l221.19-120.08c0-0.0217-0.0115-0.0398-0.0253-0.0645-0.0115-0.0263-0.0264-0.0523-0.0448-0.0786-0.0191-0.026-0.0374-0.0533-0.0504-0.0786-0.0147-0.0262-0.0253-0.0526-0.0253-0.0758l-221.04-119.63z" color="#000000" fill="url(#linearGradient999-8)" filter="url(#filter4415-4)" opacity=".4"/>
  <path id="path85" transform="matrix(.081979 0 0 .082046 24.791 -2.9695)" d="m155.41 138v240s-1e-5 -2 221.19-120.08c0-0.0217-0.0115-0.0398-0.0253-0.0645-0.0115-0.0263-0.0264-0.0523-0.0448-0.0786-0.0191-0.026-0.0374-0.0533-0.0504-0.0786-0.0147-0.0262-0.0253-0.0526-0.0253-0.0758l-221.04-119.63z" color="#000000" filter="url(#filter4460-1)" opacity=".1"/>
  <path id="path87" d="m37.532 8.1936v19.691l18.133-9.8517c0-0.0021-1e-3 -0.0031-0.0021-0.0052l-0.0031-0.0063c-0.0021-0.0021-0.0031-0.0042-0.0042-0.0063-1e-3 -0.0021-0.0021-0.0042-0.0021-0.0063-18.121-9.6509-18.121-9.8149-18.121-9.8149z" color="#000000" fill="url(#linearGradient4470-1)" stroke-width="1.0487"/>
  <path id="path89" d="m37.532 8.1936v0.16409s6.3e-5 1.05e-5 18.027 9.75c0.03533-0.02508 0.07097-0.04963 0.10632-0.07481 0-0.0021-1e-3 -0.0031-0.0021-0.0052l-0.0031-0.0063c-0.0021-0.0021-0.0031-0.0042-0.0042-0.0063-1e-3 -0.0021-0.0021-0.0042-0.0021-0.0063l-18.121-9.815z" color="#000000" fill="#fff" stroke-width="1.0487"/>
  <path id="path91" transform="matrix(.081979 0 0 .082046 -6.2744 -2.9695)" d="m155.41 138v240l221.19-120.08c0-0.0217-0.0115-0.0398-0.0253-0.0645-0.0115-0.0263-0.0264-0.0523-0.0448-0.0786-0.0191-0.026-0.0374-0.0533-0.0504-0.0786-0.0147-0.0262-0.0253-0.0526-0.0253-0.0758l-221.04-119.63z" color="#000000" fill="url(#linearGradient999-8)" filter="url(#filter4415-4-3)" opacity=".4"/>
  <path id="path93" transform="matrix(.081979 0 0 .082046 -6.2744 -2.9695)" d="m155.41 138v240s-1e-5 -2 221.19-120.08c0-0.0217-0.0115-0.0398-0.0253-0.0645-0.0115-0.0263-0.0264-0.0523-0.0448-0.0786-0.0191-0.026-0.0374-0.0533-0.0504-0.0786-0.0147-0.0262-0.0253-0.0526-0.0253-0.0758l-221.04-119.63z" color="#000000" filter="url(#filter4460-1-2)" opacity=".1"/>
  <path id="path95" d="m6.4665 8.1936v19.691l18.133-9.8517c0-0.0021-1e-3 -0.0031-0.0021-0.0052l-0.0031-0.0063c-0.0021-0.0021-0.0031-0.0042-0.0042-0.0063-1e-3 -0.0021-0.0021-0.0042-0.0021-0.0063-18.121-9.6511-18.121-9.8152-18.121-9.8152z" color="#000000" fill="url(#linearGradient4470-1-5)" stroke-width="1.0487"/>
  <path id="path97" d="m6.4665 8.1936v0.16409s6.5e-5 1.05e-5 18.027 9.75c0.03533-0.02508 0.07097-0.04963 0.10632-0.07481 0-0.0021-1e-3 -0.0031-0.0021-0.0052-1e-3 -0.0021-0.0021-0.0042-0.0042-0.0063s-0.0031-0.0042-0.0042-0.0063c-1e-3 -0.0021-0.0021-0.0042-0.0021-0.0063l-18.121-9.8152z" color="#000000" fill="#fff" stroke-width="1.0487"/>
  <path id="path99" transform="matrix(.081979 0 0 .082046 24.791 27.845)" d="m155.41 138v240l221.19-120.08c0-0.0217-0.0115-0.0398-0.0253-0.0645-0.0115-0.0263-0.0264-0.0523-0.0448-0.0786-0.0191-0.026-0.0374-0.0533-0.0504-0.0786-0.0147-0.0262-0.0253-0.0526-0.0253-0.0758l-221.04-119.63z" color="#000000" fill="url(#linearGradient999-8)" filter="url(#filter4415-4-2)" opacity=".4"/>
  <path id="path101" transform="matrix(.081979 0 0 .082046 24.791 27.845)" d="m155.41 138v240s-1e-5 -2 221.19-120.08c0-0.0217-0.0115-0.0398-0.0253-0.0645-0.0115-0.0263-0.0264-0.0523-0.0448-0.0786-0.0191-0.026-0.0374-0.0533-0.0504-0.0786-0.0147-0.0262-0.0253-0.0526-0.0253-0.0758l-221.04-119.63z" color="#000000" filter="url(#filter4460-1-7)" opacity=".1"/>
  <path id="path103" d="m37.532 38.997v19.691l18.133-9.8517c0-0.0021-1e-3 -0.0031-0.0021-0.0052-1e-3 -0.0021-0.0021-0.0042-0.0042-0.0063s-0.0031-0.0042-0.0042-0.0063c-1e-3 -0.0021-0.0021-0.0042-0.0021-0.0063-18.121-9.6509-18.121-9.8149-18.121-9.8149z" color="#000000" fill="url(#linearGradient4470-1-6)" stroke-width="1.0487"/>
  <path id="path105" d="m37.532 38.997v0.16409s6.3e-5 1e-5 18.027 9.75c0.03533-0.02508 0.07097-0.04963 0.10631-0.07481 0-0.0021-1e-3 -0.0031-0.0021-0.0052-1e-3 -0.0021-0.0021-0.0042-0.0042-0.0063s-0.0031-0.0042-0.0042-0.0063c-1e-3 -0.0021-0.0021-0.0042-0.0021-0.0063l-18.121-9.815z" color="#000000" fill="#fff" stroke-width="1.0487"/>
  <path id="path107" transform="matrix(.081979 0 0 .082046 -6.2743 27.845)" d="m155.41 138v240l221.19-120.08c0-0.0217-0.0115-0.0398-0.0253-0.0645-0.0115-0.0263-0.0264-0.0523-0.0448-0.0786-0.0191-0.026-0.0374-0.0533-0.0504-0.0786-0.0147-0.0262-0.0253-0.0526-0.0253-0.0758l-221.04-119.63z" color="#000000" fill="url(#linearGradient999-8)" filter="url(#filter4415-4-9)" opacity=".4"/>
  <path id="path109" transform="matrix(.081979 0 0 .082046 -6.2743 27.845)" d="m155.41 138v240s-1e-5 -2 221.19-120.08c0-0.0217-0.0115-0.0398-0.0253-0.0645-0.0115-0.0263-0.0264-0.0523-0.0448-0.0786-0.0191-0.026-0.0374-0.0533-0.0504-0.0786-0.0147-0.0262-0.0253-0.0526-0.0253-0.0758l-221.04-119.63z" color="#000000" filter="url(#filter4460-1-25)" opacity=".1"/>
  <path id="path111" d="m6.4665 38.997v19.691l18.133-9.8517c0-0.0021-1e-3 -0.0031-0.0021-0.0052-1e-3 -0.0021-0.0021-0.0042-0.0042-0.0063s-0.0031-0.0042-0.0042-0.0063c-1e-3 -0.0021-0.0021-0.0042-0.0021-0.0063-18.121-9.6511-18.121-9.8152-18.121-9.8152z" color="#000000" fill="url(#linearGradient4470-1-4)" stroke-width="1.0487"/>
  <path id="path113" d="m6.4665 38.997v0.16409s6.29e-5 1e-5 18.027 9.75c0.03533-0.02508 0.07097-0.04963 0.10632-0.07481 0-0.0021-1e-3 -0.0031-0.0021-0.0052-1e-3 -0.0021-0.0021-0.0042-0.0042-0.0063s-0.0031-0.0042-0.0042-0.0063c-1e-3 -0.0021-0.0021-0.0042-0.0021-0.0063-18.121-9.8152-18.121-9.8152-18.121-9.8152z" color="#000000" fill="#fff" stroke-width="1.0487"/>
  <path id="path115" d="m10.778 2.3812c-9.7728 0-10.825 1.0066-10.776 10.824v0.55519c-0.047897-9.8179 1.0037-10.824 10.776-10.824h40.468c9.7728 0 10.776 1.0064 10.776 10.824v-0.55519c0-9.818-1.0037-10.824-10.776-10.824z" color="#000000" fill="#fff" opacity=".3" stroke-width="1.0478"/>
  <path id="path117" d="m10.778 64.555c-9.773 0-10.825-1.0066-10.777-10.824v-0.55519c-0.047897 9.8179 1.0037 10.824 10.777 10.824h40.467c9.773 0 10.777-1.0064 10.777-10.824v0.55519c0 9.818-1.0037 10.824-10.777 10.824z" color="#000000" opacity=".2" stroke-width="1.0478"/>
 </g>
 <g id="text" transform="matrix(1.151 0 0 1.1519 -22.655 -4.873)" fill="#777" aria-label="Play videos side-by-side">
  <path id="path1010" d="m264.83 55.479q-1.8189 0-2.7692-0.93777-0.94406-0.94406-0.94406-2.7252 0-1.1266 0.39021-1.9636 0.39021-0.84336 1.1643-1.3091 0.78043-0.46574 1.9511-0.46574 0.96294 0 1.6678 0.44686 0.7049 0.44686 1.0888 1.2462 0.39021 0.79301 0.39021 1.8504v0.74896h-4.777q0 1.649 1.9259 1.649 1.265 0 2.5552-0.76154v1.693q-1.2839 0.52867-2.6434 0.52867zm1.0825-4.4937q0-0.73007-0.35875-1.1014-0.35874-0.37762-1.0259-0.37762-0.67972 0-1.0636 0.38392t-0.45315 1.0951zm-9.963 4.4937q-1.1895 0-1.8629-0.98182-0.67343-0.98812-0.67343-2.7126 0-1.7434 0.67972-2.7252 0.67972-0.98182 1.8692-0.98182 1.1832 0 1.863 1.1706v-3.7448h1.8378v9.7931h-1.6552l-0.18252-1.0448q-0.58532 1.2273-1.8755 1.2273zm0.58532-1.5105q0.58532 0 0.93777-0.59161 0.35245-0.59791 0.35245-1.586t-0.35874-1.5797q-0.35245-0.5979-0.95036-0.5979-0.58532 0-0.92518 0.57902-0.33357 0.57273-0.33357 1.5608 0 1.0133 0.34616 1.6175 0.35245 0.5979 0.93147 0.5979zm-8.6035-6.5581q-0.18882 0-0.18882-0.18881v-1.7748q0-0.18881 0.18882-0.18881h1.4664q0.18881 0 0.18881 0.18881v1.7748q0 0.18881-0.18881 0.18881zm2.272 7.9616q-1.3091 0-1.8881-0.68602-0.57273-0.69231-0.57273-2.2532v-2.7692h-1.4916v-1.4161h3.3357v4.1853q0 0.81819 0.25804 1.1706 0.26434 0.35245 0.87483 0.35245h1.4727v1.4161zm-9.0315 0.10699q-1.1895 0-2.6371-0.44056v-1.6112q1.2399 0.71119 2.486 0.71119 1.2965 0 1.2965-0.76784 0-0.33986-0.3084-0.54756-0.30839-0.20769-1.051-0.36504l-0.50979-0.11329q-2.0266-0.45315-2.0266-2.0832 0-1.0448 0.74896-1.6112 0.75525-0.57273 2.1839-0.57273 0.55385 0 1.0951 0.09441 0.54756 0.09441 1.1266 0.29581v1.6112q-0.55384-0.34616-1.0636-0.5035-0.5035-0.15734-1.0385-0.15734-0.62938 0-0.96924 0.18252t-0.33986 0.49091q0 0.28322 0.31468 0.49091 0.32099 0.2014 1.0322 0.36504l0.5979 0.14476q1.007 0.23916 1.4727 0.76784 0.47203 0.52868 0.47203 1.3972 0 2.2217-2.8825 2.2217zm-10.196-4.8776h4.9784v1.8315h-4.9784zm-8.2826 5.9602h0.39022q0.45944 0 0.74266-0.03776 0.28322-0.03147 0.45944-0.16993 0.18252-0.13217 0.32727-0.42797 0.14476-0.29581 0.33357-0.82448l-2.6811-6.8539h1.9385l1.6112 4.5755 1.542-4.5755h1.9385l-2.9266 7.8105q-0.18881 0.50979-0.46574 0.94406-0.27063 0.43427-0.67972 0.6986-0.4091 0.26434-1.007 0.26434h-1.5231zm-3.9588-1.0825q-1.2902 0-1.8755-1.2273l-0.18251 1.0448h-1.6553v-9.7931h1.8378v3.7448q0.66714-1.1706 1.8755-1.1706 1.1832 0 1.8566 0.98182 0.67972 0.97553 0.67972 2.7126t-0.67343 2.7252q-0.67343 0.98182-1.8629 0.98182zm-0.58532-1.5105q0.57902 0 0.92518-0.5979 0.35245-0.6042 0.35245-1.6175 0-0.98812-0.33986-1.5608-0.33357-0.57902-0.91889-0.57902-0.5979 0-0.95665 0.5979-0.35245 0.59161-0.35245 1.5797t0.35245 1.586q0.35245 0.59161 0.93777 0.59161zm-10.435-3.3672h4.9784v1.8315h-4.9784zm-4.9154 4.8776q-1.8189 0-2.7692-0.93777-0.94406-0.94406-0.94406-2.7252 0-1.1266 0.39021-1.9636 0.39021-0.84336 1.1643-1.3091 0.78043-0.46574 1.9511-0.46574 0.96295 0 1.6678 0.44686 0.7049 0.44686 1.0888 1.2462 0.39021 0.79301 0.39021 1.8504v0.74896h-4.7769q0 1.649 1.9259 1.649 1.265 0 2.5553-0.76154v1.693q-1.2839 0.52867-2.6434 0.52867zm1.0825-4.4937q0-0.73007-0.35874-1.1014-0.35875-0.37762-1.0259-0.37762-0.67973 0-1.0636 0.38392-0.38392 0.38392-0.45315 1.0951zm-9.963 4.4937q-1.1895 0-1.863-0.98182-0.67343-0.98812-0.67343-2.7126 0-1.7434 0.67972-2.7252 0.67973-0.98182 1.8692-0.98182 1.1832 0 1.863 1.1706v-3.7448h1.8378v9.7931h-1.6552l-0.18252-1.0448q-0.58532 1.2273-1.8755 1.2273zm0.58531-1.5105q0.58532 0 0.93777-0.59161 0.35245-0.59791 0.35245-1.586t-0.35874-1.5797q-0.35245-0.5979-0.95036-0.5979-0.58531 0-0.92518 0.57902-0.33356 0.57273-0.33356 1.5608 0 1.0133 0.34615 1.6175 0.35245 0.5979 0.93147 0.5979zm-8.6035-6.5581q-0.18882 0-0.18882-0.18881v-1.7748q0-0.18881 0.18882-0.18881h1.4664q0.18881 0 0.18881 0.18881v1.7748q0 0.18881-0.18881 0.18881zm2.272 7.9616q-1.3091 0-1.8881-0.68602-0.57273-0.69231-0.57273-2.2532v-2.7692h-1.4916v-1.4161h3.3357v4.1853q0 0.81819 0.25804 1.1706 0.26434 0.35245 0.87483 0.35245h1.4727v1.4161zm-9.0315 0.10699q-1.1895 0-2.6371-0.44056v-1.6112q1.2399 0.71119 2.486 0.71119 1.2965 0 1.2965-0.76784 0-0.33986-0.3084-0.54756-0.30839-0.20769-1.051-0.36504l-0.50979-0.11329q-2.0266-0.45315-2.0266-2.0832 0-1.0448 0.74896-1.6112 0.75525-0.57273 2.1839-0.57273 0.55385 0 1.0951 0.09441 0.54755 0.09441 1.1266 0.29581v1.6112q-0.55384-0.34616-1.0636-0.5035-0.5035-0.15734-1.0385-0.15734-0.62938 0-0.96924 0.18252t-0.33986 0.49091q0 0.28322 0.31468 0.49091 0.32099 0.2014 1.0322 0.36504l0.5979 0.14476q1.007 0.23916 1.4727 0.76784 0.47203 0.52868 0.47203 1.3972 0 2.2217-2.8825 2.2217zm-15.508 0q-1.1895 0-2.6371-0.44056v-1.6112q1.2399 0.71119 2.486 0.71119 1.2965 0 1.2965-0.76784 0-0.33986-0.30839-0.54756-0.30839-0.20769-1.0511-0.36504l-0.50979-0.11329q-2.0266-0.45315-2.0266-2.0832 0-1.0448 0.74895-1.6112 0.75525-0.57273 2.1839-0.57273 0.55385 0 1.0951 0.09441 0.54756 0.09441 1.1266 0.29581v1.6112q-0.55385-0.34616-1.0636-0.5035-0.5035-0.15734-1.0385-0.15734-0.62937 0-0.96923 0.18252-0.33987 0.18252-0.33987 0.49091 0 0.28322 0.31469 0.49091 0.32098 0.2014 1.0322 0.36504l0.59791 0.14476q1.007 0.23916 1.4727 0.76784 0.47203 0.52868 0.47203 1.3972 0 2.2217-2.8825 2.2217zm-7.7098 0q-1.0007 0-1.7371-0.44686-0.73007-0.45315-1.1266-1.2839-0.3965-0.83077-0.3965-1.9636t0.3965-1.9636q0.4028-0.83707 1.1392-1.2902 0.74266-0.45315 1.756-0.45315 1.0007 0 1.7245 0.44686 0.72378 0.44056 1.114 1.265 0.39651 0.82448 0.39651 1.9574 0 1.1518-0.4028 1.9888-0.39651 0.83707-1.1266 1.2902-0.73008 0.45315-1.7371 0.45315zm6e-3 -1.4979q0.64825 0 1.0322-0.59161 0.38392-0.5979 0.38392-1.6112 0-1.0196-0.38392-1.6112-0.38392-0.59161-1.0322-0.59161-0.65455 0-1.0385 0.5979-0.38392 0.59161-0.38392 1.6049t0.38392 1.6112q0.38392 0.59161 1.0385 0.59161zm-7.4074 1.4979q-1.8189 0-2.7692-0.93777-0.94406-0.94406-0.94406-2.7252 0-1.1266 0.39021-1.9636 0.39021-0.84336 1.1643-1.3091 0.78043-0.46574 1.9511-0.46574 0.96295 0 1.6678 0.44686 0.7049 0.44686 1.0888 1.2462 0.39021 0.79301 0.39021 1.8504v0.74896h-4.777q0 1.649 1.9259 1.649 1.265 0 2.5553-0.76154v1.693q-1.2839 0.52867-2.6434 0.52867zm1.0825-4.4937q0-0.73007-0.35874-1.1014-0.35875-0.37762-1.0259-0.37762-0.67973 0-1.0636 0.38392-0.38392 0.38392-0.45315 1.0951zm-9.963 4.4937q-1.1895 0-1.863-0.98182-0.67343-0.98812-0.67343-2.7126 0-1.7434 0.67973-2.7252 0.67972-0.98182 1.8692-0.98182 1.1832 0 1.8629 1.1706v-3.7448h1.8378v9.7931h-1.6553l-0.18252-1.0448q-0.58531 1.2273-1.8755 1.2273zm0.58532-1.5105q0.58532 0 0.93777-0.59161 0.35244-0.59791 0.35244-1.586t-0.35874-1.5797q-0.35245-0.5979-0.95035-0.5979-0.58532 0-0.92518 0.57902-0.33357 0.57273-0.33357 1.5608 0 1.0133 0.34615 1.6175 0.35245 0.5979 0.93148 0.5979zm-8.6035-6.5581q-0.18882 0-0.18882-0.18881v-1.7748q0-0.18881 0.18882-0.18881h1.4664q0.18881 0 0.18881 0.18881v1.7748q0 0.18881-0.18881 0.18881zm2.272 7.9616q-1.3091 0-1.8881-0.68602-0.57273-0.69231-0.57273-2.2532v-2.7692h-1.4916v-1.4161h3.3357v4.1853q0 0.81819 0.25804 1.1706 0.26434 0.35245 0.87483 0.35245h1.4727v1.4161zm-12.361-7.1245h1.8692l1.5042 5.5007 1.5105-5.5007h1.8692l-2.2406 7.049h-2.272zm-15.149 8.314h0.39021q0.45945 0 0.74267-0.03776 0.28321-0.03147 0.45944-0.16993 0.18252-0.13217 0.32727-0.42797 0.14476-0.29581 0.33357-0.82448l-2.6811-6.8539h1.9385l1.6112 4.5755 1.542-4.5755h1.9385l-2.9266 7.8105q-0.18882 0.50979-0.46574 0.94406-0.27063 0.43427-0.67972 0.6986-0.4091 0.26434-1.007 0.26434h-1.5231zm-5.57-1.0825q-1.0951 0-1.7748-0.62308-0.67343-0.62937-0.67343-1.8063 0-0.74266 0.26434-1.2084 0.27063-0.47203 0.73007-0.73007 0.46574-0.25804 1.051-0.35245 0.58532-0.1007 1.2273-0.1007h1.2776v-0.30839q0-0.37762-0.2014-0.57273-0.1951-0.19511-0.50979-0.26434-0.30839-0.06923-0.63567-0.06923-0.66713 0-1.2839 0.18252-0.61049 0.18252-1.221 0.51609v-1.5734q0.65455-0.26434 1.2965-0.37762 0.64826-0.11958 1.3091-0.11958 1.158 0 1.8315 0.33357 0.67343 0.32727 0.95665 1.0196 0.28951 0.68602 0.28951 1.7497 0 0.24546-0.0126 0.62937-6e-3 0.38392-6e-3 0.76784 0 0.33986-6e-3 0.64196-6e-3 0.3021-6e-3 0.50979 0 0.18252 0.0189 0.47832 0.0189 0.28951 0.0881 0.59161 0.0692 0.3021 0.21398 0.5035h-1.8252q-0.11958-0.2014-0.17623-0.37762-0.0566-0.17622-0.0818-0.40909-0.37133 0.4972-0.93147 0.73637-0.55385 0.23287-1.2084 0.23287zm0.6042-1.2776q0.57903 0 0.90001-0.31469 0.32727-0.32098 0.45944-0.7993 0.13846-0.48462 0.13846-0.97553v-0.12588h-0.73636q-0.43427 0-0.86225 0.06294-0.42797 0.05664-0.71119 0.2958-0.27692 0.23287-0.27692 0.77413 0 0.51609 0.28321 0.7993 0.28952 0.28322 0.8056 0.28322zm-6.4448 1.1455q-1.3091 0-1.8881-0.68602-0.57273-0.69231-0.57273-2.2532v-5.4881h-1.8692v-1.4161h3.7133v6.9042q0 0.81819 0.25804 1.1706 0.26434 0.35245 0.87483 0.35245h1.4727v1.4161zm-11.669-9.4469h2.549q1.9385 0 2.8007 0.69231 0.84966 0.68602 0.84966 2.2469 0 1.5608-0.84966 2.2469-0.86224 0.69231-2.8007 0.69231h-0.69231v3.5182h-1.8567zm2.6182 4.3175q0.91889 0 1.2839-0.30839 0.36504-0.30839 0.36504-1.0699 0-0.76154-0.36504-1.0699-0.36504-0.30839-1.2839-0.30839h-0.76154v2.7567zm168.87-33.867h4.038l0.44357 2.6614q0.65771-1.4531 2.0037-2.2637 1.3613-0.81066 3.1815-0.81066 1.8814 0 3.4874 0.87184v4.2674q-1.4837-1.346-3.885-1.346-1.9425 0-3.1509 0.88714-1.2083 0.88714-1.499 2.5543-0.0765 0.39768-0.10707 0.96362-0.0306 0.56593-0.0306 1.4531v7.8925h-4.4816zm-12.252 17.575q-4.4204 0-6.73-2.279-2.2943-2.2943-2.2943-6.623 0-2.7379 0.94832-4.7722 0.94832-2.0496 2.8297-3.1815 1.8966-1.1319 4.7416-1.1319 2.3402 0 4.0533 1.086 1.7131 1.086 2.6461 3.0285 0.94832 1.9272 0.94832 4.4969v1.8202h-11.609q0 4.0074 4.6804 4.0074 3.0744 0 6.21-1.8508v4.1145q-3.1203 1.2848-6.4241 1.2848zm2.6308-10.921q0-1.7743-0.87184-2.6767-0.87184-0.91773-2.4932-0.91773-1.6519 0-2.5849 0.93302-0.93302 0.93303-1.1013 2.6614zm-29.658 13.552h0.94832q1.1166 0 1.8049-0.09177 0.6883-0.07648 1.1166-0.41298 0.44357-0.32121 0.79537-1.0401 0.35179-0.71889 0.81066-2.0037l-6.5159-16.657h4.711l3.9156 11.12 3.7474-11.12h4.711l-7.1124 18.982q-0.45886 1.2389-1.1319 2.2943-0.6577 1.0554-1.6519 1.6978t-2.4473 0.64241h-3.7015zm-13.537-2.6308q-2.6614 0-4.3133-1.5143-1.6366-1.5296-1.6366-4.3898 0-1.8049 0.64241-2.9367 0.6577-1.1472 1.7743-1.7743 1.1319-0.62712 2.5544-0.85655 1.4225-0.24473 2.9826-0.24473h3.105v-0.74948q0-0.91773-0.48945-1.3919-0.47416-0.47416-1.2389-0.64241-0.74948-0.16825-1.5448-0.16825-1.6213 0-3.1203 0.44357-1.4837 0.44357-2.9673 1.2542v-3.8239q1.5907-0.64241 3.1509-0.91773 1.5754-0.29062 3.1815-0.29062 2.8144 0 4.451 0.81066 1.6366 0.79537 2.3249 2.4779 0.70359 1.6672 0.70359 4.2522 0 0.59652-0.0306 1.5296-0.0153 0.93302-0.0153 1.8661 0 0.82596-0.0153 1.5601t-0.0153 1.2389q0 0.44357 0.0459 1.1625 0.0459 0.70359 0.21414 1.4378 0.16825 0.73418 0.52005 1.2236h-4.4357q-0.29061-0.48946-0.42827-0.91773t-0.19884-0.99421q-0.90244 1.2083-2.2637 1.7896-1.346 0.56593-2.9367 0.56593zm1.4684-3.105q1.4072 0 2.1873-0.76478 0.79537-0.78007 1.1166-1.9425 0.3365-1.1778 0.3365-2.3708v-0.30591h-1.7896q-1.0554 0-2.0955 0.15296-1.0401 0.13766-1.7284 0.71889-0.673 0.56593-0.673 1.8813 0 1.2542 0.6883 1.9425 0.70359 0.6883 1.9578 0.6883zm-15.663 2.7838q-3.1815 0-4.5886-1.6672-1.3919-1.6825-1.3919-5.4758v-13.338h-4.5428v-3.4415h9.0244v16.779q0 1.9884 0.62711 2.845 0.64241 0.85655 2.1261 0.85655h3.5791v3.4415zm-28.358-22.959h6.1947q4.711 0 6.8065 1.6825 2.0649 1.6672 2.0649 5.4605 0 3.7933-2.0649 5.4605-2.0955 1.6825-6.8065 1.6825h-1.6825v8.5502h-4.5122zm6.3629 10.493q2.2331 0 3.1203-0.74948 0.88714-0.74948 0.88714-2.6002 0-1.8508-0.88714-2.6002-0.88714-0.74948-3.1203-0.74948h-1.8508v6.6994zm-20.205 12.787q-2.8908 0-4.5275-2.3861-1.6366-2.4014-1.6366-6.5924 0-4.2369 1.6519-6.623 1.6519-2.3861 4.5428-2.3861 2.8756 0 4.5275 2.845v-9.1008h4.4663v23.8h-4.0227l-0.44357-2.5391q-1.4225 2.9826-4.5581 2.9826zm1.4225-3.6709q1.4225 0 2.279-1.4378 0.85655-1.4531 0.85655-3.8545t-0.87185-3.8392q-0.85654-1.4531-2.3096-1.4531-1.4225 0-2.2484 1.4072-0.81066 1.3919-0.81066 3.7933 0 2.4626 0.84126 3.9309 0.85654 1.4531 2.2637 1.4531zm-20.909-15.938q-0.45887 0-0.45887-0.45887v-4.3133q0-0.45886 0.45887-0.45886h3.5638q0.45886 0 0.45886 0.45886v4.3133q0 0.45887-0.45886 0.45887zm5.5217 19.349q-3.1815 0-4.5886-1.6672-1.3919-1.6825-1.3919-5.4758v-6.73h-3.625v-3.4415h8.1066v10.172q0 1.9884 0.62712 2.845 0.64241 0.85655 2.1261 0.85655h3.5791v3.4415zm-27.578-17.315h4.038l0.44357 2.6614q0.6577-1.4531 2.0037-2.2637 1.3613-0.81066 3.1815-0.81066 1.8814 0 3.4874 0.87184v4.2674q-1.4837-1.346-3.885-1.346-1.9425 0-3.1509 0.88714-1.2083 0.88714-1.499 2.5543-0.0765 0.39768-0.10706 0.96362-0.0306 0.56593-0.0306 1.4531v7.8925h-4.4816zm-11.518 17.575q-4.4051 0-6.8065-3.0744-1.1472-1.4684-1.7896-3.6403-0.62712-2.172-0.62712-5.1546 0-5.7664 2.4473-8.7796 2.4473-3.0438 6.9595-3.0438 1.4531 0 2.7838 0.38239 1.346 0.39768 2.4932 1.1319v5.0016q-0.94832-1.2236-2.172-1.8508-1.2083-0.61182-2.692-0.61182-2.5849 0-3.8545 1.9272-1.2695 1.9578-1.2695 5.8429 0 3.8086 1.2236 5.8429 0.58123 0.94832 1.4531 1.4684 0.88714 0.50475 2.1261 0.50475 0.30591 0 0.62712-0.03059 0.32121-0.03059 0.58123-0.10707 0.3365-0.07648 0.50475-0.16825 0.16825-0.09177 0.3365-0.21414v-4.3592h-3.0897v-3.7933h7.0359v10.462q-1.3001 1.1166-2.8603 1.6825-0.79537 0.29061-1.6213 0.42827-0.82596 0.15296-1.7896 0.15295z" fill="#777" stroke-width=".32224"/>
 </g>
</svg>
