<?xml version="1.0" encoding="UTF-8"?>
<svg width="16" height="16" version="1.1" xmlns="http://www.w3.org/2000/svg">
 <g fill="#808080">
  <path d="m1 0v16h14v-16zm1 1h12v14h-12z" color="#000000" overflow="visible"/>
  <g>
   <g transform="matrix(0 -.0714 -.0714 0 41.454 32.735)" enable-background="new">
    <g fill="#808080">
     <path d="m416.46 524.56-56.022 4e-3s-5e-5 -2.7e-4 28.029-50.004c4e-3 0 9e-3 3e-3 0.0156 4e-3 4e-3 3e-3 0.012 6e-3 0.0176 0.0117 4e-3 3e-3 0.0139 9e-3 0.0195 0.0117 4e-3 3e-3 0.0101 6e-3 0.0156 6e-3 27.925 49.967 27.925 49.967 27.925 49.967z" color="#000000" enable-background="accumulate" fill="#808080"/>
    </g>
   </g>
   <g transform="matrix(0 -.0714 -.0714 0 41.454 38.735)" enable-background="new">
    <g fill="#808080">
     <path d="m416.46 524.56-56.022 4e-3s-5e-5 -2.7e-4 28.029-50.004c4e-3 0 9e-3 3e-3 0.0156 4e-3 4e-3 3e-3 0.012 6e-3 0.0176 0.0117 4e-3 3e-3 0.0139 9e-3 0.0195 0.0117 4e-3 3e-3 0.0101 6e-3 0.0156 6e-3 27.925 49.967 27.925 49.967 27.925 49.967z" color="#000000" enable-background="accumulate" fill="#808080"/>
    </g>
   </g>
   <g transform="matrix(0 -.0714 -.0714 0 46.454 32.735)" enable-background="new">
    <g fill="#808080">
     <path d="m416.46 524.56-56.022 4e-3s-5e-5 -2.7e-4 28.029-50.004c4e-3 0 9e-3 3e-3 0.0156 4e-3 4e-3 3e-3 0.012 6e-3 0.0176 0.0117 4e-3 3e-3 0.0139 9e-3 0.0195 0.0117 4e-3 3e-3 0.0101 6e-3 0.0156 6e-3 27.925 49.967 27.925 49.967 27.925 49.967z" color="#000000" enable-background="accumulate" fill="#808080"/>
    </g>
   </g>
   <g transform="matrix(0 -.0714 -.0714 0 46.454 38.735)" enable-background="new">
    <g fill="#808080">
     <path d="m416.46 524.56-56.022 4e-3s-5e-5 -2.7e-4 28.029-50.004c4e-3 0 9e-3 3e-3 0.0156 4e-3 4e-3 3e-3 0.012 6e-3 0.0176 0.0117 4e-3 3e-3 0.0139 9e-3 0.0195 0.0117 4e-3 3e-3 0.0101 6e-3 0.0156 6e-3 27.925 49.967 27.925 49.967 27.925 49.967z" color="#000000" enable-background="accumulate" fill="#808080"/>
    </g>
   </g>
  </g>
 </g>
</svg>
