<?xml version="1.0" encoding="UTF-8"?>
<svg width="16" height="16" version="1.1" xmlns="http://www.w3.org/2000/svg">
 <g fill="#bebebe">
  <path d="m1.2845 0c-0.6319 0.16419-1.1314 0.69576-1.2845 1.3696v13.129c0.1071 0.78677 0.72691 1.4292 1.4745 1.501h13.067c0.76043-0.0867 1.3892-0.76002 1.4588-1.5719v-13.073c-0.15852-0.66248-0.65123-1.1909-1.2767-1.355zm12.66 1.1848c0.79053 0.11608 0.80817 0.49184 0.9236 1.1992 0.0422 4.3566 0.0175 9.5098 0.013 11.562 0.0162 0.52664-0.45837 0.94691-0.94025 0.89197h-11.887c-0.48391 0.0538-0.95869-0.37213-0.93841-0.89985 0-5.8266 4e-3 -6.3877 0.0223-11.883-0.0234-0.46633 0.37873-0.8933 0.81809-0.86638 5.7037-0.01 6.2836 1e-3 11.988-4e-3z"/>
  <path d="m3.3273 3.2018c-0.0626 0.0153-0.1229 0.0496-0.17589 0.10817-0.19363 0.18788-0.12113 0.48992-0.14368 0.73319 0.0198 1.0786-0.0185 2.1575 0.0173 3.2361-0.0101 0.33518 0.40284 0.53079 0.66143 0.34024 0.85665-0.47035 1.6877-0.99063 2.5417-1.4664 0.24665-0.15137 0.52232-0.27145 0.71593-0.49583 0.14056-0.25815-0.0252-0.54186-0.2626-0.65407-0.92561-0.54873-1.8613-1.0798-2.787-1.6299-0.16412-0.0983-0.37989-0.2172-0.5673-0.17143z"/>
  <path d="m9.3649 3.2018c-0.0626 0.0153-0.12291 0.0496-0.17589 0.10817-0.19363 0.18788-0.12113 0.48992-0.14368 0.73319 0.0197 1.0786-0.0185 2.1575 0.0173 3.2361-0.0101 0.33518 0.40285 0.53079 0.66144 0.34024 0.85665-0.47035 1.6877-0.99063 2.5417-1.4664 0.24665-0.15137 0.52232-0.27145 0.71593-0.49583 0.14056-0.25815-0.0252-0.54186-0.2626-0.65407-0.92561-0.54873-1.8613-1.0798-2.787-1.6299-0.16412-0.0983-0.37989-0.2172-0.5673-0.17143z"/>
  <path d="m3.3273 8.5386c-0.0626 0.0153-0.1229 0.0496-0.17589 0.10817-0.19363 0.18788-0.12113 0.48992-0.14368 0.73319 0.0198 1.0786-0.0185 2.1575 0.0173 3.2361-0.0101 0.33518 0.40284 0.53079 0.66143 0.34024 0.85665-0.47035 1.6877-0.99063 2.5417-1.4664 0.24665-0.15137 0.52232-0.27145 0.71593-0.49583 0.14056-0.25815-0.0252-0.54186-0.2626-0.65407-0.92561-0.54873-1.8613-1.0798-2.787-1.6299-0.16412-0.0983-0.37989-0.2172-0.5673-0.17143z"/>
  <path d="m9.3427 8.5386c-0.0626 0.0153-0.1229 0.0496-0.17589 0.10817-0.19362 0.18788-0.12113 0.48992-0.14368 0.73319 0.0197 1.0786-0.0184 2.1575 0.0173 3.2361-0.0101 0.33518 0.40284 0.53079 0.66143 0.34024 0.85665-0.47035 1.6877-0.99063 2.5417-1.4664 0.24665-0.15137 0.52232-0.27145 0.71594-0.49583 0.14056-0.25815-0.0252-0.54186-0.26261-0.65407-0.92561-0.54873-1.8613-1.0798-2.7869-1.6299-0.16412-0.0983-0.3799-0.2172-0.56731-0.17143z"/>
 </g>
</svg>
