<?xml version="1.0" encoding="UTF-8"?>
<svg width="572pt" height="572pt" version="1.1" viewBox="-18 -18 572.01 572" xmlns="http://www.w3.org/2000/svg">
 <path d="m303.08 232.64c-1.908-1.9144-4.5012-2.9901-7.2063-2.9901-2.7052 0-5.2951 1.0757-7.2031 2.9901l-69.205 69.198-72.777-72.777c-3.9793-3.9793-10.433-3.9793-14.409 0-3.9793 3.9825-3.9793 10.433 0 14.416l72.777 72.777-72.777 72.774c-1.9144 1.908-2.9901 4.5044-2.9901 7.2095 0 2.702 1.0757 5.2919 2.9901 7.2063 1.9176 1.9272 4.5364 2.9965 7.2544 2.9613 2.7116-0.0128 5.3143-1.0725 7.2608-2.9613l72.777-72.777 69.198 69.198c1.9176 1.9304 4.5364 2.9997 7.2576 2.9645 2.7116-0.0128 5.3143-1.0757 7.2576-2.9645 1.9144-1.9112 2.9901-4.5044 2.9901-7.2063 0-2.702-1.0757-5.2983-2.9901-7.2063l-69.201-69.198 69.201-69.201c3.8289-4.0754 3.736-10.449-0.20489-14.413z" stroke-width=".81956"/>
 <g stroke-width=".81956">
  <path d="m265.23 53.429c-48.484-0.0087-94.361 15.925-131.57 43.733 24.748-10.972 52.374-17.005 82.74-17.204 65.767-16.552 138.33 0.87909 189.77 52.316 53.779 53.781 70.395 130.64 49.865 198.7-2.1575 28.446-9.6512 56.681-22.349 83.314 72.471-86.324 68.111-215.26-13.086-296.46-41.115-41.349-97.06-64.537-155.37-64.396z"/>
  <path d="m312.45 6.2147c-48.484-0.00871-94.361 15.925-131.57 43.733 24.748-10.972 52.374-17.005 82.74-17.204 65.767-16.552 138.33 0.87909 189.77 52.316 53.779 53.781 70.395 130.64 49.865 198.7-2.1575 28.446-9.6512 56.681-22.349 83.314 72.471-86.324 68.111-215.26-13.086-296.46-41.115-41.349-97.06-64.537-155.37-64.396z"/>
 </g>
 <path d="m219.77 96.688c-88.887-0.016011-169.03 53.524-203.04 135.65-34.008 82.125-15.197 176.65 47.675 239.48 85.81 85.81 224.93 85.81 310.74 0 85.807-85.804 85.807-224.92 0-310.73-41.116-41.349-97.06-64.537-155.37-64.396zm140.96 360.72c-77.682 77.685-204.13 77.685-281.91 0-77.826-77.842-77.819-204.04 0.022411-281.88 77.836-77.829 204.03-77.829 281.87 0 77.836 77.839 77.848 204.03 0.0192 281.88z" stroke-width=".81956"/>
</svg>
