<?xml version="1.0" encoding="UTF-8"?>
<svg width="532pt" height="532pt" version="1.1" viewBox="-27 -17 532 532" xmlns="http://www.w3.org/2000/svg">
 <path d="m487 77.015c-0.03662-31.474-25.544-56.981-57.018-57.018h-383.39c-31.47 0.03658-56.977 25.544-57.014 57.018v349.72c0.03658 31.474 25.544 56.981 57.014 57.018h383.39c31.474-0.0366 56.981-25.544 57.018-57.018 0.0244-114.77 0.078-240.48 0-349.72zm-440.41-31.059h383.39c17.147 0.02032 31.039 13.912 31.059 31.059v71.178h-445.5v-71.174c0.016258-17.147 13.916-31.043 31.055-31.063zm383.39 411.84h-383.39c-17.139-0.02032-31.035-13.912-31.055-31.059v-278.54h445.5v278.54c-0.0203 17.147-13.912 31.039-31.059 31.059z" stroke-width="1.0405"/>
 <g stroke-width=".75429">
  <path d="m303.91 241.62h94.616c-7.6726-10.158-15.451-20.239-23.057-30.446-4.3024-6.3104 1.7329-15.748 9.2793-14.379 5.9358 0.81601 8.2877 6.9312 11.859 10.931 9.736 12.865 19.724 25.557 29.303 38.529 2.3782 4.1443 0.61988 9.1272-2.4887 12.333-11.029 14.384-21.958 28.85-33.05 43.183-4.8834 5.7596-15.451 2.4893-16.201-5.0267-0.82093-5.8381 4.3794-9.6366 7.258-14.028 5.6992-7.413 11.398-14.826 17.098-22.239-31.86-0.0324-63.723 0.0648-95.581-0.0487-7.2284-0.38844-11.182-10.022-6.3119-15.377 1.7558-2.153 4.4963-3.4516 7.2762-3.4315z"/>
  <path d="m288.78 403.24c-15.22 11.557-30.311 23.296-45.611 34.739-4.1509 2.6192-9.3486 0.88557-12.62-2.3124-14.384-11.029-28.848-21.958-43.181-33.05-5.5108-4.6959-2.8055-14.753 4.3177-16.052 6.1652-1.501 10.346 4.0492 14.93 7.087 7.464 5.7036 14.928 11.407 22.392 17.111 0.0324-31.86-0.0648-63.723 0.0487-95.581 0.38853-7.2291 10.022-11.182 15.378-6.3119 4.9327 3.9904 3.0598 10.682 3.4303 16.17v85.723c10.097-7.6726 20.118-15.45 30.263-23.057 5.9814-4.0749 14.968 1.1803 14.351 8.3916-0.0897 2.7779-1.4778 5.4697-3.6991 7.143z"/>
  <path d="m277.33 113.13c-9.8225-7.5036-19.645-15.007-29.467-22.511-0.0324 31.86 0.0648 63.723-0.0487 95.581-0.38852 7.2291-10.022 11.182-15.378 6.3119-4.9328-3.9904-3.0598-10.682-3.4303-16.17v-85.722c-10.097 7.6726-20.118 15.45-30.263 23.057-5.9814 4.0749-14.968-1.1803-14.351-8.3916 0.17708-6.3421 6.6304-8.9167 10.767-12.542 12.864-9.7568 25.6-19.697 38.543-29.339 4.1532-2.6131 9.3564-0.89061 12.629 2.3124 14.384 11.029 28.85 21.957 43.183 33.05 5.5081 4.6978 2.8014 14.75-4.319 16.052-2.7014 0.64513-5.6673 0.0155-7.8643-1.6871z"/>
  <path d="m51.141 255.42c-2.6051-4.1545-0.89182-9.3595 2.3128-12.632 11.029-14.384 21.957-28.849 33.049-43.182 4.7235-5.532 14.81-2.7706 16.052 4.4039 1.5067 6.1962-4.016 10.432-7.0706 15.047-5.708 7.5205-11.416 15.041-17.124 22.562 31.86 0.0324 63.723-0.0649 95.58 0.0487 7.228 0.38974 11.182 10.022 6.3119 15.378-3.9909 4.9331-10.683 3.0596-16.171 3.4303h-85.721c7.7226 10.148 15.646 20.153 23.24 30.393 4.8166 7.5431-4.7024 17.344-12.403 12.929-4.3122-2.7732-6.6636-7.613-9.9598-11.442-9.3412-12.329-18.876-24.523-28.097-36.937z"/>
 </g>
</svg>
