<?xml version="1.0" encoding="UTF-8"?>
<svg width="532pt" height="532pt" version="1.1" viewBox="-27 -17 532 532" xmlns="http://www.w3.org/2000/svg">
 <path d="m487 77.015c-0.03662-31.474-25.544-56.981-57.018-57.018h-383.39c-31.47 0.03658-56.977 25.544-57.014 57.018v349.72c0.03658 31.474 25.544 56.981 57.014 57.018h383.39c31.474-0.0366 56.981-25.544 57.018-57.018 0.0244-114.77 0.078-240.48 0-349.72zm-440.41-31.059h383.39c17.147 0.02032 31.039 13.912 31.059 31.059v71.178h-445.5v-71.174c0.016258-17.147 13.916-31.043 31.055-31.063zm383.39 411.84h-383.39c-17.139-0.02032-31.035-13.912-31.055-31.059v-278.54h445.5v278.54c-0.0203 17.147-13.912 31.039-31.059 31.059z" stroke-width="1.0405"/>
 <g stroke-width=".99937">
  <path d="m128.75 183.43c-5.2038-4.5284-13.093-3.9741-17.622 1.2375l-57.674 58.125c-4.0873 4.7002-4.0873 11.688 0 16.388l57.674 58.129c4.5284 5.2077 12.418 5.7581 17.622 1.2297 5.2077-4.5284 5.7581-12.418 1.2375-17.622l-50.554-49.931 50.554-49.931c4.5206-5.2038 3.9741-13.097-1.2297-17.626z"/>
  <path d="m348.13 182.84c5.2038-4.5284 13.093-3.9741 17.622 1.2375l57.674 58.125c4.0873 4.7002 4.0873 11.688 0 16.388l-57.674 58.129c-4.5284 5.2077-12.418 5.7581-17.622 1.2297-5.2077-4.5284-5.7581-12.418-1.2375-17.622l50.554-49.931-50.554-49.931c-4.5206-5.2038-3.9741-13.097 1.2297-17.626z"/>
  <path d="m306.3 360.37c4.5284 5.2038 3.9741 13.093-1.2375 17.622l-58.125 57.674c-4.7002 4.0873-11.688 4.0873-16.388 0l-58.129-57.674c-5.2077-4.5284-5.7581-12.418-1.2297-17.622 4.5284-5.2077 12.418-5.7581 17.622-1.2375l49.931 50.554 49.931-50.554c5.2038-4.5206 13.097-3.9741 17.626 1.2297z"/>
  <path d="m305.69 141.01c4.5284-5.2038 3.9741-13.093-1.2375-17.622l-58.125-57.674c-4.7002-4.0873-11.688-4.0873-16.388 0l-58.129 57.674c-5.2077 4.5284-5.7581 12.418-1.2297 17.622 4.5284 5.2077 12.418 5.7581 17.622 1.2375l49.931-50.554 49.931 50.554c5.2038 4.5206 13.097 3.9741 17.626-1.2297z"/>
 </g>
</svg>
