<?xml version="1.0" encoding="UTF-8"?>
<svg width="532pt" height="532pt" version="1.1" viewBox="-27 -17 532 532" xmlns="http://www.w3.org/2000/svg">
 <path d="m487 77.015c-0.03662-31.474-25.544-56.981-57.018-57.018h-383.39c-31.47 0.03658-56.977 25.544-57.014 57.018v349.72c0.03658 31.474 25.544 56.981 57.014 57.018h383.39c31.474-0.0366 56.981-25.544 57.018-57.018 0.0244-114.77 0.078-240.48 0-349.72zm-440.41-31.059h383.39c17.147 0.02032 31.039 13.912 31.059 31.059v71.178h-445.5v-71.174c0.016258-17.147 13.916-31.043 31.055-31.063zm383.39 411.84h-383.39c-17.139-0.02032-31.035-13.912-31.055-31.059v-278.54h445.5v278.54c-0.0203 17.147-13.912 31.039-31.059 31.059z" stroke-width="1.0405"/>
 <path d="m53.898 358.79c2.8629 19.365 4.6838 38.971 8.1693 58.193 4.4007 8.644 16.101 5.4223 23.864 7.7557 14.303 1.4897 28.548 4.7137 42.892 4.9928 16.966-9.3158-1.5233-21.847-13.606-20.099-8.1245-1.0862-16.249-2.1723-24.373-3.2584 22.301-22.301 44.602-44.602 66.904-66.904 10.237-18.452-15.276-18.492-21.426-5.2418-19.604 19.604-39.208 39.208-58.811 58.811-2.2229-13.389-2.733-27.184-6.1411-40.292-4.9614-8.7903-19.008-3.9507-17.471 6.0423z" stroke-width=".75429"/>
 <path d="m349.28 90.094 36.754 4.919c-22.301 22.301-44.602 44.602-66.904 66.904-10.237 18.452 15.276 18.492 21.426 5.2418 19.604-19.604 39.208-39.208 58.811-58.811 2.2229 13.389 2.733 27.184 6.1411 40.292 13.457 13.914 20.673-7.2184 15.815-18.416-2.4601-15.384-3.3903-31.153-6.7424-46.314-4.7987-8.0573-15.94-4.9651-23.641-7.2667-14.303-1.4892-28.548-4.7167-42.892-4.9925-9.7878 2.47-8.8095 17.298 1.2316 18.445z" stroke-width=".75429"/>
 <path d="m120.15 90.094c-12.251 1.6397-24.503 3.2794-36.754 4.919 22.505 22.551 45.105 45.013 67.551 67.62 4.837 5.3864 0.81976 14.994-6.4109 15.337-5.936 0.71693-9.2759-4.8021-13.119-8.2677-20.452-20.452-40.904-40.904-61.356-61.356-1.7141 12.565-3.3009 25.15-5.0953 37.703-1.3481 7.1108-11.419 9.7497-16.081 4.2137-4.1726-4.282-1.8159-10.286-1.3944-15.444 2.2433-16.341 4.2665-32.722 6.6472-49.039 1.0651-4.6366 5.7581-7.1929 10.245-7.2519 18.076-2.3864 36.139-4.9021 54.224-7.2076 7.2166-0.57298 12.411 8.4492 8.2963 14.404-1.4554 2.3674-3.995 4.0175-6.7539 4.368z" stroke-width=".75429"/>
 <path d="m430.43 358.79c-2.8629 19.365-4.6838 38.971-8.1692 58.193-4.4007 8.644-16.101 5.4223-23.864 7.7557-14.303 1.4897-28.548 4.7137-42.892 4.9928-16.966-9.3158 1.5233-21.847 13.606-20.099 8.1245-1.0861 16.249-2.1723 24.373-3.2584l-66.904-66.904c-10.237-18.452 15.276-18.492 21.426-5.2418 19.604 19.604 39.208 39.208 58.811 58.811 2.2229-13.389 2.733-27.184 6.1411-40.292 4.9614-8.7903 19.008-3.9508 17.471 6.0423z" stroke-width=".75429"/>
</svg>
