<?xml version="1.0" encoding="UTF-8"?>
<svg width="532pt" height="532pt" version="1.1" viewBox="-27 -17 532 532" xmlns="http://www.w3.org/2000/svg">
 <path d="m487 77.015c-0.03662-31.474-25.544-56.981-57.018-57.018h-383.39c-31.47 0.03658-56.977 25.544-57.014 57.018v349.72c0.03658 31.474 25.544 56.981 57.014 57.018h383.39c31.474-0.0366 56.981-25.544 57.018-57.018 0.0244-114.77 0.078-240.48 0-349.72zm-440.41-31.059h383.39c17.147 0.02032 31.039 13.912 31.059 31.059v71.178h-445.5v-71.174c0.016258-17.147 13.916-31.043 31.055-31.063zm383.39 411.84h-383.39c-17.139-0.02032-31.035-13.912-31.055-31.059v-278.54h445.5v278.54c-0.0203 17.147-13.912 31.039-31.059 31.059z" stroke-width="1.0405"/>
 <g stroke-width=".99937">
  <path d="m63.812 312.19c-6.8817 0.47755-12.069 6.4483-11.585 13.336l0.31909 81.883c0.43339 6.2137 5.3745 11.155 11.588 11.588l81.885 0.32185c6.8844 0.48031 12.852-4.7092 13.33-11.591 0.4803-6.8844-4.7093-12.852-11.585-13.336l-71.053 0.44001 0.44002-71.053c-0.48307-6.8762-6.4511-12.071-13.333-11.594z"/>
  <path d="m316.02 95.15c0.47755-6.8817 6.4483-12.069 13.336-11.585l81.883 0.31909c6.2137 0.4334 11.155 5.3745 11.588 11.588l0.32185 81.885c0.48031 6.8844-4.7092 12.852-11.591 13.33-6.8844 0.4803-12.852-4.7093-13.336-11.585l0.44001-71.053-71.053 0.44002c-6.8762-0.48307-12.071-6.4511-11.594-13.333z"/>
  <path d="m411.98 311.76c6.8817 0.47756 12.069 6.4483 11.585 13.336l-0.31909 81.883c-0.43339 6.2137-5.3745 11.155-11.588 11.588l-81.885 0.32185c-6.8844 0.48031-12.852-4.7092-13.33-11.591-0.4803-6.8844 4.7093-12.852 11.585-13.336l71.053 0.44002-0.44002-71.053c0.48307-6.8762 6.4511-12.071 13.333-11.594z"/>
  <path d="m158.94 95.58c-0.47755-6.8817-6.4483-12.069-13.336-11.585l-81.883 0.31909c-6.2137 0.4334-11.155 5.3745-11.588 11.588l-0.32184 81.885c-0.48031 6.8844 4.7092 12.852 11.591 13.33 6.8844 0.4803 12.852-4.7093 13.336-11.585l-0.44001-71.053 71.053 0.44002c6.8762-0.48307 12.071-6.4511 11.594-13.333z"/>
 </g>
</svg>
