<?xml version="1.0" encoding="UTF-8"?>
<svg width="532pt" height="532pt" version="1.1" viewBox="-27 -17 532 532" xmlns="http://www.w3.org/2000/svg">
 <path d="m487 77.015c-0.03662-31.474-25.544-56.981-57.018-57.018h-383.39c-31.47 0.03658-56.977 25.544-57.014 57.018v349.72c0.03658 31.474 25.544 56.981 57.014 57.018h383.39c31.474-0.0366 56.981-25.544 57.018-57.018 0.0244-114.77 0.078-240.48 0-349.72zm-440.41-31.059h383.39c17.147 0.02032 31.039 13.912 31.059 31.059v71.178h-445.5v-71.174c0.016258-17.147 13.916-31.043 31.055-31.063zm383.39 411.84h-383.39c-17.139-0.02032-31.035-13.912-31.055-31.059v-278.54h445.5v278.54c-0.0203 17.147-13.912 31.039-31.059 31.059z" stroke-width="1.0405"/>
 <g>
  <g stroke-width=".50295">
   <rect transform="rotate(90)" x="42.456" y="-83.176" width="42.831" height="19.161"/>
   <rect transform="rotate(90)" x="112.96" y="-83.176" width="42.831" height="19.161"/>
   <rect transform="rotate(90)" x="172.96" y="-83.176" width="42.831" height="19.161"/>
   <rect transform="rotate(90)" x="232.96" y="-83.176" width="42.831" height="19.161"/>
   <rect transform="rotate(90)" x="292.96" y="-83.176" width="42.831" height="19.161"/>
   <rect transform="rotate(90)" x="352.96" y="-83.176" width="42.831" height="19.161"/>
  </g>
  <rect transform="rotate(90)" x="423.87" y="-83.176" width="40.013" height="19.161" stroke-width=".48612"/>
  <g stroke-width=".50295">
   <rect transform="rotate(90)" x="42.456" y="-413.18" width="42.831" height="19.161"/>
   <rect transform="rotate(90)" x="112.96" y="-413.18" width="42.831" height="19.161"/>
   <rect transform="rotate(90)" x="172.96" y="-413.18" width="42.831" height="19.161"/>
   <rect transform="rotate(90)" x="232.96" y="-413.18" width="42.831" height="19.161"/>
   <rect transform="rotate(90)" x="292.96" y="-413.18" width="42.831" height="19.161"/>
   <rect transform="rotate(90)" x="352.96" y="-413.18" width="42.831" height="19.161"/>
  </g>
  <rect transform="rotate(90)" x="423.87" y="-413.18" width="40.013" height="19.161" stroke-width=".48612"/>
 </g>
</svg>
