<?xml version="1.0" encoding="UTF-8"?>
<svg width="600pt" height="600pt" version="1.1" viewBox="-19 -19 600 600" xmlns="http://www.w3.org/2000/svg">
 <path d="m251.25 12.5c0-6.9062-5.5938-12.5-12.5-12.5h-226.25c-6.9062 0-12.5 5.5938-12.5 12.5v538.16c0 6.9062 5.5938 12.5 12.5 12.5h226.25c6.9062 0 12.5-5.5938 12.5-12.5zm-25 525.66h-201.25v-513.16h201.25z"/>
 <path d="m562.5 10.594c0-6.9062-5.5938-12.5-12.5-12.5h-226.25c-6.9062 0-12.5 5.5938-12.5 12.5v538.16c0 6.9062 5.5938 12.5 12.5 12.5h226.25c6.9062 0 12.5-5.5938 12.5-12.5zm-25 525.66h-201.25v-513.16h201.25z"/>
</svg>
