<?xml version="1.0" encoding="UTF-8"?>
<svg width="600pt" height="600pt" version="1.1" viewBox="-19 -19 600 600" xmlns="http://www.w3.org/2000/svg">
 <path d="m563.16 12.5c0-6.9062-5.5938-12.5-12.5-12.5h-538.16c-6.9062 0-12.5 5.5938-12.5 12.5v226.25c0 6.9062 5.5938 12.5 12.5 12.5h538.16c6.9062 0 12.5-5.5938 12.5-12.5zm-25 213.75h-513.16v-201.25h513.16z"/>
 <path d="m563.16 323.75c0-6.9062-5.5938-12.5-12.5-12.5h-538.16c-6.9062 0-12.5 5.5938-12.5 12.5v226.25c0 6.9062 5.5938 12.5 12.5 12.5h538.16c6.9062 0 12.5-5.5938 12.5-12.5zm-25 213.75h-513.16v-201.25h513.16z"/>
</svg>
