<?xml version="1.0" encoding="UTF-8"?>
<svg width="533pt" height="533pt" version="1.1" viewBox="-66 -16 533 533.33" xmlns="http://www.w3.org/2000/svg">
 <g>
  <path d="m197.08 0.0052361c-6.8975 0.012562-12.475 5.6267-12.459 12.524l9.2e-4 0.0234-0.0475 474.91c0.0292 6.9028 5.6472 12.48 12.551 12.454 6.9034-0.0254 12.476-5.6427 12.454-12.551l0.0526-474.9c-0.026-6.9072-5.6445-12.488-12.544-12.463z"/>
  <path d="m413.55 124.96c-3.4597-5.9671-11.11-7.9903-17.075-4.5277l-0.0198 0.0125-411.31 237.41c-5.9634 3.4767-7.9842 11.13-4.5104 17.096 3.4737 5.9658 11.125 7.9836 17.096 4.5104l411.3-237.41c5.9688-3.4761 7.9927-11.132 4.5215-17.095z"/>
  <path d="m-19.353 124.96c3.4597-5.9671 11.11-7.9903 17.075-4.5277l0.01981 0.0125 411.31 237.41c5.9634 3.4767 7.9842 11.13 4.5104 17.096-3.4737 5.9658-11.125 7.9836-17.096 4.5104l-411.3-237.41c-5.9688-3.4761-7.9927-11.132-4.5215-17.095z"/>
 </g>
</svg>
