<?xml version="1.0" encoding="UTF-8"?>
<svg width="426pt" height="426pt" version="1.1" viewBox="-36 -13 426 426.67" xmlns="http://www.w3.org/2000/svg">
 <path d="m139.25 128.1-98.812-58.838c-2.4939-1.4818-5.5855-1.5144-8.1096-0.0854-2.524 1.429-4.0887 4.0962-4.1063 6.9945v241.09c0.0201 2.8355 1.5144 5.4524 3.9405 6.9116 2.4386 1.4416 5.4549 1.5019 7.9538 0.16073l97.457-52.715c0-133.89 1.6765-87.031 1.6765-143.52zm-94.871 175.67v-213.45l92.259 54.954c0-61.28-1.778 158.32-1.778 109.56z" stroke-width=".64294"/>
 <path d="m357.77 195.6-212.16-126.33c-2.4939-1.4818-5.5855-1.5144-8.1095-0.0854-2.524 1.429-4.0887 4.0962-4.1063 6.9945v241.09c0.0201 2.8355 1.5144 5.4524 3.9405 6.9116 2.4386 1.4416 5.4549 1.5019 7.9538 0.16073l212.16-114.76c2.5215-1.3914 4.1113-4.0184 4.1791-6.8965 0.0653-2.8806-1.4039-5.578-3.8601-7.0849zm-208.22 108.17v-213.45l187.81 111.87z" stroke-width=".64294"/>
</svg>
