<?xml version="1.0" encoding="UTF-8"?>
<svg width="533pt" height="533pt" version="1.1" viewBox="-16 -18 533.33 533" xmlns="http://www.w3.org/2000/svg">
 <path d="m455.38 315.06 30.588-43.537c0.0496-0.0753 0.10313-0.14258 0.16147-0.21597 4.1705-5.4973 12.019-6.569 17.516-2.3985 5.4979 4.176 6.5744 12.018 2.4015 17.518l-48.466 65.267c-1.3942 4.8549-5.5689 8.3926-10.585 8.9712-5.019 0.57607-9.8888-1.9229-12.347-6.3321l-61.947-52.673c-5.2646-4.4695-5.899-12.359-1.4288-17.618 4.4726-5.2621 12.362-5.902 17.618-1.4288l44.774 38.068c12.671 7.7684 6.4168 16.391 21.715-5.6212z"/>
 <path d="m9.9102 361.22c-6.9056-7.5e-4 -12.499-5.5942-12.499-12.5 0-58.25 24.945-120.74 66.726-167.17 44.082-44.082 99.084-80.608 163.56-80.608 59.17 0 128.46 42.603 163.55 80.608 41.781 46.43 66.727 108.92 66.727 167.17 0 6.9062-5.5938 12.5-12.5 12.5s-12.5-5.5938-12.5-12.5c0-52.234-22.543-108.48-60.309-150.44-38.254-42.497-86.992-72.256-144.97-72.256-58.163 0-105.93 33.21-144.97 72.256-37.766 41.961-60.309 98.202-60.309 150.44 0 6.9058-5.593 12.499-12.499 12.5z"/>
</svg>
