<?xml version="1.0" encoding="UTF-8"?>
<svg width="532pt" height="532pt" version="1.1" viewBox="-27 -17 532 532" xmlns="http://www.w3.org/2000/svg">
 <g stroke-width="20.549">
  <path d="m408.06 11.57h-332.89c-38.53 0-69.867 31.337-69.867 69.867v332.87c0 38.529 31.337 69.866 69.867 69.866h332.89c38.53 0 69.867-31.337 69.867-69.866v-332.85c0-38.529-31.337-69.887-69.867-69.887zm28.769 402.76c0 15.864-12.905 28.769-28.769 28.769h-332.89c-15.864 0-28.769-12.905-28.769-28.769v-332.87c0-15.864 12.905-28.769 28.769-28.769h332.89c15.864 0 28.769 12.905 28.769 28.769z"/>
  <circle cx="128.6" cy="134.86" r="41.098"/>
  <circle cx="354.64" cy="134.86" r="41.098"/>
  <circle cx="128.6" cy="360.9" r="41.098"/>
  <circle cx="354.64" cy="360.9" r="41.098"/>
  <circle cx="241.62" cy="254.75" r="41.098"/>
 </g>
</svg>
