<?xml version="1.0" encoding="UTF-8"?>
<svg width="532pt" height="532pt" version="1.1" viewBox="-27 -17 532 532" xmlns="http://www.w3.org/2000/svg">
 <g stroke-width="20.549">
  <path d="m407.45 19.533c-112.15 0.29494-224.43-0.38568-336.51 0.341-32.874 0.85117-60.506 33.086-57.507 65.37 0.06105 110.52-0.64759 221.18 0.31355 331.62-0.50208 34.287 33.785 63.259 67.326 59.152 111.9 0.0807 223.82 0.66916 335.7-0.33789 31.261-3.9598 56.419-34.899 52.989-66.42 0.1125-108.88 0.5051-217.9-0.16493-326.7 2.228-33.714-28.766-64.156-62.149-63.016zm-332.31 24.945c110.58 0.7216 221.18-0.36808 331.76 0.5283 12.72-1.041 25.12 5.7063 31.803 16.421 6.358 9.1561 7.3084 20.658 6.1131 31.412-0.37437 109.62 0.8556 219.29-0.66391 328.89-3.5552 19.375-24.386 32.508-43.463 29.365-110.97-0.40177-221.98 0.86038-332.92-0.6738-19.374-3.556-32.507-24.387-29.363-43.463 0.38497-110.88-0.82581-221.8 0.64645-332.66 3.0131-16.794 19.188-29.688 36.088-29.816z"/>
  <circle cx="128.6" cy="134.86" r="41.098"/>
  <circle cx="354.64" cy="134.86" r="41.098"/>
  <circle cx="128.6" cy="360.9" r="41.098"/>
  <circle cx="354.64" cy="360.9" r="41.098"/>
  <circle cx="241.62" cy="254.75" r="41.098"/>
 </g>
</svg>
