<?xml version="1.0" encoding="UTF-8"?>
<svg width="562pt" height="562pt" version="1.1" viewBox="-101 -17 562 562.67" xmlns="http://www.w3.org/2000/svg">
 <path d="m10.536 0c69.594-0.10903 67.884 0.38039 137.48 0.37868 6.8984 0 12.492 5.5898 12.492 12.492 0 6.8984-5.5938 12.488-12.492 12.488-44.803-0.36652-51.183-0.24977-137.6-0.24977-19.738 0-35.723 16.359-35.723 36.348v404.71c-0.0937 9.5586 3.625 18.762 10.324 25.582 6.6992 6.8164 15.84 10.691 25.398 10.77 199.4 0 8.7054-0.41501 136.07-0.41501 6.8984 0 12.488 5.5898 12.488 12.488 0 6.9023-5.5898 12.492-12.488 12.492-152.94 0 88.434 0.41501-136.07 0.41501-33.477 0-60.703-27.48-60.703-61.332v-404.71c0-33.852 27.227-61.457 60.828-61.457z"/>
 <path d="m299.7 348.93c-11.384 13.608-1.1932 38.268 15.553 37.669 14.637 0.29134 21.109-16.168 30.038-26.145 21.536-28.459 43.704-56.461 64.853-85.199 5.7399-10.383 1.4582-23.171-6.1744-30.723-24.715-32.175-49.225-64.552-74.069-96.601-11.451-13.553-34.444-4.0153-35.002 14.53-0.92978 14.985 11.666 23.946 18.738 34.927 11.278 14.746 22.556 29.492 33.834 44.238-95.496 0.0788-191-0.15734-286.49 0.11815-16.735 0.94218-24.962 26.519-12.509 38.932 9.751 10.433 24.059 5.5812 36.202 6.705h262.8c-15.924 20.515-31.848 41.031-47.771 61.546z" stroke-width="1.7415"/>
</svg>
