<?xml version="1.0" encoding="UTF-8"?>
<svg width="533.33pt" height="533.33pt" version="1.1" viewBox="-16 -16 533.33 533.33" xmlns="http://www.w3.org/2000/svg">
 <path d="m336.8 237.97h125.44c-10.172-13.467-20.485-26.832-30.568-40.363-5.7039-8.366 2.2973-20.878 12.302-19.063 7.8694 1.0818 10.987 9.189 15.722 14.491 12.908 17.055 26.149 33.882 38.848 51.079 3.1529 5.4943 0.82188 12.1-3.2994 16.351-14.622 19.07-29.111 38.247-43.816 57.25-6.4742 7.6358-20.484 3.3002-21.479-6.6642-1.0883-7.7399 5.8059-12.776 9.6223-18.598 7.5558-9.8278 15.112-19.656 22.667-29.483-42.238-0.0429-84.481 0.0859-126.72-0.0645-9.5831-0.51497-14.824-13.286-8.368-20.386 2.3277-2.8543 5.961-4.576 9.6465-4.5493z"/>
 <path d="m316.74 452.25c-20.178 15.321-40.185 30.885-60.469 46.055-5.5031 3.4724-12.394 1.174-16.73-3.0657-19.069-14.622-38.245-29.111-57.247-43.816-7.3059-6.2256-3.7193-19.559 5.7242-21.281 8.1735-1.99 13.716 5.3683 19.794 9.3956 9.8954 7.5616 19.791 15.123 29.686 22.685 0.0429-42.238-0.0859-84.481 0.0645-126.72 0.51509-9.5839 13.287-14.824 20.388-8.368 6.5395 5.2902 4.0566 14.162 4.5477 21.437v113.65c13.386-10.172 26.671-20.483 40.121-30.568 7.9298-5.4022 19.844 1.5648 19.025 11.125-0.11803 3.6807-1.9604 7.2534-4.9041 9.4699z"/>
 <path d="m301.57 67.625c-13.022-9.9479-26.044-19.896-39.066-29.844-0.0429 42.238 0.0859 84.481-0.0645 126.72-0.51509 9.5839-13.287 14.824-20.388 8.368-6.5396-5.2903-4.0565-14.162-4.5477-21.437v-113.65c-13.386 10.172-26.671 20.483-40.121 30.568-7.9298 5.4022-19.844-1.5648-19.025-11.125 0.23476-8.408 8.7902-11.821 14.274-16.628 17.054-12.935 33.939-26.113 51.099-38.897 5.5062-3.4645 12.404-1.1807 16.742 3.0657 19.07 14.622 38.247 29.11 57.249 43.816 7.3024 6.2281 3.714 19.555-5.7259 21.281-3.5814 0.85528-7.5134 0.02053-10.426-2.2367z"/>
 <path d="m1.6924 256.27c-3.4538-5.5078-1.1825-12.408 3.0661-16.747 14.622-19.069 29.109-38.247 43.815-57.248 6.2623-7.3341 19.635-3.6731 21.281 5.8384 1.9976 8.2146-5.3242 13.83-9.3739 19.949-7.5674 9.9704-15.135 19.941-22.702 29.911 42.238 0.043 84.481-0.086 126.72 0.0645 9.5826 0.5167 14.825 13.287 8.368 20.388-5.2909 6.54-14.163 4.0564-21.439 4.5477h-113.64c10.238 13.454 20.743 26.718 30.811 40.293 6.3856 10-6.2342 22.994-16.443 17.141-5.717-3.6765-8.8343-10.093-13.204-15.169-12.384-16.345-25.025-32.512-37.249-48.969z"/>
</svg>
