<?xml version="1.0" encoding="UTF-8"?>
<svg width="533.33pt" height="533.33pt" version="1.1" viewBox="-16 -16 533.33 533.33" xmlns="http://www.w3.org/2000/svg">
 <g>
  <path d="m317.52 78.397c4.5284-5.2038 3.9741-13.093-1.2375-17.622l-58.125-57.674c-4.7002-4.0873-11.688-4.0873-16.388 0l-58.129 57.674c-5.2077 4.5284-5.7581 12.418-1.2297 17.622 4.5284 5.2077 12.418 5.7581 17.622 1.2375l49.931-50.554 49.931 50.554c5.2038 4.5206 13.097 3.9741 17.626-1.2297z" stroke-width=".99937"/>
  <path d="m237.68 26.091v137.57a12.5 12.5 0 0 0 12.5 12.5 12.5 12.5 0 0 0 12.501-12.5v-137.57z" stroke-width=".7451"/>
 </g>
 <g transform="matrix(1 0 0 -1 4.8065e-7 500.2)">
  <path d="m317.52 78.397c4.5284-5.2038 3.9741-13.093-1.2375-17.622l-58.125-57.674c-4.7002-4.0873-11.688-4.0873-16.388 0l-58.129 57.674c-5.2077 4.5284-5.7581 12.418-1.2297 17.622 4.5284 5.2077 12.418 5.7581 17.622 1.2375l49.931-50.554 49.931 50.554c5.2038 4.5206 13.097 3.9741 17.626-1.2297z" stroke-width=".99937"/>
  <path d="m237.68 26.091v137.57a12.5 12.5 0 0 0 12.5 12.5 12.5 12.5 0 0 0 12.501-12.5v-137.57z" stroke-width=".7451"/>
 </g>
 <g transform="matrix(0 1 1 0 -.23581 .16334)">
  <path d="m317.52 78.397c4.5284-5.2038 3.9741-13.093-1.2375-17.622l-58.125-57.674c-4.7002-4.0873-11.688-4.0873-16.388 0l-58.129 57.674c-5.2077 4.5284-5.7581 12.418-1.2297 17.622 4.5284 5.2077 12.418 5.7581 17.622 1.2375l49.931-50.554 49.931 50.554c5.2038 4.5206 13.097 3.9741 17.626-1.2297z" stroke-width=".99937"/>
  <path d="m237.68 26.091v137.57a12.5 12.5 0 0 0 12.5 12.5 12.5 12.5 0 0 0 12.501-12.5v-137.57z" stroke-width=".7451"/>
 </g>
 <g transform="rotate(90 250.12 250.14)">
  <path d="m317.52 78.397c4.5284-5.2038 3.9741-13.093-1.2375-17.622l-58.125-57.674c-4.7002-4.0873-11.688-4.0873-16.388 0l-58.129 57.674c-5.2077 4.5284-5.7581 12.418-1.2297 17.622 4.5284 5.2077 12.418 5.7581 17.622 1.2375l49.931-50.554 49.931 50.554c5.2038 4.5206 13.097 3.9741 17.626-1.2297z" stroke-width=".99937"/>
  <path d="m237.68 26.091v137.57a12.5 12.5 0 0 0 12.5 12.5 12.5 12.5 0 0 0 12.501-12.5v-137.57z" stroke-width=".7451"/>
 </g>
</svg>
