<?xml version="1.0" encoding="UTF-8"?>
<svg width="560pt" height="560pt" version="1.1" viewBox="-78 -18 560 560" xmlns="http://www.w3.org/2000/svg">
 <path d="m214.1 0.0037456c-0.35668-0.016666-0.71629 0.016666-1.0663 0.11h-163.8c-29.444 0.006669-53.308 23.873-53.322 53.32v341.26c0.013332 29.444 23.877 53.312 53.322 53.322 53.209-0.1936 106.42-0.19001 159.63-0.19001 20.502 52.511 75.484 82.992 130.88 72.563 55.398-10.426 95.535-58.811 95.545-115.18 0.10317-57.22-41.134-104.96-95.477-115.19-0.0174-54.776 0.25105-115.17 0.23876-164.28-0.02-2.8234-1.1271-5.5343-3.0938-7.5677l-115.07-114.86-0.11001-0.10625c-2.01-2.0734-4.7843-3.2334-7.6777-3.2001zm-164.87 21.331h154.21v61.961c0.01 29.441 23.876 53.308 53.32 53.322h61.962c0.13577 49.873-0.23739 105.38-0.22126 151.37h-0.31875c-34.8 0.0533-67.782 15.541-90.045 42.292-22.266 26.748-31.51 61.997-25.247 96.228-51.219-0.0238-102.44 0.0256-153.66 0.0662-17.647-0.04991-31.937-14.346-31.993-31.993v-341.26c0.056643-17.644 14.346-31.94 31.993-31.99zm175.54 15.037 79.129 78.915h-47.135c-17.647-0.0534-31.943-14.347-31.993-31.991zm93.415 272.93c52.964 0 95.898 42.935 95.898 95.899-0.0802 52.931-42.967 95.818-95.898 95.898-52.961 0-95.899-42.934-95.899-95.898 0-52.964 42.938-95.899 95.899-95.899z" stroke-width=".85336"/>
 <path d="m64.268 205.83h115.28c5.8868 0 10.667-4.7735 10.667-10.664 0-5.8902-4.7801-10.664-10.667-10.664h-115.28c-5.8902 0-10.664 4.7735-10.664 10.664 0 5.8901 4.7735 10.664 10.664 10.664z" stroke-width=".85336"/>
 <path d="m229.48 265.12h-167.28c-4.7478 0-8.5954 4.7735-8.5954 10.664 0 5.8868 3.8477 10.664 8.5954 10.664h167.28c4.7451 0 8.5981-4.7768 8.5981-10.664 0-5.8901-3.853-10.664-8.5981-10.664z" stroke-width=".76615"/>
 <path d="m187.16 345.85h-127.03c-3.6054 0-6.5272 4.7734-6.5272 10.664 0 5.8902 2.9218 10.664 6.5272 10.664h127.03c3.6034 0 6.5293-4.7734 6.5293-10.664 0-5.8902-2.9259-10.664-6.5293-10.664z" stroke-width=".66764"/>
 <path d="m374.61 392.69h-46.581v-46.581c0-6.0131-4.8703-10.883-10.883-10.883-6.0097 0-10.883 4.8703-10.883 10.883v46.581h-46.581c-6.0063 0-10.883 4.8703-10.883 10.883 0 6.0097 4.8771 10.883 10.883 10.883h46.581v46.581c0 6.0131 4.8737 10.883 10.883 10.883 6.0131 0 10.883-4.8703 10.883-10.883v-46.581h46.581c6.0131 0 10.883-4.8737 10.883-10.883 0-6.0131-4.8703-10.883-10.883-10.883z" stroke-width=".87067"/>
</svg>
