<?xml version="1.0" encoding="UTF-8"?>
<svg width="573pt" height="573pt" version="1.1" viewBox="-18 -49 573.33 573" xmlns="http://www.w3.org/2000/svg">
 <g transform="matrix(.55083 0 0 .55083 -8.5652 -34.752)">
  <path d="m930.1 990.5h-860.2c-33.1 0-59.9-26.9-59.9-59.9v-861.1c0-33.1 26.9-60 59.9-60h700.7l219.4 211.5v709.5c0 33.1-26.9 60-59.9 60zm-848.6-929.5c-11 0-20 9-20 20v837.9c0 11 9 20 20 20h837.1c11 0 20-8.9 20-20v-681.3l-187.2-176.6zm650.5 412.8h-567v-464.3h567zm-515.5-51.5h464v-361.3h-464zm411.4-77.6h-50.7v-257.2h50.7z"/>
 </g>
</svg>
