<?xml version="1.0" encoding="UTF-8"?>
<svg width="533pt" height="533pt" version="1.1" viewBox="-16 -22 533.33 533" xmlns="http://www.w3.org/2000/svg">
 <g stroke-width="1.4712">
  <path d="m428.69 57.576c6.6662-7.6662 18.28-8.4879 25.947-1.8217 7.6662 6.6662 8.4764 18.286 1.8102 25.947l-140.66 161.83 140.66 161.83c6.6662 7.6662 5.8444 19.286-1.816 25.941-7.6661 6.6662-19.286 5.8559-25.947-1.816l-151.15-173.89c-6.0168-6.9191-6.0168-17.211 0-24.131z"/>
  <path d="m308.61 57.576c6.6662-7.6662 18.28-8.4879 25.947-1.8217 7.6662 6.6662 8.4764 18.286 1.8102 25.947l-140.66 161.83 140.66 161.83c6.6662 7.6662 5.8444 19.286-1.816 25.941-7.6661 6.6662-19.286 5.8559-25.947-1.816l-151.15-173.89c-6.0168-6.9191-6.0168-17.211 0-24.131z"/>
  <path d="m188.54 57.576c6.6662-7.6662 18.28-8.4879 25.947-1.8217 7.6662 6.6662 8.4764 18.286 1.8102 25.947l-140.66 161.83 140.66 161.83c6.6662 7.6662 5.8444 19.286-1.816 25.941-7.6661 6.6662-19.286 5.8559-25.947-1.816l-151.15-173.89c-6.0168-6.9191-6.0168-17.211 0-24.131z"/>
 </g>
</svg>
