<?xml version="1.0" encoding="UTF-8"?>
<svg width="619pt" height="619pt" version="1.1" viewBox="-19 -21 620 619" xmlns="http://www.w3.org/2000/svg">
 <path d="m286.96 227.41c-9.4851 0.61023-13.723 12.381-11.425 20.51 0.61963 28.077-1.4709 56.469 1.1223 84.297 6.5723 11.322 18.769 17.547 27.212 27.263 17.501 15.871 33.697 33.423 52.577 47.63 9.9161 3.282 21.274-9.9975 13.812-18.643-7.4282-10.22-18.632-16.778-26.935-26.213-14.26-13.323-28.52-26.646-42.78-39.968-0.8351-29.246 1.549-58.76-1.2422-87.791-2.2204-4.5501-7.2726-7.5106-12.342-7.084z" stroke-width="1.6406"/>
 <path d="m327.36 20.907c-30.232 1.2412-60.661-1.1227-90.771 0.99609-10.002 3.9035-10.142 21.806 1.6094 23.438l37.192 0.25755c0.13618 16.51 0.10819 0.08105-0.028 16.838-0.12199 8.454 0.0123 16.909-0.0508 25.363-88.73 3.6856-173.12 62.749-206.84 145.22-31.104 73.3-22.949 161.72 22.893 227.05 42.859 62.591 116.44 103.18 192.32 103.51 67.125 1.257 134.41-27.053 179.43-76.899 49.326-53.6 72.516-130.12 59.349-201.86-12.709-73.624-61.7-140.33-129.27-172.75-29.016-14.284-60.564-22.601-92.865-24.289v-41.092l35.596-0.86413c14.026-3.0685 10.225-24.327-0.24669-24.407-2.7427-0.49477-5.5406-0.5591-8.3203-0.51172zm-52.033 94.041c1.1375 21.063-2.2835 42.472 1.7734 63.211 5.2616 8.7887 22.127 6.7394 22.648-4.4922 1.9233-12.98-0.50226-26.449 0.58593-39.633v-21.238c47.306 2.7722 93.462 21.893 128.85 53.41-14.163 16.427-32.411 29.312-44.568 47.383-2.651 9.7324 10.17 20.419 18.611 13.262 10.472-7.367 17.527-18.446 27.313-26.617 5.4845-5.544 10.971-11.086 16.454-16.631 31.522 35.243 50.735 81.248 53.57 128.45-21.745 1.5585-43.816-2.157-65.264 1.9297-8.6749 5.0916-7.1219 21.625 3.9024 22.568 12.667 2.2643 26.059-0.48334 39.146 0.70508h22.229c-2.8177 47.41-21.905 93.665-53.375 129.24-16.464-14.139-29.448-32.299-47.516-44.471-10.199-2.5985-20.779 11.156-12.723 19.559 7.8869 10.552 18.991 18.115 27.439 28.191 4.9794 4.9813 9.958 9.9634 14.938 14.944-35.369 31.546-81.5 50.739-128.81 53.557-1.546-21.756 2.1448-43.845-1.9356-65.301-5.2238-8.9046-22.235-6.8069-22.705 4.4863-1.9344 13.113 0.55743 26.395-0.5625 39.572v21.262c-47.301-2.793-93.459-21.899-128.84-53.432 14.213-16.458 32.455-29.411 44.676-47.424 2.5508-9.7435-10.241-20.289-18.709-13.238-10.79 7.5418-18.236 18.789-28.376 27.113-5.1648 5.1071-10.332 10.212-15.495 15.321-31.496-35.547-50.628-81.78-53.49-129.18 21.77-1.5558 43.875 2.1663 65.332-1.9551 8.8181-5.2451 6.8533-22.168-4.4609-22.676-13.13-1.968-26.435 0.56085-39.631-0.57227h-21.258c2.8167-47.188 21.959-93.202 53.439-128.47 16.464 14.25 29.336 32.63 47.438 44.873 9.7616 2.5125 20.186-10.419 13.02-18.795-7.6313-10.553-18.695-17.949-27.027-27.907-5.207-5.2042-10.415-10.407-15.622-15.612 35.405-31.601 81.626-50.769 129-53.545z" stroke-width="1.6406"/>
</svg>
