<?xml version="1.0" encoding="UTF-8"?>
<svg width="619pt" height="619pt" version="1.1" viewBox="-19 -21 620 619" xmlns="http://www.w3.org/2000/svg">
 <path d="m41.973 325.45c0 133.22 106.03 242.23 239.19 245.94 133.16 3.6977 245.08-99.254 252.49-232.27 7.4018-133-92.397-247.74-225.15-258.84v-26.249h25.832c11.317 0 20.507-9.1769 20.507-20.501s-9.1897-20.501-20.507-20.501h-92.653c-11.324 0-20.501 9.1769-20.501 20.501s9.1769 20.501 20.501 20.501h25.813v26.249c-127.41 10.805-225.38 117.31-225.53 245.17zm340.56-94.537c8.0105 8.0105 20.994 8.0105 28.998 0l35.163-35.541c25.506 31.004 41.277 68.852 45.314 108.79h-49.813c-11.324 0-20.501 9.1769-20.501 20.507 0 11.324 9.1769 20.501 20.501 20.501h49.813c-4.0373 40.174-19.789 78.279-45.314 109.57l-35.163-34.945c-8.049-8.0106-21.065-7.9785-29.069 0.0705-8.0105 8.049-7.9721 21.065 0.0705 29.075l35.157 35.176c-31.126 25.55-69.115 41.328-109.18 45.346v-49.826c0-11.324-9.1833-20.501-20.507-20.501-11.324 0-20.501 9.1769-20.501 20.501v49.826c-40.066-4.0181-78.055-19.783-109.17-45.333l35.15-35.15c7.9977-8.0106 7.9977-20.994 0-28.998-8.0106-8.0041-20.994-8.0041-29.005 0l-35.15 34.759c-25.525-31.292-41.283-69.397-45.32-109.57h49.826c11.324 0 20.501-9.1769 20.501-20.501 0-11.33-9.1769-20.507-20.501-20.507h-49.826c4.0437-39.937 19.815-77.786 45.32-108.79l35.15 35.349c7.9657 7.9272 20.815 7.9529 28.812 0.0641 7.9849-7.8952 8.1003-20.757 0.26916-28.806l-0.0769-0.0833-35.15-35.131c31.119-25.55 69.109-41.309 109.17-45.314v49.806c0 11.324 9.1769 20.501 20.501 20.501 11.324 0 20.507-9.1769 20.507-20.501v-49.806c40.066 4.0053 78.055 19.77 109.18 45.32l-35.157 35.15c-7.7991 8.0874-7.7991 20.904 0 28.992z" stroke-width="1.6406"/>
 <path d="m333.82 257.09-45.446 45.446-45.446-45.446c-5.8666-5.8666-15.37-5.8666-21.237 1e-5 -5.8633 5.8633-5.8666 15.37 0 21.237l45.446 45.446-45.446 45.446c-5.86 5.86-5.8666 15.37 1e-5 21.237 5.8633 5.8633 15.377 5.86 21.237 1e-5l45.446-45.446 45.446 45.446c5.8666 5.8666 15.373 5.8633 21.237 1e-5 5.8666-5.8666 5.8666-15.37 0-21.237l-45.446-45.446 45.446-45.446c5.8666-5.8666 5.8633-15.373-1e-5 -21.237-5.8666-5.8666-15.37-5.8666-21.237-1e-5z" stroke-width="1.2013"/>
</svg>
