<?xml version="1.0" encoding="UTF-8"?>
<svg width="619pt" height="619pt" version="1.1" viewBox="-19 -21 620 619" xmlns="http://www.w3.org/2000/svg">
 <g transform="matrix(1.0418,0,0,1.0418,-12.279,-12.967)">
  <path d="m287.21 84.555c-79.939 0.68043-157.78 43.911-200.75 111.49-41.534 63.936-50.449 147.89-22.479 218.95 27.987 74.121 94.571 132.05 171.85 149.53 75.44 17.856 158.42-3.0216 216.18-54.707 54.304-47.926 85.481-120.7 81.852-192.95-3.0518-72.583-40.889-143.94-100.61-186.28-42.086-30.445-94.23-46.936-146.05-46.032zm3.8125 23.957c68.357-0.0881 135.83 33.743 176.15 89.042 42.531 57.17 54.691 135.68 30.381 202.8-22.946 66.365-79.771 119.75-147.54 138.28-65.245 18.493-138.76 4.5745-192.37-37.1-57.483-43.6-90.82-116.96-85.282-188.96 4.348-65.385 39.635-127.98 93.82-164.97 36.405-25.225 80.574-38.935 124.84-39.092z" stroke-width=".94958"/>
  <path d="m235.4 8.2006a15.609 15.609 0 0 0-15.608 15.608 15.609 15.609 0 0 0 15.608 15.61h114.18a15.609 15.609 0 0 0 15.61-15.61 15.609 15.609 0 0 0-15.61-15.608z" stroke-width=".85894"/>
  <rect x="263.21" y="36.941" width="57.843" height="52.585" stroke-width=".75277"/>
  <rect transform="rotate(-45)" x="211.47" y="412.72" width="57.843" height="52.585" stroke-width=".75277"/>
 </g>
 <path d="m224.21 261.73c-6.6008 6.6008-3.4134 14.115 3.1871 20.716l109.42 109.42c6.6008 6.6008 14.115 9.7877 20.716 3.1871 6.6006-6.6006 3.4134-14.115-3.1871-20.716l-109.42-109.42c-6.6008-6.6008-14.115-9.7877-20.716-3.1871z" stroke-width=".74912"/>
 <path d="m357.54 261.73c-6.6008-6.6008-14.115-3.4134-20.716 3.1871l-109.42 109.42c-6.6008 6.6008-9.7877 14.115-3.1871 20.716 6.6006 6.6006 14.115 3.4134 20.716-3.1871l109.42-109.42c6.6008-6.6008 9.7877-14.115 3.1871-20.716z" stroke-width=".74912"/>
</svg>
