<?xml version="1.0" encoding="UTF-8"?>
<svg width="572pt" height="572pt" version="1.1" viewBox="-18 -18 572.01 572" xmlns="http://www.w3.org/2000/svg">
 <path d="m268.16-0.074219c-108.46-0.019531-206.24 65.309-247.75 165.51-41.496 100.21-18.543 215.54 58.172 292.21 104.7 104.7 274.45 104.7 379.15 0s104.7-274.45 0-379.15c-50.168-50.453-118.43-78.746-189.58-78.574zm0 511.36c-134.07 0-243.2-109.13-243.2-243.21s109.13-243.2 243.2-243.2 243.21 109.13 243.21 243.2-109.13 243.21-243.21 243.21z"/>
 <path d="m232.42 303.86c-0.78019-22.321 9.5879-43.408 24.728-59.289 15.086-16.618 33.298-30.547 45.811-49.366 8.9758-15.75 5.7282-38.374-9.6764-49.029-17.97-12.943-42.511-12.152-62.765-5.4902-19.209 6.0938-36.636 16.679-52.863 28.451v-49.289c34.967-22.651 79.043-32.251 119.91-22.672 26.668 6.5668 51.375 26.204 58.034 53.698 6.704 23.54 2.4242 50.296-13.581 69.216-15.619 20.6-36.604 36.312-52.969 56.224-7.0805 8.615-9.0929 19.767-8.4339 30.618v24.531h-48.194v-27.602z" stroke-width="11.216"/>
 <circle cx="257.18" cy="406.06" r="35.831" stroke-width="1.1202"/>
</svg>
