<?xml version="1.0" encoding="UTF-8"?>
<svg width="572pt" height="572pt" version="1.1" viewBox="-18 -18 572.01 572" xmlns="http://www.w3.org/2000/svg">
 <path d="m268.16-0.074219c-108.46-0.019531-206.24 65.309-247.75 165.51-41.496 100.21-18.543 215.54 58.172 292.21 104.7 104.7 274.45 104.7 379.15 0 104.7-104.7 104.7-274.45 0-379.15-50.168-50.453-118.43-78.746-189.58-78.574zm0 511.36c-134.07 0-243.2-109.13-243.2-243.21s109.13-243.2 243.2-243.2 243.21 109.13 243.21 243.2-109.13 243.21-243.21 243.21z"/>
 <text x="127.11288" y="434.7247" font-family="Hack" font-size="448.64px" font-weight="bold" letter-spacing="0px" stroke-width="11.216" word-spacing="0px" style="line-height:1.25" xml:space="preserve"><tspan x="127.11288" y="434.7247">?</tspan><tspan x="127.11288" y="995.52881"/></text>
</svg>
