<?xml version="1.0" encoding="UTF-8"?>
<svg width="600pt" height="600pt" version="1.1" viewBox="-19 -19 600 600" xmlns="http://www.w3.org/2000/svg">
 <path d="m248.16 12.5c0-6.9062-5.5938-12.5-12.5-12.5h-223.16c-6.9062 0-12.5 5.5938-12.5 12.5v226.25c0 6.9062 5.5938 12.5 12.5 12.5h223.16c6.9062 0 12.5-5.5938 12.5-12.5zm-25 213.75h-198.16v-201.25h198.16z"/>
 <path d="m248.16 323.75c0-6.9062-5.5938-12.5-12.5-12.5h-223.16c-6.9062 0-12.5 5.5938-12.5 12.5v226.25c0 6.9062 5.5938 12.5 12.5 12.5h223.16c6.9062 0 12.5-5.5938 12.5-12.5zm-25 213.75h-198.16v-201.25h198.16z"/>
 <path transform="matrix(.75 0 0 .75 -19 -19)" d="m610.77 23.299c-2.4959 0.10063-4.9714 0.79669-7.2656 2.2402-22.88 17.045-105.39 94.617-128.13 111.86-7.3117 6.4093-18.718 10.959-19.031 22.17-1.092 12.747 14.794 22.037 25.367 14.834 17.933-13.447 95.646-87.195 113.49-100.76l-8e-3 647.92c-13.193-10.083-86.386-80.166-99.58-90.248-8.104-5.3697-15.495-15.181-26.393-12.527-12.591 2.296-17.374 20.074-7.6328 28.375 25.336 19.607 110.9 98.926 136.33 118.42 5.7813 5.6529 14.969 8.7178 22.307 4.0879 27.045-20.227 113.72-100.98 140.62-121.41 3.9249-2.9553 6.3817-7.7194 6.5391-12.627 1.092-12.747-14.794-22.037-25.367-14.834-17.933 13.447-95.646 87.195-113.49 100.76l8e-3 -647.92c17.363 13.264 94.725 86.529 112.09 99.793 3.8835 3.0096 9.1252 4.1228 13.9 2.9824 12.587-2.3013 17.371-20.071 7.6348-28.375-25.336-19.608-110.9-98.924-136.33-118.42-3.9765-3.8925-9.5657-6.5495-15.057-6.3281z" stroke-width="1.3333"/>
</svg>
