<?xml version="1.0" encoding="UTF-8"?>
<svg width="533pt" height="533pt" version="1.1" viewBox="-16 -18 533.33 533" xmlns="http://www.w3.org/2000/svg">
 <path d="m455.38 315.06 30.588-43.537c0.0496-0.0753 0.10313-0.14258 0.16147-0.21597 4.1705-5.4973 12.019-6.569 17.516-2.3985 5.4979 4.176 6.5744 12.018 2.4015 17.518l-48.466 65.267c-1.3942 4.8549-5.5689 8.3926-10.585 8.9712-5.019 0.57607-9.8888-1.9229-12.347-6.3321l-61.947-52.673c-5.2646-4.4695-5.899-12.359-1.4288-17.618 4.4726-5.2621 12.362-5.902 17.618-1.4288l44.774 38.068c12.671 7.7684 6.4168 16.391 21.715-5.6212z"/>
 <path transform="matrix(.75046 0 0 .75046 -16 -18.165)" d="m388.6 201.63c49.749 14.956 93.071 46.537 129.3 86.785 50.324 55.912 80.361 130.86 80.361 200.46 0 9.2026 7.4537 16.656 16.656 16.656s16.656-7.4537 16.656-16.656c0-77.619-33.241-160.89-88.914-222.76-34.471-37.334-93.716-77.922-154.06-96.715v32.223z" stroke-width="1.3325"/>
 <path d="m200.22 315.06 30.588-43.537c0.0496-0.0753 0.10313-0.14258 0.16147-0.21597 4.1705-5.4973 12.019-6.569 17.516-2.3985 5.4979 4.176 6.5744 12.018 2.4015 17.518l-48.466 65.267c-1.3942 4.8549-5.5689 8.3926-10.585 8.9712-5.019 0.57607-9.8888-1.9229-12.347-6.3321l-61.947-52.673c-5.2646-4.4695-5.899-12.359-1.4288-17.618 4.4726-5.2621 12.362-5.902 17.618-1.4288l44.774 38.068c12.671 7.7684 6.4168 16.391 21.715-5.6212z"/>
 <path d="m20.472 133.15c37.335 11.224 69.847 34.924 97.036 65.129 37.766 41.96 60.308 98.206 60.308 150.44 0 6.9062 5.5937 12.5 12.5 12.5s12.5-5.5937 12.5-12.5c0-58.25-24.946-120.74-66.727-167.17-25.869-28.018-70.331-58.477-115.62-72.581z"/>
</svg>
