<?xml version="1.0" encoding="UTF-8"?>
<svg width="426pt" height="426pt" version="1.1" viewBox="-47 -13 426 426.67" xmlns="http://www.w3.org/2000/svg">
 <path d="m296.29 29.751c-3.8633-2.25-8.6365-2.25-12.5 0l-281.63 162.5c-3.3594 1.9688-5.6211 5.3867-6.125 9.2498v3.125c0.46875 3.875 2.7422 7.3045 6.125 9.2498l281.63 162.62c3.8867 2.168 8.617 2.168 12.5 0 3.8789-2.2461 6.2616-6.3906 6.25-10.875v-325.12c0.0391-4.4531-2.3594-8.5779-6.25-10.75zm-18.75 314.38-244.13-141 244.13-141z" stroke-width=".99998"/>
 <path d="m350.66 28.061c-6.9021 0-12.5 4.8939-12.5 10.936v328.08c0 6.0422 5.5976 10.936 12.5 10.936 6.906 0 12.5-4.8939 12.5-10.936v-328.08c0-6.0422-5.5938-10.936-12.5-10.936z" stroke-width=".93533"/>
</svg>
