<?xml version="1.0" encoding="UTF-8"?>
<svg width="426pt" height="426pt" version="1.1" viewBox="-47 -13 426 426.67" xmlns="http://www.w3.org/2000/svg">
 <path d="m64.132 26.613c3.8633-2.25 8.6366-2.25 12.5 0l281.63 162.5c3.3594 1.9688 5.6211 5.3867 6.125 9.2499v3.125c-0.46875 3.875-2.7422 7.3046-6.125 9.2499l-281.63 162.62c-3.8867 2.168-8.6171 2.168-12.5 0-3.8789-2.2461-6.2616-6.3906-6.25-10.875v-325.12c-0.0391-4.4531 2.3594-8.578 6.25-10.75zm18.75 314.38 244.13-141-244.13-141z" stroke-width=".99999"/>
 <path d="m9.7666 24.923c6.9022 0 12.5 4.8939 12.5 10.936v328.08c0 6.0422-5.5977 10.936-12.5 10.936-6.9061 0-12.5-4.8939-12.5-10.936v-328.08c0-6.0422 5.5938-10.936 12.5-10.936z" stroke-width=".93534"/>
</svg>
