<?xml version="1.0" encoding="UTF-8"?>
<svg width="533pt" height="533pt" version="1.1" viewBox="-45 -17 533 533.33" xmlns="http://www.w3.org/2000/svg">
 <path d="m202.19 22.516c-42.113 0-84.203 11.898-121.73 34.414-20.508 12.352-39.23 27.453-55.637 44.895l1.8906-89.062c0.15234-6.8984-5.3203-12.617-12.227-12.762h-0.27344c-6.7969 0.0039062-12.344 5.4375-12.488 12.234l-2.6094 122.62c-1.8203 4.6289-0.72266 9.8945 2.7891 13.414 3.5117 3.5156 8.7734 4.6211 13.402 2.8047l122.65-2.6094c6.9023-0.074219 12.441-5.7266 12.367-12.633-0.074219-6.8984-5.7266-12.441-12.633-12.367h-0.26953l-100.41 2.1328c16.184-18.586 35.184-34.527 56.301-47.238 33.637-20.188 71.285-30.852 108.87-30.852 60.098 0 115.51 24.801 156.04 69.824 36.133 40.148 57.699 93.945 57.699 143.91 0 49.973-21.566 103.77-57.699 143.92-40.527 45.031-95.941 69.832-156.04 69.832-35.234 0.24219-69.941-8.5781-100.78-25.625-28.305-15.914-52.719-37.926-71.473-64.434-3.9453-5.6641-11.738-7.0586-17.402-3.1133-5.6641 3.9453-7.0625 11.738-3.1172 17.402 0.054688 0.070313 0.10547 0.14063 0.15234 0.21484 20.93 29.539 48.156 54.066 79.723 71.789 34.543 19.117 73.422 29.02 112.9 28.766 67.281 0 129.3-27.734 174.62-78.102 40.152-44.613 64.125-104.66 64.125-160.64s-23.969-116.03-64.125-160.64c-45.324-50.363-107.34-78.098-174.62-78.098z"/>
 <text x="53.110237" y="220.70528" fill="#000000" font-family="Hack" font-size="30.019px" font-weight="bold" letter-spacing="0px" stroke-width=".75046" word-spacing="0px" style="line-height:1.25" xml:space="preserve"><tspan x="53.110237" y="247.26468" stroke-width=".75046"/></text>
 <g stroke-width="6.138" aria-label="S">
  <path d="m205.7 353.82q-7.193 0-14.026-0.7193t-13.667-2.3977q-13.906-3.2368-25.895-9.4707v-36.564q14.266 10.07 27.453 14.985 13.427 4.9152 25.895 4.9152 13.187 0 20.5-5.9941 7.193-5.8743 7.193-16.544 0-8.2719-4.7953-14.146-2.5175-3.117-6.114-5.3947-3.4766-2.3977-7.7924-4.076l-17.383-6.5936q-13.787-5.2748-22.658-10.55-8.8713-5.3947-13.547-10.909-9.4707-10.909-9.4707-30.091 0-24.456 15.585-38.243 15.705-13.906 42.678-13.906 13.307 0 24.816 2.6374 11.629 2.6374 24.456 8.5117v34.526q-23.018-16.424-46.515-16.424-12.947 0-19.541 5.155-6.8333 5.155-6.8333 14.626 0 7.5526 5.0351 12.348 2.3977 2.3976 7.0731 4.9152 4.7953 2.5175 13.667 5.8743l15.225 5.7544q21.699 8.0322 31.769 20.86 10.19 13.067 10.19 33.687 0 26.494-16.064 39.801-16.064 13.427-47.234 13.427z" stroke-width="6.138"/>
 </g>
</svg>
