<?xml version="1.0" encoding="UTF-8"?>
<svg width="533pt" height="533pt" version="1.1" viewBox="-45 -17 533 533.33" xmlns="http://www.w3.org/2000/svg">
 <path d="m202.19 22.516c-42.113 0-84.203 11.898-121.73 34.414-20.508 12.352-39.23 27.453-55.637 44.895l1.8906-89.062c0.15234-6.8984-5.3203-12.617-12.227-12.762h-0.27344c-6.7969 0.0039062-12.344 5.4375-12.488 12.234l-2.6094 122.62c-1.8203 4.6289-0.72266 9.8945 2.7891 13.414 3.5117 3.5156 8.7734 4.6211 13.402 2.8047l122.65-2.6094c6.9023-0.074219 12.441-5.7266 12.367-12.633-0.074219-6.8984-5.7266-12.441-12.633-12.367h-0.26953l-100.41 2.1328c16.184-18.586 35.184-34.527 56.301-47.238 33.637-20.188 71.285-30.852 108.87-30.852 60.098 0 115.51 24.801 156.04 69.824 36.133 40.148 57.699 93.945 57.699 143.91 0 49.973-21.566 103.77-57.699 143.92-40.527 45.031-95.941 69.832-156.04 69.832-35.234 0.24219-69.941-8.5781-100.78-25.625-28.305-15.914-52.719-37.926-71.473-64.434-3.9453-5.6641-11.738-7.0586-17.402-3.1133-5.6641 3.9453-7.0625 11.738-3.1172 17.402 0.054688 0.070313 0.10547 0.14063 0.15234 0.21484 20.93 29.539 48.156 54.066 79.723 71.789 34.543 19.117 73.422 29.02 112.9 28.766 67.281 0 129.3-27.734 174.62-78.102 40.152-44.613 64.125-104.66 64.125-160.64s-23.969-116.03-64.125-160.64c-45.324-50.363-107.34-78.098-174.62-78.098z"/>
 <g stroke-width="6.138" aria-label="S">
  <path d="m205.7 353.82c-18.518 0.12877-37.109-4.0945-53.588-12.588v-36.564c17.922 12.726 39.957 22.814 62.412 19.057 9.9723-1.449 18.811-9.9368 18.601-20.38 1.0461-10.423-6.3333-19.621-15.555-23.572-19.277-8.2694-41.047-13.203-56.106-28.724-11.068-12.43-11.709-30.856-8.23-46.333 4.3265-18.974 21.972-32.341 40.664-35.238 22.012-3.7348 44.951 0.25408 65.03 9.7911v34.526c-16.723-12.076-38.445-19.999-59.07-14.793-9.1341 2.1929-15.361 11.624-13.642 20.885 1.4701 11.246 13.321 15.45 22.415 19.173 17.47 6.9805 37.071 11.908 49.537 27.047 11.983 14.887 13.013 36.016 8.1795 53.834-4.5289 16.594-19.93 27.93-36.264 31.308-7.9751 1.898-16.201 2.5638-24.382 2.5699z" stroke-width="6.138"/>
 </g>
</svg>
