<?xml version="1.0" encoding="UTF-8"?>
<svg width="572pt" height="572pt" version="1.1" viewBox="-18 -18 572.01 572" xmlns="http://www.w3.org/2000/svg">
 <path d="m268.16-0.074219c-108.46-0.019531-206.24 65.309-247.75 165.51-41.496 100.21-18.543 215.54 58.172 292.21 104.7 104.7 274.45 104.7 379.15 0s104.7-274.45 0-379.15c-50.168-50.453-118.43-78.746-189.58-78.574zm0 511.36c-134.07 0-243.2-109.13-243.2-243.21s109.13-243.2 243.2-243.2 243.21 109.13 243.21 243.2-109.13 243.21-243.21 243.21z"/>
 <g stroke-width="9.7677" aria-label="i">
  <path d="m229.02 180q-5.7233 0-5.7233-5.7233v-53.799q0-5.7233 5.7233-5.7233h44.451q5.7233 0 5.7233 5.7233v53.799q0 5.7233-5.7233 5.7233zm68.87 241.33q-39.681 0-57.233-20.795-17.361-20.985-17.361-68.298v-83.942h-45.214v-42.925h101.11v126.87q0 24.801 7.8218 35.484 8.0126 10.683 26.518 10.683h44.642v42.925z" stroke-width="9.7677"/>
 </g>
</svg>
