<?xml version="1.0" encoding="UTF-8"?>
<svg enable-background="new 0 0 365.892 365.892" version="1.1" viewBox="0 0 365.89 365.89" xmlns="http://www.w3.org/2000/svg">
 <path d="m181.56 251.21c-23.516-0.16533-41.409 27.652-31.543 49.025 7.9656 20.652 37.116 29.007 54.436 14.832 17.775-13.066 18.766-43.222 0.48047-56.217-6.5773-5.168-15.005-7.9646-23.373-7.6406z"/>
 <path d="m181.4 182.04c-33.871 0.52706-68.813 18.342-85.816 48.391-2.9151 10.626 12.348 20.734 20.262 11.971 6.7346-6.9435 12.005-15.38 20.459-20.528 30.201-22.266 76.394-19.337 102.54 8.0106 5.496 4.6526 8.8168 12.157 15.379 15.277 9.0868 2.9381 20.305-7.3237 15.092-16.5-5.9291-11.954-16.887-20.339-27.232-28.299-17.726-12.102-39.195-18.714-60.68-18.322z"/>
 <path d="m180.68 112.89c-49.167 0.7585-98.679 22.65-129.53 61.502-4.5185 10.077 9.2604 22.431 18.299 14.688 8.5873-6.4746 14.685-15.754 23.953-21.461 46.838-35.869 115.65-39.935 165.94-8.7715 14.338 8.3942 26.481 19.959 38.277 31.42 9.3511 4.9002 22.566-6.651 16.486-16.352-5.776-10.275-16.177-16.746-24.656-24.584-30.95-23.98-69.853-37.059-108.78-36.441z"/>
 <path d="m182.58 43.699c-65.296-0.14937-131.38 27.245-175.44 76.053-5.2241 9.498 7.0053 22.969 16.686 16.363 9.3455-5.847 15.562-15.472 24.892-21.414 63.606-50.761 156.67-60.668 229.5-24.32 23.816 11.421 44.905 27.849 63.728 46.166 9.7396 5.2492 23.298-7.3749 16.182-17.115-6.0464-9.5854-16.311-15.527-24.256-23.248-42.416-33.961-96.967-52.843-151.29-52.484z"/>
</svg>
