<?xml version="1.0" encoding="UTF-8"?>
<svg width="123" height="123" version="1.1" viewBox="0 0 123 123" xmlns="http://www.w3.org/2000/svg">
 <path d="m11.7 15.81h6.19v2.07c15.49 3.54 17.26 11 8.28 22.7 0.95-11.63-0.22-14.12-8.28-14.66v29.4a3.62 3.62 0 0 1 0 0.47c0 3.82-4 7.61-8.95 8.47s-8.94-1.55-8.94-5.38c0-5.21 7.16-9.74 11.7-8.14zm91.3 0h6.19v2.07c15.48 3.54 17.25 11 8.27 22.7 1-11.63-0.22-14.12-8.27-14.66v29.4 0.47c0 3.82-4 7.61-9 8.47s-9-1.55-9-5.38c0-5.21 7.16-9.74 11.7-8.14v-34.93zm-32.49 68.64a11.26 11.26 0 0 1 4.5 0.08v-31.59l-33.43 9.59q0 18.66 0 37.3c0 5.82-6.42 10.06-11.57 11-6.39 1.1-11.58-2-11.58-7s5.22-9.84 11.57-10.94a13 13 0 0 1 6.49 0.42v-45.16l43.54-9.91v50.88c0.48 5.4-5 9.49-9.56 10.28-5.34 0.92-9.66-1.68-9.66-5.81s4.32-8.22 9.66-9.14z"/>
</svg>
