<?xml version="1.0" encoding="UTF-8"?>
<svg width="572pt" height="572pt" version="1.1" viewBox="-18 -18 572.01 572" xmlns="http://www.w3.org/2000/svg">
 <path d="m268.16-0.074219c-108.46-0.019531-206.24 65.309-247.75 165.51-41.496 100.21-18.543 215.54 58.172 292.21 104.7 104.7 274.45 104.7 379.15 0s104.7-274.45 0-379.15c-50.168-50.453-118.43-78.746-189.58-78.574zm171.99 440.14c-94.785 94.789-249.07 94.789-343.98 0-94.961-94.98-94.953-248.96 0.027343-343.94 94.973-94.965 248.95-94.965 343.93 0 94.973 94.977 94.988 248.96 0.023438 343.94z"/>
 <g aria-label="!">
  <path d="m240.14 208.86v-80.479h50.299c-0.13322 27.39 0.2669 54.811-0.20086 82.181l-11.8 99.956h-24.532z" stroke-width="9.0362"/>
  <circle cx="265.76" cy="374.79" r="32.251" stroke-width="6.4605"/>
 </g>
</svg>
