<?xml version="1.0" encoding="UTF-8"?>
<svg width="572pt" height="572pt" version="1.1" viewBox="-18 -18 572.01 572" xmlns="http://www.w3.org/2000/svg">
 <path d="m100.87 229.11c-3.3976 2.9198-7.6663 4.1837-11.761 3.835-3.9638-0.30506-7.8406-2.0918-10.715-5.2732-0.26135-0.26148-0.47914-0.52296-0.69693-0.82802-2.6571-3.3121-3.7896-7.365-3.4847-11.287 0.30491-3.9658 2.0908-7.8444 5.2706-10.721 0.21779-0.2179 0.47914-0.4358 0.7405-0.6537 28.531-24.405 58.935-42.926 90.428-55.259 31.841-12.507 64.728-18.739 97.92-18.434 26.919 0.2179 53.882 4.7502 80.496 13.728l-25.961 26.017c-18.207-4.7502-36.546-7.1907-54.753-7.365-29.054-0.26148-58.064 5.3168-86.202 16.43-28.313 11.069-55.581 27.76-81.28 49.812zm319.46-49.376c12.284 8.2366 24.393 17.563 36.241 27.935l0.47915 0.4358c3.0927 2.9198 4.7914 6.7549 5.0092 10.677 0.26135 4.1401-1.0454 8.3673-3.9638 11.723-0.17423 0.17432-0.26135 0.30506-0.43558 0.47938-2.9184 3.0506-6.7516 4.7502-10.672 5.0117-4.1381 0.26148-8.3632-1.0459-11.717-3.9658-12.545-10.939-25.351-20.57-38.332-28.893zm-152.19 179.03c9.8007 0 18.643 3.9658 25.046 10.372 6.4031 6.4062 10.367 15.297 10.367 25.058 0 9.8055-3.9638 18.652-10.367 25.058l-0.39203 0.34864c-6.3596 6.1883-15.071 10.023-24.654 10.023-9.8007 0-18.643-3.9658-25.046-10.372l-0.34846-0.39221c-6.1853-6.4062-10.018-15.079-10.018-24.666 0-9.7619 3.9638-18.609 10.41-25.058 6.3596-6.4062 15.202-10.372 25.003-10.372zm41.686-68.42 0.5227 0.17432c13.46 5.186 26.658 12.987 39.421 23.402 3.4847 2.8327 5.4884 6.7985 5.8804 10.895 0.43558 4.0965-0.7405 8.4109-3.5282 11.854l-0.0436 0.0436c-2.8313 3.4428-6.7516 5.4475-10.846 5.8397-4.0945 0.4358-8.4068-0.74085-11.848-3.53h-0.0436c-9.9314-8.1058-20.037-14.12-30.186-18.129-5.1399-2.0047-10.28-3.53-15.376-4.4887zm-154.2-3.0506c-0.26135 0.26148-0.5227 0.52296-0.82761 0.69728-3.2669 2.6584-7.2307 3.835-11.151 3.5735-4.0074-0.26147-7.9277-1.9611-10.89-5.1424-0.26135-0.26148-0.5227-0.56654-0.69694-0.82802-2.6571-3.2685-3.8332-7.2342-3.5718-11.156 0.26135-4.0094 1.9601-7.9315 5.1399-10.895 0.21779-0.2179 0.47914-0.4358 0.7405-0.61011 21.387-18.87 43.428-33.121 65.948-42.621 22.65-9.544 45.737-14.251 68.997-13.858 5.4448 0.0872 10.89 0.47938 16.334 1.1331l-31.841 31.857c-13.939 1.3946-27.878 5.0988-41.686 11.026-19.122 8.1494-38.027 20.483-56.495 36.825zm207.77-50.553c13.285 8.4981 26.397 18.87 39.377 31.072 3.2669 3.0506 4.9657 7.1471 5.0964 11.331 0.13068 4.1401-1.3068 8.3238-4.3994 11.549-3.0491 3.2685-7.1436 4.9681-11.325 5.0988-4.1381 0.13074-8.3197-1.3074-11.587-4.4016-13.503-12.725-27.093-23.054-40.727-31.116z" stroke-width="4.3569"/>
 <path d="m264.47-0.068818c-96.355 0.18934-189.74 57.557-233.81 143.34-38.117 72.208-41.152 161.71-6.526 236.09 32.902 72.307 99.065 128.71 176.19 148.16 69.458 18.223 145.96 7.4731 207.25-30.444 67.531-40.995 115.56-113.02 125.99-191.19 11.026-75.94-12.16-156.69-63.307-214.28-48.786-56.107-122.01-91.197-196.78-91.643-3.0017-0.06576-6.0046-0.06239-9.0067-0.03945zm3.5648 24.296c58.819-0.44798 117 22.211 161.29 60.622 4.9219 1.9756 10.406 8.8585 5.2491 13.502-113.75 113.66-227.35 227.46-341.04 341.18-29.219-33.316-53.029-72.478-62.549-116.16-17.909-76.116 3.0859-160.53 56.074-218.32 45.486-50.674 112.73-81.385 180.98-80.821zm189.69 89.137c24.217 33.909 43.824 72.095 50.179 113.67 12.818 74.344-10.894 154.28-63.582 208.54-50.19 52.923-124.86 81.904-197.64 74.884-44.571-3.809-87.713-20.53-123.95-46.577-5.0334-1.5459-11.188-8.008-6.2153-12.96 113.64-112.86 226.49-226.52 339.84-339.67 0.46 0.7029 0.9201 1.4058 1.3802 2.1087z" stroke-width="4.4627"/>
</svg>
