<?xml version="1.0" encoding="UTF-8"?>
<svg width="572pt" height="572pt" version="1.1" viewBox="-18 -18 572.01 572" xmlns="http://www.w3.org/2000/svg">
 <g aria-label="t">
  <path d="m226.31 80.363v100.16h-87.729v33.016h87.525c2.073 73.305-3.5152 146.94 3.6602 219.96 3.3658 19.987 16.327 40.419 36.92 46.123 33.404 12.324 69.536 8.5954 104.59 9.7186 8.7982-0.0468 17.596-0.11731 26.395-0.11309v-33.238c-29.756-0.46849-61.158 4.3801-89.508-7.1152-18.955-9.6694-29.245-31.645-27.771-52.439-0.7582-33.693 0.49644-67.397-0.20312-101.09v-81.803h117.48v-33.016h-117.48v-124.06c-17.959 7.9688-35.918 15.938-53.877 23.906z" stroke-width="15.705"/>
 </g>
</svg>
