<?xml version="1.0" encoding="UTF-8"?>
<svg width="572pt" height="572pt" version="1.1" viewBox="-18 -18 572.01 572" xmlns="http://www.w3.org/2000/svg">
 <g aria-label="%">
  <path d="m165.82 17.881c-51.382-1.7115-99.738 43.142-101.68 94.506-4.2888 45.205 26.025 91.807 69.804 104.71 40.498 13.279 89.342-0.95265 114.25-35.972 28.247-37.623 26.147-94.97-6.0353-129.44-19.234-21.318-47.513-34.097-76.342-33.812zm2.7188 33.484c41.16 0.15651 75.262 44.444 64.559 84.274-7.6049 37.011-49.982 62.76-86.204 50.792-32.542-9.0734-56.21-44.491-49.039-78.09 5.0896-31.146 33.813-57.307 65.832-56.885 1.6164-0.06259 3.2338-0.09526 4.8516-0.0918z"/>
  <path d="m58.402 330.01c0.34245 9.4753 0.6849 18.951 1.0273 28.426 137.9-52.301 275.8-104.6 413.7-156.9v-29.727c-138.24 52.735-276.49 105.47-414.73 158.21z"/>
  <path d="m364.74 314.2c-48.89 0.4401-93.46 43.435-96.107 92.244-4.1043 41.596 19.117 86.503 58.878 102.85 40.765 18.346 93.662 7.323 121.89-28.269 28.28-34.056 30.831-86.291 5.1544-122.58-19.056-28.283-53.198-46.07-87.514-44.243-0.76761-0.0131-1.5351-0.0115-2.3027-2e-3zm7.6894 32.967c41.567 0.1585 75.973 45.277 64.662 85.381-8.468 38.336-54.071 63.453-90.818 48.807-31.301-10.944-51.745-46.759-43.723-79.229 5.8893-30.091 33.708-55.262 64.932-54.867 1.6482-0.0716 3.2976-0.0936 4.9473-0.0918z"/>
 </g>
</svg>
