<?xml version="1.0" encoding="UTF-8"?>
<svg width="572pt" height="572pt" version="1.1" viewBox="-18 -18 572.01 572" xmlns="http://www.w3.org/2000/svg">
 <g aria-label="!">
  <path d="m240.14 208.86v-80.479h50.299c-0.13322 27.39 0.2669 54.811-0.20086 82.181l-11.8 99.956h-24.532z" stroke-width="9.0362"/>
  <circle cx="265.76" cy="374.79" r="32.251" stroke-width="6.4605"/>
 </g>
 <g transform="matrix(1.1237 0 0 1.1237 -5.1892 -24.773)">
  <path d="m240.41 26.873c-30.514 0.53782-58.763 20.709-71.283 48.206-52.15 90.953-105.5 181.24-156.82 272.66-16.337 36.695 0.21846 84.223 36.248 102.43 16.784 9.2287 36.266 10.48 55.076 9.406 101.99-0.28661 204.01 0.69 305.99-0.53689 42.287-4.4427 76.179-46.992 70.299-89.268-1.7364-18.297-11.304-34.081-20.819-49.362-50.828-87.389-100.45-175.52-152.19-262.35-15.435-20.57-41.151-32.247-66.508-31.173zm2.3027 27.184c22.344-0.83809 42.703 14.732 51.293 34.776 51.698 90.093 104.41 179.63 155.41 270.1 12.742 29.402-7.9504 67.759-39.945 72.252-18.61 2.9484-37.439-0.0677-56.154 1.0793-91.711-0.28602-183.45 0.70106-275.14-0.54026-30.262-3.8528-52.515-37.877-42.875-67.074 5.7972-18.057 18.213-32.904 26.661-49.695 46.771-80.35 92.393-161.41 140.03-241.23 9.6877-12.249 25.134-19.602 40.723-19.668z"/>
 </g>
</svg>
