<?xml version="1.0" encoding="UTF-8"?>
<svg width="533pt" height="533pt" version="1.1" viewBox="-21 -16 533 533.34" xmlns="http://www.w3.org/2000/svg">
 <path d="m482.67 191.85c7.7305-5.8203 9.9062-16.484 5.082-24.871l-51.273-86.25c-6.3906-10.633-16.754-11.145-23.852-7.1211l-54.383 25.023c-12.109-8.8203-25.113-16.348-38.797-22.457l-5.4297-59.781c-0.050781-0.50781-0.14453-1.0078-0.27734-1.5039-2.0977-8.9102-9.5-14.891-18.004-14.891h-100.14c-9.625 0-17.797 7.1641-18.246 16.09l-5.4609 60.199c-15.531 6.9102-28.34 14.219-38.93 22.348l-54.531-25.113c-0.19141-0.085938-0.38672-0.18359-0.58203-0.26172-8.5234-3.4141-18.895 0-22.992 7.457l-50.105 86.25c-4.9023 8.4375-2.6523 19.211 5.2188 24.98 0.085937 0.0625 0.17187 0.125 0.25781 0.1875l49 34.836c-2.4414 14.902-2.4453 30.102-0.015625 45.008l-51.332 34.945c-0.16797 0.11328-0.32812 0.23047-0.49219 0.35156-7.6406 5.8203-9.7852 16.402-5.0117 24.738l50.082 86.195c0.03125 0.046874 0.058593 0.10156 0.09375 0.15625 2.2617 3.9609 5.8438 7 10.121 8.582 4.5664 1.5352 9.5781 0.98438 13.691-1.5078l54.406-25.027c12.109 8.8164 25.105 16.348 38.785 22.461l5.4375 59.793c0.054687 0.66016 0.14844 1.3203 0.27734 1.9688 2.1016 8.9062 9.5039 15.367 18.004 15.367h100.14c9.625 0 17.793-7.6289 18.254-16.559l5.4688-60.449c13.812-5.9297 26.879-13.469 38.926-22.461l54.516 25.059c0.21094 0.09375 0.41797 0.17188 0.63281 0.25391 8.4883 3.3477 18.84-0.078125 22.926-7.4727l50.129-86.273c4.9023-8.4062 2.6875-19.16-5.1445-24.941l-45.859-34.93c1.1523-7.5156 1.7695-15.102 1.8516-22.707-0.078125-7.5469-0.6875-15.086-1.832-22.551l49.117-34.922c0.09375-0.0625 0.17578-0.13281 0.27344-0.19922zm-70.078 19.156c-3.8086 2.7109-5.7852 7.3203-5.125 11.949l0.5 3.5547c1.2773 7.6094 1.9922 15.297 2.1445 23.012-0.14453 7.7109-0.85938 15.398-2.1367 23.004l-0.49609 3.4219c-0.64453 4.4883 1.1914 8.9766 4.8008 11.727l47.75 36.375-44.352 76.344-56.195-25.855c-4.3438-2.0078-9.4531-1.3555-13.16 1.6719l-2.8359 2.3242c-10.125 8.2852-23.164 15.793-39.859 22.953l-3.2109 1.375c-4.2383 1.9102-7.1211 5.9609-7.5234 10.598l-5.5547 61.535h-87.996l-5.5742-61.535c-0.41797-4.6055-3.2969-8.6211-7.5273-10.477l-3.2109-1.4336c-14.391-6.1445-27.973-14.023-40.453-23.461l-2.8008-2.1133c-3.6641-2.7617-8.5547-3.2812-12.723-1.3633l-56.039 25.773-44.219-76.098 49.883-33.957c0.097657-0.070312 0.19531-0.13672 0.29297-0.20703l3.0117-2.1836c3.7539-2.7188 5.6992-7.293 5.043-11.887l-0.51563-3.6328c-1.2695-7.5703-1.9844-15.223-2.1367-22.898 0.15625-7.7148 0.875-15.41 2.1562-23.02l0.49609-3.5469c0.66016-4.6289-1.3164-9.2383-5.1328-11.949l-50.828-36.145 44.262-76.191 56.207 25.848c4.3398 2 9.4375 1.3438 13.133-1.6797l2.8438-2.3242c10.141-8.293 23.18-15.805 39.848-22.949l3.2227-1.375c4.2031-1.7031 7.1055-5.6055 7.5273-10.121l5.5469-61.07h88l5.5703 61.062c0.42188 4.5469 3.3164 8.4883 7.5312 10.246l3.2148 1.3164c14.391 6.1133 27.98 13.973 40.457 23.395l2.8008 2.0859c3.6719 2.7578 8.5586 3.2773 12.73 1.3555l56.086-25.809 45.34 76.25z"/>
 <path d="m244.13 154.36c-43.475-0.68617-84.797 32.605-92.718 75.457-8.7017 39.95 10.42 84.988 47.054 104.16 38.769 21.46 92.292 12.561 120.35-22.311 29.367-34.924 29.339-91.29-1.719-125.18-18.201-20.495-45.483-32.841-72.97-32.126zm1.0332 28.566c33.086-1.0472 64.331 26.727 66.746 60.049 3.3873 30.871-16.49 62.876-46.859 71.297-29.845 9.2068-66.134-4.5136-79.904-33.41-15.63-30.445-4.6815-72.724 26.148-89.084 10.281-5.8529 22.154-8.8685 33.869-8.8516z" stroke-width=".66307"/>
</svg>
