<?xml version="1.0" encoding="UTF-8"?>
<svg width="532pt" height="532pt" version="1.1" viewBox="-27 -17 532 532" xmlns="http://www.w3.org/2000/svg">
  <path d="m408.42 22.73a15.973 15.973 0 0 0-15.721 16.2v138l-330.36 123.88a15.973 15.973 0 0 0-10.356 14.952v149.06a15.973 15.973 0 1 0 31.942 0v-138l330.36-123.88a15.973 15.973 0 0 0 10.356-14.952v-149.06a15.973 15.973 0 0 0-16.221-16.2z"/>
  <path d="m67.702 161.15a15.973 15.973 0 0 0-15.721 16.2v53.237a15.973 15.973 0 1 0 31.942 0v-53.237a15.973 15.973 0 0 0-16.221-16.2z" />
  <path d="m67.702 22.73a15.973 15.973 0 0 0-15.721 16.2v53.237a15.973 15.973 0 1 0 31.942 0v-53.237a15.973 15.973 0 0 0-16.221-16.2z" />
  <path d="m408.42 395.39a15.973 15.973 0 0 0-15.721 16.2v53.237a15.973 15.973 0 1 0 31.942 0v-53.237a15.973 15.973 0 0 0-16.221-16.2z" />
  <path d="m408.42 256.97a15.973 15.973 0 0 0-15.721 16.2v53.237a15.973 15.973 0 1 0 31.942 0v-53.237a15.973 15.973 0 0 0-16.221-16.2z" />
</svg>
