<?xml version="1.0" encoding="UTF-8"?>
<svg width="572pt" height="572pt" version="1.1" viewBox="-18 -18 572.01 572" xmlns="http://www.w3.org/2000/svg">
 <g stroke-width="4.2931">
  <path d="m248.54 133.41c-12.827 12.827-22.113 24.338-31.915 14.536-10.025-10.025 1.7088-19.088 14.536-31.915l55.81-55.596c59.255-58.96 130.88-63.89 190.13-4.9298l0.30076 0.34319c58.673 59.288 53.609 130.67-5.2304 189.79l-55.81 55.596c-12.827 12.827-22.088 24.364-31.915 14.536-10.256-10.256 1.7087-19.088 14.536-31.915l55.81-55.81c65.573-66.347 43.464-117.53 5.9905-156.25l-0.47224-0.47224c-40.932-37.734-99.078-53.033-156.12 6.2912l-55.596 55.81z"/>
  <path d="m336.65 174.99c13.038-11.363 19.179-24.143 31.38-11.886 12.201 12.258-0.67008 18.402-12.093 31.387l-159.96 159.96c-12.909 12.259-19.759 25.476-32.353 12.894-12.594-12.582 0.60498-19.432 12.852-32.352l160-160z"/>
  <path d="m134.68 246.64c12.827-12.827 24.338-22.113 14.536-31.915-10.025-10.025-19.088 1.7088-31.915 14.536l-55.596 55.81c-58.96 59.255-63.89 130.88-4.9298 190.13l0.34319 0.30076c59.288 58.673 130.67 53.609 189.79-5.2304l55.596-55.81c12.827-12.827 24.364-22.088 14.536-31.915-10.256-10.256-19.088 1.7087-31.915 14.536l-55.81 55.81c-66.347 65.573-117.53 43.464-156.25 5.9905l-0.47223-0.47224c-37.734-40.932-53.033-99.078 6.2912-156.12l55.81-55.596z"/>
 </g>
</svg>
