<?xml version="1.0" encoding="UTF-8"?>
<svg width="572pt" height="572pt" version="1.1" viewBox="-18 -18 572.01 572" xmlns="http://www.w3.org/2000/svg">
 <path d="m256.03 140.65c-12.827 12.827-26.513 19.938-39.34 7.1111-12.827-12.827-5.716-26.513 7.1112-39.34l55.81-55.596c59.255-58.96 138.3-56.465 197.55 2.4949l0.30076 0.34319c58.673 59.288 61.034 138.09 2.1944 197.21l-55.81 55.596c-12.827 12.827-26.513 19.938-39.34 7.1112-12.827-12.827-5.7161-26.513 7.1111-39.34l55.81-55.81c33.189-33.581 30.694-99.34-2.4949-132.92l-0.47224-0.47224c-33.648-33.021-99.309-35.382-132.79-2.1942l-55.596 55.81zm74.326 27.789c13.038-11.363 25.543-17.779 37.744-5.5217 12.201 12.258 5.694 24.766-5.7294 37.751l-159.96 159.96c-12.909 12.259-26.123 19.112-38.717 6.5301-12.594-12.582-5.7591-25.796 6.4877-38.716l160-160zm-53.406 222.47c12.92-12.247 26.134-19.082 38.717-6.4882 12.582 12.594 5.7287 25.808-6.5305 38.717l-54.522 54.565c-59.005 58.724-137.57 56.497-196.91-1.8939l-1.202-1.1592c-58.437-59.342-60.683-137.96-1.9368-196.99l54.522-54.394c12.567-13.965 27.156-21.673 40.471-8.4193 13.315 13.254 5.7081 27.845-8.1991 40.477l-54.565 54.565c-33.222 33.601-30.727 99.406 2.4949 133.01 33.592 33.326 99.501 35.821 133.09 2.4949z" stroke-width="4.2931"/>
</svg>
