<?xml version="1.0" encoding="UTF-8"?>
<svg width="586pt" height="586pt" version="1.1" viewBox="-82 -18 586 586.67" xmlns="http://www.w3.org/2000/svg">
 <path d="m273.01 3.8828-0.125-0.12891c-2.3594-2.4297-5.6094-3.7891-8.9961-3.75-0.46094-0.019531-0.92578 0.019531-1.3711 0.12891h-201.46c-35.883 0.011719-64.965 29.098-64.984 64.984v419.9c0.019531 35.883 29.102 64.965 64.984 64.984h292.18c35.887-0.019531 64.973-29.102 64.984-64.984v-331.05c-0.023437-3.3125-1.3203-6.4883-3.6211-8.8711zm3.375 38.613 99.477 99.223h-59.488c-22.059-0.0625-39.926-17.93-39.988-39.988zm76.855 482.26h-292.18c-22.062-0.0625-39.922-17.93-39.992-39.992v-419.9c0.070313-22.055 17.93-39.922 39.992-39.992h190.33v76.859c0.019531 35.883 29.105 64.969 64.984 64.984h76.859v318.05c-0.019531 22.082-17.91 39.973-39.992 39.992z"/>
 <path d="m313.54 310.88-194.69-106.31c-3.8773-2.3037-8.6838-2.3545-12.608-0.13275s-6.3567 6.3684-6.384 10.874v209.64c0.0312 4.4083 2.3545 8.4769 6.1263 10.745 3.7914 2.2412 8.4808 2.335 12.366 0.24989l194.7-103.33c3.9202-2.1631 6.3918-6.2473 6.4972-10.722 0.10153-4.4786-2.1827-8.6721-6.0014-11.015zm-188.57 93.089v-166.66l156.84 83.819z" stroke-width=".99957"/>
</svg>
