<?xml version="1.0" encoding="UTF-8"?>
<svg width="586pt" height="586pt" version="1.1" viewBox="-82 -18 586 586.67" xmlns="http://www.w3.org/2000/svg">
 <path d="m470.34 143.93c-8.4618-4.8854-18.887-4.8854-27.349 0l-96.543 47.588c-1.6194-44.135-37.883-79.069-82.047-79.039h-246.14c-45.314 0-82.047 36.734-82.047 82.047v164.09c0 45.314 36.734 82.047 82.047 82.047h246.14c44.164 0.0297 80.428-34.904 82.047-79.039l97.363 48.681c3.7279 1.9112 7.8449 2.9405 12.034 3.0084 5.1204 0.0164 10.143-1.405 14.495-4.1024 8.0129-5.008 12.873-13.798 12.854-23.247v-218.79c0.0189-9.4492-4.8412-18.239-12.854-23.247zm-148.56 214.69c0 15.105-8.002 57.383-57.383 57.383h-246.14c-47.624 0-57.383-42.279-57.383-57.383v-164.09c0-15.105 8.002-57.383 57.383-57.383h246.14c50.26 0 57.383 42.279 57.383 57.383zm136.75 28.095-112.08-56.041v-108.2l112.08-56.041z" stroke-width=".641"/>
</svg>
