<?xml version="1.0" encoding="UTF-8"?>
<svg width="565pt" height="565pt" version="1.1" viewBox="-33 -17 565 565.33" xmlns="http://www.w3.org/2000/svg">
 <path d="m248.83 42.024c-103 0-186.9 83.899-186.9 186.9v67.798h-8.4923c-29.984 0.0195-54.294 24.327-54.313 54.312v55.934c0.019534 29.984 24.329 54.284 54.313 54.312h48.82c6.8867-0.0195 12.465-5.6011 12.485-12.488v-139.59c-0.0195-6.8867-5.5982-12.464-12.485-12.483h-15.484v-67.798c0-89.27 72.66-161.93 161.93-161.93 89.273 0 161.94 72.663 161.94 161.93v67.798h-15.484c-6.8867 0.0195-12.468 5.5967-12.488 12.483v139.59c0.0195 6.8867 5.6011 12.468 12.488 12.488h48.937c29.992-0.0273 54.294-24.327 54.313-54.312v-55.81c0.0703-14.414-5.6133-28.26-15.781-38.479-10.168-10.211-23.985-15.957-38.403-15.957h-8.4923v-67.798c0-103-83.897-186.9-186.9-186.9zm159.06 279.67h36.335c16.191 0.0234 29.317 13.148 29.341 29.339v55.934c-0.0234 16.191-13.149 29.316-29.341 29.339h-36.335zm-354.45 0.12458h36.332v114.49h-36.332c-16.191-0.02344-29.317-13.148-29.341-29.339v-55.81c0.02344-16.195 13.149-29.316 29.341-29.339z"/>
</svg>
