<?xml version="1.0" encoding="UTF-8"?>
<svg width="533pt" height="533pt" version="1.1" viewBox="-45 -17 533 533.33" xmlns="http://www.w3.org/2000/svg">
 <path transform="matrix(.75046 0 0 .75046 -45.165 -17)" d="m353 50.74a16.255 16.255 0 0 0-16.256 16.256 16.255 16.255 0 0 0 16.256 16.254c157.82 0.001056 285.42 127.6 285.42 285.42 0 157.82-127.59 285.41-285.42 285.41v0.00195a16.255 16.255 0 0 0-16.256 16.254 16.255 16.255 0 0 0 16.256 16.256c175.39-0.00106 317.93-142.53 317.93-317.93 0-175.39-142.54-317.93-317.93-317.93z"/>
 <path transform="matrix(.75046 0 0 .75046 -45.165 -17)" d="m264.64 232.61c-1.4815-0.01561-2.9674 0.35332-4.3027 1.1094-2.6707 1.5121-4.3252 4.3337-4.3438 7.4004v255.11c0.02132 3.0002 1.6028 5.7705 4.1699 7.3144 2.5804 1.5254 5.7718 1.589 8.416 0.16992l224.49-121.43c2.6681-1.4722 4.3501-4.2514 4.4219-7.2969 0.06902-3.0481-1.485-5.9036-4.084-7.498l-224.49-133.67c-1.3194-0.78395-2.7978-1.1836-4.2793-1.1992z" stroke-width=".6803"/>
 <g shape-rendering="auto">
  <path d="m-0.52677 340.4c-2.9033-1.2826-5.1924-3.6463-6.3812-6.5892-19.91-62.677-12.105-106.68 0.98559-150.9 2.6162-6.1631 9.7332-9.0386 15.896-6.4226 6.1631 2.6162 9.0386 9.7332 6.4225 15.896-10.63 38.43-18.123 70.473-0.68321 132.29 2.5239 6.2467-0.49409 13.357-6.7408 15.88-3.0568 1.2352-6.4834 1.1805-9.4992-0.1516z"/>
  <path d="m27.381 125.11c-0.61461-3.1139 9e-3 -6.3448 1.7374-9.0066 39.922-52.26 80.443-71.104 124.18-85.747 6.5491-1.392 12.987 2.7886 14.379 9.3377 1.392 6.5491-2.7887 12.987-9.3378 14.379-37.578 13.335-68.124 25.576-108.76 75.318-3.6693 5.6504-11.225 7.2564-16.875 3.5869-2.7651-1.7955-4.6857-4.6338-5.3243-7.8682z"/>
  <path d="m26.628 393.44c-0.61461 3.1139 9e-3 6.3448 1.7374 9.0066 39.922 52.26 80.443 71.104 124.18 85.747 6.5491 1.392 12.987-2.7886 14.379-9.3377 1.392-6.5491-2.7887-12.987-9.3378-14.379-37.578-13.335-68.124-25.576-108.76-75.318-3.6693-5.6504-11.225-7.2563-16.875-3.5869-2.7651 1.7955-4.6857 4.6338-5.3243 7.8682z"/>
 </g>
</svg>
