<?xml version="1.0" encoding="UTF-8"?>
<svg width="573pt" height="573pt" version="1.1" viewBox="-18 -38 573.34 573" xmlns="http://www.w3.org/2000/svg">
 <path d="m306.96 0.76562c-5.8008-2.9922-12.781-2.5078-18.117 1.25l-179.4 126.18h-46.977c-34.496 0.007812-62.453 27.973-62.469 62.465v114.07c0.015625 34.496 27.973 62.453 62.469 62.469h46.977l179.4 126.18c5.3203 3.7734 12.297 4.2617 18.09 1.2656 5.7891-3.0039 9.4141-8.9844 9.3945-15.512v-462.75c0.10938-6.5703-3.5234-12.625-9.3672-15.617zm-15.492 463.75-166.91-117.31c-2.3555-3.2344-6.1211-5.1367-10.117-5.125h-51.973c-20.676-0.058594-37.422-16.809-37.48-37.48v-114.07c0.058594-20.672 16.805-37.418 37.48-37.48h51.973c3.9922-0.015625 7.7422-1.9141 10.117-5.1211l166.91-117.32z"/>
 <path d="m538.12 247.41c3e-3 -3.3063-1.3092-6.4745-3.646-8.8112-2.3368-2.3368-5.5077-3.6515-8.8112-3.646h-66.189l-1e-5 -66.189c3e-3 -6.875-5.574-12.452-12.454-12.454-6.8805-3e-3 -12.457 5.574-12.457 12.457l-1e-5 66.189-66.189 1e-5c-3.3063-8e-3 -6.4744 1.3037-8.8084 3.6377-2.3423 2.3423-3.6516 5.5077-3.646 8.8167-0.0111 3.3256 1.3258 6.5131 3.7068 8.8333 2.3588 2.3368 5.5215 3.6653 8.8361 3.7095h66.189v66.189c-0.0111 3.3256 1.3286 6.5159 3.7068 8.8333 2.3561 2.334 5.5215 3.6654 8.8388 3.7123 3.3035 0 6.4744-1.3037 8.8167-3.646 2.334-2.334 3.6405-5.5077 3.6377-8.8084l-0.35079-66.369 66.187 3e-3c3.3339 0.0414 6.5435-1.2568 8.9162-3.5963 2.3699-2.3368 3.7123-5.5298 3.7178-8.8609z"/>
</svg>
