<?xml version="1.0" encoding="UTF-8"?>
<svg width="573pt" height="573pt" version="1.1" viewBox="-18 -38 573.34 573" xmlns="http://www.w3.org/2000/svg">
 <path d="m306.96 0.76562c-5.8008-2.9922-12.781-2.5078-18.117 1.25l-179.4 126.18h-46.977c-34.496 0.007812-62.453 27.973-62.469 62.465v114.07c0.015625 34.496 27.973 62.453 62.469 62.469h46.977l179.4 126.18c5.3203 3.7734 12.297 4.2617 18.09 1.2656 5.7891-3.0039 9.4141-8.9844 9.3945-15.512v-462.75c0.10938-6.5703-3.5234-12.625-9.3672-15.617zm-15.492 463.75-166.91-117.31c-2.3555-3.2344-6.1211-5.1367-10.117-5.125h-51.973c-20.676-0.058594-37.422-16.809-37.48-37.48v-114.07c0.058594-20.672 16.805-37.418 37.48-37.48h51.973c3.9922-0.015625 7.7422-1.9141 10.117-5.1211l166.91-117.32z"/>
 <path transform="matrix(.75044 0 0 .75044 -18 -38.168)" d="m603.06 363.95v0.00391h-88.201c-4.4058-0.01066-8.6262 1.7375-11.736 4.8477-3.1212 3.1212-4.8668 7.3386-4.8594 11.748-0.01479 4.4316 1.7667 8.6797 4.9394 11.771 3.1433 3.1139 7.3586 4.8845 11.775 4.9434h32.688 55.512 32.848v-0.11915l88.197 0.00391c4.4426 0.05517 8.7192-1.6735 11.881-4.791 3.158-3.1139 4.9458-7.3697 4.9531-11.809 4e-3 -4.4058-1.7436-8.6264-4.8574-11.74-3.1139-3.1139-7.3401-4.8668-11.742-4.8594h-34.979-53.223-33.195z" stroke-width="1.3326"/>
</svg>
