<?xml version="1.0" encoding="UTF-8"?>
<svg width="573pt" height="573pt" version="1.1" viewBox="-18 -38 573.34 573" xmlns="http://www.w3.org/2000/svg">
 <path d="m306.96 0.76562c-5.8008-2.9922-12.781-2.5078-18.117 1.25l-179.4 126.18h-46.977c-34.496 0.007812-62.453 27.973-62.469 62.465v114.07c0.015625 34.496 27.973 62.453 62.469 62.469h46.977l179.4 126.18c5.3203 3.7734 12.297 4.2617 18.09 1.2656 5.7891-3.0039 9.4141-8.9844 9.3945-15.512v-462.75c0.10938-6.5703-3.5234-12.625-9.3672-15.617zm-15.492 463.75-166.91-117.31c-2.3555-3.2344-6.1211-5.1367-10.117-5.125h-51.973c-20.676-0.058594-37.422-16.809-37.48-37.48v-114.07c0.058594-20.672 16.805-37.418 37.48-37.48h51.973c3.9922-0.015625 7.7422-1.9141 10.117-5.1211l166.91-117.32z"/>
 <path d="m447.02 157.26c-49.665 0-90.154 40.543-90.154 90.242s40.489 90.242 90.154 90.242 90.156-40.543 90.156-90.242-40.491-90.242-90.156-90.242zm0 22.512c37.485 0 67.643 30.184 67.643 67.73s-30.158 67.73-67.643 67.73-67.643-30.184-67.643-67.73 30.158-67.73 67.643-67.73z"/>
</svg>
