<?xml version="1.0" encoding="UTF-8"?>
<svg width="426pt" height="426pt" version="1.1" viewBox="-36 -13 426 426.67" xmlns="http://www.w3.org/2000/svg">
 <g stroke-width="1.001">
  <path d="m341.26 0.0034556c-6.904 0.01257-12.487 5.632-12.471 12.536l9.2e-4 0.02342-0.0475 374.7c0.0292 6.9093 5.6526 12.492 12.563 12.466 6.9099-0.0254 12.488-5.648 12.466-12.563l0.0526-374.69c-0.026-6.9137-5.6498-12.5-12.556-12.475z"/>
  <path d="m251.12 0.0034556c-6.904 0.01257-12.487 5.632-12.471 12.536l9.2e-4 0.02342-0.0475 374.7c0.0292 6.9093 5.6526 12.492 12.563 12.466 6.9099-0.0254 12.488-5.648 12.466-12.563l0.0526-374.69c-0.026-6.9137-5.6498-12.5-12.556-12.475z"/>
  <path d="m11.349 0.0034806c-6.904 0.0126-12.487 5.632-12.471 12.536l9.2e-4 0.0234-0.0475 374.7c0.0292 6.9093 5.6526 12.492 12.563 12.466 6.9099-0.0254 12.488-5.648 12.466-12.563l0.0526-374.69c-0.026-6.9137-5.6498-12.5-12.556-12.475z"/>
  <path d="m176.98 223.21c-4.8908 4.873-12.812 4.8471-17.682-0.046l-0.0159-0.0172-156.82-201.82c-4.865-4.9063-4.8361-12.83 0.0686-17.698 4.904-4.8681 12.824-4.8364 17.698 0.0686l156.82 201.81c4.8704 4.9071 4.8437 12.834-0.0573 17.699z"/>
  <path d="m176.98 206.56c-4.8908-4.873-12.812-4.8471-17.682 0.046l-0.0159 0.0172-156.82 171.78c-4.865 4.9063-4.8361 12.83 0.0686 17.698 4.904 4.8681 12.824 4.8364 17.698-0.0686l156.82-171.76c4.8704-4.9071 4.8437-12.834-0.0573-17.699z"/>
 </g>
</svg>
