<?xml version="1.0" encoding="UTF-8"?>
<svg width="532pt" height="532pt" version="1.1" viewBox="-27 -17 532 532" xmlns="http://www.w3.org/2000/svg">
 <g stroke-width="1.001">
  <path d="m487 77.015c-0.03662-31.474-25.544-56.981-57.018-57.018h-383.39c-31.47 0.03658-56.977 25.544-57.014 57.018v349.72c0.03658 31.474 25.544 56.981 57.014 57.018h383.39c31.474-0.0366 56.981-25.544 57.018-57.018 0.0244-114.77 0.078-240.48 0-349.72zm-440.41-31.059h383.39c17.147 0.02032 31.039 13.912 31.059 31.059v71.178h-445.5v-71.174c0.016258-17.147 13.916-31.043 31.055-31.063zm383.39 411.84h-383.39c-17.139-0.02032-31.035-13.912-31.055-31.059v-278.54h445.5v278.54c-0.0203 17.147-13.912 31.039-31.059 31.059z"/>
  <path d="m56.179 278c5.311 5.311 13.918 5.311 19.224 0l31.175-31.18v62.352c0 52.479 42.693 95.172 95.172 95.172h40.792c7.5067 0 13.596-6.0935 13.596-13.596 0-7.5067-6.0935-13.596-13.596-13.596h-40.792c-37.486 0-67.982-30.496-67.982-67.982v-62.352l31.175 31.175c5.311 5.311 13.918 5.311 19.224 0 5.311-5.311 5.311-13.918 0-19.224l-54.386-54.386c-2.6508-2.6555-6.122-3.9785-9.6027-3.9785s-6.9565 1.3278-9.6122 3.9832l-54.386 54.386c-5.311 5.3064-5.311 13.913 0 19.224z" />
  <path d="m419.2 224.88c-5.311-5.311-13.918-5.311-19.224 0l-31.175 31.18v-62.352c0-52.479-42.693-95.172-95.172-95.172h-40.792c-7.5067 0-13.596 6.0935-13.596 13.596 0 7.5067 6.0935 13.596 13.596 13.596h40.792c37.486 0 67.982 30.496 67.982 67.982v62.352l-31.175-31.175c-5.311-5.311-13.918-5.311-19.224 0-5.311 5.311-5.311 13.918 0 19.224l54.386 54.386c2.6508 2.6555 6.122 3.9785 9.6026 3.9785 3.4807 0 6.9566-1.3278 9.6122-3.9832l54.386-54.386c5.311-5.3064 5.311-13.913 0-19.224z" />
 </g>
</svg>
