<?xml version="1.0" encoding="UTF-8"?>
<svg width="532pt" height="532pt" version="1.1" viewBox="-27 -17 532 532" xmlns="http://www.w3.org/2000/svg">
 <path d="m92.995 106.78 6.93e-4 -2e-3s-56.206-0.0636-78.73-0.0461v33.77h78.751c0.0171 72.805-0.21396 144.7 0 217.5 1.1448 16.911 13.757 28.889 30.001 33.751 6.6921 2.184 15.55 3.8486 22.5 3.75 68.993-0.0118 133.51 2e-3 202.5 0v78.751h33.751v-78.751h78.751v-33.751h-333.75v-333.75h-33.772v78.779zm245.46-0.0278h-170.43v33.751h180v180h33.751c-0.0177-58.155 0.20889-118.1 0-176.25-0.40037-6.2702-1.6305-12.399-4.9627-17.911-5.4319-9.1615-14.142-14.957-24.432-17.847-4.3482-1.2825-9.2692-1.9255-13.928-1.7425z" stroke-width="1.9651"/>
</svg>
